<?xml version="1.0" encoding="UTF-8" standalone="no"?>
<!DOCTYPE svg PUBLIC "-//W3C//DTD SVG 1.1//EN"
 "http://www.w3.org/Graphics/SVG/1.1/DTD/svg11.dtd">
<!-- Generated by graphviz version 2.43.0 (0)
 -->
<!-- Title: pastafarianism Pages: 1 -->
<svg width="1273pt" height="327pt"
 viewBox="0.00 0.00 1273.18 326.85" xmlns="http://www.w3.org/2000/svg" xmlns:xlink="http://www.w3.org/1999/xlink">
<g id="graph0" class="graph" transform="scale(1 1) rotate(0) translate(4 322.85)">
<title>pastafarianism</title>
<polygon fill="white" stroke="transparent" points="-4,4 -4,-322.85 1269.18,-322.85 1269.18,4 -4,4"/>
<!-- 0ffc099d&#45;dc2a&#45;4dec&#45;a162&#45;04341e726f11 -->
<g id="node1" class="node">
<title>0ffc099d&#45;dc2a&#45;4dec&#45;a162&#45;04341e726f11</title>
<polygon fill="#b0ffff" stroke="black" points="573.18,-318.85 537.18,-318.85 537.18,-288.85 573.18,-288.85 573.18,-318.85"/>
<text text-anchor="middle" x="555.18" y="-298.85" font-family="Times,serif" font-size="20.00"> ? </text>
</g>
<!-- afc5f1f5&#45;12e2&#45;4885&#45;8535&#45;9c1b3f487ab6 -->
<g id="node2" class="node">
<title>afc5f1f5&#45;12e2&#45;4885&#45;8535&#45;9c1b3f487ab6</title>
<polygon fill="#ff8080" stroke="black" points="435.68,-252.85 398.68,-252.85 398.68,-222.85 435.68,-222.85 435.68,-252.85"/>
<text text-anchor="middle" x="417.18" y="-232.85" font-family="Times,serif" font-size="20.00">→</text>
</g>
<!-- 0ffc099d&#45;dc2a&#45;4dec&#45;a162&#45;04341e726f11&#45;&gt;afc5f1f5&#45;12e2&#45;4885&#45;8535&#45;9c1b3f487ab6 -->
<g id="edge1" class="edge">
<title>0ffc099d&#45;dc2a&#45;4dec&#45;a162&#45;04341e726f11&#45;&gt;afc5f1f5&#45;12e2&#45;4885&#45;8535&#45;9c1b3f487ab6</title>
<path fill="none" stroke="black" d="M537.14,-294.49C513.74,-283.64 472.68,-264.59 445.21,-251.85"/>
<polygon fill="black" stroke="black" points="446.65,-248.66 436.11,-247.63 443.71,-255.01 446.65,-248.66"/>
</g>
<!-- 437b9a37&#45;c026&#45;49c8&#45;af71&#45;27cc7ea7e577 -->
<g id="node5" class="node">
<title>437b9a37&#45;c026&#45;49c8&#45;af71&#45;27cc7ea7e577</title>
<polygon fill="#ff8080" stroke="black" points="711.68,-252.85 674.68,-252.85 674.68,-222.85 711.68,-222.85 711.68,-252.85"/>
<text text-anchor="middle" x="693.18" y="-232.85" font-family="Times,serif" font-size="20.00">→</text>
</g>
<!-- 0ffc099d&#45;dc2a&#45;4dec&#45;a162&#45;04341e726f11&#45;&gt;437b9a37&#45;c026&#45;49c8&#45;af71&#45;27cc7ea7e577 -->
<g id="edge4" class="edge">
<title>0ffc099d&#45;dc2a&#45;4dec&#45;a162&#45;04341e726f11&#45;&gt;437b9a37&#45;c026&#45;49c8&#45;af71&#45;27cc7ea7e577</title>
<path fill="none" stroke="black" d="M573.22,-294.49C596.62,-283.64 637.68,-264.59 665.15,-251.85"/>
<polygon fill="black" stroke="black" points="666.65,-255.01 674.25,-247.63 663.7,-248.66 666.65,-255.01"/>
</g>
<!-- 7fdf707e&#45;afae&#45;4fa5&#45;abce&#45;7d5c974b34bd -->
<g id="node3" class="node">
<title>7fdf707e&#45;afae&#45;4fa5&#45;abce&#45;7d5c974b34bd</title>
<ellipse fill="#ffff80" stroke="black" cx="137.18" cy="-165.64" rx="137.36" ry="21.43"/>
<text text-anchor="middle" x="137.18" y="-160.64" font-family="Times,serif" font-size="20.00">IsOpened(microwave)</text>
</g>
<!-- afc5f1f5&#45;12e2&#45;4885&#45;8535&#45;9c1b3f487ab6&#45;&gt;7fdf707e&#45;afae&#45;4fa5&#45;abce&#45;7d5c974b34bd -->
<g id="edge2" class="edge">
<title>afc5f1f5&#45;12e2&#45;4885&#45;8535&#45;9c1b3f487ab6&#45;&gt;7fdf707e&#45;afae&#45;4fa5&#45;abce&#45;7d5c974b34bd</title>
<path fill="none" stroke="black" d="M398.37,-232.14C361.71,-222.94 278.79,-202.15 216.14,-186.44"/>
<polygon fill="black" stroke="black" points="216.82,-183 206.27,-183.97 215.12,-189.79 216.82,-183"/>
</g>
<!-- 07ff15fb&#45;722b&#45;4d1c&#45;a090&#45;233e601ba837 -->
<g id="node4" class="node">
<title>07ff15fb&#45;722b&#45;4d1c&#45;a090&#45;233e601ba837</title>
<ellipse fill="#ffff80" stroke="black" cx="417.18" cy="-165.64" rx="125.32" ry="21.43"/>
<text text-anchor="middle" x="417.18" y="-160.64" font-family="Times,serif" font-size="20.00">IsSwitchedOn(light)</text>
</g>
<!-- afc5f1f5&#45;12e2&#45;4885&#45;8535&#45;9c1b3f487ab6&#45;&gt;07ff15fb&#45;722b&#45;4d1c&#45;a090&#45;233e601ba837 -->
<g id="edge3" class="edge">
<title>afc5f1f5&#45;12e2&#45;4885&#45;8535&#45;9c1b3f487ab6&#45;&gt;07ff15fb&#45;722b&#45;4d1c&#45;a090&#45;233e601ba837</title>
<path fill="none" stroke="black" d="M417.18,-222.64C417.18,-215.27 417.18,-205.96 417.18,-197.07"/>
<polygon fill="black" stroke="black" points="420.68,-196.95 417.18,-186.95 413.68,-196.95 420.68,-196.95"/>
</g>
<!-- a7401044&#45;d040&#45;40a9&#45;a309&#45;868ad56c8aa9 -->
<g id="node6" class="node">
<title>a7401044&#45;d040&#45;40a9&#45;a309&#45;868ad56c8aa9</title>
<ellipse fill="#ffff80" stroke="black" cx="693.18" cy="-165.64" rx="132.87" ry="21.43"/>
<text text-anchor="middle" x="693.18" y="-160.64" font-family="Times,serif" font-size="20.00">IsClosed(microwave)</text>
</g>
<!-- 437b9a37&#45;c026&#45;49c8&#45;af71&#45;27cc7ea7e577&#45;&gt;a7401044&#45;d040&#45;40a9&#45;a309&#45;868ad56c8aa9 -->
<g id="edge5" class="edge">
<title>437b9a37&#45;c026&#45;49c8&#45;af71&#45;27cc7ea7e577&#45;&gt;a7401044&#45;d040&#45;40a9&#45;a309&#45;868ad56c8aa9</title>
<path fill="none" stroke="black" d="M693.18,-222.64C693.18,-215.27 693.18,-205.96 693.18,-197.07"/>
<polygon fill="black" stroke="black" points="696.68,-196.95 693.18,-186.95 689.68,-196.95 696.68,-196.95"/>
</g>
<!-- dbbff14b&#45;ca72&#45;44d0&#45;a112&#45;75beafc6af8f -->
<g id="node7" class="node">
<title>dbbff14b&#45;ca72&#45;44d0&#45;a112&#45;75beafc6af8f</title>
<polygon fill="#b0ffff" stroke="black" points="880.18,-180.64 844.18,-180.64 844.18,-150.64 880.18,-150.64 880.18,-180.64"/>
<text text-anchor="middle" x="862.18" y="-160.64" font-family="Times,serif" font-size="20.00"> ? </text>
</g>
<!-- 437b9a37&#45;c026&#45;49c8&#45;af71&#45;27cc7ea7e577&#45;&gt;dbbff14b&#45;ca72&#45;44d0&#45;a112&#45;75beafc6af8f -->
<g id="edge6" class="edge">
<title>437b9a37&#45;c026&#45;49c8&#45;af71&#45;27cc7ea7e577&#45;&gt;dbbff14b&#45;ca72&#45;44d0&#45;a112&#45;75beafc6af8f</title>
<path fill="none" stroke="black" d="M711.86,-232.23C739.74,-224.91 793.45,-209.14 835.18,-186.85 835.59,-186.63 836.01,-186.41 836.42,-186.17"/>
<polygon fill="black" stroke="black" points="838.43,-189.04 844.98,-180.71 834.66,-183.14 838.43,-189.04"/>
</g>
<!-- 8803cba5&#45;6e57&#45;4f7d&#45;bc94&#45;f97032f8b791 -->
<g id="node8" class="node">
<title>8803cba5&#45;6e57&#45;4f7d&#45;bc94&#45;f97032f8b791</title>
<polygon fill="#ff8080" stroke="black" points="767.68,-108.43 730.68,-108.43 730.68,-78.43 767.68,-78.43 767.68,-108.43"/>
<text text-anchor="middle" x="749.18" y="-88.43" font-family="Times,serif" font-size="20.00">→</text>
</g>
<!-- dbbff14b&#45;ca72&#45;44d0&#45;a112&#45;75beafc6af8f&#45;&gt;8803cba5&#45;6e57&#45;4f7d&#45;bc94&#45;f97032f8b791 -->
<g id="edge7" class="edge">
<title>dbbff14b&#45;ca72&#45;44d0&#45;a112&#45;75beafc6af8f&#45;&gt;8803cba5&#45;6e57&#45;4f7d&#45;bc94&#45;f97032f8b791</title>
<path fill="none" stroke="black" d="M844.09,-150.65C841.15,-148.51 838.11,-146.37 835.18,-144.43 816.22,-131.88 794.02,-119.02 776.93,-109.48"/>
<polygon fill="black" stroke="black" points="778.45,-106.32 768.01,-104.55 775.07,-112.45 778.45,-106.32"/>
</g>
<!-- 39ddf609&#45;d2e8&#45;45a7&#45;9e3b&#45;7fbeeef8faf5 -->
<g id="node11" class="node">
<title>39ddf609&#45;d2e8&#45;45a7&#45;9e3b&#45;7fbeeef8faf5</title>
<polygon fill="#ff8080" stroke="black" points="993.68,-108.43 956.68,-108.43 956.68,-78.43 993.68,-78.43 993.68,-108.43"/>
<text text-anchor="middle" x="975.18" y="-88.43" font-family="Times,serif" font-size="20.00">→</text>
</g>
<!-- dbbff14b&#45;ca72&#45;44d0&#45;a112&#45;75beafc6af8f&#45;&gt;39ddf609&#45;d2e8&#45;45a7&#45;9e3b&#45;7fbeeef8faf5 -->
<g id="edge10" class="edge">
<title>dbbff14b&#45;ca72&#45;44d0&#45;a112&#45;75beafc6af8f&#45;&gt;39ddf609&#45;d2e8&#45;45a7&#45;9e3b&#45;7fbeeef8faf5</title>
<path fill="none" stroke="black" d="M880.33,-153.36C898.49,-142.08 926.63,-124.59 947.56,-111.59"/>
<polygon fill="black" stroke="black" points="949.67,-114.4 956.31,-106.15 945.97,-108.45 949.67,-114.4"/>
</g>
<!-- 5c828cd1&#45;df6f&#45;464c&#45;b3b2&#45;28e0569534a5 -->
<g id="node9" class="node">
<title>5c828cd1&#45;df6f&#45;464c&#45;b3b2&#45;28e0569534a5</title>
<ellipse fill="#ffff80" stroke="black" cx="525.18" cy="-21.21" rx="125.32" ry="21.43"/>
<text text-anchor="middle" x="525.18" y="-16.21" font-family="Times,serif" font-size="20.00">IsSwitchedOn(light)</text>
</g>
<!-- 8803cba5&#45;6e57&#45;4f7d&#45;bc94&#45;f97032f8b791&#45;&gt;5c828cd1&#45;df6f&#45;464c&#45;b3b2&#45;28e0569534a5 -->
<g id="edge8" class="edge">
<title>8803cba5&#45;6e57&#45;4f7d&#45;bc94&#45;f97032f8b791&#45;&gt;5c828cd1&#45;df6f&#45;464c&#45;b3b2&#45;28e0569534a5</title>
<path fill="none" stroke="black" d="M730.47,-86.56C700.36,-77.13 639.74,-58.12 592.15,-43.2"/>
<polygon fill="black" stroke="black" points="593.1,-39.83 582.51,-40.18 591,-46.51 593.1,-39.83"/>
</g>
<!-- 9374761e&#45;cfa5&#45;45f3&#45;80b4&#45;f23a8600f1bf -->
<g id="node10" class="node">
<title>9374761e&#45;cfa5&#45;45f3&#45;80b4&#45;f23a8600f1bf</title>
<polygon fill="lightgreen" stroke="black" points="829.68,-39.21 668.68,-39.21 668.68,-3.21 829.68,-3.21 829.68,-39.21"/>
<text text-anchor="middle" x="749.18" y="-16.21" font-family="Times,serif" font-size="20.00">Open(microwave)</text>
</g>
<!-- 8803cba5&#45;6e57&#45;4f7d&#45;bc94&#45;f97032f8b791&#45;&gt;9374761e&#45;cfa5&#45;45f3&#45;80b4&#45;f23a8600f1bf -->
<g id="edge9" class="edge">
<title>8803cba5&#45;6e57&#45;4f7d&#45;bc94&#45;f97032f8b791&#45;&gt;9374761e&#45;cfa5&#45;45f3&#45;80b4&#45;f23a8600f1bf</title>
<path fill="none" stroke="black" d="M749.18,-78.22C749.18,-69.98 749.18,-59.32 749.18,-49.52"/>
<polygon fill="black" stroke="black" points="752.68,-49.38 749.18,-39.38 745.68,-49.38 752.68,-49.38"/>
</g>
<!-- 5cb30b03&#45;ca01&#45;4498&#45;9749&#45;ca817584f53d -->
<g id="node12" class="node">
<title>5cb30b03&#45;ca01&#45;4498&#45;9749&#45;ca817584f53d</title>
<ellipse fill="#ffff80" stroke="black" cx="975.18" cy="-21.21" rx="127.97" ry="21.43"/>
<text text-anchor="middle" x="975.18" y="-16.21" font-family="Times,serif" font-size="20.00">IsSwitchedOff(light)</text>
</g>
<!-- 39ddf609&#45;d2e8&#45;45a7&#45;9e3b&#45;7fbeeef8faf5&#45;&gt;5cb30b03&#45;ca01&#45;4498&#45;9749&#45;ca817584f53d -->
<g id="edge11" class="edge">
<title>39ddf609&#45;d2e8&#45;45a7&#45;9e3b&#45;7fbeeef8faf5&#45;&gt;5cb30b03&#45;ca01&#45;4498&#45;9749&#45;ca817584f53d</title>
<path fill="none" stroke="black" d="M975.18,-78.22C975.18,-70.84 975.18,-61.54 975.18,-52.64"/>
<polygon fill="black" stroke="black" points="978.68,-52.52 975.18,-42.52 971.68,-52.52 978.68,-52.52"/>
</g>
<!-- 886e362d&#45;9e27&#45;4912&#45;8b5a&#45;1c7df44795c8 -->
<g id="node13" class="node">
<title>886e362d&#45;9e27&#45;4912&#45;8b5a&#45;1c7df44795c8</title>
<polygon fill="lightgreen" stroke="black" points="1265.18,-39.21 1121.18,-39.21 1121.18,-3.21 1265.18,-3.21 1265.18,-39.21"/>
<text text-anchor="middle" x="1193.18" y="-16.21" font-family="Times,serif" font-size="20.00">SwitchOn(light)</text>
</g>
<!-- 39ddf609&#45;d2e8&#45;45a7&#45;9e3b&#45;7fbeeef8faf5&#45;&gt;886e362d&#45;9e27&#45;4912&#45;8b5a&#45;1c7df44795c8 -->
<g id="edge12" class="edge">
<title>39ddf609&#45;d2e8&#45;45a7&#45;9e3b&#45;7fbeeef8faf5&#45;&gt;886e362d&#45;9e27&#45;4912&#45;8b5a&#45;1c7df44795c8</title>
<path fill="none" stroke="black" d="M993.77,-86.44C1023.76,-76.78 1084.17,-57.32 1130.67,-42.34"/>
<polygon fill="black" stroke="black" points="1131.93,-45.62 1140.37,-39.22 1129.78,-38.96 1131.93,-45.62"/>
</g>
</g>
</svg>
