<?xml version="1.0" encoding="UTF-8" standalone="no"?>
<!DOCTYPE svg PUBLIC "-//W3C//DTD SVG 1.1//EN"
 "http://www.w3.org/Graphics/SVG/1.1/DTD/svg11.dtd">
<!-- Generated by graphviz version 2.43.0 (0)
 -->
<!-- Title: pastafarianism Pages: 1 -->
<svg width="1753pt" height="471pt"
 viewBox="0.00 0.00 1752.87 471.28" xmlns="http://www.w3.org/2000/svg" xmlns:xlink="http://www.w3.org/1999/xlink">
<g id="graph0" class="graph" transform="scale(1 1) rotate(0) translate(4 467.28)">
<title>pastafarianism</title>
<polygon fill="white" stroke="transparent" points="-4,4 -4,-467.28 1748.87,-467.28 1748.87,4 -4,4"/>
<!-- 4e0ccfcf&#45;4562&#45;49e9&#45;9e7a&#45;22401a095769 -->
<g id="node1" class="node">
<title>4e0ccfcf&#45;4562&#45;49e9&#45;9e7a&#45;22401a095769</title>
<polygon fill="#b0ffff" stroke="black" points="634.87,-463.28 598.87,-463.28 598.87,-433.28 634.87,-433.28 634.87,-463.28"/>
<text text-anchor="middle" x="616.87" y="-443.28" font-family="Times,serif" font-size="20.00"> ? </text>
</g>
<!-- 94b4d3f2&#45;a094&#45;4ede&#45;82b1&#45;f77ff3c2e979 -->
<g id="node2" class="node">
<title>94b4d3f2&#45;a094&#45;4ede&#45;82b1&#45;f77ff3c2e979</title>
<polygon fill="#ff8080" stroke="black" points="361.37,-397.28 324.37,-397.28 324.37,-367.28 361.37,-367.28 361.37,-397.28"/>
<text text-anchor="middle" x="342.87" y="-377.28" font-family="Times,serif" font-size="20.00">→</text>
</g>
<!-- 4e0ccfcf&#45;4562&#45;49e9&#45;9e7a&#45;22401a095769&#45;&gt;94b4d3f2&#45;a094&#45;4ede&#45;82b1&#45;f77ff3c2e979 -->
<g id="edge1" class="edge">
<title>4e0ccfcf&#45;4562&#45;49e9&#45;9e7a&#45;22401a095769&#45;&gt;94b4d3f2&#45;a094&#45;4ede&#45;82b1&#45;f77ff3c2e979</title>
<path fill="none" stroke="black" d="M598.47,-442.98C551.69,-432.05 427.95,-403.15 371.58,-389.98"/>
<polygon fill="black" stroke="black" points="372.09,-386.51 361.56,-387.64 370.5,-393.33 372.09,-386.51"/>
</g>
<!-- 2263cf3f&#45;fe31&#45;455d&#45;a0ed&#45;dc400517d8fc -->
<g id="node5" class="node">
<title>2263cf3f&#45;fe31&#45;455d&#45;a0ed&#45;dc400517d8fc</title>
<polygon fill="#ff8080" stroke="black" points="635.37,-397.28 598.37,-397.28 598.37,-367.28 635.37,-367.28 635.37,-397.28"/>
<text text-anchor="middle" x="616.87" y="-377.28" font-family="Times,serif" font-size="20.00">→</text>
</g>
<!-- 4e0ccfcf&#45;4562&#45;49e9&#45;9e7a&#45;22401a095769&#45;&gt;2263cf3f&#45;fe31&#45;455d&#45;a0ed&#45;dc400517d8fc -->
<g id="edge4" class="edge">
<title>4e0ccfcf&#45;4562&#45;49e9&#45;9e7a&#45;22401a095769&#45;&gt;2263cf3f&#45;fe31&#45;455d&#45;a0ed&#45;dc400517d8fc</title>
<path fill="none" stroke="black" d="M616.87,-433.08C616.87,-425.62 616.87,-416.27 616.87,-407.69"/>
<polygon fill="black" stroke="black" points="620.37,-407.44 616.87,-397.44 613.37,-407.44 620.37,-407.44"/>
</g>
<!-- 7ec9662d&#45;89cf&#45;4720&#45;a3e7&#45;877a63849e9a -->
<g id="node23" class="node">
<title>7ec9662d&#45;89cf&#45;4720&#45;a3e7&#45;877a63849e9a</title>
<polygon fill="#ff8080" stroke="black" points="1180.37,-397.28 1143.37,-397.28 1143.37,-367.28 1180.37,-367.28 1180.37,-397.28"/>
<text text-anchor="middle" x="1161.87" y="-377.28" font-family="Times,serif" font-size="20.00">→</text>
</g>
<!-- 4e0ccfcf&#45;4562&#45;49e9&#45;9e7a&#45;22401a095769&#45;&gt;7ec9662d&#45;89cf&#45;4720&#45;a3e7&#45;877a63849e9a -->
<g id="edge22" class="edge">
<title>4e0ccfcf&#45;4562&#45;49e9&#45;9e7a&#45;22401a095769&#45;&gt;7ec9662d&#45;89cf&#45;4720&#45;a3e7&#45;877a63849e9a</title>
<path fill="none" stroke="black" d="M635.01,-445.15C714.76,-435.78 1034.75,-398.21 1133.02,-386.67"/>
<polygon fill="black" stroke="black" points="1133.59,-390.12 1143.11,-385.48 1132.77,-383.17 1133.59,-390.12"/>
</g>
<!-- 3a1ab516&#45;4396&#45;4503&#45;bef5&#45;4e7fa3de19b3 -->
<g id="node3" class="node">
<title>3a1ab516&#45;4396&#45;4503&#45;bef5&#45;4e7fa3de19b3</title>
<ellipse fill="#ffff80" stroke="black" cx="132.87" cy="-310.07" rx="91.85" ry="21.43"/>
<text text-anchor="middle" x="132.87" y="-305.07" font-family="Times,serif" font-size="20.00">Open(cabinet)</text>
</g>
<!-- 94b4d3f2&#45;a094&#45;4ede&#45;82b1&#45;f77ff3c2e979&#45;&gt;3a1ab516&#45;4396&#45;4503&#45;bef5&#45;4e7fa3de19b3 -->
<g id="edge2" class="edge">
<title>94b4d3f2&#45;a094&#45;4ede&#45;82b1&#45;f77ff3c2e979&#45;&gt;3a1ab516&#45;4396&#45;4503&#45;bef5&#45;4e7fa3de19b3</title>
<path fill="none" stroke="black" d="M324.24,-375.05C295.06,-365.29 237.33,-345.99 192.88,-331.13"/>
<polygon fill="black" stroke="black" points="193.92,-327.79 183.32,-327.93 191.7,-334.42 193.92,-327.79"/>
</g>
<!-- 0c6a5a4a&#45;0f2f&#45;4886&#45;9dc5&#45;a1c8882737b4 -->
<g id="node4" class="node">
<title>0c6a5a4a&#45;0f2f&#45;4886&#45;9dc5&#45;a1c8882737b4</title>
<ellipse fill="#ffff80" stroke="black" cx="342.87" cy="-310.07" rx="100.32" ry="21.43"/>
<text text-anchor="middle" x="342.87" y="-305.07" font-family="Times,serif" font-size="20.00">In(apple,fridge)</text>
</g>
<!-- 94b4d3f2&#45;a094&#45;4ede&#45;82b1&#45;f77ff3c2e979&#45;&gt;0c6a5a4a&#45;0f2f&#45;4886&#45;9dc5&#45;a1c8882737b4 -->
<g id="edge3" class="edge">
<title>94b4d3f2&#45;a094&#45;4ede&#45;82b1&#45;f77ff3c2e979&#45;&gt;0c6a5a4a&#45;0f2f&#45;4886&#45;9dc5&#45;a1c8882737b4</title>
<path fill="none" stroke="black" d="M342.87,-367.07C342.87,-359.7 342.87,-350.39 342.87,-341.49"/>
<polygon fill="black" stroke="black" points="346.37,-341.37 342.87,-331.37 339.37,-341.37 346.37,-341.37"/>
</g>
<!-- c306a8b6&#45;18a1&#45;47ec&#45;9088&#45;cc5a160318f4 -->
<g id="node6" class="node">
<title>c306a8b6&#45;18a1&#45;47ec&#45;9088&#45;cc5a160318f4</title>
<ellipse fill="#ffff80" stroke="black" cx="552.87" cy="-310.07" rx="91.85" ry="21.43"/>
<text text-anchor="middle" x="552.87" y="-305.07" font-family="Times,serif" font-size="20.00">Open(cabinet)</text>
</g>
<!-- 2263cf3f&#45;fe31&#45;455d&#45;a0ed&#45;dc400517d8fc&#45;&gt;c306a8b6&#45;18a1&#45;47ec&#45;9088&#45;cc5a160318f4 -->
<g id="edge5" class="edge">
<title>2263cf3f&#45;fe31&#45;455d&#45;a0ed&#45;dc400517d8fc&#45;&gt;c306a8b6&#45;18a1&#45;47ec&#45;9088&#45;cc5a160318f4</title>
<path fill="none" stroke="black" d="M603.92,-367.07C596.49,-358.91 586.89,-348.39 578.03,-338.67"/>
<polygon fill="black" stroke="black" points="580.46,-336.14 571.14,-331.11 575.29,-340.86 580.46,-336.14"/>
</g>
<!-- e0cb9128&#45;510b&#45;4f67&#45;8abd&#45;ac3419e8dc46 -->
<g id="node7" class="node">
<title>e0cb9128&#45;510b&#45;4f67&#45;8abd&#45;ac3419e8dc46</title>
<polygon fill="#b0ffff" stroke="black" points="698.87,-325.07 662.87,-325.07 662.87,-295.07 698.87,-295.07 698.87,-325.07"/>
<text text-anchor="middle" x="680.87" y="-305.07" font-family="Times,serif" font-size="20.00"> ? </text>
</g>
<!-- 2263cf3f&#45;fe31&#45;455d&#45;a0ed&#45;dc400517d8fc&#45;&gt;e0cb9128&#45;510b&#45;4f67&#45;8abd&#45;ac3419e8dc46 -->
<g id="edge6" class="edge">
<title>2263cf3f&#45;fe31&#45;455d&#45;a0ed&#45;dc400517d8fc&#45;&gt;e0cb9128&#45;510b&#45;4f67&#45;8abd&#45;ac3419e8dc46</title>
<path fill="none" stroke="black" d="M629.82,-367.07C638.76,-357.27 650.81,-344.05 660.96,-332.91"/>
<polygon fill="black" stroke="black" points="663.79,-335 667.94,-325.25 658.62,-330.29 663.79,-335"/>
</g>
<!-- 765838d9&#45;de9c&#45;4ae1&#45;bcc3&#45;88d7b228fe4d -->
<g id="node8" class="node">
<title>765838d9&#45;de9c&#45;4ae1&#45;bcc3&#45;88d7b228fe4d</title>
<polygon fill="#ff8080" stroke="black" points="521.37,-252.85 484.37,-252.85 484.37,-222.85 521.37,-222.85 521.37,-252.85"/>
<text text-anchor="middle" x="502.87" y="-232.85" font-family="Times,serif" font-size="20.00">→</text>
</g>
<!-- e0cb9128&#45;510b&#45;4f67&#45;8abd&#45;ac3419e8dc46&#45;&gt;765838d9&#45;de9c&#45;4ae1&#45;bcc3&#45;88d7b228fe4d -->
<g id="edge7" class="edge">
<title>e0cb9128&#45;510b&#45;4f67&#45;8abd&#45;ac3419e8dc46&#45;&gt;765838d9&#45;de9c&#45;4ae1&#45;bcc3&#45;88d7b228fe4d</title>
<path fill="none" stroke="black" d="M663.7,-294.94C660.54,-292.72 657.2,-290.59 653.87,-288.85 613.63,-267.84 562.79,-253.19 531.57,-245.4"/>
<polygon fill="black" stroke="black" points="532.32,-241.98 521.78,-243.03 530.67,-248.79 532.32,-241.98"/>
</g>
<!-- ee8c771f&#45;2e64&#45;416f&#45;9b2e&#45;7fecfa1d859f -->
<g id="node18" class="node">
<title>ee8c771f&#45;2e64&#45;416f&#45;9b2e&#45;7fecfa1d859f</title>
<polygon fill="#ff8080" stroke="black" points="876.37,-252.85 839.37,-252.85 839.37,-222.85 876.37,-222.85 876.37,-252.85"/>
<text text-anchor="middle" x="857.87" y="-232.85" font-family="Times,serif" font-size="20.00">→</text>
</g>
<!-- e0cb9128&#45;510b&#45;4f67&#45;8abd&#45;ac3419e8dc46&#45;&gt;ee8c771f&#45;2e64&#45;416f&#45;9b2e&#45;7fecfa1d859f -->
<g id="edge17" class="edge">
<title>e0cb9128&#45;510b&#45;4f67&#45;8abd&#45;ac3419e8dc46&#45;&gt;ee8c771f&#45;2e64&#45;416f&#45;9b2e&#45;7fecfa1d859f</title>
<path fill="none" stroke="black" d="M698.05,-294.94C701.21,-292.72 704.55,-290.59 707.87,-288.85 747.86,-267.92 798.36,-253.25 829.37,-245.44"/>
<polygon fill="black" stroke="black" points="830.22,-248.83 839.1,-243.05 828.55,-242.03 830.22,-248.83"/>
</g>
<!-- bc1b00cb&#45;0aa6&#45;461d&#45;8702&#45;ecac571fa1ff -->
<g id="node9" class="node">
<title>bc1b00cb&#45;0aa6&#45;461d&#45;8702&#45;ecac571fa1ff</title>
<ellipse fill="#ffff80" stroke="black" cx="381.87" cy="-165.64" rx="84.71" ry="21.43"/>
<text text-anchor="middle" x="381.87" y="-160.64" font-family="Times,serif" font-size="20.00">Open(fridge)</text>
</g>
<!-- 765838d9&#45;de9c&#45;4ae1&#45;bcc3&#45;88d7b228fe4d&#45;&gt;bc1b00cb&#45;0aa6&#45;461d&#45;8702&#45;ecac571fa1ff -->
<g id="edge8" class="edge">
<title>765838d9&#45;de9c&#45;4ae1&#45;bcc3&#45;88d7b228fe4d&#45;&gt;bc1b00cb&#45;0aa6&#45;461d&#45;8702&#45;ecac571fa1ff</title>
<path fill="none" stroke="black" d="M484.23,-226.04C467.99,-216.61 443.86,-202.61 423.1,-190.56"/>
<polygon fill="black" stroke="black" points="424.85,-187.53 414.44,-185.54 421.34,-193.59 424.85,-187.53"/>
</g>
<!-- addb8b50&#45;8ac0&#45;445d&#45;ab8b&#45;e249d372899b -->
<g id="node10" class="node">
<title>addb8b50&#45;8ac0&#45;445d&#45;ab8b&#45;e249d372899b</title>
<polygon fill="#b0ffff" stroke="black" points="520.87,-180.64 484.87,-180.64 484.87,-150.64 520.87,-150.64 520.87,-180.64"/>
<text text-anchor="middle" x="502.87" y="-160.64" font-family="Times,serif" font-size="20.00"> ? </text>
</g>
<!-- 765838d9&#45;de9c&#45;4ae1&#45;bcc3&#45;88d7b228fe4d&#45;&gt;addb8b50&#45;8ac0&#45;445d&#45;ab8b&#45;e249d372899b -->
<g id="edge9" class="edge">
<title>765838d9&#45;de9c&#45;4ae1&#45;bcc3&#45;88d7b228fe4d&#45;&gt;addb8b50&#45;8ac0&#45;445d&#45;ab8b&#45;e249d372899b</title>
<path fill="none" stroke="black" d="M502.87,-222.64C502.87,-213.6 502.87,-201.65 502.87,-191.12"/>
<polygon fill="black" stroke="black" points="506.37,-190.83 502.87,-180.83 499.37,-190.83 506.37,-190.83"/>
</g>
<!-- b841db85&#45;9b5c&#45;4fa7&#45;a56c&#45;cced9342a962 -->
<g id="node11" class="node">
<title>b841db85&#45;9b5c&#45;4fa7&#45;a56c&#45;cced9342a962</title>
<polygon fill="#ff8080" stroke="black" points="313.37,-108.43 276.37,-108.43 276.37,-78.43 313.37,-78.43 313.37,-108.43"/>
<text text-anchor="middle" x="294.87" y="-88.43" font-family="Times,serif" font-size="20.00">→</text>
</g>
<!-- addb8b50&#45;8ac0&#45;445d&#45;ab8b&#45;e249d372899b&#45;&gt;b841db85&#45;9b5c&#45;4fa7&#45;a56c&#45;cced9342a962 -->
<g id="edge10" class="edge">
<title>addb8b50&#45;8ac0&#45;445d&#45;ab8b&#45;e249d372899b&#45;&gt;b841db85&#45;9b5c&#45;4fa7&#45;a56c&#45;cced9342a962</title>
<path fill="none" stroke="black" d="M486.07,-150.58C482.82,-148.3 479.34,-146.13 475.87,-144.43 425.13,-119.53 360.09,-105.42 323.4,-98.91"/>
<polygon fill="black" stroke="black" points="323.85,-95.44 313.41,-97.2 322.67,-102.34 323.85,-95.44"/>
</g>
<!-- a060c3f9&#45;0a9f&#45;431e&#45;8573&#45;2b89671da0c1 -->
<g id="node14" class="node">
<title>a060c3f9&#45;0a9f&#45;431e&#45;8573&#45;2b89671da0c1</title>
<polygon fill="#ff8080" stroke="black" points="621.37,-108.43 584.37,-108.43 584.37,-78.43 621.37,-78.43 621.37,-108.43"/>
<text text-anchor="middle" x="602.87" y="-88.43" font-family="Times,serif" font-size="20.00">→</text>
</g>
<!-- addb8b50&#45;8ac0&#45;445d&#45;ab8b&#45;e249d372899b&#45;&gt;a060c3f9&#45;0a9f&#45;431e&#45;8573&#45;2b89671da0c1 -->
<g id="edge13" class="edge">
<title>addb8b50&#45;8ac0&#45;445d&#45;ab8b&#45;e249d372899b&#45;&gt;a060c3f9&#45;0a9f&#45;431e&#45;8573&#45;2b89671da0c1</title>
<path fill="none" stroke="black" d="M521.1,-150.83C524.02,-148.67 527.02,-146.47 529.87,-144.43 544.83,-133.71 561.77,-122.08 575.56,-112.73"/>
<polygon fill="black" stroke="black" points="577.79,-115.45 584.12,-106.95 573.88,-109.65 577.79,-115.45"/>
</g>
<!-- 81b56365&#45;df62&#45;49b0&#45;a36e&#45;1a410a4ecb9d -->
<g id="node12" class="node">
<title>81b56365&#45;df62&#45;49b0&#45;a36e&#45;1a410a4ecb9d</title>
<ellipse fill="#ffff80" stroke="black" cx="96.87" cy="-21.21" rx="96.75" ry="21.43"/>
<text text-anchor="middle" x="96.87" y="-16.21" font-family="Times,serif" font-size="20.00">Holding(apple)</text>
</g>
<!-- b841db85&#45;9b5c&#45;4fa7&#45;a56c&#45;cced9342a962&#45;&gt;81b56365&#45;df62&#45;49b0&#45;a36e&#45;1a410a4ecb9d -->
<g id="edge11" class="edge">
<title>b841db85&#45;9b5c&#45;4fa7&#45;a56c&#45;cced9342a962&#45;&gt;81b56365&#45;df62&#45;49b0&#45;a36e&#45;1a410a4ecb9d</title>
<path fill="none" stroke="black" d="M276.25,-85.82C248.89,-76.12 196.63,-57.59 155.55,-43.02"/>
<polygon fill="black" stroke="black" points="156.49,-39.64 145.9,-39.6 154.16,-46.24 156.49,-39.64"/>
</g>
<!-- 4b1b74a6&#45;44e1&#45;4eb7&#45;8b43&#45;caf502def6d0 -->
<g id="node13" class="node">
<title>4b1b74a6&#45;44e1&#45;4eb7&#45;8b43&#45;caf502def6d0</title>
<polygon fill="lightgreen" stroke="black" points="378.37,-39.21 211.37,-39.21 211.37,-3.21 378.37,-3.21 378.37,-39.21"/>
<text text-anchor="middle" x="294.87" y="-16.21" font-family="Times,serif" font-size="20.00">PutInFridge(apple)</text>
</g>
<!-- b841db85&#45;9b5c&#45;4fa7&#45;a56c&#45;cced9342a962&#45;&gt;4b1b74a6&#45;44e1&#45;4eb7&#45;8b43&#45;caf502def6d0 -->
<g id="edge12" class="edge">
<title>b841db85&#45;9b5c&#45;4fa7&#45;a56c&#45;cced9342a962&#45;&gt;4b1b74a6&#45;44e1&#45;4eb7&#45;8b43&#45;caf502def6d0</title>
<path fill="none" stroke="black" d="M294.87,-78.22C294.87,-69.98 294.87,-59.32 294.87,-49.52"/>
<polygon fill="black" stroke="black" points="298.37,-49.38 294.87,-39.38 291.37,-49.38 298.37,-49.38"/>
</g>
<!-- 98486826&#45;d243&#45;4c5e&#45;b06d&#45;97f1bfd72e77 -->
<g id="node15" class="node">
<title>98486826&#45;d243&#45;4c5e&#45;b06d&#45;97f1bfd72e77</title>
<ellipse fill="#ffff80" stroke="black" cx="494.87" cy="-21.21" rx="98.99" ry="21.43"/>
<text text-anchor="middle" x="494.87" y="-16.21" font-family="Times,serif" font-size="20.00">On(apple,table)</text>
</g>
<!-- a060c3f9&#45;0a9f&#45;431e&#45;8573&#45;2b89671da0c1&#45;&gt;98486826&#45;d243&#45;4c5e&#45;b06d&#45;97f1bfd72e77 -->
<g id="edge14" class="edge">
<title>a060c3f9&#45;0a9f&#45;431e&#45;8573&#45;2b89671da0c1&#45;&gt;98486826&#45;d243&#45;4c5e&#45;b06d&#45;97f1bfd72e77</title>
<path fill="none" stroke="black" d="M584.06,-80.2C570.17,-71.16 550.76,-58.55 533.61,-47.39"/>
<polygon fill="black" stroke="black" points="535.17,-44.24 524.88,-41.72 531.35,-50.1 535.17,-44.24"/>
</g>
<!-- 08f953ae&#45;5dbd&#45;4710&#45;9355&#45;d0dac5d19895 -->
<g id="node16" class="node">
<title>08f953ae&#45;5dbd&#45;4710&#45;9355&#45;d0dac5d19895</title>
<ellipse fill="#ffff80" stroke="black" cx="710.87" cy="-21.21" rx="98.99" ry="21.43"/>
<text text-anchor="middle" x="710.87" y="-16.21" font-family="Times,serif" font-size="20.00">IsHandEmpty()</text>
</g>
<!-- a060c3f9&#45;0a9f&#45;431e&#45;8573&#45;2b89671da0c1&#45;&gt;08f953ae&#45;5dbd&#45;4710&#45;9355&#45;d0dac5d19895 -->
<g id="edge15" class="edge">
<title>a060c3f9&#45;0a9f&#45;431e&#45;8573&#45;2b89671da0c1&#45;&gt;08f953ae&#45;5dbd&#45;4710&#45;9355&#45;d0dac5d19895</title>
<path fill="none" stroke="black" d="M621.69,-80.2C635.58,-71.16 654.98,-58.55 672.14,-47.39"/>
<polygon fill="black" stroke="black" points="674.39,-50.1 680.87,-41.72 670.58,-44.24 674.39,-50.1"/>
</g>
<!-- 13c4806c&#45;0532&#45;47ee&#45;9330&#45;6bb690d0353c -->
<g id="node17" class="node">
<title>13c4806c&#45;0532&#45;47ee&#45;9330&#45;6bb690d0353c</title>
<polygon fill="lightgreen" stroke="black" points="959.87,-39.21 827.87,-39.21 827.87,-3.21 959.87,-3.21 959.87,-39.21"/>
<text text-anchor="middle" x="893.87" y="-16.21" font-family="Times,serif" font-size="20.00">PickUp(apple)</text>
</g>
<!-- a060c3f9&#45;0a9f&#45;431e&#45;8573&#45;2b89671da0c1&#45;&gt;13c4806c&#45;0532&#45;47ee&#45;9330&#45;6bb690d0353c -->
<g id="edge16" class="edge">
<title>a060c3f9&#45;0a9f&#45;431e&#45;8573&#45;2b89671da0c1&#45;&gt;13c4806c&#45;0532&#45;47ee&#45;9330&#45;6bb690d0353c</title>
<path fill="none" stroke="black" d="M621.42,-88.37C658.85,-80.13 746.06,-60.66 818.87,-42.43 819.76,-42.2 820.65,-41.98 821.55,-41.75"/>
<polygon fill="black" stroke="black" points="822.49,-45.13 831.3,-39.26 820.75,-38.35 822.49,-45.13"/>
</g>
<!-- 1d2fdde3&#45;a3bb&#45;4270&#45;936c&#45;e33a845ea25b -->
<g id="node19" class="node">
<title>1d2fdde3&#45;a3bb&#45;4270&#45;936c&#45;e33a845ea25b</title>
<ellipse fill="#ffff80" stroke="black" cx="637.87" cy="-165.64" rx="98.99" ry="21.43"/>
<text text-anchor="middle" x="637.87" y="-160.64" font-family="Times,serif" font-size="20.00">On(apple,table)</text>
</g>
<!-- ee8c771f&#45;2e64&#45;416f&#45;9b2e&#45;7fecfa1d859f&#45;&gt;1d2fdde3&#45;a3bb&#45;4270&#45;936c&#45;e33a845ea25b -->
<g id="edge18" class="edge">
<title>ee8c771f&#45;2e64&#45;416f&#45;9b2e&#45;7fecfa1d859f&#45;&gt;1d2fdde3&#45;a3bb&#45;4270&#45;936c&#45;e33a845ea25b</title>
<path fill="none" stroke="black" d="M839.12,-230.87C808.85,-221.21 747.89,-201.75 700.95,-186.77"/>
<polygon fill="black" stroke="black" points="701.76,-183.35 691.16,-183.65 699.63,-190.02 701.76,-183.35"/>
</g>
<!-- 02cb1772&#45;8306&#45;4134&#45;adb3&#45;c0b0d0a2b4a9 -->
<g id="node20" class="node">
<title>02cb1772&#45;8306&#45;4134&#45;adb3&#45;c0b0d0a2b4a9</title>
<ellipse fill="#ffff80" stroke="black" cx="857.87" cy="-165.64" rx="103.48" ry="21.43"/>
<text text-anchor="middle" x="857.87" y="-160.64" font-family="Times,serif" font-size="20.00">IsClosed(fridge)</text>
</g>
<!-- ee8c771f&#45;2e64&#45;416f&#45;9b2e&#45;7fecfa1d859f&#45;&gt;02cb1772&#45;8306&#45;4134&#45;adb3&#45;c0b0d0a2b4a9 -->
<g id="edge19" class="edge">
<title>ee8c771f&#45;2e64&#45;416f&#45;9b2e&#45;7fecfa1d859f&#45;&gt;02cb1772&#45;8306&#45;4134&#45;adb3&#45;c0b0d0a2b4a9</title>
<path fill="none" stroke="black" d="M857.87,-222.64C857.87,-215.27 857.87,-205.96 857.87,-197.07"/>
<polygon fill="black" stroke="black" points="861.37,-196.95 857.87,-186.95 854.37,-196.95 861.37,-196.95"/>
</g>
<!-- 3092550a&#45;21b3&#45;4018&#45;b909&#45;fcf3e787a3f6 -->
<g id="node21" class="node">
<title>3092550a&#45;21b3&#45;4018&#45;b909&#45;fcf3e787a3f6</title>
<ellipse fill="#ffff80" stroke="black" cx="1077.87" cy="-165.64" rx="98.99" ry="21.43"/>
<text text-anchor="middle" x="1077.87" y="-160.64" font-family="Times,serif" font-size="20.00">IsHandEmpty()</text>
</g>
<!-- ee8c771f&#45;2e64&#45;416f&#45;9b2e&#45;7fecfa1d859f&#45;&gt;3092550a&#45;21b3&#45;4018&#45;b909&#45;fcf3e787a3f6 -->
<g id="edge20" class="edge">
<title>ee8c771f&#45;2e64&#45;416f&#45;9b2e&#45;7fecfa1d859f&#45;&gt;3092550a&#45;21b3&#45;4018&#45;b909&#45;fcf3e787a3f6</title>
<path fill="none" stroke="black" d="M876.63,-230.87C906.9,-221.21 967.86,-201.75 1014.8,-186.77"/>
<polygon fill="black" stroke="black" points="1016.12,-190.02 1024.58,-183.65 1013.99,-183.35 1016.12,-190.02"/>
</g>
<!-- ea6c18e9&#45;2e72&#45;45c5&#45;b2a3&#45;b2f9a643cfd6 -->
<g id="node22" class="node">
<title>ea6c18e9&#45;2e72&#45;45c5&#45;b2a3&#45;b2f9a643cfd6</title>
<polygon fill="lightgreen" stroke="black" points="1319.37,-183.64 1194.37,-183.64 1194.37,-147.64 1319.37,-147.64 1319.37,-183.64"/>
<text text-anchor="middle" x="1256.87" y="-160.64" font-family="Times,serif" font-size="20.00">OpenFridge()</text>
</g>
<!-- ee8c771f&#45;2e64&#45;416f&#45;9b2e&#45;7fecfa1d859f&#45;&gt;ea6c18e9&#45;2e72&#45;45c5&#45;b2a3&#45;b2f9a643cfd6 -->
<g id="edge21" class="edge">
<title>ee8c771f&#45;2e64&#45;416f&#45;9b2e&#45;7fecfa1d859f&#45;&gt;ea6c18e9&#45;2e72&#45;45c5&#45;b2a3&#45;b2f9a643cfd6</title>
<path fill="none" stroke="black" d="M876.52,-234.85C926.82,-229.25 1069.36,-212.21 1185.87,-186.85 1186.97,-186.61 1188.07,-186.37 1189.18,-186.12"/>
<polygon fill="black" stroke="black" points="1190.38,-189.43 1199.29,-183.69 1188.75,-182.62 1190.38,-189.43"/>
</g>
<!-- 7c1a1cf6&#45;7374&#45;4218&#45;9c49&#45;958a3096c65b -->
<g id="node24" class="node">
<title>7c1a1cf6&#45;7374&#45;4218&#45;9c49&#45;958a3096c65b</title>
<ellipse fill="#ffff80" stroke="black" cx="826.87" cy="-310.07" rx="110.12" ry="21.43"/>
<text text-anchor="middle" x="826.87" y="-305.07" font-family="Times,serif" font-size="20.00">IsClosed(cabinet)</text>
</g>
<!-- 7ec9662d&#45;89cf&#45;4720&#45;a3e7&#45;877a63849e9a&#45;&gt;7c1a1cf6&#45;7374&#45;4218&#45;9c49&#45;958a3096c65b -->
<g id="edge23" class="edge">
<title>7ec9662d&#45;89cf&#45;4720&#45;a3e7&#45;877a63849e9a&#45;&gt;7c1a1cf6&#45;7374&#45;4218&#45;9c49&#45;958a3096c65b</title>
<path fill="none" stroke="black" d="M1142.9,-377.3C1098.7,-368.04 986.7,-344.56 908.66,-328.21"/>
<polygon fill="black" stroke="black" points="909.35,-324.78 898.85,-326.15 907.91,-331.63 909.35,-324.78"/>
</g>
<!-- 6495591f&#45;5a06&#45;435e&#45;af08&#45;7137d7de471d -->
<g id="node25" class="node">
<title>6495591f&#45;5a06&#45;435e&#45;af08&#45;7137d7de471d</title>
<ellipse fill="#ffff80" stroke="black" cx="1053.87" cy="-310.07" rx="98.99" ry="21.43"/>
<text text-anchor="middle" x="1053.87" y="-305.07" font-family="Times,serif" font-size="20.00">On(apple,table)</text>
</g>
<!-- 7ec9662d&#45;89cf&#45;4720&#45;a3e7&#45;877a63849e9a&#45;&gt;6495591f&#45;5a06&#45;435e&#45;af08&#45;7137d7de471d -->
<g id="edge24" class="edge">
<title>7ec9662d&#45;89cf&#45;4720&#45;a3e7&#45;877a63849e9a&#45;&gt;6495591f&#45;5a06&#45;435e&#45;af08&#45;7137d7de471d</title>
<path fill="none" stroke="black" d="M1143.06,-369.05C1129.17,-360.02 1109.76,-347.4 1092.61,-336.25"/>
<polygon fill="black" stroke="black" points="1094.17,-333.09 1083.88,-330.57 1090.35,-338.96 1094.17,-333.09"/>
</g>
<!-- 9fc07f70&#45;457e&#45;4140&#45;aa35&#45;5701f6882c74 -->
<g id="node26" class="node">
<title>9fc07f70&#45;457e&#45;4140&#45;aa35&#45;5701f6882c74</title>
<ellipse fill="#ffff80" stroke="black" cx="1269.87" cy="-310.07" rx="98.99" ry="21.43"/>
<text text-anchor="middle" x="1269.87" y="-305.07" font-family="Times,serif" font-size="20.00">IsHandEmpty()</text>
</g>
<!-- 7ec9662d&#45;89cf&#45;4720&#45;a3e7&#45;877a63849e9a&#45;&gt;9fc07f70&#45;457e&#45;4140&#45;aa35&#45;5701f6882c74 -->
<g id="edge25" class="edge">
<title>7ec9662d&#45;89cf&#45;4720&#45;a3e7&#45;877a63849e9a&#45;&gt;9fc07f70&#45;457e&#45;4140&#45;aa35&#45;5701f6882c74</title>
<path fill="none" stroke="black" d="M1180.69,-369.05C1194.58,-360.02 1213.98,-347.4 1231.14,-336.25"/>
<polygon fill="black" stroke="black" points="1233.39,-338.96 1239.87,-330.57 1229.58,-333.09 1233.39,-338.96"/>
</g>
<!-- 89ec17b5&#45;4cdd&#45;4ccc&#45;b56f&#45;7764adea39aa -->
<g id="node27" class="node">
<title>89ec17b5&#45;4cdd&#45;4ccc&#45;b56f&#45;7764adea39aa</title>
<ellipse fill="#ffff80" stroke="black" cx="1489.87" cy="-310.07" rx="103.48" ry="21.43"/>
<text text-anchor="middle" x="1489.87" y="-305.07" font-family="Times,serif" font-size="20.00">IsClosed(fridge)</text>
</g>
<!-- 7ec9662d&#45;89cf&#45;4720&#45;a3e7&#45;877a63849e9a&#45;&gt;89ec17b5&#45;4cdd&#45;4ccc&#45;b56f&#45;7764adea39aa -->
<g id="edge26" class="edge">
<title>7ec9662d&#45;89cf&#45;4720&#45;a3e7&#45;877a63849e9a&#45;&gt;89ec17b5&#45;4cdd&#45;4ccc&#45;b56f&#45;7764adea39aa</title>
<path fill="none" stroke="black" d="M1180.45,-377.3C1223.9,-368 1334.26,-344.38 1410.7,-328.01"/>
<polygon fill="black" stroke="black" points="1411.73,-331.37 1420.78,-325.86 1410.27,-324.53 1411.73,-331.37"/>
</g>
<!-- 6bd1f237&#45;0525&#45;4dd0&#45;87e3&#45;8606965e3884 -->
<g id="node28" class="node">
<title>6bd1f237&#45;0525&#45;4dd0&#45;87e3&#45;8606965e3884</title>
<polygon fill="lightgreen" stroke="black" points="1744.87,-328.07 1610.87,-328.07 1610.87,-292.07 1744.87,-292.07 1744.87,-328.07"/>
<text text-anchor="middle" x="1677.87" y="-305.07" font-family="Times,serif" font-size="20.00">OpenCabinet()</text>
</g>
<!-- 7ec9662d&#45;89cf&#45;4720&#45;a3e7&#45;877a63849e9a&#45;&gt;6bd1f237&#45;0525&#45;4dd0&#45;87e3&#45;8606965e3884 -->
<g id="edge27" class="edge">
<title>7ec9662d&#45;89cf&#45;4720&#45;a3e7&#45;877a63849e9a&#45;&gt;6bd1f237&#45;0525&#45;4dd0&#45;87e3&#45;8606965e3884</title>
<path fill="none" stroke="black" d="M1180.46,-380.15C1241.36,-376.23 1440.2,-361.79 1601.87,-331.28 1603.58,-330.96 1605.3,-330.62 1607.04,-330.26"/>
<polygon fill="black" stroke="black" points="1608.05,-333.62 1617.08,-328.08 1606.56,-326.78 1608.05,-333.62"/>
</g>
</g>
</svg>
