<?xml version="1.0" encoding="UTF-8" standalone="no"?>
<!DOCTYPE svg PUBLIC "-//W3C//DTD SVG 1.1//EN"
 "http://www.w3.org/Graphics/SVG/1.1/DTD/svg11.dtd">
<!-- Generated by graphviz version 2.43.0 (0)
 -->
<!-- Title: pastafarianism Pages: 1 -->
<svg width="872pt" height="339pt"
 viewBox="0.00 0.00 871.83 339.28" xmlns="http://www.w3.org/2000/svg" xmlns:xlink="http://www.w3.org/1999/xlink">
<g id="graph0" class="graph" transform="scale(1 1) rotate(0) translate(4 335.28)">
<title>pastafarianism</title>
<polygon fill="white" stroke="transparent" points="-4,4 -4,-335.28 867.83,-335.28 867.83,4 -4,4"/>
<!-- 45668bea&#45;e8a3&#45;4eb6&#45;99fe&#45;17c51e10463c -->
<g id="node1" class="node">
<title>45668bea&#45;e8a3&#45;4eb6&#45;99fe&#45;17c51e10463c</title>
<polygon fill="#b0ffff" stroke="black" points="238.83,-331.28 202.83,-331.28 202.83,-301.28 238.83,-301.28 238.83,-331.28"/>
<text text-anchor="middle" x="220.83" y="-311.28" font-family="Times,serif" font-size="20.00"> ? </text>
</g>
<!-- e2a11516&#45;4ab0&#45;43e5&#45;bd8b&#45;6a3ad5304acf -->
<g id="node2" class="node">
<title>e2a11516&#45;4ab0&#45;43e5&#45;bd8b&#45;6a3ad5304acf</title>
<ellipse fill="#ffff80" stroke="black" cx="156.83" cy="-244.07" rx="91.43" ry="21.43"/>
<text text-anchor="middle" x="156.83" y="-239.07" font-family="Times,serif" font-size="20.00">On(a,place_a)</text>
</g>
<!-- 45668bea&#45;e8a3&#45;4eb6&#45;99fe&#45;17c51e10463c&#45;&gt;e2a11516&#45;4ab0&#45;43e5&#45;bd8b&#45;6a3ad5304acf -->
<g id="edge1" class="edge">
<title>45668bea&#45;e8a3&#45;4eb6&#45;99fe&#45;17c51e10463c&#45;&gt;e2a11516&#45;4ab0&#45;43e5&#45;bd8b&#45;6a3ad5304acf</title>
<path fill="none" stroke="black" d="M207.88,-301.07C200.44,-292.91 190.85,-282.39 181.99,-272.67"/>
<polygon fill="black" stroke="black" points="184.42,-270.14 175.1,-265.11 179.25,-274.86 184.42,-270.14"/>
</g>
<!-- 812519ec&#45;cbff&#45;45d2&#45;8ac1&#45;2247d7da88e0 -->
<g id="node3" class="node">
<title>812519ec&#45;cbff&#45;45d2&#45;8ac1&#45;2247d7da88e0</title>
<polygon fill="#ff8080" stroke="black" points="303.33,-259.07 266.33,-259.07 266.33,-229.07 303.33,-229.07 303.33,-259.07"/>
<text text-anchor="middle" x="284.83" y="-239.07" font-family="Times,serif" font-size="20.00">→</text>
</g>
<!-- 45668bea&#45;e8a3&#45;4eb6&#45;99fe&#45;17c51e10463c&#45;&gt;812519ec&#45;cbff&#45;45d2&#45;8ac1&#45;2247d7da88e0 -->
<g id="edge2" class="edge">
<title>45668bea&#45;e8a3&#45;4eb6&#45;99fe&#45;17c51e10463c&#45;&gt;812519ec&#45;cbff&#45;45d2&#45;8ac1&#45;2247d7da88e0</title>
<path fill="none" stroke="black" d="M233.78,-301.07C242.72,-291.27 254.77,-278.05 264.92,-266.91"/>
<polygon fill="black" stroke="black" points="267.75,-269 271.9,-259.25 262.58,-264.29 267.75,-269"/>
</g>
<!-- 6a4f6912&#45;365f&#45;4a8a&#45;b737&#45;7ea3ae533d49 -->
<g id="node4" class="node">
<title>6a4f6912&#45;365f&#45;4a8a&#45;b737&#45;7ea3ae533d49</title>
<ellipse fill="#ffff80" stroke="black" cx="210.83" cy="-165.64" rx="111.95" ry="21.43"/>
<text text-anchor="middle" x="210.83" y="-160.64" font-family="Times,serif" font-size="20.00">IsEmpty(place_a)</text>
</g>
<!-- 812519ec&#45;cbff&#45;45d2&#45;8ac1&#45;2247d7da88e0&#45;&gt;6a4f6912&#45;365f&#45;4a8a&#45;b737&#45;7ea3ae533d49 -->
<g id="edge3" class="edge">
<title>812519ec&#45;cbff&#45;45d2&#45;8ac1&#45;2247d7da88e0&#45;&gt;6a4f6912&#45;365f&#45;4a8a&#45;b737&#45;7ea3ae533d49</title>
<path fill="none" stroke="black" d="M271.26,-229.05C261.81,-219.29 248.9,-205.96 237.44,-194.12"/>
<polygon fill="black" stroke="black" points="239.64,-191.36 230.17,-186.61 234.61,-196.23 239.64,-191.36"/>
</g>
<!-- 61b6f124&#45;607e&#45;42b3&#45;be73&#45;ae618af8c0cf -->
<g id="node5" class="node">
<title>61b6f124&#45;607e&#45;42b3&#45;be73&#45;ae618af8c0cf</title>
<polygon fill="#b0ffff" stroke="black" points="376.83,-180.64 340.83,-180.64 340.83,-150.64 376.83,-150.64 376.83,-180.64"/>
<text text-anchor="middle" x="358.83" y="-160.64" font-family="Times,serif" font-size="20.00"> ? </text>
</g>
<!-- 812519ec&#45;cbff&#45;45d2&#45;8ac1&#45;2247d7da88e0&#45;&gt;61b6f124&#45;607e&#45;42b3&#45;be73&#45;ae618af8c0cf -->
<g id="edge4" class="edge">
<title>812519ec&#45;cbff&#45;45d2&#45;8ac1&#45;2247d7da88e0&#45;&gt;61b6f124&#45;607e&#45;42b3&#45;be73&#45;ae618af8c0cf</title>
<path fill="none" stroke="black" d="M298.4,-229.05C309.5,-217.59 325.36,-201.21 338.05,-188.1"/>
<polygon fill="black" stroke="black" points="340.65,-190.45 345.09,-180.83 335.62,-185.58 340.65,-190.45"/>
</g>
<!-- 03689dc3&#45;77e6&#45;4286&#45;9d10&#45;2d4403b66749 -->
<g id="node6" class="node">
<title>03689dc3&#45;77e6&#45;4286&#45;9d10&#45;2d4403b66749</title>
<polygon fill="#ff8080" stroke="black" points="281.33,-108.43 244.33,-108.43 244.33,-78.43 281.33,-78.43 281.33,-108.43"/>
<text text-anchor="middle" x="262.83" y="-88.43" font-family="Times,serif" font-size="20.00">→</text>
</g>
<!-- 61b6f124&#45;607e&#45;42b3&#45;be73&#45;ae618af8c0cf&#45;&gt;03689dc3&#45;77e6&#45;4286&#45;9d10&#45;2d4403b66749 -->
<g id="edge5" class="edge">
<title>61b6f124&#45;607e&#45;42b3&#45;be73&#45;ae618af8c0cf&#45;&gt;03689dc3&#45;77e6&#45;4286&#45;9d10&#45;2d4403b66749</title>
<path fill="none" stroke="black" d="M340.56,-150.9C337.65,-148.73 334.66,-146.51 331.83,-144.43 317.99,-134.23 302.5,-122.99 289.71,-113.76"/>
<polygon fill="black" stroke="black" points="291.5,-110.73 281.34,-107.72 287.4,-116.41 291.5,-110.73"/>
</g>
<!-- 59cfc311&#45;92d0&#45;4d6f&#45;8db9&#45;08839c85d1a5 -->
<g id="node9" class="node">
<title>59cfc311&#45;92d0&#45;4d6f&#45;8db9&#45;08839c85d1a5</title>
<polygon fill="#ff8080" stroke="black" points="570.33,-108.43 533.33,-108.43 533.33,-78.43 570.33,-78.43 570.33,-108.43"/>
<text text-anchor="middle" x="551.83" y="-88.43" font-family="Times,serif" font-size="20.00">→</text>
</g>
<!-- 61b6f124&#45;607e&#45;42b3&#45;be73&#45;ae618af8c0cf&#45;&gt;59cfc311&#45;92d0&#45;4d6f&#45;8db9&#45;08839c85d1a5 -->
<g id="edge8" class="edge">
<title>61b6f124&#45;607e&#45;42b3&#45;be73&#45;ae618af8c0cf&#45;&gt;59cfc311&#45;92d0&#45;4d6f&#45;8db9&#45;08839c85d1a5</title>
<path fill="none" stroke="black" d="M376.99,-158.03C410.81,-145.73 483.67,-119.22 523.84,-104.61"/>
<polygon fill="black" stroke="black" points="525.1,-107.88 533.3,-101.17 522.71,-101.3 525.1,-107.88"/>
</g>
<!-- cf986a5d&#45;5265&#45;462f&#45;87dc&#45;8f2010bf7c8c -->
<g id="node7" class="node">
<title>cf986a5d&#45;5265&#45;462f&#45;87dc&#45;8f2010bf7c8c</title>
<ellipse fill="#ffff80" stroke="black" cx="72.83" cy="-21.21" rx="72.66" ry="21.43"/>
<text text-anchor="middle" x="72.83" y="-16.21" font-family="Times,serif" font-size="20.00">Holding(a)</text>
</g>
<!-- 03689dc3&#45;77e6&#45;4286&#45;9d10&#45;2d4403b66749&#45;&gt;cf986a5d&#45;5265&#45;462f&#45;87dc&#45;8f2010bf7c8c -->
<g id="edge6" class="edge">
<title>03689dc3&#45;77e6&#45;4286&#45;9d10&#45;2d4403b66749&#45;&gt;cf986a5d&#45;5265&#45;462f&#45;87dc&#45;8f2010bf7c8c</title>
<path fill="none" stroke="black" d="M244.27,-85.57C217.09,-75.52 165.43,-56.43 125.89,-41.82"/>
<polygon fill="black" stroke="black" points="126.97,-38.49 116.38,-38.31 124.54,-45.05 126.97,-38.49"/>
</g>
<!-- edc82503&#45;7144&#45;473d&#45;9bbe&#45;6e1bc3b415a0 -->
<g id="node8" class="node">
<title>edc82503&#45;7144&#45;473d&#45;9bbe&#45;6e1bc3b415a0</title>
<polygon fill="lightgreen" stroke="black" points="362.33,-39.21 163.33,-39.21 163.33,-3.21 362.33,-3.21 362.33,-39.21"/>
<text text-anchor="middle" x="262.83" y="-16.21" font-family="Times,serif" font-size="20.00">PutOnPlace(a,place_a)</text>
</g>
<!-- 03689dc3&#45;77e6&#45;4286&#45;9d10&#45;2d4403b66749&#45;&gt;edc82503&#45;7144&#45;473d&#45;9bbe&#45;6e1bc3b415a0 -->
<g id="edge7" class="edge">
<title>03689dc3&#45;77e6&#45;4286&#45;9d10&#45;2d4403b66749&#45;&gt;edc82503&#45;7144&#45;473d&#45;9bbe&#45;6e1bc3b415a0</title>
<path fill="none" stroke="black" d="M262.83,-78.22C262.83,-69.98 262.83,-59.32 262.83,-49.52"/>
<polygon fill="black" stroke="black" points="266.33,-49.38 262.83,-39.38 259.33,-49.38 266.33,-49.38"/>
</g>
<!-- 2306d335&#45;d547&#45;4f06&#45;862f&#45;b151a8d77a12 -->
<g id="node10" class="node">
<title>2306d335&#45;d547&#45;4f06&#45;862f&#45;b151a8d77a12</title>
<ellipse fill="#ffff80" stroke="black" cx="455.83" cy="-21.21" rx="75.82" ry="21.43"/>
<text text-anchor="middle" x="455.83" y="-16.21" font-family="Times,serif" font-size="20.00">On(a,table)</text>
</g>
<!-- 59cfc311&#45;92d0&#45;4d6f&#45;8db9&#45;08839c85d1a5&#45;&gt;2306d335&#45;d547&#45;4f06&#45;862f&#45;b151a8d77a12 -->
<g id="edge9" class="edge">
<title>59cfc311&#45;92d0&#45;4d6f&#45;8db9&#45;08839c85d1a5&#45;&gt;2306d335&#45;d547&#45;4f06&#45;862f&#45;b151a8d77a12</title>
<path fill="none" stroke="black" d="M533.32,-78.89C521.12,-69.96 504.76,-58 490.21,-47.36"/>
<polygon fill="black" stroke="black" points="492.04,-44.36 481.91,-41.28 487.91,-50.01 492.04,-44.36"/>
</g>
<!-- 92006f04&#45;c366&#45;4a0a&#45;b2c7&#45;986b89eed647 -->
<g id="node11" class="node">
<title>92006f04&#45;c366&#45;4a0a&#45;b2c7&#45;986b89eed647</title>
<ellipse fill="#ffff80" stroke="black" cx="648.83" cy="-21.21" rx="98.99" ry="21.43"/>
<text text-anchor="middle" x="648.83" y="-16.21" font-family="Times,serif" font-size="20.00">IsHandEmpty()</text>
</g>
<!-- 59cfc311&#45;92d0&#45;4d6f&#45;8db9&#45;08839c85d1a5&#45;&gt;92006f04&#45;c366&#45;4a0a&#45;b2c7&#45;986b89eed647 -->
<g id="edge10" class="edge">
<title>59cfc311&#45;92d0&#45;4d6f&#45;8db9&#45;08839c85d1a5&#45;&gt;92006f04&#45;c366&#45;4a0a&#45;b2c7&#45;986b89eed647</title>
<path fill="none" stroke="black" d="M570.53,-78.89C582.68,-70.09 598.91,-58.35 613.43,-47.84"/>
<polygon fill="black" stroke="black" points="615.7,-50.52 621.75,-41.82 611.59,-44.85 615.7,-50.52"/>
</g>
<!-- e9141922&#45;c57e&#45;46fd&#45;bce8&#45;770a13dc288e -->
<g id="node12" class="node">
<title>e9141922&#45;c57e&#45;46fd&#45;bce8&#45;770a13dc288e</title>
<polygon fill="lightgreen" stroke="black" points="863.83,-39.21 765.83,-39.21 765.83,-3.21 863.83,-3.21 863.83,-39.21"/>
<text text-anchor="middle" x="814.83" y="-16.21" font-family="Times,serif" font-size="20.00">PickUp(a)</text>
</g>
<!-- 59cfc311&#45;92d0&#45;4d6f&#45;8db9&#45;08839c85d1a5&#45;&gt;e9141922&#45;c57e&#45;46fd&#45;bce8&#45;770a13dc288e -->
<g id="edge11" class="edge">
<title>59cfc311&#45;92d0&#45;4d6f&#45;8db9&#45;08839c85d1a5&#45;&gt;e9141922&#45;c57e&#45;46fd&#45;bce8&#45;770a13dc288e</title>
<path fill="none" stroke="black" d="M570.37,-88.53C606.52,-80.8 688.85,-62.51 756.83,-42.43 757.04,-42.36 757.25,-42.3 757.47,-42.24"/>
<polygon fill="black" stroke="black" points="758.64,-45.54 767.16,-39.24 756.57,-38.85 758.64,-45.54"/>
</g>
</g>
</svg>
