<?xml version="1.0" encoding="UTF-8" standalone="no"?>
<!DOCTYPE svg PUBLIC "-//W3C//DTD SVG 1.1//EN"
 "http://www.w3.org/Graphics/SVG/1.1/DTD/svg11.dtd">
<!-- Generated by graphviz version 2.43.0 (0)
 -->
<!-- Title: pastafarianism Pages: 1 -->
<svg width="2711pt" height="405pt"
 viewBox="0.00 0.00 2710.79 405.28" xmlns="http://www.w3.org/2000/svg" xmlns:xlink="http://www.w3.org/1999/xlink">
<g id="graph0" class="graph" transform="scale(1 1) rotate(0) translate(4 401.28)">
<title>pastafarianism</title>
<polygon fill="white" stroke="transparent" points="-4,4 -4,-401.28 2706.79,-401.28 2706.79,4 -4,4"/>
<!-- a2518c44&#45;7a5e&#45;4de4&#45;8a86&#45;7c48956a97a1 -->
<g id="node1" class="node">
<title>a2518c44&#45;7a5e&#45;4de4&#45;8a86&#45;7c48956a97a1</title>
<polygon fill="#b0ffff" stroke="black" points="985.79,-397.28 949.79,-397.28 949.79,-367.28 985.79,-367.28 985.79,-397.28"/>
<text text-anchor="middle" x="967.79" y="-377.28" font-family="Times,serif" font-size="20.00"> ? </text>
</g>
<!-- 8fb6f0a7&#45;43d6&#45;4c79&#45;a332&#45;64259e65740d -->
<g id="node2" class="node">
<title>8fb6f0a7&#45;43d6&#45;4c79&#45;a332&#45;64259e65740d</title>
<polygon fill="#ff8080" stroke="black" points="514.29,-331.28 477.29,-331.28 477.29,-301.28 514.29,-301.28 514.29,-331.28"/>
<text text-anchor="middle" x="495.79" y="-311.28" font-family="Times,serif" font-size="20.00">→</text>
</g>
<!-- a2518c44&#45;7a5e&#45;4de4&#45;8a86&#45;7c48956a97a1&#45;&gt;8fb6f0a7&#45;43d6&#45;4c79&#45;a332&#45;64259e65740d -->
<g id="edge1" class="edge">
<title>a2518c44&#45;7a5e&#45;4de4&#45;8a86&#45;7c48956a97a1&#45;&gt;8fb6f0a7&#45;43d6&#45;4c79&#45;a332&#45;64259e65740d</title>
<path fill="none" stroke="black" d="M949.57,-378.81C877.61,-369.05 612.7,-333.13 524.54,-321.18"/>
<polygon fill="black" stroke="black" points="524.84,-317.69 514.46,-319.81 523.89,-324.62 524.84,-317.69"/>
</g>
<!-- 61d7ce0f&#45;f2ab&#45;4254&#45;a301&#45;a7014d9a2f7f -->
<g id="node5" class="node">
<title>61d7ce0f&#45;f2ab&#45;4254&#45;a301&#45;a7014d9a2f7f</title>
<polygon fill="#ff8080" stroke="black" points="986.29,-331.28 949.29,-331.28 949.29,-301.28 986.29,-301.28 986.29,-331.28"/>
<text text-anchor="middle" x="967.79" y="-311.28" font-family="Times,serif" font-size="20.00">→</text>
</g>
<!-- a2518c44&#45;7a5e&#45;4de4&#45;8a86&#45;7c48956a97a1&#45;&gt;61d7ce0f&#45;f2ab&#45;4254&#45;a301&#45;a7014d9a2f7f -->
<g id="edge4" class="edge">
<title>a2518c44&#45;7a5e&#45;4de4&#45;8a86&#45;7c48956a97a1&#45;&gt;61d7ce0f&#45;f2ab&#45;4254&#45;a301&#45;a7014d9a2f7f</title>
<path fill="none" stroke="black" d="M967.79,-367.08C967.79,-359.62 967.79,-350.27 967.79,-341.69"/>
<polygon fill="black" stroke="black" points="971.29,-341.44 967.79,-331.44 964.29,-341.44 971.29,-341.44"/>
</g>
<!-- aabc9ef4&#45;96f2&#45;4d62&#45;8e79&#45;3f561050fa9a -->
<g id="node19" class="node">
<title>aabc9ef4&#45;96f2&#45;4d62&#45;8e79&#45;3f561050fa9a</title>
<polygon fill="#ff8080" stroke="black" points="1787.29,-331.28 1750.29,-331.28 1750.29,-301.28 1787.29,-301.28 1787.29,-331.28"/>
<text text-anchor="middle" x="1768.79" y="-311.28" font-family="Times,serif" font-size="20.00">→</text>
</g>
<!-- a2518c44&#45;7a5e&#45;4de4&#45;8a86&#45;7c48956a97a1&#45;&gt;aabc9ef4&#45;96f2&#45;4d62&#45;8e79&#45;3f561050fa9a -->
<g id="edge18" class="edge">
<title>a2518c44&#45;7a5e&#45;4de4&#45;8a86&#45;7c48956a97a1&#45;&gt;aabc9ef4&#45;96f2&#45;4d62&#45;8e79&#45;3f561050fa9a</title>
<path fill="none" stroke="black" d="M986.02,-379.82C1090.33,-371.49 1611.28,-329.86 1739.99,-319.58"/>
<polygon fill="black" stroke="black" points="1740.54,-323.05 1750.23,-318.76 1739.98,-316.07 1740.54,-323.05"/>
</g>
<!-- 5378365f&#45;3e96&#45;4b34&#45;b7b8&#45;0ec85d9a9fbd -->
<g id="node3" class="node">
<title>5378365f&#45;3e96&#45;4b34&#45;b7b8&#45;0ec85d9a9fbd</title>
<ellipse fill="#ffff80" stroke="black" cx="181.79" cy="-244.07" rx="147.57" ry="21.43"/>
<text text-anchor="middle" x="181.79" y="-239.07" font-family="Times,serif" font-size="20.00">On(left_box,right_table)</text>
</g>
<!-- 8fb6f0a7&#45;43d6&#45;4c79&#45;a332&#45;64259e65740d&#45;&gt;5378365f&#45;3e96&#45;4b34&#45;b7b8&#45;0ec85d9a9fbd -->
<g id="edge2" class="edge">
<title>8fb6f0a7&#45;43d6&#45;4c79&#45;a332&#45;64259e65740d&#45;&gt;5378365f&#45;3e96&#45;4b34&#45;b7b8&#45;0ec85d9a9fbd</title>
<path fill="none" stroke="black" d="M477.08,-311.1C436.98,-302.13 340.55,-280.57 268.72,-264.51"/>
<polygon fill="black" stroke="black" points="269.28,-261.05 258.76,-262.28 267.76,-267.88 269.28,-261.05"/>
</g>
<!-- a50c39b7&#45;ea28&#45;4f55&#45;b980&#45;8da9d1ba5cf7 -->
<g id="node4" class="node">
<title>a50c39b7&#45;ea28&#45;4f55&#45;b980&#45;8da9d1ba5cf7</title>
<ellipse fill="#ffff80" stroke="black" cx="495.79" cy="-244.07" rx="147.57" ry="21.43"/>
<text text-anchor="middle" x="495.79" y="-239.07" font-family="Times,serif" font-size="20.00">On(right_box,left_table)</text>
</g>
<!-- 8fb6f0a7&#45;43d6&#45;4c79&#45;a332&#45;64259e65740d&#45;&gt;a50c39b7&#45;ea28&#45;4f55&#45;b980&#45;8da9d1ba5cf7 -->
<g id="edge3" class="edge">
<title>8fb6f0a7&#45;43d6&#45;4c79&#45;a332&#45;64259e65740d&#45;&gt;a50c39b7&#45;ea28&#45;4f55&#45;b980&#45;8da9d1ba5cf7</title>
<path fill="none" stroke="black" d="M495.79,-301.07C495.79,-293.7 495.79,-284.39 495.79,-275.49"/>
<polygon fill="black" stroke="black" points="499.29,-275.37 495.79,-265.37 492.29,-275.37 499.29,-275.37"/>
</g>
<!-- aaa81903&#45;3aee&#45;481d&#45;ae11&#45;b18bf8647658 -->
<g id="node6" class="node">
<title>aaa81903&#45;3aee&#45;481d&#45;ae11&#45;b18bf8647658</title>
<ellipse fill="#ffff80" stroke="black" cx="853.79" cy="-244.07" rx="192.17" ry="21.43"/>
<text text-anchor="middle" x="853.79" y="-239.07" font-family="Times,serif" font-size="20.00">Holding(right_franka,right_box)</text>
</g>
<!-- 61d7ce0f&#45;f2ab&#45;4254&#45;a301&#45;a7014d9a2f7f&#45;&gt;aaa81903&#45;3aee&#45;481d&#45;ae11&#45;b18bf8647658 -->
<g id="edge5" class="edge">
<title>61d7ce0f&#45;f2ab&#45;4254&#45;a301&#45;a7014d9a2f7f&#45;&gt;aaa81903&#45;3aee&#45;481d&#45;ae11&#45;b18bf8647658</title>
<path fill="none" stroke="black" d="M949.22,-303.84C934.51,-294.78 913.42,-281.79 894.8,-270.33"/>
<polygon fill="black" stroke="black" points="896.52,-267.28 886.17,-265.01 892.85,-273.24 896.52,-267.28"/>
</g>
<!-- f255300e&#45;b7dd&#45;4163&#45;993a&#45;6243b792104b -->
<g id="node7" class="node">
<title>f255300e&#45;b7dd&#45;4163&#45;993a&#45;6243b792104b</title>
<polygon fill="#b0ffff" stroke="black" points="1099.79,-259.07 1063.79,-259.07 1063.79,-229.07 1099.79,-229.07 1099.79,-259.07"/>
<text text-anchor="middle" x="1081.79" y="-239.07" font-family="Times,serif" font-size="20.00"> ? </text>
</g>
<!-- 61d7ce0f&#45;f2ab&#45;4254&#45;a301&#45;a7014d9a2f7f&#45;&gt;f255300e&#45;b7dd&#45;4163&#45;993a&#45;6243b792104b -->
<g id="edge6" class="edge">
<title>61d7ce0f&#45;f2ab&#45;4254&#45;a301&#45;a7014d9a2f7f&#45;&gt;f255300e&#45;b7dd&#45;4163&#45;993a&#45;6243b792104b</title>
<path fill="none" stroke="black" d="M986.51,-305.38C1004.39,-295.72 1031.94,-280.32 1054.79,-265.28 1054.97,-265.16 1055.15,-265.04 1055.34,-264.91"/>
<polygon fill="black" stroke="black" points="1057.51,-267.67 1063.7,-259.07 1053.5,-261.93 1057.51,-267.67"/>
</g>
<!-- ef575ca8&#45;7757&#45;490b&#45;9021&#45;0600acf4fdd5 -->
<g id="node8" class="node">
<title>ef575ca8&#45;7757&#45;490b&#45;9021&#45;0600acf4fdd5</title>
<polygon fill="#b0ffff" stroke="black" points="851.79,-186.85 815.79,-186.85 815.79,-156.85 851.79,-156.85 851.79,-186.85"/>
<text text-anchor="middle" x="833.79" y="-166.85" font-family="Times,serif" font-size="20.00"> ? </text>
</g>
<!-- f255300e&#45;b7dd&#45;4163&#45;993a&#45;6243b792104b&#45;&gt;ef575ca8&#45;7757&#45;490b&#45;9021&#45;0600acf4fdd5 -->
<g id="edge7" class="edge">
<title>f255300e&#45;b7dd&#45;4163&#45;993a&#45;6243b792104b&#45;&gt;ef575ca8&#45;7757&#45;490b&#45;9021&#45;0600acf4fdd5</title>
<path fill="none" stroke="black" d="M1065.04,-228.87C1061.79,-226.6 1058.29,-224.47 1054.79,-222.85 989.6,-192.75 905.01,-180.16 861.84,-175.41"/>
<polygon fill="black" stroke="black" points="862.1,-171.91 851.79,-174.36 861.37,-178.88 862.1,-171.91"/>
</g>
<!-- d880a306&#45;984f&#45;439d&#45;9a92&#45;c4a1effa777d -->
<g id="node15" class="node">
<title>d880a306&#45;984f&#45;439d&#45;9a92&#45;c4a1effa777d</title>
<polygon fill="#ff8080" stroke="black" points="1188.29,-186.85 1151.29,-186.85 1151.29,-156.85 1188.29,-156.85 1188.29,-186.85"/>
<text text-anchor="middle" x="1169.79" y="-166.85" font-family="Times,serif" font-size="20.00">→</text>
</g>
<!-- f255300e&#45;b7dd&#45;4163&#45;993a&#45;6243b792104b&#45;&gt;d880a306&#45;984f&#45;439d&#45;9a92&#45;c4a1effa777d -->
<g id="edge14" class="edge">
<title>f255300e&#45;b7dd&#45;4163&#45;993a&#45;6243b792104b&#45;&gt;d880a306&#45;984f&#45;439d&#45;9a92&#45;c4a1effa777d</title>
<path fill="none" stroke="black" d="M1099.59,-228.86C1112.36,-218.67 1129.74,-204.8 1144.02,-193.41"/>
<polygon fill="black" stroke="black" points="1146.37,-196.01 1152,-187.04 1142,-190.54 1146.37,-196.01"/>
</g>
<!-- 94e2fe02&#45;0aab&#45;416a&#45;bdd4&#45;da409e2f2009 -->
<g id="node9" class="node">
<title>94e2fe02&#45;0aab&#45;416a&#45;bdd4&#45;da409e2f2009</title>
<polygon fill="#ff8080" stroke="black" points="494.29,-114.64 457.29,-114.64 457.29,-84.64 494.29,-84.64 494.29,-114.64"/>
<text text-anchor="middle" x="475.79" y="-94.64" font-family="Times,serif" font-size="20.00">→</text>
</g>
<!-- ef575ca8&#45;7757&#45;490b&#45;9021&#45;0600acf4fdd5&#45;&gt;94e2fe02&#45;0aab&#45;416a&#45;bdd4&#45;da409e2f2009 -->
<g id="edge8" class="edge">
<title>ef575ca8&#45;7757&#45;490b&#45;9021&#45;0600acf4fdd5&#45;&gt;94e2fe02&#45;0aab&#45;416a&#45;bdd4&#45;da409e2f2009</title>
<path fill="none" stroke="black" d="M815.54,-167.27C757.26,-155.84 575.28,-120.15 504.43,-106.26"/>
<polygon fill="black" stroke="black" points="504.91,-102.79 494.42,-104.3 503.56,-109.65 504.91,-102.79"/>
</g>
<!-- a0a3286e&#45;30dd&#45;4103&#45;bc9d&#45;a3b5a4f49aeb -->
<g id="node12" class="node">
<title>a0a3286e&#45;30dd&#45;4103&#45;bc9d&#45;a3b5a4f49aeb</title>
<polygon fill="#ff8080" stroke="black" points="852.29,-114.64 815.29,-114.64 815.29,-84.64 852.29,-84.64 852.29,-114.64"/>
<text text-anchor="middle" x="833.79" y="-94.64" font-family="Times,serif" font-size="20.00">→</text>
</g>
<!-- ef575ca8&#45;7757&#45;490b&#45;9021&#45;0600acf4fdd5&#45;&gt;a0a3286e&#45;30dd&#45;4103&#45;bc9d&#45;a3b5a4f49aeb -->
<g id="edge11" class="edge">
<title>ef575ca8&#45;7757&#45;490b&#45;9021&#45;0600acf4fdd5&#45;&gt;a0a3286e&#45;30dd&#45;4103&#45;bc9d&#45;a3b5a4f49aeb</title>
<path fill="none" stroke="black" d="M833.79,-156.64C833.79,-147.6 833.79,-135.65 833.79,-125.12"/>
<polygon fill="black" stroke="black" points="837.29,-124.83 833.79,-114.83 830.29,-124.83 837.29,-124.83"/>
</g>
<!-- d2b7acb3&#45;ee06&#45;4d81&#45;b91f&#45;eaa137b728a6 -->
<g id="node10" class="node">
<title>d2b7acb3&#45;ee06&#45;4d81&#45;b91f&#45;eaa137b728a6</title>
<ellipse fill="#ffff80" stroke="black" cx="147.79" cy="-21.21" rx="147.57" ry="21.43"/>
<text text-anchor="middle" x="147.79" y="-16.21" font-family="Times,serif" font-size="20.00">On(left_box,right_table)</text>
</g>
<!-- 94e2fe02&#45;0aab&#45;416a&#45;bdd4&#45;da409e2f2009&#45;&gt;d2b7acb3&#45;ee06&#45;4d81&#45;b91f&#45;eaa137b728a6 -->
<g id="edge9" class="edge">
<title>94e2fe02&#45;0aab&#45;416a&#45;bdd4&#45;da409e2f2009&#45;&gt;d2b7acb3&#45;ee06&#45;4d81&#45;b91f&#45;eaa137b728a6</title>
<path fill="none" stroke="black" d="M457.21,-94.31C414.8,-84.43 308.63,-59.69 232.49,-41.95"/>
<polygon fill="black" stroke="black" points="232.96,-38.47 222.43,-39.61 231.37,-45.28 232.96,-38.47"/>
</g>
<!-- 9c46aa20&#45;d501&#45;4b2e&#45;9e1c&#45;f3b5b6de16ec -->
<g id="node11" class="node">
<title>9c46aa20&#45;d501&#45;4b2e&#45;9e1c&#45;f3b5b6de16ec</title>
<polygon fill="lightgreen" stroke="black" points="638.29,-39.21 313.29,-39.21 313.29,-3.21 638.29,-3.21 638.29,-39.21"/>
<text text-anchor="middle" x="475.79" y="-16.21" font-family="Times,serif" font-size="20.00">DropRightFranka(right_box,left_table)</text>
</g>
<!-- 94e2fe02&#45;0aab&#45;416a&#45;bdd4&#45;da409e2f2009&#45;&gt;9c46aa20&#45;d501&#45;4b2e&#45;9e1c&#45;f3b5b6de16ec -->
<g id="edge10" class="edge">
<title>94e2fe02&#45;0aab&#45;416a&#45;bdd4&#45;da409e2f2009&#45;&gt;9c46aa20&#45;d501&#45;4b2e&#45;9e1c&#45;f3b5b6de16ec</title>
<path fill="none" stroke="black" d="M475.79,-84.62C475.79,-74.86 475.79,-61.51 475.79,-49.66"/>
<polygon fill="black" stroke="black" points="479.29,-49.35 475.79,-39.35 472.29,-49.35 479.29,-49.35"/>
</g>
<!-- f4d8973a&#45;0242&#45;4ab4&#45;98a5&#45;46b3e030f046 -->
<g id="node13" class="node">
<title>f4d8973a&#45;0242&#45;4ab4&#45;98a5&#45;46b3e030f046</title>
<ellipse fill="#ffff80" stroke="black" cx="833.79" cy="-21.21" rx="177.47" ry="21.43"/>
<text text-anchor="middle" x="833.79" y="-16.21" font-family="Times,serif" font-size="20.00">Holding(left_franka,left_box)</text>
</g>
<!-- a0a3286e&#45;30dd&#45;4103&#45;bc9d&#45;a3b5a4f49aeb&#45;&gt;f4d8973a&#45;0242&#45;4ab4&#45;98a5&#45;46b3e030f046 -->
<g id="edge12" class="edge">
<title>a0a3286e&#45;30dd&#45;4103&#45;bc9d&#45;a3b5a4f49aeb&#45;&gt;f4d8973a&#45;0242&#45;4ab4&#45;98a5&#45;46b3e030f046</title>
<path fill="none" stroke="black" d="M833.79,-84.62C833.79,-75.67 833.79,-63.72 833.79,-52.67"/>
<polygon fill="black" stroke="black" points="837.29,-52.48 833.79,-42.48 830.29,-52.48 837.29,-52.48"/>
</g>
<!-- 72fb87a6&#45;b06b&#45;48fc&#45;8136&#45;1d84859b159e -->
<g id="node14" class="node">
<title>72fb87a6&#45;b06b&#45;48fc&#45;8136&#45;1d84859b159e</title>
<polygon fill="lightgreen" stroke="black" points="1342.79,-39.21 1028.79,-39.21 1028.79,-3.21 1342.79,-3.21 1342.79,-39.21"/>
<text text-anchor="middle" x="1185.79" y="-16.21" font-family="Times,serif" font-size="20.00">DropLeftFranka(left_box,right_table)</text>
</g>
<!-- a0a3286e&#45;30dd&#45;4103&#45;bc9d&#45;a3b5a4f49aeb&#45;&gt;72fb87a6&#45;b06b&#45;48fc&#45;8136&#45;1d84859b159e -->
<g id="edge13" class="edge">
<title>a0a3286e&#45;30dd&#45;4103&#45;bc9d&#45;a3b5a4f49aeb&#45;&gt;72fb87a6&#45;b06b&#45;48fc&#45;8136&#45;1d84859b159e</title>
<path fill="none" stroke="black" d="M850.17,-84.5C853.51,-82.17 857.13,-80 860.79,-78.43 893.12,-64.49 969.37,-50.97 1039.9,-40.69"/>
<polygon fill="black" stroke="black" points="1040.41,-44.15 1049.81,-39.26 1039.41,-37.22 1040.41,-44.15"/>
</g>
<!-- 97f1e111&#45;473c&#45;43c9&#45;a040&#45;b6a6a79557e6 -->
<g id="node16" class="node">
<title>97f1e111&#45;473c&#45;43c9&#45;a040&#45;b6a6a79557e6</title>
<ellipse fill="#ffff80" stroke="black" cx="1010.79" cy="-99.64" rx="140.93" ry="21.43"/>
<text text-anchor="middle" x="1010.79" y="-94.64" font-family="Times,serif" font-size="20.00">On(left_box,left_table)</text>
</g>
<!-- d880a306&#45;984f&#45;439d&#45;9a92&#45;c4a1effa777d&#45;&gt;97f1e111&#45;473c&#45;43c9&#45;a040&#45;b6a6a79557e6 -->
<g id="edge15" class="edge">
<title>d880a306&#45;984f&#45;439d&#45;9a92&#45;c4a1effa777d&#45;&gt;97f1e111&#45;473c&#45;43c9&#45;a040&#45;b6a6a79557e6</title>
<path fill="none" stroke="black" d="M1151.23,-162.66C1129.85,-153.22 1093.77,-137.29 1063.54,-123.93"/>
<polygon fill="black" stroke="black" points="1064.93,-120.72 1054.36,-119.88 1062.1,-127.13 1064.93,-120.72"/>
</g>
<!-- 027e82bc&#45;ec9c&#45;4d37&#45;a71d&#45;0044d9a64431 -->
<g id="node17" class="node">
<title>027e82bc&#45;ec9c&#45;4d37&#45;a71d&#45;0044d9a64431</title>
<ellipse fill="#ffff80" stroke="black" cx="1329.79" cy="-99.64" rx="160.53" ry="21.43"/>
<text text-anchor="middle" x="1329.79" y="-94.64" font-family="Times,serif" font-size="20.00">IsHandEmpty(left_franka)</text>
</g>
<!-- d880a306&#45;984f&#45;439d&#45;9a92&#45;c4a1effa777d&#45;&gt;027e82bc&#45;ec9c&#45;4d37&#45;a71d&#45;0044d9a64431 -->
<g id="edge16" class="edge">
<title>d880a306&#45;984f&#45;439d&#45;9a92&#45;c4a1effa777d&#45;&gt;027e82bc&#45;ec9c&#45;4d37&#45;a71d&#45;0044d9a64431</title>
<path fill="none" stroke="black" d="M1188.45,-162.66C1209.82,-153.29 1245.77,-137.51 1276.07,-124.21"/>
<polygon fill="black" stroke="black" points="1277.51,-127.4 1285.26,-120.18 1274.7,-120.99 1277.51,-127.4"/>
</g>
<!-- 04754335&#45;a64f&#45;461b&#45;820e&#45;ecb96fab0ecc -->
<g id="node18" class="node">
<title>04754335&#45;a64f&#45;461b&#45;820e&#45;ecb96fab0ecc</title>
<polygon fill="lightgreen" stroke="black" points="1751.29,-117.64 1508.29,-117.64 1508.29,-81.64 1751.29,-81.64 1751.29,-117.64"/>
<text text-anchor="middle" x="1629.79" y="-94.64" font-family="Times,serif" font-size="20.00">PickUpLeftFranka(left_box)</text>
</g>
<!-- d880a306&#45;984f&#45;439d&#45;9a92&#45;c4a1effa777d&#45;&gt;04754335&#45;a64f&#45;461b&#45;820e&#45;ecb96fab0ecc -->
<g id="edge17" class="edge">
<title>d880a306&#45;984f&#45;439d&#45;9a92&#45;c4a1effa777d&#45;&gt;04754335&#45;a64f&#45;461b&#45;820e&#45;ecb96fab0ecc</title>
<path fill="none" stroke="black" d="M1188.4,-168.06C1238.64,-160.51 1381.23,-139.05 1499.79,-120.85 1503.28,-120.32 1506.82,-119.77 1510.4,-119.22"/>
<polygon fill="black" stroke="black" points="1511.21,-122.64 1520.56,-117.65 1510.14,-115.72 1511.21,-122.64"/>
</g>
<!-- 5e991881&#45;ea34&#45;4ad7&#45;b53e&#45;84f7f17f7c29 -->
<g id="node20" class="node">
<title>5e991881&#45;ea34&#45;4ad7&#45;b53e&#45;84f7f17f7c29</title>
<ellipse fill="#ffff80" stroke="black" cx="1285.79" cy="-244.07" rx="167.67" ry="21.43"/>
<text text-anchor="middle" x="1285.79" y="-239.07" font-family="Times,serif" font-size="20.00">IsHandEmpty(right_franka)</text>
</g>
<!-- aabc9ef4&#45;96f2&#45;4d62&#45;8e79&#45;3f561050fa9a&#45;&gt;5e991881&#45;ea34&#45;4ad7&#45;b53e&#45;84f7f17f7c29 -->
<g id="edge19" class="edge">
<title>aabc9ef4&#45;96f2&#45;4d62&#45;8e79&#45;3f561050fa9a&#45;&gt;5e991881&#45;ea34&#45;4ad7&#45;b53e&#45;84f7f17f7c29</title>
<path fill="none" stroke="black" d="M1750.15,-312.57C1693.55,-304.34 1520.31,-279.16 1402.21,-261.99"/>
<polygon fill="black" stroke="black" points="1402.42,-258.48 1392.02,-260.51 1401.42,-265.41 1402.42,-258.48"/>
</g>
<!-- 5ffb4375&#45;16f8&#45;4999&#45;996c&#45;0dd27a730dd7 -->
<g id="node21" class="node">
<title>5ffb4375&#45;16f8&#45;4999&#45;996c&#45;0dd27a730dd7</title>
<ellipse fill="#ffff80" stroke="black" cx="1611.79" cy="-244.07" rx="140.93" ry="21.43"/>
<text text-anchor="middle" x="1611.79" y="-239.07" font-family="Times,serif" font-size="20.00">On(left_box,left_table)</text>
</g>
<!-- aabc9ef4&#45;96f2&#45;4d62&#45;8e79&#45;3f561050fa9a&#45;&gt;5ffb4375&#45;16f8&#45;4999&#45;996c&#45;0dd27a730dd7 -->
<g id="edge20" class="edge">
<title>aabc9ef4&#45;96f2&#45;4d62&#45;8e79&#45;3f561050fa9a&#45;&gt;5ffb4375&#45;16f8&#45;4999&#45;996c&#45;0dd27a730dd7</title>
<path fill="none" stroke="black" d="M1750.16,-306.95C1729.12,-297.54 1693.97,-281.82 1664.35,-268.58"/>
<polygon fill="black" stroke="black" points="1665.52,-265.26 1654.96,-264.37 1662.66,-271.65 1665.52,-265.26"/>
</g>
<!-- 2e50d365&#45;0db6&#45;4a5c&#45;8912&#45;3eb69f809fca -->
<g id="node22" class="node">
<title>2e50d365&#45;0db6&#45;4a5c&#45;8912&#45;3eb69f809fca</title>
<ellipse fill="#ffff80" stroke="black" cx="1925.79" cy="-244.07" rx="155.63" ry="21.43"/>
<text text-anchor="middle" x="1925.79" y="-239.07" font-family="Times,serif" font-size="20.00">On(right_box,right_table)</text>
</g>
<!-- aabc9ef4&#45;96f2&#45;4d62&#45;8e79&#45;3f561050fa9a&#45;&gt;2e50d365&#45;0db6&#45;4a5c&#45;8912&#45;3eb69f809fca -->
<g id="edge21" class="edge">
<title>aabc9ef4&#45;96f2&#45;4d62&#45;8e79&#45;3f561050fa9a&#45;&gt;2e50d365&#45;0db6&#45;4a5c&#45;8912&#45;3eb69f809fca</title>
<path fill="none" stroke="black" d="M1787.41,-306.95C1808.37,-297.57 1843.36,-281.93 1872.91,-268.71"/>
<polygon fill="black" stroke="black" points="1874.58,-271.8 1882.28,-264.52 1871.73,-265.41 1874.58,-271.8"/>
</g>
<!-- 666c742a&#45;59aa&#45;4ae8&#45;85b3&#45;d207b0cb96c5 -->
<g id="node23" class="node">
<title>666c742a&#45;59aa&#45;4ae8&#45;85b3&#45;d207b0cb96c5</title>
<ellipse fill="#ffff80" stroke="black" cx="2259.79" cy="-244.07" rx="160.53" ry="21.43"/>
<text text-anchor="middle" x="2259.79" y="-239.07" font-family="Times,serif" font-size="20.00">IsHandEmpty(left_franka)</text>
</g>
<!-- aabc9ef4&#45;96f2&#45;4d62&#45;8e79&#45;3f561050fa9a&#45;&gt;666c742a&#45;59aa&#45;4ae8&#45;85b3&#45;d207b0cb96c5 -->
<g id="edge22" class="edge">
<title>aabc9ef4&#45;96f2&#45;4d62&#45;8e79&#45;3f561050fa9a&#45;&gt;666c742a&#45;59aa&#45;4ae8&#45;85b3&#45;d207b0cb96c5</title>
<path fill="none" stroke="black" d="M1787.43,-312.61C1845.15,-304.36 2024.2,-278.76 2144.51,-261.55"/>
<polygon fill="black" stroke="black" points="2145.11,-265 2154.52,-260.12 2144.12,-258.07 2145.11,-265"/>
</g>
<!-- d688b6c9&#45;b894&#45;4c02&#45;8f4d&#45;4c4f5494e124 -->
<g id="node24" class="node">
<title>d688b6c9&#45;b894&#45;4c02&#45;8f4d&#45;4c4f5494e124</title>
<polygon fill="lightgreen" stroke="black" points="2702.79,-262.07 2438.79,-262.07 2438.79,-226.07 2702.79,-226.07 2702.79,-262.07"/>
<text text-anchor="middle" x="2570.79" y="-239.07" font-family="Times,serif" font-size="20.00">PickUpRightFranka(right_box)</text>
</g>
<!-- aabc9ef4&#45;96f2&#45;4d62&#45;8e79&#45;3f561050fa9a&#45;&gt;d688b6c9&#45;b894&#45;4c02&#45;8f4d&#45;4c4f5494e124 -->
<g id="edge23" class="edge">
<title>aabc9ef4&#45;96f2&#45;4d62&#45;8e79&#45;3f561050fa9a&#45;&gt;d688b6c9&#45;b894&#45;4c02&#45;8f4d&#45;4c4f5494e124</title>
<path fill="none" stroke="black" d="M1787.49,-314.32C1865.94,-310.22 2176.1,-293.03 2429.79,-265.28 2435.24,-264.68 2440.81,-264.04 2446.43,-263.36"/>
<polygon fill="black" stroke="black" points="2447.1,-266.8 2456.59,-262.1 2446.24,-259.85 2447.1,-266.8"/>
</g>
</g>
</svg>
