<?xml version="1.0" encoding="UTF-8" standalone="no"?>
<!DOCTYPE svg PUBLIC "-//W3C//DTD SVG 1.1//EN"
 "http://www.w3.org/Graphics/SVG/1.1/DTD/svg11.dtd">
<!-- Generated by graphviz version 2.43.0 (0)
 -->
<!-- Title: pastafarianism Pages: 1 -->
<svg width="1568pt" height="327pt"
 viewBox="0.00 0.00 1568.33 326.85" xmlns="http://www.w3.org/2000/svg" xmlns:xlink="http://www.w3.org/1999/xlink">
<g id="graph0" class="graph" transform="scale(1 1) rotate(0) translate(4 322.85)">
<title>pastafarianism</title>
<polygon fill="white" stroke="transparent" points="-4,4 -4,-322.85 1564.33,-322.85 1564.33,4 -4,4"/>
<!-- bdc1038c&#45;be42&#45;437f&#45;adbf&#45;632f3d63b598 -->
<g id="node1" class="node">
<title>bdc1038c&#45;be42&#45;437f&#45;adbf&#45;632f3d63b598</title>
<polygon fill="#b0ffff" stroke="black" points="526.83,-318.85 490.83,-318.85 490.83,-288.85 526.83,-288.85 526.83,-318.85"/>
<text text-anchor="middle" x="508.83" y="-298.85" font-family="Times,serif" font-size="20.00"> ? </text>
</g>
<!-- 22de11e9&#45;1374&#45;4096&#45;9ec4&#45;ee3143545cf6 -->
<g id="node2" class="node">
<title>22de11e9&#45;1374&#45;4096&#45;9ec4&#45;ee3143545cf6</title>
<polygon fill="#ff8080" stroke="black" points="354.33,-252.85 317.33,-252.85 317.33,-222.85 354.33,-222.85 354.33,-252.85"/>
<text text-anchor="middle" x="335.83" y="-232.85" font-family="Times,serif" font-size="20.00">→</text>
</g>
<!-- bdc1038c&#45;be42&#45;437f&#45;adbf&#45;632f3d63b598&#45;&gt;22de11e9&#45;1374&#45;4096&#45;9ec4&#45;ee3143545cf6 -->
<g id="edge1" class="edge">
<title>bdc1038c&#45;be42&#45;437f&#45;adbf&#45;632f3d63b598&#45;&gt;22de11e9&#45;1374&#45;4096&#45;9ec4&#45;ee3143545cf6</title>
<path fill="none" stroke="black" d="M490.64,-296.12C460.56,-285 400.21,-262.67 364.4,-249.42"/>
<polygon fill="black" stroke="black" points="365.15,-245.97 354.56,-245.78 362.72,-252.53 365.15,-245.97"/>
</g>
<!-- d04cdec0&#45;2ea4&#45;4685&#45;90c0&#45;bbd93d7ce14f -->
<g id="node5" class="node">
<title>d04cdec0&#45;2ea4&#45;4685&#45;90c0&#45;bbd93d7ce14f</title>
<polygon fill="#ff8080" stroke="black" points="527.33,-252.85 490.33,-252.85 490.33,-222.85 527.33,-222.85 527.33,-252.85"/>
<text text-anchor="middle" x="508.83" y="-232.85" font-family="Times,serif" font-size="20.00">→</text>
</g>
<!-- bdc1038c&#45;be42&#45;437f&#45;adbf&#45;632f3d63b598&#45;&gt;d04cdec0&#45;2ea4&#45;4685&#45;90c0&#45;bbd93d7ce14f -->
<g id="edge4" class="edge">
<title>bdc1038c&#45;be42&#45;437f&#45;adbf&#45;632f3d63b598&#45;&gt;d04cdec0&#45;2ea4&#45;4685&#45;90c0&#45;bbd93d7ce14f</title>
<path fill="none" stroke="black" d="M508.83,-288.65C508.83,-281.19 508.83,-271.84 508.83,-263.27"/>
<polygon fill="black" stroke="black" points="512.33,-263.02 508.83,-253.02 505.33,-263.02 512.33,-263.02"/>
</g>
<!-- d6e4368f&#45;3e59&#45;40d2&#45;b3fd&#45;c5ebbb809630 -->
<g id="node15" class="node">
<title>d6e4368f&#45;3e59&#45;40d2&#45;b3fd&#45;c5ebbb809630</title>
<polygon fill="#ff8080" stroke="black" points="726.33,-252.85 689.33,-252.85 689.33,-222.85 726.33,-222.85 726.33,-252.85"/>
<text text-anchor="middle" x="707.83" y="-232.85" font-family="Times,serif" font-size="20.00">→</text>
</g>
<!-- bdc1038c&#45;be42&#45;437f&#45;adbf&#45;632f3d63b598&#45;&gt;d6e4368f&#45;3e59&#45;40d2&#45;b3fd&#45;c5ebbb809630 -->
<g id="edge14" class="edge">
<title>bdc1038c&#45;be42&#45;437f&#45;adbf&#45;632f3d63b598&#45;&gt;d6e4368f&#45;3e59&#45;40d2&#45;b3fd&#45;c5ebbb809630</title>
<path fill="none" stroke="black" d="M526.84,-297.06C561.58,-285.89 638.06,-261.29 679.62,-247.93"/>
<polygon fill="black" stroke="black" points="680.69,-251.26 689.14,-244.86 678.55,-244.59 680.69,-251.26"/>
</g>
<!-- f887bb67&#45;fb4a&#45;4c56&#45;89ae&#45;5a5b04fa7d61 -->
<g id="node3" class="node">
<title>f887bb67&#45;fb4a&#45;4c56&#45;89ae&#45;5a5b04fa7d61</title>
<ellipse fill="#ffff80" stroke="black" cx="207.83" cy="-165.64" rx="55.31" ry="21.43"/>
<text text-anchor="middle" x="207.83" y="-160.64" font-family="Times,serif" font-size="20.00">On(b,a)</text>
</g>
<!-- 22de11e9&#45;1374&#45;4096&#45;9ec4&#45;ee3143545cf6&#45;&gt;f887bb67&#45;fb4a&#45;4c56&#45;89ae&#45;5a5b04fa7d61 -->
<g id="edge2" class="edge">
<title>22de11e9&#45;1374&#45;4096&#45;9ec4&#45;ee3143545cf6&#45;&gt;f887bb67&#45;fb4a&#45;4c56&#45;89ae&#45;5a5b04fa7d61</title>
<path fill="none" stroke="black" d="M317.22,-226.64C298.98,-216.64 270.6,-201.07 247.32,-188.3"/>
<polygon fill="black" stroke="black" points="248.81,-185.12 238.36,-183.38 245.44,-191.26 248.81,-185.12"/>
</g>
<!-- e29605d1&#45;b03c&#45;4d96&#45;add0&#45;3bdd68e2cdf4 -->
<g id="node4" class="node">
<title>e29605d1&#45;b03c&#45;4d96&#45;add0&#45;3bdd68e2cdf4</title>
<ellipse fill="#ffff80" stroke="black" cx="335.83" cy="-165.64" rx="55.31" ry="21.43"/>
<text text-anchor="middle" x="335.83" y="-160.64" font-family="Times,serif" font-size="20.00">On(c,b)</text>
</g>
<!-- 22de11e9&#45;1374&#45;4096&#45;9ec4&#45;ee3143545cf6&#45;&gt;e29605d1&#45;b03c&#45;4d96&#45;add0&#45;3bdd68e2cdf4 -->
<g id="edge3" class="edge">
<title>22de11e9&#45;1374&#45;4096&#45;9ec4&#45;ee3143545cf6&#45;&gt;e29605d1&#45;b03c&#45;4d96&#45;add0&#45;3bdd68e2cdf4</title>
<path fill="none" stroke="black" d="M335.83,-222.64C335.83,-215.27 335.83,-205.96 335.83,-197.07"/>
<polygon fill="black" stroke="black" points="339.33,-196.95 335.83,-186.95 332.33,-196.95 339.33,-196.95"/>
</g>
<!-- a4e5719f&#45;4007&#45;43e5&#45;833d&#45;0212e58a369d -->
<g id="node6" class="node">
<title>a4e5719f&#45;4007&#45;43e5&#45;833d&#45;0212e58a369d</title>
<ellipse fill="#ffff80" stroke="black" cx="463.83" cy="-165.64" rx="55.31" ry="21.43"/>
<text text-anchor="middle" x="463.83" y="-160.64" font-family="Times,serif" font-size="20.00">On(b,a)</text>
</g>
<!-- d04cdec0&#45;2ea4&#45;4685&#45;90c0&#45;bbd93d7ce14f&#45;&gt;a4e5719f&#45;4007&#45;43e5&#45;833d&#45;0212e58a369d -->
<g id="edge5" class="edge">
<title>d04cdec0&#45;2ea4&#45;4685&#45;90c0&#45;bbd93d7ce14f&#45;&gt;a4e5719f&#45;4007&#45;43e5&#45;833d&#45;0212e58a369d</title>
<path fill="none" stroke="black" d="M499.73,-222.64C494.61,-214.67 488.05,-204.43 481.94,-194.89"/>
<polygon fill="black" stroke="black" points="484.85,-192.94 476.51,-186.41 478.95,-196.72 484.85,-192.94"/>
</g>
<!-- 471936e7&#45;9715&#45;4837&#45;84fc&#45;0316a7fcd75b -->
<g id="node7" class="node">
<title>471936e7&#45;9715&#45;4837&#45;84fc&#45;0316a7fcd75b</title>
<polygon fill="#b0ffff" stroke="black" points="572.83,-180.64 536.83,-180.64 536.83,-150.64 572.83,-150.64 572.83,-180.64"/>
<text text-anchor="middle" x="554.83" y="-160.64" font-family="Times,serif" font-size="20.00"> ? </text>
</g>
<!-- d04cdec0&#45;2ea4&#45;4685&#45;90c0&#45;bbd93d7ce14f&#45;&gt;471936e7&#45;9715&#45;4837&#45;84fc&#45;0316a7fcd75b -->
<g id="edge6" class="edge">
<title>d04cdec0&#45;2ea4&#45;4685&#45;90c0&#45;bbd93d7ce14f&#45;&gt;471936e7&#45;9715&#45;4837&#45;84fc&#45;0316a7fcd75b</title>
<path fill="none" stroke="black" d="M518.14,-222.64C524.38,-213.13 532.72,-200.39 539.88,-189.47"/>
<polygon fill="black" stroke="black" points="542.98,-191.11 545.54,-180.83 537.13,-187.27 542.98,-191.11"/>
</g>
<!-- 1e8e1ad1&#45;ad8f&#45;426e&#45;9896&#45;0e71d5935659 -->
<g id="node8" class="node">
<title>1e8e1ad1&#45;ad8f&#45;426e&#45;9896&#45;0e71d5935659</title>
<polygon fill="#ff8080" stroke="black" points="234.33,-108.43 197.33,-108.43 197.33,-78.43 234.33,-78.43 234.33,-108.43"/>
<text text-anchor="middle" x="215.83" y="-88.43" font-family="Times,serif" font-size="20.00">→</text>
</g>
<!-- 471936e7&#45;9715&#45;4837&#45;84fc&#45;0316a7fcd75b&#45;&gt;1e8e1ad1&#45;ad8f&#45;426e&#45;9896&#45;0e71d5935659 -->
<g id="edge7" class="edge">
<title>471936e7&#45;9715&#45;4837&#45;84fc&#45;0316a7fcd75b&#45;&gt;1e8e1ad1&#45;ad8f&#45;426e&#45;9896&#45;0e71d5935659</title>
<path fill="none" stroke="black" d="M538.47,-150.46C535.12,-148.13 531.5,-145.98 527.83,-144.43 429.84,-102.91 301.2,-95.6 244.63,-94.5"/>
<polygon fill="black" stroke="black" points="244.67,-91 234.62,-94.35 244.57,-98 244.67,-91"/>
</g>
<!-- 78b00a6b&#45;87fd&#45;4e6e&#45;8fa9&#45;c0ac8e0b93af -->
<g id="node11" class="node">
<title>78b00a6b&#45;87fd&#45;4e6e&#45;8fa9&#45;c0ac8e0b93af</title>
<polygon fill="#ff8080" stroke="black" points="573.33,-108.43 536.33,-108.43 536.33,-78.43 573.33,-78.43 573.33,-108.43"/>
<text text-anchor="middle" x="554.83" y="-88.43" font-family="Times,serif" font-size="20.00">→</text>
</g>
<!-- 471936e7&#45;9715&#45;4837&#45;84fc&#45;0316a7fcd75b&#45;&gt;78b00a6b&#45;87fd&#45;4e6e&#45;8fa9&#45;c0ac8e0b93af -->
<g id="edge10" class="edge">
<title>471936e7&#45;9715&#45;4837&#45;84fc&#45;0316a7fcd75b&#45;&gt;78b00a6b&#45;87fd&#45;4e6e&#45;8fa9&#45;c0ac8e0b93af</title>
<path fill="none" stroke="black" d="M554.83,-150.43C554.83,-141.39 554.83,-129.44 554.83,-118.9"/>
<polygon fill="black" stroke="black" points="558.33,-118.61 554.83,-108.61 551.33,-118.61 558.33,-118.61"/>
</g>
<!-- 79d797f5&#45;72b5&#45;4b30&#45;af64&#45;aa5967997810 -->
<g id="node9" class="node">
<title>79d797f5&#45;72b5&#45;4b30&#45;af64&#45;aa5967997810</title>
<ellipse fill="#ffff80" stroke="black" cx="72.83" cy="-21.21" rx="72.66" ry="21.43"/>
<text text-anchor="middle" x="72.83" y="-16.21" font-family="Times,serif" font-size="20.00">Holding(c)</text>
</g>
<!-- 1e8e1ad1&#45;ad8f&#45;426e&#45;9896&#45;0e71d5935659&#45;&gt;79d797f5&#45;72b5&#45;4b30&#45;af64&#45;aa5967997810 -->
<g id="edge8" class="edge">
<title>1e8e1ad1&#45;ad8f&#45;426e&#45;9896&#45;0e71d5935659&#45;&gt;79d797f5&#45;72b5&#45;4b30&#45;af64&#45;aa5967997810</title>
<path fill="none" stroke="black" d="M197.14,-83.25C177.09,-73.4 144.53,-57.42 117.77,-44.28"/>
<polygon fill="black" stroke="black" points="119.09,-41.03 108.57,-39.76 116,-47.31 119.09,-41.03"/>
</g>
<!-- b4c97ebf&#45;1d35&#45;4f05&#45;aafb&#45;4c46c723bcab -->
<g id="node10" class="node">
<title>b4c97ebf&#45;1d35&#45;4f05&#45;aafb&#45;4c46c723bcab</title>
<polygon fill="lightgreen" stroke="black" points="267.83,-39.21 163.83,-39.21 163.83,-3.21 267.83,-3.21 267.83,-39.21"/>
<text text-anchor="middle" x="215.83" y="-16.21" font-family="Times,serif" font-size="20.00">PutOn(c,b)</text>
</g>
<!-- 1e8e1ad1&#45;ad8f&#45;426e&#45;9896&#45;0e71d5935659&#45;&gt;b4c97ebf&#45;1d35&#45;4f05&#45;aafb&#45;4c46c723bcab -->
<g id="edge9" class="edge">
<title>1e8e1ad1&#45;ad8f&#45;426e&#45;9896&#45;0e71d5935659&#45;&gt;b4c97ebf&#45;1d35&#45;4f05&#45;aafb&#45;4c46c723bcab</title>
<path fill="none" stroke="black" d="M215.83,-78.22C215.83,-69.98 215.83,-59.32 215.83,-49.52"/>
<polygon fill="black" stroke="black" points="219.33,-49.38 215.83,-39.38 212.33,-49.38 219.33,-49.38"/>
</g>
<!-- 40ec172d&#45;5049&#45;454c&#45;8e02&#45;a2cfe233a7e1 -->
<g id="node12" class="node">
<title>40ec172d&#45;5049&#45;454c&#45;8e02&#45;a2cfe233a7e1</title>
<ellipse fill="#ffff80" stroke="black" cx="361.83" cy="-21.21" rx="75.82" ry="21.43"/>
<text text-anchor="middle" x="361.83" y="-16.21" font-family="Times,serif" font-size="20.00">On(c,table)</text>
</g>
<!-- 78b00a6b&#45;87fd&#45;4e6e&#45;8fa9&#45;c0ac8e0b93af&#45;&gt;40ec172d&#45;5049&#45;454c&#45;8e02&#45;a2cfe233a7e1 -->
<g id="edge11" class="edge">
<title>78b00a6b&#45;87fd&#45;4e6e&#45;8fa9&#45;c0ac8e0b93af&#45;&gt;40ec172d&#45;5049&#45;454c&#45;8e02&#45;a2cfe233a7e1</title>
<path fill="none" stroke="black" d="M536.33,-85.69C508.9,-75.72 456.37,-56.61 416.08,-41.95"/>
<polygon fill="black" stroke="black" points="417.24,-38.65 406.64,-38.52 414.85,-45.22 417.24,-38.65"/>
</g>
<!-- 8c60a4c9&#45;8117&#45;48fe&#45;8120&#45;c7e3301ef20b -->
<g id="node13" class="node">
<title>8c60a4c9&#45;8117&#45;48fe&#45;8120&#45;c7e3301ef20b</title>
<ellipse fill="#ffff80" stroke="black" cx="554.83" cy="-21.21" rx="98.99" ry="21.43"/>
<text text-anchor="middle" x="554.83" y="-16.21" font-family="Times,serif" font-size="20.00">IsHandEmpty()</text>
</g>
<!-- 78b00a6b&#45;87fd&#45;4e6e&#45;8fa9&#45;c0ac8e0b93af&#45;&gt;8c60a4c9&#45;8117&#45;48fe&#45;8120&#45;c7e3301ef20b -->
<g id="edge12" class="edge">
<title>78b00a6b&#45;87fd&#45;4e6e&#45;8fa9&#45;c0ac8e0b93af&#45;&gt;8c60a4c9&#45;8117&#45;48fe&#45;8120&#45;c7e3301ef20b</title>
<path fill="none" stroke="black" d="M554.83,-78.22C554.83,-70.84 554.83,-61.54 554.83,-52.64"/>
<polygon fill="black" stroke="black" points="558.33,-52.52 554.83,-42.52 551.33,-52.52 558.33,-52.52"/>
</g>
<!-- e8fac315&#45;bba5&#45;4601&#45;901b&#45;fba72d54aaca -->
<g id="node14" class="node">
<title>e8fac315&#45;bba5&#45;4601&#45;901b&#45;fba72d54aaca</title>
<polygon fill="lightgreen" stroke="black" points="769.83,-39.21 671.83,-39.21 671.83,-3.21 769.83,-3.21 769.83,-39.21"/>
<text text-anchor="middle" x="720.83" y="-16.21" font-family="Times,serif" font-size="20.00">PickUp(c)</text>
</g>
<!-- 78b00a6b&#45;87fd&#45;4e6e&#45;8fa9&#45;c0ac8e0b93af&#45;&gt;e8fac315&#45;bba5&#45;4601&#45;901b&#45;fba72d54aaca -->
<g id="edge13" class="edge">
<title>78b00a6b&#45;87fd&#45;4e6e&#45;8fa9&#45;c0ac8e0b93af&#45;&gt;e8fac315&#45;bba5&#45;4601&#45;901b&#45;fba72d54aaca</title>
<path fill="none" stroke="black" d="M573.55,-84.51C597.01,-74.59 638.13,-57.19 670.97,-43.31"/>
<polygon fill="black" stroke="black" points="672.58,-46.42 680.42,-39.31 669.85,-39.98 672.58,-46.42"/>
</g>
<!-- 6de8280f&#45;83c3&#45;401f&#45;a1c8&#45;d2713958798f -->
<g id="node16" class="node">
<title>6de8280f&#45;83c3&#45;401f&#45;a1c8&#45;d2713958798f</title>
<ellipse fill="#ffff80" stroke="black" cx="707.83" cy="-165.64" rx="75.82" ry="21.43"/>
<text text-anchor="middle" x="707.83" y="-160.64" font-family="Times,serif" font-size="20.00">On(c,table)</text>
</g>
<!-- d6e4368f&#45;3e59&#45;40d2&#45;b3fd&#45;c5ebbb809630&#45;&gt;6de8280f&#45;83c3&#45;401f&#45;a1c8&#45;d2713958798f -->
<g id="edge15" class="edge">
<title>d6e4368f&#45;3e59&#45;40d2&#45;b3fd&#45;c5ebbb809630&#45;&gt;6de8280f&#45;83c3&#45;401f&#45;a1c8&#45;d2713958798f</title>
<path fill="none" stroke="black" d="M707.83,-222.64C707.83,-215.27 707.83,-205.96 707.83,-197.07"/>
<polygon fill="black" stroke="black" points="711.33,-196.95 707.83,-186.95 704.33,-196.95 711.33,-196.95"/>
</g>
<!-- 3a59314d&#45;37b5&#45;490a&#45;811c&#45;1546b1f0e5eb -->
<g id="node17" class="node">
<title>3a59314d&#45;37b5&#45;490a&#45;811c&#45;1546b1f0e5eb</title>
<polygon fill="#b0ffff" stroke="black" points="951.83,-180.64 915.83,-180.64 915.83,-150.64 951.83,-150.64 951.83,-180.64"/>
<text text-anchor="middle" x="933.83" y="-160.64" font-family="Times,serif" font-size="20.00"> ? </text>
</g>
<!-- d6e4368f&#45;3e59&#45;40d2&#45;b3fd&#45;c5ebbb809630&#45;&gt;3a59314d&#45;37b5&#45;490a&#45;811c&#45;1546b1f0e5eb -->
<g id="edge16" class="edge">
<title>d6e4368f&#45;3e59&#45;40d2&#45;b3fd&#45;c5ebbb809630&#45;&gt;3a59314d&#45;37b5&#45;490a&#45;811c&#45;1546b1f0e5eb</title>
<path fill="none" stroke="black" d="M726.71,-230.99C766.56,-218.61 859.4,-189.76 906.05,-175.27"/>
<polygon fill="black" stroke="black" points="907.28,-178.55 915.79,-172.24 905.21,-171.87 907.28,-178.55"/>
</g>
<!-- fdb09768&#45;7cb1&#45;4da9&#45;898f&#45;3d95ea725608 -->
<g id="node18" class="node">
<title>fdb09768&#45;7cb1&#45;4da9&#45;898f&#45;3d95ea725608</title>
<polygon fill="#ff8080" stroke="black" points="952.33,-108.43 915.33,-108.43 915.33,-78.43 952.33,-78.43 952.33,-108.43"/>
<text text-anchor="middle" x="933.83" y="-88.43" font-family="Times,serif" font-size="20.00">→</text>
</g>
<!-- 3a59314d&#45;37b5&#45;490a&#45;811c&#45;1546b1f0e5eb&#45;&gt;fdb09768&#45;7cb1&#45;4da9&#45;898f&#45;3d95ea725608 -->
<g id="edge17" class="edge">
<title>3a59314d&#45;37b5&#45;490a&#45;811c&#45;1546b1f0e5eb&#45;&gt;fdb09768&#45;7cb1&#45;4da9&#45;898f&#45;3d95ea725608</title>
<path fill="none" stroke="black" d="M933.83,-150.43C933.83,-141.39 933.83,-129.44 933.83,-118.9"/>
<polygon fill="black" stroke="black" points="937.33,-118.61 933.83,-108.61 930.33,-118.61 937.33,-118.61"/>
</g>
<!-- 240e058f&#45;4913&#45;4750&#45;8bbe&#45;112936bdc760 -->
<g id="node21" class="node">
<title>240e058f&#45;4913&#45;4750&#45;8bbe&#45;112936bdc760</title>
<polygon fill="#ff8080" stroke="black" points="1266.33,-108.43 1229.33,-108.43 1229.33,-78.43 1266.33,-78.43 1266.33,-108.43"/>
<text text-anchor="middle" x="1247.83" y="-88.43" font-family="Times,serif" font-size="20.00">→</text>
</g>
<!-- 3a59314d&#45;37b5&#45;490a&#45;811c&#45;1546b1f0e5eb&#45;&gt;240e058f&#45;4913&#45;4750&#45;8bbe&#45;112936bdc760 -->
<g id="edge20" class="edge">
<title>3a59314d&#45;37b5&#45;490a&#45;811c&#45;1546b1f0e5eb&#45;&gt;240e058f&#45;4913&#45;4750&#45;8bbe&#45;112936bdc760</title>
<path fill="none" stroke="black" d="M952.07,-160.56C1004.41,-148.86 1155.39,-115.1 1219.02,-100.87"/>
<polygon fill="black" stroke="black" points="1220.15,-104.2 1229.15,-98.6 1218.62,-97.37 1220.15,-104.2"/>
</g>
<!-- 7c86ed0b&#45;6941&#45;436b&#45;913f&#45;0eb668ca2173 -->
<g id="node19" class="node">
<title>7c86ed0b&#45;6941&#45;436b&#45;913f&#45;0eb668ca2173</title>
<ellipse fill="#ffff80" stroke="black" cx="861.83" cy="-21.21" rx="73.58" ry="21.43"/>
<text text-anchor="middle" x="861.83" y="-16.21" font-family="Times,serif" font-size="20.00">Holding(b)</text>
</g>
<!-- fdb09768&#45;7cb1&#45;4da9&#45;898f&#45;3d95ea725608&#45;&gt;7c86ed0b&#45;6941&#45;436b&#45;913f&#45;0eb668ca2173 -->
<g id="edge18" class="edge">
<title>fdb09768&#45;7cb1&#45;4da9&#45;898f&#45;3d95ea725608&#45;&gt;7c86ed0b&#45;6941&#45;436b&#45;913f&#45;0eb668ca2173</title>
<path fill="none" stroke="black" d="M919.26,-78.22C910.6,-69.77 899.33,-58.78 889.08,-48.78"/>
<polygon fill="black" stroke="black" points="891.44,-46.2 881.84,-41.72 886.55,-51.21 891.44,-46.2"/>
</g>
<!-- 43d6877f&#45;2d3c&#45;4a04&#45;a074&#45;d07e88c84cc0 -->
<g id="node20" class="node">
<title>43d6877f&#45;2d3c&#45;4a04&#45;a074&#45;d07e88c84cc0</title>
<polygon fill="lightgreen" stroke="black" points="1057.83,-39.21 953.83,-39.21 953.83,-3.21 1057.83,-3.21 1057.83,-39.21"/>
<text text-anchor="middle" x="1005.83" y="-16.21" font-family="Times,serif" font-size="20.00">PutOn(b,a)</text>
</g>
<!-- fdb09768&#45;7cb1&#45;4da9&#45;898f&#45;3d95ea725608&#45;&gt;43d6877f&#45;2d3c&#45;4a04&#45;a074&#45;d07e88c84cc0 -->
<g id="edge19" class="edge">
<title>fdb09768&#45;7cb1&#45;4da9&#45;898f&#45;3d95ea725608&#45;&gt;43d6877f&#45;2d3c&#45;4a04&#45;a074&#45;d07e88c84cc0</title>
<path fill="none" stroke="black" d="M948.4,-78.22C957.75,-69.1 970.13,-57.03 981,-46.43"/>
<polygon fill="black" stroke="black" points="983.51,-48.87 988.23,-39.38 978.63,-43.85 983.51,-48.87"/>
</g>
<!-- b523474e&#45;62ac&#45;41fa&#45;abf5&#45;82bc72c08668 -->
<g id="node22" class="node">
<title>b523474e&#45;62ac&#45;41fa&#45;abf5&#45;82bc72c08668</title>
<ellipse fill="#ffff80" stroke="black" cx="1151.83" cy="-21.21" rx="75.82" ry="21.43"/>
<text text-anchor="middle" x="1151.83" y="-16.21" font-family="Times,serif" font-size="20.00">On(b,table)</text>
</g>
<!-- 240e058f&#45;4913&#45;4750&#45;8bbe&#45;112936bdc760&#45;&gt;b523474e&#45;62ac&#45;41fa&#45;abf5&#45;82bc72c08668 -->
<g id="edge21" class="edge">
<title>240e058f&#45;4913&#45;4750&#45;8bbe&#45;112936bdc760&#45;&gt;b523474e&#45;62ac&#45;41fa&#45;abf5&#45;82bc72c08668</title>
<path fill="none" stroke="black" d="M1229.32,-78.89C1217.12,-69.96 1200.76,-58 1186.21,-47.36"/>
<polygon fill="black" stroke="black" points="1188.04,-44.36 1177.91,-41.28 1183.91,-50.01 1188.04,-44.36"/>
</g>
<!-- 0576b157&#45;dc09&#45;4bf2&#45;bdba&#45;35fbc07b271d -->
<g id="node23" class="node">
<title>0576b157&#45;dc09&#45;4bf2&#45;bdba&#45;35fbc07b271d</title>
<ellipse fill="#ffff80" stroke="black" cx="1344.83" cy="-21.21" rx="98.99" ry="21.43"/>
<text text-anchor="middle" x="1344.83" y="-16.21" font-family="Times,serif" font-size="20.00">IsHandEmpty()</text>
</g>
<!-- 240e058f&#45;4913&#45;4750&#45;8bbe&#45;112936bdc760&#45;&gt;0576b157&#45;dc09&#45;4bf2&#45;bdba&#45;35fbc07b271d -->
<g id="edge22" class="edge">
<title>240e058f&#45;4913&#45;4750&#45;8bbe&#45;112936bdc760&#45;&gt;0576b157&#45;dc09&#45;4bf2&#45;bdba&#45;35fbc07b271d</title>
<path fill="none" stroke="black" d="M1266.53,-78.89C1278.68,-70.09 1294.91,-58.35 1309.43,-47.84"/>
<polygon fill="black" stroke="black" points="1311.7,-50.52 1317.75,-41.82 1307.59,-44.85 1311.7,-50.52"/>
</g>
<!-- 78629206&#45;6ad2&#45;4d18&#45;9600&#45;25ed3e915dd7 -->
<g id="node24" class="node">
<title>78629206&#45;6ad2&#45;4d18&#45;9600&#45;25ed3e915dd7</title>
<polygon fill="lightgreen" stroke="black" points="1560.33,-39.21 1461.33,-39.21 1461.33,-3.21 1560.33,-3.21 1560.33,-39.21"/>
<text text-anchor="middle" x="1510.83" y="-16.21" font-family="Times,serif" font-size="20.00">PickUp(b)</text>
</g>
<!-- 240e058f&#45;4913&#45;4750&#45;8bbe&#45;112936bdc760&#45;&gt;78629206&#45;6ad2&#45;4d18&#45;9600&#45;25ed3e915dd7 -->
<g id="edge23" class="edge">
<title>240e058f&#45;4913&#45;4750&#45;8bbe&#45;112936bdc760&#45;&gt;78629206&#45;6ad2&#45;4d18&#45;9600&#45;25ed3e915dd7</title>
<path fill="none" stroke="black" d="M1266.37,-88.53C1302.52,-80.8 1384.85,-62.51 1452.83,-42.43 1453.04,-42.36 1453.25,-42.3 1453.47,-42.24"/>
<polygon fill="black" stroke="black" points="1454.64,-45.54 1463.16,-39.24 1452.57,-38.85 1454.64,-45.54"/>
</g>
</g>
</svg>
