<?xml version="1.0" encoding="UTF-8" standalone="no"?>
<!DOCTYPE svg PUBLIC "-//W3C//DTD SVG 1.1//EN"
 "http://www.w3.org/Graphics/SVG/1.1/DTD/svg11.dtd">
<!-- Generated by graphviz version 2.43.0 (0)
 -->
<!-- Title: pastafarianism Pages: 1 -->
<svg width="778pt" height="195pt"
 viewBox="0.00 0.00 777.83 194.85" xmlns="http://www.w3.org/2000/svg" xmlns:xlink="http://www.w3.org/1999/xlink">
<g id="graph0" class="graph" transform="scale(1 1) rotate(0) translate(4 190.85)">
<title>pastafarianism</title>
<polygon fill="white" stroke="transparent" points="-4,4 -4,-190.85 773.83,-190.85 773.83,4 -4,4"/>
<!-- a427e6e7&#45;d6ad&#45;47b0&#45;9f1f&#45;52d2f14782a8 -->
<g id="node1" class="node">
<title>a427e6e7&#45;d6ad&#45;47b0&#45;9f1f&#45;52d2f14782a8</title>
<polygon fill="#b0ffff" stroke="black" points="233.83,-186.85 197.83,-186.85 197.83,-156.85 233.83,-156.85 233.83,-186.85"/>
<text text-anchor="middle" x="215.83" y="-166.85" font-family="Times,serif" font-size="20.00"> ? </text>
</g>
<!-- 6fb2b1d3&#45;503a&#45;4e2a&#45;8e8c&#45;8507aa6b174e -->
<g id="node2" class="node">
<title>6fb2b1d3&#45;503a&#45;4e2a&#45;8e8c&#45;8507aa6b174e</title>
<ellipse fill="#ffff80" stroke="black" cx="123.83" cy="-99.64" rx="55.31" ry="21.43"/>
<text text-anchor="middle" x="123.83" y="-94.64" font-family="Times,serif" font-size="20.00">On(a,b)</text>
</g>
<!-- a427e6e7&#45;d6ad&#45;47b0&#45;9f1f&#45;52d2f14782a8&#45;&gt;6fb2b1d3&#45;503a&#45;4e2a&#45;8e8c&#45;8507aa6b174e -->
<g id="edge1" class="edge">
<title>a427e6e7&#45;d6ad&#45;47b0&#45;9f1f&#45;52d2f14782a8&#45;&gt;6fb2b1d3&#45;503a&#45;4e2a&#45;8e8c&#45;8507aa6b174e</title>
<path fill="none" stroke="black" d="M197.66,-156.98C185.75,-147.89 169.86,-135.77 155.87,-125.09"/>
<polygon fill="black" stroke="black" points="157.97,-122.29 147.9,-119.01 153.72,-127.86 157.97,-122.29"/>
</g>
<!-- 45598b71&#45;e7a7&#45;47ec&#45;ac4a&#45;12c56265f1d5 -->
<g id="node3" class="node">
<title>45598b71&#45;e7a7&#45;47ec&#45;ac4a&#45;12c56265f1d5</title>
<polygon fill="#ff8080" stroke="black" points="234.33,-114.64 197.33,-114.64 197.33,-84.64 234.33,-84.64 234.33,-114.64"/>
<text text-anchor="middle" x="215.83" y="-94.64" font-family="Times,serif" font-size="20.00">→</text>
</g>
<!-- a427e6e7&#45;d6ad&#45;47b0&#45;9f1f&#45;52d2f14782a8&#45;&gt;45598b71&#45;e7a7&#45;47ec&#45;ac4a&#45;12c56265f1d5 -->
<g id="edge2" class="edge">
<title>a427e6e7&#45;d6ad&#45;47b0&#45;9f1f&#45;52d2f14782a8&#45;&gt;45598b71&#45;e7a7&#45;47ec&#45;ac4a&#45;12c56265f1d5</title>
<path fill="none" stroke="black" d="M215.83,-156.64C215.83,-147.6 215.83,-135.65 215.83,-125.12"/>
<polygon fill="black" stroke="black" points="219.33,-124.83 215.83,-114.83 212.33,-124.83 219.33,-124.83"/>
</g>
<!-- 4539112d&#45;4295&#45;4fbe&#45;89ed&#45;d3d05c796a2c -->
<g id="node6" class="node">
<title>4539112d&#45;4295&#45;4fbe&#45;89ed&#45;d3d05c796a2c</title>
<polygon fill="#ff8080" stroke="black" points="476.33,-114.64 439.33,-114.64 439.33,-84.64 476.33,-84.64 476.33,-114.64"/>
<text text-anchor="middle" x="457.83" y="-94.64" font-family="Times,serif" font-size="20.00">→</text>
</g>
<!-- a427e6e7&#45;d6ad&#45;47b0&#45;9f1f&#45;52d2f14782a8&#45;&gt;4539112d&#45;4295&#45;4fbe&#45;89ed&#45;d3d05c796a2c -->
<g id="edge5" class="edge">
<title>a427e6e7&#45;d6ad&#45;47b0&#45;9f1f&#45;52d2f14782a8&#45;&gt;4539112d&#45;4295&#45;4fbe&#45;89ed&#45;d3d05c796a2c</title>
<path fill="none" stroke="black" d="M234.02,-165.58C275.79,-153.46 378.83,-123.56 429.19,-108.95"/>
<polygon fill="black" stroke="black" points="430.47,-112.22 439.1,-106.07 428.52,-105.5 430.47,-112.22"/>
</g>
<!-- 39d8028d&#45;928c&#45;413b&#45;86c1&#45;83b6a23712f8 -->
<g id="node4" class="node">
<title>39d8028d&#45;928c&#45;413b&#45;86c1&#45;83b6a23712f8</title>
<ellipse fill="#ffff80" stroke="black" cx="72.83" cy="-21.21" rx="72.66" ry="21.43"/>
<text text-anchor="middle" x="72.83" y="-16.21" font-family="Times,serif" font-size="20.00">Holding(a)</text>
</g>
<!-- 45598b71&#45;e7a7&#45;47ec&#45;ac4a&#45;12c56265f1d5&#45;&gt;39d8028d&#45;928c&#45;413b&#45;86c1&#45;83b6a23712f8 -->
<g id="edge3" class="edge">
<title>45598b71&#45;e7a7&#45;47ec&#45;ac4a&#45;12c56265f1d5&#45;&gt;39d8028d&#45;928c&#45;413b&#45;86c1&#45;83b6a23712f8</title>
<path fill="none" stroke="black" d="M197.15,-84.49C194.09,-82.37 190.92,-80.28 187.83,-78.43 166.59,-65.7 142.05,-53.4 121.11,-43.57"/>
<polygon fill="black" stroke="black" points="122.31,-40.26 111.77,-39.23 119.37,-46.61 122.31,-40.26"/>
</g>
<!-- 0a4aa346&#45;b3a3&#45;4d01&#45;8bcd&#45;d8061c8b6296 -->
<g id="node5" class="node">
<title>0a4aa346&#45;b3a3&#45;4d01&#45;8bcd&#45;d8061c8b6296</title>
<polygon fill="lightgreen" stroke="black" points="267.83,-39.21 163.83,-39.21 163.83,-3.21 267.83,-3.21 267.83,-39.21"/>
<text text-anchor="middle" x="215.83" y="-16.21" font-family="Times,serif" font-size="20.00">PutOn(a,b)</text>
</g>
<!-- 45598b71&#45;e7a7&#45;47ec&#45;ac4a&#45;12c56265f1d5&#45;&gt;0a4aa346&#45;b3a3&#45;4d01&#45;8bcd&#45;d8061c8b6296 -->
<g id="edge4" class="edge">
<title>45598b71&#45;e7a7&#45;47ec&#45;ac4a&#45;12c56265f1d5&#45;&gt;0a4aa346&#45;b3a3&#45;4d01&#45;8bcd&#45;d8061c8b6296</title>
<path fill="none" stroke="black" d="M215.83,-84.62C215.83,-74.86 215.83,-61.51 215.83,-49.66"/>
<polygon fill="black" stroke="black" points="219.33,-49.35 215.83,-39.35 212.33,-49.35 219.33,-49.35"/>
</g>
<!-- 2b93f11f&#45;0707&#45;42ca&#45;bf24&#45;830375f0ffe6 -->
<g id="node7" class="node">
<title>2b93f11f&#45;0707&#45;42ca&#45;bf24&#45;830375f0ffe6</title>
<ellipse fill="#ffff80" stroke="black" cx="361.83" cy="-21.21" rx="75.82" ry="21.43"/>
<text text-anchor="middle" x="361.83" y="-16.21" font-family="Times,serif" font-size="20.00">On(a,table)</text>
</g>
<!-- 4539112d&#45;4295&#45;4fbe&#45;89ed&#45;d3d05c796a2c&#45;&gt;2b93f11f&#45;0707&#45;42ca&#45;bf24&#45;830375f0ffe6 -->
<g id="edge6" class="edge">
<title>4539112d&#45;4295&#45;4fbe&#45;89ed&#45;d3d05c796a2c&#45;&gt;2b93f11f&#45;0707&#45;42ca&#45;bf24&#45;830375f0ffe6</title>
<path fill="none" stroke="black" d="M440.22,-84.62C427.44,-74.44 409.76,-60.37 394.43,-48.16"/>
<polygon fill="black" stroke="black" points="396.2,-45.1 386.2,-41.61 391.84,-50.58 396.2,-45.1"/>
</g>
<!-- d98fccb7&#45;e8c8&#45;4fd8&#45;893d&#45;fe971311fdf8 -->
<g id="node8" class="node">
<title>d98fccb7&#45;e8c8&#45;4fd8&#45;893d&#45;fe971311fdf8</title>
<ellipse fill="#ffff80" stroke="black" cx="554.83" cy="-21.21" rx="98.99" ry="21.43"/>
<text text-anchor="middle" x="554.83" y="-16.21" font-family="Times,serif" font-size="20.00">IsHandEmpty()</text>
</g>
<!-- 4539112d&#45;4295&#45;4fbe&#45;89ed&#45;d3d05c796a2c&#45;&gt;d98fccb7&#45;e8c8&#45;4fd8&#45;893d&#45;fe971311fdf8 -->
<g id="edge7" class="edge">
<title>4539112d&#45;4295&#45;4fbe&#45;89ed&#45;d3d05c796a2c&#45;&gt;d98fccb7&#45;e8c8&#45;4fd8&#45;893d&#45;fe971311fdf8</title>
<path fill="none" stroke="black" d="M475.62,-84.62C488.57,-74.42 506.48,-60.31 521.99,-48.09"/>
<polygon fill="black" stroke="black" points="524.16,-50.84 529.85,-41.9 519.83,-45.34 524.16,-50.84"/>
</g>
<!-- 3d8d9713&#45;da78&#45;4473&#45;95b4&#45;87debe319947 -->
<g id="node9" class="node">
<title>3d8d9713&#45;da78&#45;4473&#45;95b4&#45;87debe319947</title>
<polygon fill="lightgreen" stroke="black" points="769.83,-39.21 671.83,-39.21 671.83,-3.21 769.83,-3.21 769.83,-39.21"/>
<text text-anchor="middle" x="720.83" y="-16.21" font-family="Times,serif" font-size="20.00">PickUp(a)</text>
</g>
<!-- 4539112d&#45;4295&#45;4fbe&#45;89ed&#45;d3d05c796a2c&#45;&gt;3d8d9713&#45;da78&#45;4473&#45;95b4&#45;87debe319947 -->
<g id="edge8" class="edge">
<title>4539112d&#45;4295&#45;4fbe&#45;89ed&#45;d3d05c796a2c&#45;&gt;3d8d9713&#45;da78&#45;4473&#45;95b4&#45;87debe319947</title>
<path fill="none" stroke="black" d="M476.61,-93.94C512.84,-84.79 594.82,-63.58 662.83,-42.43 662.93,-42.39 663.04,-42.36 663.14,-42.33"/>
<polygon fill="black" stroke="black" points="664.35,-45.62 672.81,-39.23 662.22,-38.95 664.35,-45.62"/>
</g>
</g>
</svg>
