<?xml version="1.0" encoding="UTF-8" standalone="no"?>
<!DOCTYPE svg PUBLIC "-//W3C//DTD SVG 1.1//EN"
 "http://www.w3.org/Graphics/SVG/1.1/DTD/svg11.dtd">
<!-- Generated by graphviz version 2.43.0 (0)
 -->
<!-- Title: pastafarianism Pages: 1 -->
<svg width="1955pt" height="339pt"
 viewBox="0.00 0.00 1954.84 339.28" xmlns="http://www.w3.org/2000/svg" xmlns:xlink="http://www.w3.org/1999/xlink">
<g id="graph0" class="graph" transform="scale(1 1) rotate(0) translate(4 335.28)">
<title>pastafarianism</title>
<polygon fill="white" stroke="transparent" points="-4,4 -4,-335.28 1950.84,-335.28 1950.84,4 -4,4"/>
<!-- aabfb017&#45;13af&#45;45e8&#45;97b9&#45;23b28afb2f08 -->
<g id="node1" class="node">
<title>aabfb017&#45;13af&#45;45e8&#45;97b9&#45;23b28afb2f08</title>
<polygon fill="#b0ffff" stroke="black" points="692.34,-331.28 656.34,-331.28 656.34,-301.28 692.34,-301.28 692.34,-331.28"/>
<text text-anchor="middle" x="674.34" y="-311.28" font-family="Times,serif" font-size="20.00"> ? </text>
</g>
<!-- 9c770cfc&#45;674b&#45;4e49&#45;9612&#45;3c95cf5858b4 -->
<g id="node2" class="node">
<title>9c770cfc&#45;674b&#45;4e49&#45;9612&#45;3c95cf5858b4</title>
<ellipse fill="#ffff80" stroke="black" cx="483.34" cy="-244.07" rx="154.71" ry="21.43"/>
<text text-anchor="middle" x="483.34" y="-239.07" font-family="Times,serif" font-size="20.00">On(left_box1,right_table)</text>
</g>
<!-- aabfb017&#45;13af&#45;45e8&#45;97b9&#45;23b28afb2f08&#45;&gt;9c770cfc&#45;674b&#45;4e49&#45;9612&#45;3c95cf5858b4 -->
<g id="edge1" class="edge">
<title>aabfb017&#45;13af&#45;45e8&#45;97b9&#45;23b28afb2f08&#45;&gt;9c770cfc&#45;674b&#45;4e49&#45;9612&#45;3c95cf5858b4</title>
<path fill="none" stroke="black" d="M656.03,-308.55C630.64,-299.21 583.5,-281.88 544.88,-267.69"/>
<polygon fill="black" stroke="black" points="545.86,-264.32 535.26,-264.15 543.44,-270.89 545.86,-264.32"/>
</g>
<!-- 5e1fc5dd&#45;57c0&#45;47e8&#45;bcb2&#45;ffff43e699fa -->
<g id="node3" class="node">
<title>5e1fc5dd&#45;57c0&#45;47e8&#45;bcb2&#45;ffff43e699fa</title>
<polygon fill="#ff8080" stroke="black" points="692.84,-259.07 655.84,-259.07 655.84,-229.07 692.84,-229.07 692.84,-259.07"/>
<text text-anchor="middle" x="674.34" y="-239.07" font-family="Times,serif" font-size="20.00">→</text>
</g>
<!-- aabfb017&#45;13af&#45;45e8&#45;97b9&#45;23b28afb2f08&#45;&gt;5e1fc5dd&#45;57c0&#45;47e8&#45;bcb2&#45;ffff43e699fa -->
<g id="edge2" class="edge">
<title>aabfb017&#45;13af&#45;45e8&#45;97b9&#45;23b28afb2f08&#45;&gt;5e1fc5dd&#45;57c0&#45;47e8&#45;bcb2&#45;ffff43e699fa</title>
<path fill="none" stroke="black" d="M674.34,-301.07C674.34,-292.03 674.34,-280.08 674.34,-269.54"/>
<polygon fill="black" stroke="black" points="677.84,-269.25 674.34,-259.25 670.84,-269.25 677.84,-269.25"/>
</g>
<!-- e999d1eb&#45;c050&#45;4cba&#45;94dd&#45;cb0ebf3d89a5 -->
<g id="node12" class="node">
<title>e999d1eb&#45;c050&#45;4cba&#45;94dd&#45;cb0ebf3d89a5</title>
<polygon fill="#ff8080" stroke="black" points="1202.84,-259.07 1165.84,-259.07 1165.84,-229.07 1202.84,-229.07 1202.84,-259.07"/>
<text text-anchor="middle" x="1184.34" y="-239.07" font-family="Times,serif" font-size="20.00">→</text>
</g>
<!-- aabfb017&#45;13af&#45;45e8&#45;97b9&#45;23b28afb2f08&#45;&gt;e999d1eb&#45;c050&#45;4cba&#45;94dd&#45;cb0ebf3d89a5 -->
<g id="edge11" class="edge">
<title>aabfb017&#45;13af&#45;45e8&#45;97b9&#45;23b28afb2f08&#45;&gt;e999d1eb&#45;c050&#45;4cba&#45;94dd&#45;cb0ebf3d89a5</title>
<path fill="none" stroke="black" d="M692.49,-312.78C768.53,-302.31 1061.84,-261.93 1155.45,-249.04"/>
<polygon fill="black" stroke="black" points="1156.18,-252.48 1165.61,-247.65 1155.22,-245.54 1156.18,-252.48"/>
</g>
<!-- 8a1abec8&#45;a261&#45;4ced&#45;a970&#45;78dfe8026084 -->
<g id="node4" class="node">
<title>8a1abec8&#45;a261&#45;4ced&#45;a970&#45;78dfe8026084</title>
<ellipse fill="#ffff80" stroke="black" cx="444.34" cy="-165.64" rx="194.41" ry="21.43"/>
<text text-anchor="middle" x="444.34" y="-160.64" font-family="Times,serif" font-size="20.00">IsHolding(left_franka,left_box1)</text>
</g>
<!-- 5e1fc5dd&#45;57c0&#45;47e8&#45;bcb2&#45;ffff43e699fa&#45;&gt;8a1abec8&#45;a261&#45;4ced&#45;a970&#45;78dfe8026084 -->
<g id="edge3" class="edge">
<title>5e1fc5dd&#45;57c0&#45;47e8&#45;bcb2&#45;ffff43e699fa&#45;&gt;8a1abec8&#45;a261&#45;4ced&#45;a970&#45;78dfe8026084</title>
<path fill="none" stroke="black" d="M657.53,-229.01C654.29,-226.72 650.81,-224.56 647.34,-222.85 615.75,-207.34 579.21,-195.55 545.92,-186.87"/>
<polygon fill="black" stroke="black" points="546.72,-183.46 536.17,-184.39 545,-190.24 546.72,-183.46"/>
</g>
<!-- b9c89da6&#45;2b09&#45;448e&#45;bcb2&#45;ffb784580c3c -->
<g id="node5" class="node">
<title>b9c89da6&#45;2b09&#45;448e&#45;bcb2&#45;ffb784580c3c</title>
<polygon fill="#b0ffff" stroke="black" points="692.34,-180.64 656.34,-180.64 656.34,-150.64 692.34,-150.64 692.34,-180.64"/>
<text text-anchor="middle" x="674.34" y="-160.64" font-family="Times,serif" font-size="20.00"> ? </text>
</g>
<!-- 5e1fc5dd&#45;57c0&#45;47e8&#45;bcb2&#45;ffff43e699fa&#45;&gt;b9c89da6&#45;2b09&#45;448e&#45;bcb2&#45;ffb784580c3c -->
<g id="edge4" class="edge">
<title>5e1fc5dd&#45;57c0&#45;47e8&#45;bcb2&#45;ffff43e699fa&#45;&gt;b9c89da6&#45;2b09&#45;448e&#45;bcb2&#45;ffb784580c3c</title>
<path fill="none" stroke="black" d="M674.34,-229.05C674.34,-218.45 674.34,-203.63 674.34,-191.09"/>
<polygon fill="black" stroke="black" points="677.84,-190.83 674.34,-180.83 670.84,-190.83 677.84,-190.83"/>
</g>
<!-- 32f4d707&#45;963d&#45;4464&#45;9653&#45;eb4db50924cd -->
<g id="node6" class="node">
<title>32f4d707&#45;963d&#45;4464&#45;9653&#45;eb4db50924cd</title>
<polygon fill="#ff8080" stroke="black" points="524.84,-108.43 487.84,-108.43 487.84,-78.43 524.84,-78.43 524.84,-108.43"/>
<text text-anchor="middle" x="506.34" y="-88.43" font-family="Times,serif" font-size="20.00">→</text>
</g>
<!-- b9c89da6&#45;2b09&#45;448e&#45;bcb2&#45;ffb784580c3c&#45;&gt;32f4d707&#45;963d&#45;4464&#45;9653&#45;eb4db50924cd -->
<g id="edge5" class="edge">
<title>b9c89da6&#45;2b09&#45;448e&#45;bcb2&#45;ffb784580c3c&#45;&gt;32f4d707&#45;963d&#45;4464&#45;9653&#45;eb4db50924cd</title>
<path fill="none" stroke="black" d="M657.14,-150.57C653.98,-148.34 650.65,-146.2 647.34,-144.43 610.43,-124.66 564.1,-109.96 534.84,-101.79"/>
<polygon fill="black" stroke="black" points="535.45,-98.32 524.89,-99.07 533.61,-105.08 535.45,-98.32"/>
</g>
<!-- 2e409563&#45;c99a&#45;4623&#45;ad7c&#45;30b5f64d98a0 -->
<g id="node9" class="node">
<title>2e409563&#45;c99a&#45;4623&#45;ad7c&#45;30b5f64d98a0</title>
<polygon fill="#ff8080" stroke="black" points="860.84,-108.43 823.84,-108.43 823.84,-78.43 860.84,-78.43 860.84,-108.43"/>
<text text-anchor="middle" x="842.34" y="-88.43" font-family="Times,serif" font-size="20.00">→</text>
</g>
<!-- b9c89da6&#45;2b09&#45;448e&#45;bcb2&#45;ffb784580c3c&#45;&gt;2e409563&#45;c99a&#45;4623&#45;ad7c&#45;30b5f64d98a0 -->
<g id="edge8" class="edge">
<title>b9c89da6&#45;2b09&#45;448e&#45;bcb2&#45;ffb784580c3c&#45;&gt;2e409563&#45;c99a&#45;4623&#45;ad7c&#45;30b5f64d98a0</title>
<path fill="none" stroke="black" d="M691.55,-150.57C694.7,-148.34 698.04,-146.2 701.34,-144.43 738.25,-124.66 784.59,-109.96 813.84,-101.79"/>
<polygon fill="black" stroke="black" points="815.07,-105.08 823.8,-99.07 813.23,-98.32 815.07,-105.08"/>
</g>
<!-- 5c255bba&#45;53f5&#45;417c&#45;9b22&#45;6efb5917aa05 -->
<g id="node7" class="node">
<title>5c255bba&#45;53f5&#45;417c&#45;9b22&#45;6efb5917aa05</title>
<ellipse fill="#ffff80" stroke="black" cx="163.34" cy="-21.21" rx="163.18" ry="21.43"/>
<text text-anchor="middle" x="163.34" y="-16.21" font-family="Times,serif" font-size="20.00">On(left_franka,right_table)</text>
</g>
<!-- 32f4d707&#45;963d&#45;4464&#45;9653&#45;eb4db50924cd&#45;&gt;5c255bba&#45;53f5&#45;417c&#45;9b22&#45;6efb5917aa05 -->
<g id="edge6" class="edge">
<title>32f4d707&#45;963d&#45;4464&#45;9653&#45;eb4db50924cd&#45;&gt;5c255bba&#45;53f5&#45;417c&#45;9b22&#45;6efb5917aa05</title>
<path fill="none" stroke="black" d="M487.41,-88.55C444.45,-79.76 337.13,-57.79 257.7,-41.53"/>
<polygon fill="black" stroke="black" points="258.17,-38.05 247.67,-39.48 256.77,-44.91 258.17,-38.05"/>
</g>
<!-- 842a7737&#45;5211&#45;423a&#45;a9b9&#45;7e5c0b26b39c -->
<g id="node8" class="node">
<title>842a7737&#45;5211&#45;423a&#45;a9b9&#45;7e5c0b26b39c</title>
<polygon fill="lightgreen" stroke="black" points="668.34,-39.21 344.34,-39.21 344.34,-3.21 668.34,-3.21 668.34,-39.21"/>
<text text-anchor="middle" x="506.34" y="-16.21" font-family="Times,serif" font-size="20.00">DropLeftFranka(left_box1,right_table)</text>
</g>
<!-- 32f4d707&#45;963d&#45;4464&#45;9653&#45;eb4db50924cd&#45;&gt;842a7737&#45;5211&#45;423a&#45;a9b9&#45;7e5c0b26b39c -->
<g id="edge7" class="edge">
<title>32f4d707&#45;963d&#45;4464&#45;9653&#45;eb4db50924cd&#45;&gt;842a7737&#45;5211&#45;423a&#45;a9b9&#45;7e5c0b26b39c</title>
<path fill="none" stroke="black" d="M506.34,-78.22C506.34,-69.98 506.34,-59.32 506.34,-49.52"/>
<polygon fill="black" stroke="black" points="509.84,-49.38 506.34,-39.38 502.84,-49.38 509.84,-49.38"/>
</g>
<!-- 80e84051&#45;1e77&#45;40af&#45;8185&#45;71a907f988c0 -->
<g id="node10" class="node">
<title>80e84051&#45;1e77&#45;40af&#45;8185&#45;71a907f988c0</title>
<ellipse fill="#ffff80" stroke="black" cx="842.34" cy="-21.21" rx="156.04" ry="21.43"/>
<text text-anchor="middle" x="842.34" y="-16.21" font-family="Times,serif" font-size="20.00">On(left_franka,left_table)</text>
</g>
<!-- 2e409563&#45;c99a&#45;4623&#45;ad7c&#45;30b5f64d98a0&#45;&gt;80e84051&#45;1e77&#45;40af&#45;8185&#45;71a907f988c0 -->
<g id="edge9" class="edge">
<title>2e409563&#45;c99a&#45;4623&#45;ad7c&#45;30b5f64d98a0&#45;&gt;80e84051&#45;1e77&#45;40af&#45;8185&#45;71a907f988c0</title>
<path fill="none" stroke="black" d="M842.34,-78.22C842.34,-70.84 842.34,-61.54 842.34,-52.64"/>
<polygon fill="black" stroke="black" points="845.84,-52.52 842.34,-42.52 838.84,-52.52 845.84,-52.52"/>
</g>
<!-- 63112523&#45;16ff&#45;4b14&#45;950c&#45;57951a9b87f0 -->
<g id="node11" class="node">
<title>63112523&#45;16ff&#45;4b14&#45;950c&#45;57951a9b87f0</title>
<polygon fill="lightgreen" stroke="black" points="1266.34,-39.21 1016.34,-39.21 1016.34,-3.21 1266.34,-3.21 1266.34,-39.21"/>
<text text-anchor="middle" x="1141.34" y="-16.21" font-family="Times,serif" font-size="20.00">MoveLeftFranka(right_table)</text>
</g>
<!-- 2e409563&#45;c99a&#45;4623&#45;ad7c&#45;30b5f64d98a0&#45;&gt;63112523&#45;16ff&#45;4b14&#45;950c&#45;57951a9b87f0 -->
<g id="edge10" class="edge">
<title>2e409563&#45;c99a&#45;4623&#45;ad7c&#45;30b5f64d98a0&#45;&gt;63112523&#45;16ff&#45;4b14&#45;950c&#45;57951a9b87f0</title>
<path fill="none" stroke="black" d="M861.05,-88.03C899.86,-78.92 991.18,-57.48 1059.1,-41.52"/>
<polygon fill="black" stroke="black" points="1060.01,-44.91 1068.95,-39.21 1058.41,-38.09 1060.01,-44.91"/>
</g>
<!-- 158e5d66&#45;dc5c&#45;4ac2&#45;b5b6&#45;fce518d78fb4 -->
<g id="node13" class="node">
<title>158e5d66&#45;dc5c&#45;4ac2&#45;b5b6&#45;fce518d78fb4</title>
<ellipse fill="#ffff80" stroke="black" cx="858.34" cy="-165.64" rx="147.57" ry="21.43"/>
<text text-anchor="middle" x="858.34" y="-160.64" font-family="Times,serif" font-size="20.00">On(left_box1,left_table)</text>
</g>
<!-- e999d1eb&#45;c050&#45;4cba&#45;94dd&#45;cb0ebf3d89a5&#45;&gt;158e5d66&#45;dc5c&#45;4ac2&#45;b5b6&#45;fce518d78fb4 -->
<g id="edge12" class="edge">
<title>e999d1eb&#45;c050&#45;4cba&#45;94dd&#45;cb0ebf3d89a5&#45;&gt;158e5d66&#45;dc5c&#45;4ac2&#45;b5b6&#45;fce518d78fb4</title>
<path fill="none" stroke="black" d="M1165.41,-238.63C1122.94,-228.67 1017.94,-204.06 942.55,-186.38"/>
<polygon fill="black" stroke="black" points="943.12,-182.92 932.58,-184.04 941.52,-189.73 943.12,-182.92"/>
</g>
<!-- bf9ca0dc&#45;8e78&#45;4155&#45;9cd4&#45;a632e4057891 -->
<g id="node14" class="node">
<title>bf9ca0dc&#45;8e78&#45;4155&#45;9cd4&#45;a632e4057891</title>
<ellipse fill="#ffff80" stroke="black" cx="1184.34" cy="-165.64" rx="160.53" ry="21.43"/>
<text text-anchor="middle" x="1184.34" y="-160.64" font-family="Times,serif" font-size="20.00">IsHandEmpty(left_franka)</text>
</g>
<!-- e999d1eb&#45;c050&#45;4cba&#45;94dd&#45;cb0ebf3d89a5&#45;&gt;bf9ca0dc&#45;8e78&#45;4155&#45;9cd4&#45;a632e4057891 -->
<g id="edge13" class="edge">
<title>e999d1eb&#45;c050&#45;4cba&#45;94dd&#45;cb0ebf3d89a5&#45;&gt;bf9ca0dc&#45;8e78&#45;4155&#45;9cd4&#45;a632e4057891</title>
<path fill="none" stroke="black" d="M1184.34,-229.05C1184.34,-220.1 1184.34,-208.15 1184.34,-197.09"/>
<polygon fill="black" stroke="black" points="1187.84,-196.9 1184.34,-186.9 1180.84,-196.9 1187.84,-196.9"/>
</g>
<!-- 51675097&#45;e3c2&#45;46a5&#45;a2f7&#45;419dad2f3132 -->
<g id="node15" class="node">
<title>51675097&#45;e3c2&#45;46a5&#45;a2f7&#45;419dad2f3132</title>
<ellipse fill="#ffff80" stroke="black" cx="1519.34" cy="-165.64" rx="156.04" ry="21.43"/>
<text text-anchor="middle" x="1519.34" y="-160.64" font-family="Times,serif" font-size="20.00">On(left_franka,left_table)</text>
</g>
<!-- e999d1eb&#45;c050&#45;4cba&#45;94dd&#45;cb0ebf3d89a5&#45;&gt;51675097&#45;e3c2&#45;46a5&#45;a2f7&#45;419dad2f3132 -->
<g id="edge14" class="edge">
<title>e999d1eb&#45;c050&#45;4cba&#45;94dd&#45;cb0ebf3d89a5&#45;&gt;51675097&#45;e3c2&#45;46a5&#45;a2f7&#45;419dad2f3132</title>
<path fill="none" stroke="black" d="M1203.31,-238.74C1246.58,-228.87 1354.84,-204.17 1432.59,-186.43"/>
<polygon fill="black" stroke="black" points="1433.42,-189.83 1442.39,-184.2 1431.86,-183.01 1433.42,-189.83"/>
</g>
<!-- 01484dfc&#45;8aa8&#45;4257&#45;92bf&#45;6b387c38a45b -->
<g id="node16" class="node">
<title>01484dfc&#45;8aa8&#45;4257&#45;92bf&#45;6b387c38a45b</title>
<polygon fill="lightgreen" stroke="black" points="1946.84,-183.64 1693.84,-183.64 1693.84,-147.64 1946.84,-147.64 1946.84,-183.64"/>
<text text-anchor="middle" x="1820.34" y="-160.64" font-family="Times,serif" font-size="20.00">PickUpLeftFranka(left_box1)</text>
</g>
<!-- e999d1eb&#45;c050&#45;4cba&#45;94dd&#45;cb0ebf3d89a5&#45;&gt;01484dfc&#45;8aa8&#45;4257&#45;92bf&#45;6b387c38a45b -->
<g id="edge15" class="edge">
<title>e999d1eb&#45;c050&#45;4cba&#45;94dd&#45;cb0ebf3d89a5&#45;&gt;01484dfc&#45;8aa8&#45;4257&#45;92bf&#45;6b387c38a45b</title>
<path fill="none" stroke="black" d="M1202.99,-241.21C1268.86,-234.61 1496.81,-211.32 1684.34,-186.85 1688.79,-186.27 1693.32,-185.67 1697.89,-185.05"/>
<polygon fill="black" stroke="black" points="1698.52,-188.49 1707.95,-183.66 1697.57,-181.56 1698.52,-188.49"/>
</g>
</g>
</svg>
