<?xml version="1.0" encoding="UTF-8" standalone="no"?>
<!DOCTYPE svg PUBLIC "-//W3C//DTD SVG 1.1//EN"
 "http://www.w3.org/Graphics/SVG/1.1/DTD/svg11.dtd">
<!-- Generated by graphviz version 2.43.0 (0)
 -->
<!-- Title: pastafarianism Pages: 1 -->
<svg width="2442pt" height="694pt"
 viewBox="0.00 0.00 2442.05 694.13" xmlns="http://www.w3.org/2000/svg" xmlns:xlink="http://www.w3.org/1999/xlink">
<g id="graph0" class="graph" transform="scale(1 1) rotate(0) translate(4 690.13)">
<title>pastafarianism</title>
<polygon fill="white" stroke="transparent" points="-4,4 -4,-690.13 2438.05,-690.13 2438.05,4 -4,4"/>
<!-- 80ee121e&#45;3701&#45;451f&#45;85e6&#45;128ea6ff30d8 -->
<g id="node1" class="node">
<title>80ee121e&#45;3701&#45;451f&#45;85e6&#45;128ea6ff30d8</title>
<polygon fill="#b0ffff" stroke="black" points="1137.05,-686.13 1101.05,-686.13 1101.05,-656.13 1137.05,-656.13 1137.05,-686.13"/>
<text text-anchor="middle" x="1119.05" y="-666.13" font-family="Times,serif" font-size="20.00"> ? </text>
</g>
<!-- fd02aa54&#45;bf70&#45;4184&#45;a5d8&#45;649f39660bb6 -->
<g id="node2" class="node">
<title>fd02aa54&#45;bf70&#45;4184&#45;a5d8&#45;649f39660bb6</title>
<polygon fill="#ff8080" stroke="black" points="727.55,-620.13 690.55,-620.13 690.55,-590.13 727.55,-590.13 727.55,-620.13"/>
<text text-anchor="middle" x="709.05" y="-600.13" font-family="Times,serif" font-size="20.00">→</text>
</g>
<!-- 80ee121e&#45;3701&#45;451f&#45;85e6&#45;128ea6ff30d8&#45;&gt;fd02aa54&#45;bf70&#45;4184&#45;a5d8&#45;649f39660bb6 -->
<g id="edge1" class="edge">
<title>80ee121e&#45;3701&#45;451f&#45;85e6&#45;128ea6ff30d8&#45;&gt;fd02aa54&#45;bf70&#45;4184&#45;a5d8&#45;649f39660bb6</title>
<path fill="none" stroke="black" d="M1100.9,-667.3C1036.37,-657.23 817.6,-623.08 738.17,-610.68"/>
<polygon fill="black" stroke="black" points="738.34,-607.16 727.92,-609.08 737.26,-614.08 738.34,-607.16"/>
</g>
<!-- 8fd893a3&#45;cb84&#45;4daa&#45;91b7&#45;2cafb3f861db -->
<g id="node6" class="node">
<title>8fd893a3&#45;cb84&#45;4daa&#45;91b7&#45;2cafb3f861db</title>
<polygon fill="#ff8080" stroke="black" points="1137.55,-620.13 1100.55,-620.13 1100.55,-590.13 1137.55,-590.13 1137.55,-620.13"/>
<text text-anchor="middle" x="1119.05" y="-600.13" font-family="Times,serif" font-size="20.00">→</text>
</g>
<!-- 80ee121e&#45;3701&#45;451f&#45;85e6&#45;128ea6ff30d8&#45;&gt;8fd893a3&#45;cb84&#45;4daa&#45;91b7&#45;2cafb3f861db -->
<g id="edge5" class="edge">
<title>80ee121e&#45;3701&#45;451f&#45;85e6&#45;128ea6ff30d8&#45;&gt;8fd893a3&#45;cb84&#45;4daa&#45;91b7&#45;2cafb3f861db</title>
<path fill="none" stroke="black" d="M1119.05,-655.93C1119.05,-648.47 1119.05,-639.12 1119.05,-630.55"/>
<polygon fill="black" stroke="black" points="1122.55,-630.3 1119.05,-620.3 1115.55,-630.3 1122.55,-630.3"/>
</g>
<!-- 2e3ee5c9&#45;9bf8&#45;48ea&#45;ae4d&#45;4fc08b00e1c9 -->
<g id="node38" class="node">
<title>2e3ee5c9&#45;9bf8&#45;48ea&#45;ae4d&#45;4fc08b00e1c9</title>
<polygon fill="#ff8080" stroke="black" points="1799.55,-620.13 1762.55,-620.13 1762.55,-590.13 1799.55,-590.13 1799.55,-620.13"/>
<text text-anchor="middle" x="1781.05" y="-600.13" font-family="Times,serif" font-size="20.00">→</text>
</g>
<!-- 80ee121e&#45;3701&#45;451f&#45;85e6&#45;128ea6ff30d8&#45;&gt;2e3ee5c9&#45;9bf8&#45;48ea&#45;ae4d&#45;4fc08b00e1c9 -->
<g id="edge37" class="edge">
<title>80ee121e&#45;3701&#45;451f&#45;85e6&#45;128ea6ff30d8&#45;&gt;2e3ee5c9&#45;9bf8&#45;48ea&#45;ae4d&#45;4fc08b00e1c9</title>
<path fill="none" stroke="black" d="M1137.1,-668.39C1228.34,-659.57 1638.94,-619.87 1752.09,-608.93"/>
<polygon fill="black" stroke="black" points="1752.77,-612.38 1762.38,-607.94 1752.09,-605.41 1752.77,-612.38"/>
</g>
<!-- 7ab3de69&#45;4396&#45;495e&#45;8964&#45;1c6cad5ec649 -->
<g id="node3" class="node">
<title>7ab3de69&#45;4396&#45;495e&#45;8964&#45;1c6cad5ec649</title>
<ellipse fill="#ffff80" stroke="black" cx="363.05" cy="-532.92" rx="97.66" ry="21.43"/>
<text text-anchor="middle" x="363.05" y="-527.92" font-family="Times,serif" font-size="20.00">In(book,fridge)</text>
</g>
<!-- fd02aa54&#45;bf70&#45;4184&#45;a5d8&#45;649f39660bb6&#45;&gt;7ab3de69&#45;4396&#45;495e&#45;8964&#45;1c6cad5ec649 -->
<g id="edge2" class="edge">
<title>fd02aa54&#45;bf70&#45;4184&#45;a5d8&#45;649f39660bb6&#45;&gt;7ab3de69&#45;4396&#45;495e&#45;8964&#45;1c6cad5ec649</title>
<path fill="none" stroke="black" d="M690.44,-600.36C644.54,-591.04 523.72,-566.52 442.4,-550.02"/>
<polygon fill="black" stroke="black" points="442.69,-546.51 432.19,-547.95 441.3,-553.37 442.69,-546.51"/>
</g>
<!-- f4798957&#45;cadd&#45;4755&#45;b66f&#45;61166e07249c -->
<g id="node4" class="node">
<title>f4798957&#45;cadd&#45;4755&#45;b66f&#45;61166e07249c</title>
<ellipse fill="#ffff80" stroke="black" cx="594.05" cy="-532.92" rx="115.02" ry="21.43"/>
<text text-anchor="middle" x="594.05" y="-527.92" font-family="Times,serif" font-size="20.00">IsOpened(cabinet)</text>
</g>
<!-- fd02aa54&#45;bf70&#45;4184&#45;a5d8&#45;649f39660bb6&#45;&gt;f4798957&#45;cadd&#45;4755&#45;b66f&#45;61166e07249c -->
<g id="edge3" class="edge">
<title>fd02aa54&#45;bf70&#45;4184&#45;a5d8&#45;649f39660bb6&#45;&gt;f4798957&#45;cadd&#45;4755&#45;b66f&#45;61166e07249c</title>
<path fill="none" stroke="black" d="M690.31,-592.69C675.37,-583.57 653.88,-570.45 635,-558.92"/>
<polygon fill="black" stroke="black" points="636.62,-555.81 626.26,-553.59 632.97,-561.79 636.62,-555.81"/>
</g>
<!-- a631058d&#45;cf4d&#45;4610&#45;8059&#45;88b10376e060 -->
<g id="node5" class="node">
<title>a631058d&#45;cf4d&#45;4610&#45;8059&#45;88b10376e060</title>
<ellipse fill="#ffff80" stroke="black" cx="824.05" cy="-532.92" rx="96.75" ry="21.43"/>
<text text-anchor="middle" x="824.05" y="-527.92" font-family="Times,serif" font-size="20.00">In(pen,cabinet)</text>
</g>
<!-- fd02aa54&#45;bf70&#45;4184&#45;a5d8&#45;649f39660bb6&#45;&gt;a631058d&#45;cf4d&#45;4610&#45;8059&#45;88b10376e060 -->
<g id="edge4" class="edge">
<title>fd02aa54&#45;bf70&#45;4184&#45;a5d8&#45;649f39660bb6&#45;&gt;a631058d&#45;cf4d&#45;4610&#45;8059&#45;88b10376e060</title>
<path fill="none" stroke="black" d="M727.78,-592.69C743.01,-583.39 765.04,-569.94 784.18,-558.26"/>
<polygon fill="black" stroke="black" points="786.03,-561.23 792.74,-553.03 782.38,-555.26 786.03,-561.23"/>
</g>
<!-- 9dd98acf&#45;38fe&#45;49c6&#45;b2c4&#45;2552197b1f4e -->
<g id="node7" class="node">
<title>9dd98acf&#45;38fe&#45;49c6&#45;b2c4&#45;2552197b1f4e</title>
<ellipse fill="#ffff80" stroke="black" cx="1047.05" cy="-532.92" rx="108.38" ry="21.43"/>
<text text-anchor="middle" x="1047.05" y="-527.92" font-family="Times,serif" font-size="20.00">IsOpened(fridge)</text>
</g>
<!-- 8fd893a3&#45;cb84&#45;4daa&#45;91b7&#45;2cafb3f861db&#45;&gt;9dd98acf&#45;38fe&#45;49c6&#45;b2c4&#45;2552197b1f4e -->
<g id="edge6" class="edge">
<title>8fd893a3&#45;cb84&#45;4daa&#45;91b7&#45;2cafb3f861db&#45;&gt;9dd98acf&#45;38fe&#45;49c6&#45;b2c4&#45;2552197b1f4e</title>
<path fill="none" stroke="black" d="M1104.47,-589.92C1095.94,-581.6 1084.89,-570.82 1074.76,-560.95"/>
<polygon fill="black" stroke="black" points="1077.2,-558.44 1067.6,-553.96 1072.31,-563.45 1077.2,-558.44"/>
</g>
<!-- 8baa8ca8&#45;9949&#45;4574&#45;abc1&#45;217da742e0aa -->
<g id="node8" class="node">
<title>8baa8ca8&#45;9949&#45;4574&#45;abc1&#45;217da742e0aa</title>
<polygon fill="#b0ffff" stroke="black" points="1209.05,-547.92 1173.05,-547.92 1173.05,-517.92 1209.05,-517.92 1209.05,-547.92"/>
<text text-anchor="middle" x="1191.05" y="-527.92" font-family="Times,serif" font-size="20.00"> ? </text>
</g>
<!-- 8fd893a3&#45;cb84&#45;4daa&#45;91b7&#45;2cafb3f861db&#45;&gt;8baa8ca8&#45;9949&#45;4574&#45;abc1&#45;217da742e0aa -->
<g id="edge7" class="edge">
<title>8fd893a3&#45;cb84&#45;4daa&#45;91b7&#45;2cafb3f861db&#45;&gt;8baa8ca8&#45;9949&#45;4574&#45;abc1&#45;217da742e0aa</title>
<path fill="none" stroke="black" d="M1133.62,-589.92C1143.86,-579.93 1157.75,-566.39 1169.3,-555.12"/>
<polygon fill="black" stroke="black" points="1171.78,-557.59 1176.5,-548.11 1166.89,-552.58 1171.78,-557.59"/>
</g>
<!-- 864556c7&#45;2993&#45;4832&#45;b7b0&#45;9a792c8cec97 -->
<g id="node9" class="node">
<title>864556c7&#45;2993&#45;4832&#45;b7b0&#45;9a792c8cec97</title>
<polygon fill="#ff8080" stroke="black" points="919.55,-475.71 882.55,-475.71 882.55,-445.71 919.55,-445.71 919.55,-475.71"/>
<text text-anchor="middle" x="901.05" y="-455.71" font-family="Times,serif" font-size="20.00">→</text>
</g>
<!-- 8baa8ca8&#45;9949&#45;4574&#45;abc1&#45;217da742e0aa&#45;&gt;864556c7&#45;2993&#45;4832&#45;b7b0&#45;9a792c8cec97 -->
<g id="edge8" class="edge">
<title>8baa8ca8&#45;9949&#45;4574&#45;abc1&#45;217da742e0aa&#45;&gt;864556c7&#45;2993&#45;4832&#45;b7b0&#45;9a792c8cec97</title>
<path fill="none" stroke="black" d="M1174.64,-517.83C1171.3,-515.49 1167.69,-513.31 1164.05,-511.71 1084.01,-476.42 979.52,-465.99 929.78,-462.94"/>
<polygon fill="black" stroke="black" points="929.93,-459.45 919.75,-462.39 929.54,-466.44 929.93,-459.45"/>
</g>
<!-- 96fec384&#45;0b49&#45;4389&#45;b3ad&#45;24d5d2011e50 -->
<g id="node32" class="node">
<title>96fec384&#45;0b49&#45;4389&#45;b3ad&#45;24d5d2011e50</title>
<polygon fill="#ff8080" stroke="black" points="1395.55,-475.71 1358.55,-475.71 1358.55,-445.71 1395.55,-445.71 1395.55,-475.71"/>
<text text-anchor="middle" x="1377.05" y="-455.71" font-family="Times,serif" font-size="20.00">→</text>
</g>
<!-- 8baa8ca8&#45;9949&#45;4574&#45;abc1&#45;217da742e0aa&#45;&gt;96fec384&#45;0b49&#45;4389&#45;b3ad&#45;24d5d2011e50 -->
<g id="edge31" class="edge">
<title>8baa8ca8&#45;9949&#45;4574&#45;abc1&#45;217da742e0aa&#45;&gt;96fec384&#45;0b49&#45;4389&#45;b3ad&#45;24d5d2011e50</title>
<path fill="none" stroke="black" d="M1208.2,-517.75C1211.36,-515.53 1214.71,-513.42 1218.05,-511.71 1261.03,-489.67 1315.57,-475.11 1348.31,-467.65"/>
<polygon fill="black" stroke="black" points="1349.12,-471.05 1358.13,-465.48 1347.61,-464.22 1349.12,-471.05"/>
</g>
<!-- 65e82c70&#45;3137&#45;4747&#45;bede&#45;6758a9dfbfc4 -->
<g id="node10" class="node">
<title>65e82c70&#45;3137&#45;4747&#45;bede&#45;6758a9dfbfc4</title>
<ellipse fill="#ffff80" stroke="black" cx="750.05" cy="-388.49" rx="115.02" ry="21.43"/>
<text text-anchor="middle" x="750.05" y="-383.49" font-family="Times,serif" font-size="20.00">IsOpened(cabinet)</text>
</g>
<!-- 864556c7&#45;2993&#45;4832&#45;b7b0&#45;9a792c8cec97&#45;&gt;65e82c70&#45;3137&#45;4747&#45;bede&#45;6758a9dfbfc4 -->
<g id="edge9" class="edge">
<title>864556c7&#45;2993&#45;4832&#45;b7b0&#45;9a792c8cec97&#45;&gt;65e82c70&#45;3137&#45;4747&#45;bede&#45;6758a9dfbfc4</title>
<path fill="none" stroke="black" d="M882.53,-451.1C862.15,-441.62 828.53,-425.99 800.26,-412.84"/>
<polygon fill="black" stroke="black" points="801.45,-409.54 790.91,-408.49 798.5,-415.88 801.45,-409.54"/>
</g>
<!-- e011cbd8&#45;f15f&#45;4432&#45;81c9&#45;c91733f6a71a -->
<g id="node11" class="node">
<title>e011cbd8&#45;f15f&#45;4432&#45;81c9&#45;c91733f6a71a</title>
<polygon fill="#b0ffff" stroke="black" points="919.05,-403.49 883.05,-403.49 883.05,-373.49 919.05,-373.49 919.05,-403.49"/>
<text text-anchor="middle" x="901.05" y="-383.49" font-family="Times,serif" font-size="20.00"> ? </text>
</g>
<!-- 864556c7&#45;2993&#45;4832&#45;b7b0&#45;9a792c8cec97&#45;&gt;e011cbd8&#45;f15f&#45;4432&#45;81c9&#45;c91733f6a71a -->
<g id="edge10" class="edge">
<title>864556c7&#45;2993&#45;4832&#45;b7b0&#45;9a792c8cec97&#45;&gt;e011cbd8&#45;f15f&#45;4432&#45;81c9&#45;c91733f6a71a</title>
<path fill="none" stroke="black" d="M901.05,-445.5C901.05,-436.46 901.05,-424.51 901.05,-413.97"/>
<polygon fill="black" stroke="black" points="904.55,-413.68 901.05,-403.68 897.55,-413.68 904.55,-413.68"/>
</g>
<!-- d6bfc601&#45;2f69&#45;468e&#45;b169&#45;d0d24d5c9d69 -->
<g id="node12" class="node">
<title>d6bfc601&#45;2f69&#45;468e&#45;b169&#45;d0d24d5c9d69</title>
<polygon fill="#b0ffff" stroke="black" points="748.05,-331.28 712.05,-331.28 712.05,-301.28 748.05,-301.28 748.05,-331.28"/>
<text text-anchor="middle" x="730.05" y="-311.28" font-family="Times,serif" font-size="20.00"> ? </text>
</g>
<!-- e011cbd8&#45;f15f&#45;4432&#45;81c9&#45;c91733f6a71a&#45;&gt;d6bfc601&#45;2f69&#45;468e&#45;b169&#45;d0d24d5c9d69 -->
<g id="edge11" class="edge">
<title>e011cbd8&#45;f15f&#45;4432&#45;81c9&#45;c91733f6a71a&#45;&gt;d6bfc601&#45;2f69&#45;468e&#45;b169&#45;d0d24d5c9d69</title>
<path fill="none" stroke="black" d="M883.85,-373.4C880.7,-371.18 877.35,-369.04 874.05,-367.28 835.79,-346.95 787.58,-332.18 757.79,-324.16"/>
<polygon fill="black" stroke="black" points="758.62,-320.77 748.06,-321.61 756.85,-327.54 758.62,-320.77"/>
</g>
<!-- 05dc4df1&#45;feaf&#45;4cc6&#45;996e&#45;c8cb8716867f -->
<g id="node27" class="node">
<title>05dc4df1&#45;feaf&#45;4cc6&#45;996e&#45;c8cb8716867f</title>
<polygon fill="#ff8080" stroke="black" points="1089.55,-331.28 1052.55,-331.28 1052.55,-301.28 1089.55,-301.28 1089.55,-331.28"/>
<text text-anchor="middle" x="1071.05" y="-311.28" font-family="Times,serif" font-size="20.00">→</text>
</g>
<!-- e011cbd8&#45;f15f&#45;4432&#45;81c9&#45;c91733f6a71a&#45;&gt;05dc4df1&#45;feaf&#45;4cc6&#45;996e&#45;c8cb8716867f -->
<g id="edge26" class="edge">
<title>e011cbd8&#45;f15f&#45;4432&#45;81c9&#45;c91733f6a71a&#45;&gt;05dc4df1&#45;feaf&#45;4cc6&#45;996e&#45;c8cb8716867f</title>
<path fill="none" stroke="black" d="M918.25,-373.41C921.4,-371.19 924.74,-369.04 928.05,-367.28 965.63,-347.26 1012.87,-332.56 1042.52,-324.46"/>
<polygon fill="black" stroke="black" points="1043.47,-327.83 1052.23,-321.88 1041.67,-321.07 1043.47,-327.83"/>
</g>
<!-- 01611e0e&#45;a05d&#45;4cbb&#45;bf6e&#45;35356215dd33 -->
<g id="node13" class="node">
<title>01611e0e&#45;a05d&#45;4cbb&#45;bf6e&#45;35356215dd33</title>
<polygon fill="#ff8080" stroke="black" points="526.55,-259.07 489.55,-259.07 489.55,-229.07 526.55,-229.07 526.55,-259.07"/>
<text text-anchor="middle" x="508.05" y="-239.07" font-family="Times,serif" font-size="20.00">→</text>
</g>
<!-- d6bfc601&#45;2f69&#45;468e&#45;b169&#45;d0d24d5c9d69&#45;&gt;01611e0e&#45;a05d&#45;4cbb&#45;bf6e&#45;35356215dd33 -->
<g id="edge12" class="edge">
<title>d6bfc601&#45;2f69&#45;468e&#45;b169&#45;d0d24d5c9d69&#45;&gt;01611e0e&#45;a05d&#45;4cbb&#45;bf6e&#45;35356215dd33</title>
<path fill="none" stroke="black" d="M711.88,-309.53C673.27,-297.32 582.82,-268.72 536.49,-254.06"/>
<polygon fill="black" stroke="black" points="537.37,-250.67 526.78,-250.99 535.26,-257.34 537.37,-250.67"/>
</g>
<!-- 20fcf368&#45;b7c1&#45;42a4&#45;94cd&#45;2c4048630220 -->
<g id="node23" class="node">
<title>20fcf368&#45;b7c1&#45;42a4&#45;94cd&#45;2c4048630220</title>
<polygon fill="#ff8080" stroke="black" points="748.55,-259.07 711.55,-259.07 711.55,-229.07 748.55,-229.07 748.55,-259.07"/>
<text text-anchor="middle" x="730.05" y="-239.07" font-family="Times,serif" font-size="20.00">→</text>
</g>
<!-- d6bfc601&#45;2f69&#45;468e&#45;b169&#45;d0d24d5c9d69&#45;&gt;20fcf368&#45;b7c1&#45;42a4&#45;94cd&#45;2c4048630220 -->
<g id="edge22" class="edge">
<title>d6bfc601&#45;2f69&#45;468e&#45;b169&#45;d0d24d5c9d69&#45;&gt;20fcf368&#45;b7c1&#45;42a4&#45;94cd&#45;2c4048630220</title>
<path fill="none" stroke="black" d="M730.05,-301.07C730.05,-292.03 730.05,-280.08 730.05,-269.54"/>
<polygon fill="black" stroke="black" points="733.55,-269.25 730.05,-259.25 726.55,-269.25 733.55,-269.25"/>
</g>
<!-- 2fb9205f&#45;db9f&#45;4e6d&#45;9d4b&#45;7f2445623eec -->
<g id="node14" class="node">
<title>2fb9205f&#45;db9f&#45;4e6d&#45;9d4b&#45;7f2445623eec</title>
<ellipse fill="#ffff80" stroke="black" cx="375.05" cy="-165.64" rx="96.75" ry="21.43"/>
<text text-anchor="middle" x="375.05" y="-160.64" font-family="Times,serif" font-size="20.00">In(pen,cabinet)</text>
</g>
<!-- 01611e0e&#45;a05d&#45;4cbb&#45;bf6e&#45;35356215dd33&#45;&gt;2fb9205f&#45;db9f&#45;4e6d&#45;9d4b&#45;7f2445623eec -->
<g id="edge13" class="edge">
<title>01611e0e&#45;a05d&#45;4cbb&#45;bf6e&#45;35356215dd33&#45;&gt;2fb9205f&#45;db9f&#45;4e6d&#45;9d4b&#45;7f2445623eec</title>
<path fill="none" stroke="black" d="M489.27,-232.28C470.52,-221.5 441.08,-204.58 416.78,-190.62"/>
<polygon fill="black" stroke="black" points="418.5,-187.57 408.09,-185.63 415.01,-193.64 418.5,-187.57"/>
</g>
<!-- 27717d55&#45;b6a5&#45;4ab1&#45;b86c&#45;d1b85a800fed -->
<g id="node15" class="node">
<title>27717d55&#45;b6a5&#45;4ab1&#45;b86c&#45;d1b85a800fed</title>
<polygon fill="#b0ffff" stroke="black" points="526.05,-180.64 490.05,-180.64 490.05,-150.64 526.05,-150.64 526.05,-180.64"/>
<text text-anchor="middle" x="508.05" y="-160.64" font-family="Times,serif" font-size="20.00"> ? </text>
</g>
<!-- 01611e0e&#45;a05d&#45;4cbb&#45;bf6e&#45;35356215dd33&#45;&gt;27717d55&#45;b6a5&#45;4ab1&#45;b86c&#45;d1b85a800fed -->
<g id="edge14" class="edge">
<title>01611e0e&#45;a05d&#45;4cbb&#45;bf6e&#45;35356215dd33&#45;&gt;27717d55&#45;b6a5&#45;4ab1&#45;b86c&#45;d1b85a800fed</title>
<path fill="none" stroke="black" d="M508.05,-229.05C508.05,-218.45 508.05,-203.63 508.05,-191.09"/>
<polygon fill="black" stroke="black" points="511.55,-190.83 508.05,-180.83 504.55,-190.83 511.55,-190.83"/>
</g>
<!-- cdf0c6ff&#45;03e9&#45;43a3&#45;99e9&#45;a484b4376223 -->
<g id="node16" class="node">
<title>cdf0c6ff&#45;03e9&#45;43a3&#45;99e9&#45;a484b4376223</title>
<polygon fill="#ff8080" stroke="black" points="315.55,-108.43 278.55,-108.43 278.55,-78.43 315.55,-78.43 315.55,-108.43"/>
<text text-anchor="middle" x="297.05" y="-88.43" font-family="Times,serif" font-size="20.00">→</text>
</g>
<!-- 27717d55&#45;b6a5&#45;4ab1&#45;b86c&#45;d1b85a800fed&#45;&gt;cdf0c6ff&#45;03e9&#45;43a3&#45;99e9&#45;a484b4376223 -->
<g id="edge15" class="edge">
<title>27717d55&#45;b6a5&#45;4ab1&#45;b86c&#45;d1b85a800fed&#45;&gt;cdf0c6ff&#45;03e9&#45;43a3&#45;99e9&#45;a484b4376223</title>
<path fill="none" stroke="black" d="M491.24,-150.56C488,-148.29 484.52,-146.12 481.05,-144.43 429.33,-119.19 363,-105.17 325.76,-98.77"/>
<polygon fill="black" stroke="black" points="326.06,-95.27 315.62,-97.1 324.91,-102.18 326.06,-95.27"/>
</g>
<!-- 0f4c2c2b&#45;c855&#45;4892&#45;895a&#45;9173758ac68c -->
<g id="node19" class="node">
<title>0f4c2c2b&#45;c855&#45;4892&#45;895a&#45;9173758ac68c</title>
<polygon fill="#ff8080" stroke="black" points="630.55,-108.43 593.55,-108.43 593.55,-78.43 630.55,-78.43 630.55,-108.43"/>
<text text-anchor="middle" x="612.05" y="-88.43" font-family="Times,serif" font-size="20.00">→</text>
</g>
<!-- 27717d55&#45;b6a5&#45;4ab1&#45;b86c&#45;d1b85a800fed&#45;&gt;0f4c2c2b&#45;c855&#45;4892&#45;895a&#45;9173758ac68c -->
<g id="edge18" class="edge">
<title>27717d55&#45;b6a5&#45;4ab1&#45;b86c&#45;d1b85a800fed&#45;&gt;0f4c2c2b&#45;c855&#45;4892&#45;895a&#45;9173758ac68c</title>
<path fill="none" stroke="black" d="M526.22,-150.77C529.15,-148.62 532.16,-146.44 535.05,-144.43 551.28,-133.1 569.89,-120.99 584.75,-111.53"/>
<polygon fill="black" stroke="black" points="586.88,-114.32 593.46,-106.01 583.14,-108.4 586.88,-114.32"/>
</g>
<!-- cd907bc3&#45;692b&#45;4125&#45;95f1&#45;93134f751470 -->
<g id="node17" class="node">
<title>cd907bc3&#45;692b&#45;4125&#45;95f1&#45;93134f751470</title>
<ellipse fill="#ffff80" stroke="black" cx="94.05" cy="-21.21" rx="94.09" ry="21.43"/>
<text text-anchor="middle" x="94.05" y="-16.21" font-family="Times,serif" font-size="20.00">Holding(book)</text>
</g>
<!-- cdf0c6ff&#45;03e9&#45;43a3&#45;99e9&#45;a484b4376223&#45;&gt;cd907bc3&#45;692b&#45;4125&#45;95f1&#45;93134f751470 -->
<g id="edge16" class="edge">
<title>cdf0c6ff&#45;03e9&#45;43a3&#45;99e9&#45;a484b4376223&#45;&gt;cd907bc3&#45;692b&#45;4125&#45;95f1&#45;93134f751470</title>
<path fill="none" stroke="black" d="M278.31,-85.95C250.17,-76.21 195.78,-57.4 153.35,-42.73"/>
<polygon fill="black" stroke="black" points="154.27,-39.34 143.67,-39.38 151.98,-45.95 154.27,-39.34"/>
</g>
<!-- 4f4e038f&#45;0874&#45;41ec&#45;95e3&#45;eb213364a87b -->
<g id="node18" class="node">
<title>4f4e038f&#45;0874&#45;41ec&#45;95e3&#45;eb213364a87b</title>
<polygon fill="lightgreen" stroke="black" points="388.05,-39.21 206.05,-39.21 206.05,-3.21 388.05,-3.21 388.05,-39.21"/>
<text text-anchor="middle" x="297.05" y="-16.21" font-family="Times,serif" font-size="20.00">PlaceIn(book,fridge)</text>
</g>
<!-- cdf0c6ff&#45;03e9&#45;43a3&#45;99e9&#45;a484b4376223&#45;&gt;4f4e038f&#45;0874&#45;41ec&#45;95e3&#45;eb213364a87b -->
<g id="edge17" class="edge">
<title>cdf0c6ff&#45;03e9&#45;43a3&#45;99e9&#45;a484b4376223&#45;&gt;4f4e038f&#45;0874&#45;41ec&#45;95e3&#45;eb213364a87b</title>
<path fill="none" stroke="black" d="M297.05,-78.22C297.05,-69.98 297.05,-59.32 297.05,-49.52"/>
<polygon fill="black" stroke="black" points="300.55,-49.38 297.05,-39.38 293.55,-49.38 300.55,-49.38"/>
</g>
<!-- a30173f1&#45;4cc4&#45;4fcb&#45;881b&#45;260d8744372b -->
<g id="node20" class="node">
<title>a30173f1&#45;4cc4&#45;4fcb&#45;881b&#45;260d8744372b</title>
<ellipse fill="#ffff80" stroke="black" cx="505.05" cy="-21.21" rx="98.99" ry="21.43"/>
<text text-anchor="middle" x="505.05" y="-16.21" font-family="Times,serif" font-size="20.00">IsHandEmpty()</text>
</g>
<!-- 0f4c2c2b&#45;c855&#45;4892&#45;895a&#45;9173758ac68c&#45;&gt;a30173f1&#45;4cc4&#45;4fcb&#45;881b&#45;260d8744372b -->
<g id="edge19" class="edge">
<title>0f4c2c2b&#45;c855&#45;4892&#45;895a&#45;9173758ac68c&#45;&gt;a30173f1&#45;4cc4&#45;4fcb&#45;881b&#45;260d8744372b</title>
<path fill="none" stroke="black" d="M593.41,-80.2C579.64,-71.16 560.42,-58.55 543.42,-47.39"/>
<polygon fill="black" stroke="black" points="545.05,-44.28 534.77,-41.72 541.21,-50.13 545.05,-44.28"/>
</g>
<!-- 01c184e4&#45;f034&#45;43ec&#45;b043&#45;29e9d33f10f7 -->
<g id="node21" class="node">
<title>01c184e4&#45;f034&#45;43ec&#45;b043&#45;29e9d33f10f7</title>
<ellipse fill="#ffff80" stroke="black" cx="719.05" cy="-21.21" rx="96.75" ry="21.43"/>
<text text-anchor="middle" x="719.05" y="-16.21" font-family="Times,serif" font-size="20.00">On(book,table)</text>
</g>
<!-- 0f4c2c2b&#45;c855&#45;4892&#45;895a&#45;9173758ac68c&#45;&gt;01c184e4&#45;f034&#45;43ec&#45;b043&#45;29e9d33f10f7 -->
<g id="edge20" class="edge">
<title>0f4c2c2b&#45;c855&#45;4892&#45;895a&#45;9173758ac68c&#45;&gt;01c184e4&#45;f034&#45;43ec&#45;b043&#45;29e9d33f10f7</title>
<path fill="none" stroke="black" d="M630.68,-80.2C644.55,-71.1 663.96,-58.36 681.05,-47.15"/>
<polygon fill="black" stroke="black" points="683.3,-49.86 689.74,-41.45 679.46,-44.01 683.3,-49.86"/>
</g>
<!-- 18014fa5&#45;2548&#45;46d5&#45;968d&#45;16282b253fbf -->
<g id="node22" class="node">
<title>18014fa5&#45;2548&#45;46d5&#45;968d&#45;16282b253fbf</title>
<polygon fill="lightgreen" stroke="black" points="962.05,-39.21 834.05,-39.21 834.05,-3.21 962.05,-3.21 962.05,-39.21"/>
<text text-anchor="middle" x="898.05" y="-16.21" font-family="Times,serif" font-size="20.00">PickUp(book)</text>
</g>
<!-- 0f4c2c2b&#45;c855&#45;4892&#45;895a&#45;9173758ac68c&#45;&gt;18014fa5&#45;2548&#45;46d5&#45;968d&#45;16282b253fbf -->
<g id="edge21" class="edge">
<title>0f4c2c2b&#45;c855&#45;4892&#45;895a&#45;9173758ac68c&#45;&gt;18014fa5&#45;2548&#45;46d5&#45;968d&#45;16282b253fbf</title>
<path fill="none" stroke="black" d="M630.62,-88.32C667.7,-80.08 753.47,-60.73 825.05,-42.43 825.79,-42.24 826.53,-42.05 827.28,-41.85"/>
<polygon fill="black" stroke="black" points="828.36,-45.19 837.15,-39.27 826.59,-38.42 828.36,-45.19"/>
</g>
<!-- 208c19fb&#45;7054&#45;46cd&#45;8b0d&#45;76013ac76917 -->
<g id="node24" class="node">
<title>208c19fb&#45;7054&#45;46cd&#45;8b0d&#45;76013ac76917</title>
<ellipse fill="#ffff80" stroke="black" cx="630.05" cy="-165.64" rx="86.03" ry="21.43"/>
<text text-anchor="middle" x="630.05" y="-160.64" font-family="Times,serif" font-size="20.00">Holding(pen)</text>
</g>
<!-- 20fcf368&#45;b7c1&#45;42a4&#45;94cd&#45;2c4048630220&#45;&gt;208c19fb&#45;7054&#45;46cd&#45;8b0d&#45;76013ac76917 -->
<g id="edge23" class="edge">
<title>20fcf368&#45;b7c1&#45;42a4&#45;94cd&#45;2c4048630220&#45;&gt;208c19fb&#45;7054&#45;46cd&#45;8b0d&#45;76013ac76917</title>
<path fill="none" stroke="black" d="M711.7,-229.05C698.26,-218.77 679.63,-204.53 663.56,-192.25"/>
<polygon fill="black" stroke="black" points="665.5,-189.33 655.42,-186.04 661.24,-194.89 665.5,-189.33"/>
</g>
<!-- 3de0cbb8&#45;12b0&#45;446d&#45;9438&#45;9e82c61c688c -->
<g id="node25" class="node">
<title>3de0cbb8&#45;12b0&#45;446d&#45;9438&#45;9e82c61c688c</title>
<ellipse fill="#ffff80" stroke="black" cx="831.05" cy="-165.64" rx="96.75" ry="21.43"/>
<text text-anchor="middle" x="831.05" y="-160.64" font-family="Times,serif" font-size="20.00">On(book,table)</text>
</g>
<!-- 20fcf368&#45;b7c1&#45;42a4&#45;94cd&#45;2c4048630220&#45;&gt;3de0cbb8&#45;12b0&#45;446d&#45;9438&#45;9e82c61c688c -->
<g id="edge24" class="edge">
<title>20fcf368&#45;b7c1&#45;42a4&#45;94cd&#45;2c4048630220&#45;&gt;3de0cbb8&#45;12b0&#45;446d&#45;9438&#45;9e82c61c688c</title>
<path fill="none" stroke="black" d="M748.57,-229.05C762.05,-218.85 780.7,-204.74 796.85,-192.51"/>
<polygon fill="black" stroke="black" points="799.17,-195.15 805.03,-186.32 794.94,-189.57 799.17,-195.15"/>
</g>
<!-- c10e2e10&#45;18ed&#45;4b5d&#45;b4d3&#45;ca415f5d5e56 -->
<g id="node26" class="node">
<title>c10e2e10&#45;18ed&#45;4b5d&#45;b4d3&#45;ca415f5d5e56</title>
<polygon fill="lightgreen" stroke="black" points="1126.55,-183.64 945.55,-183.64 945.55,-147.64 1126.55,-147.64 1126.55,-183.64"/>
<text text-anchor="middle" x="1036.05" y="-160.64" font-family="Times,serif" font-size="20.00">PlaceIn(pen,cabinet)</text>
</g>
<!-- 20fcf368&#45;b7c1&#45;42a4&#45;94cd&#45;2c4048630220&#45;&gt;c10e2e10&#45;18ed&#45;4b5d&#45;b4d3&#45;ca415f5d5e56 -->
<g id="edge25" class="edge">
<title>20fcf368&#45;b7c1&#45;42a4&#45;94cd&#45;2c4048630220&#45;&gt;c10e2e10&#45;18ed&#45;4b5d&#45;b4d3&#45;ca415f5d5e56</title>
<path fill="none" stroke="black" d="M746.46,-229C749.8,-226.66 753.41,-224.48 757.05,-222.85 831.54,-189.59 857.08,-203.01 937.05,-186.85 938.98,-186.46 940.94,-186.07 942.91,-185.67"/>
<polygon fill="black" stroke="black" points="943.76,-189.07 952.87,-183.65 942.37,-182.2 943.76,-189.07"/>
</g>
<!-- cb48e520&#45;d764&#45;4c83&#45;b2e6&#45;f0296f922a59 -->
<g id="node28" class="node">
<title>cb48e520&#45;d764&#45;4c83&#45;b2e6&#45;f0296f922a59</title>
<ellipse fill="#ffff80" stroke="black" cx="865.05" cy="-244.07" rx="98.99" ry="21.43"/>
<text text-anchor="middle" x="865.05" y="-239.07" font-family="Times,serif" font-size="20.00">IsHandEmpty()</text>
</g>
<!-- 05dc4df1&#45;feaf&#45;4cc6&#45;996e&#45;c8cb8716867f&#45;&gt;cb48e520&#45;d764&#45;4c83&#45;b2e6&#45;f0296f922a59 -->
<g id="edge27" class="edge">
<title>05dc4df1&#45;feaf&#45;4cc6&#45;996e&#45;c8cb8716867f&#45;&gt;cb48e520&#45;d764&#45;4c83&#45;b2e6&#45;f0296f922a59</title>
<path fill="none" stroke="black" d="M1052.4,-308.92C1024.04,-299.26 968.8,-280.43 925.62,-265.71"/>
<polygon fill="black" stroke="black" points="926.64,-262.36 916.05,-262.45 924.38,-268.99 926.64,-262.36"/>
</g>
<!-- acf381f7&#45;7810&#45;4c89&#45;99d3&#45;00eea4a0a033 -->
<g id="node29" class="node">
<title>acf381f7&#45;7810&#45;4c89&#45;99d3&#45;00eea4a0a033</title>
<ellipse fill="#ffff80" stroke="black" cx="1071.05" cy="-244.07" rx="89.19" ry="21.43"/>
<text text-anchor="middle" x="1071.05" y="-239.07" font-family="Times,serif" font-size="20.00">On(pen,table)</text>
</g>
<!-- 05dc4df1&#45;feaf&#45;4cc6&#45;996e&#45;c8cb8716867f&#45;&gt;acf381f7&#45;7810&#45;4c89&#45;99d3&#45;00eea4a0a033 -->
<g id="edge28" class="edge">
<title>05dc4df1&#45;feaf&#45;4cc6&#45;996e&#45;c8cb8716867f&#45;&gt;acf381f7&#45;7810&#45;4c89&#45;99d3&#45;00eea4a0a033</title>
<path fill="none" stroke="black" d="M1071.05,-301.07C1071.05,-293.7 1071.05,-284.39 1071.05,-275.49"/>
<polygon fill="black" stroke="black" points="1074.55,-275.37 1071.05,-265.37 1067.55,-275.37 1074.55,-275.37"/>
</g>
<!-- aeaed8af&#45;9308&#45;435a&#45;a79f&#45;fc19cf146ab9 -->
<g id="node30" class="node">
<title>aeaed8af&#45;9308&#45;435a&#45;a79f&#45;fc19cf146ab9</title>
<ellipse fill="#ffff80" stroke="black" cx="1275.05" cy="-244.07" rx="96.75" ry="21.43"/>
<text text-anchor="middle" x="1275.05" y="-239.07" font-family="Times,serif" font-size="20.00">On(book,table)</text>
</g>
<!-- 05dc4df1&#45;feaf&#45;4cc6&#45;996e&#45;c8cb8716867f&#45;&gt;aeaed8af&#45;9308&#45;435a&#45;a79f&#45;fc19cf146ab9 -->
<g id="edge29" class="edge">
<title>05dc4df1&#45;feaf&#45;4cc6&#45;996e&#45;c8cb8716867f&#45;&gt;aeaed8af&#45;9308&#45;435a&#45;a79f&#45;fc19cf146ab9</title>
<path fill="none" stroke="black" d="M1089.87,-308.8C1118.06,-299.1 1172.46,-280.38 1215.03,-265.72"/>
<polygon fill="black" stroke="black" points="1216.43,-268.94 1224.75,-262.38 1214.15,-262.32 1216.43,-268.94"/>
</g>
<!-- 0f836fc7&#45;7aad&#45;41c9&#45;9fb0&#45;179e78ae52ad -->
<g id="node31" class="node">
<title>0f836fc7&#45;7aad&#45;41c9&#45;9fb0&#45;179e78ae52ad</title>
<polygon fill="lightgreen" stroke="black" points="1508.05,-262.07 1390.05,-262.07 1390.05,-226.07 1508.05,-226.07 1508.05,-262.07"/>
<text text-anchor="middle" x="1449.05" y="-239.07" font-family="Times,serif" font-size="20.00">PickUp(pen)</text>
</g>
<!-- 05dc4df1&#45;feaf&#45;4cc6&#45;996e&#45;c8cb8716867f&#45;&gt;0f836fc7&#45;7aad&#45;41c9&#45;9fb0&#45;179e78ae52ad -->
<g id="edge30" class="edge">
<title>05dc4df1&#45;feaf&#45;4cc6&#45;996e&#45;c8cb8716867f&#45;&gt;0f836fc7&#45;7aad&#45;41c9&#45;9fb0&#45;179e78ae52ad</title>
<path fill="none" stroke="black" d="M1089.73,-313.12C1138.2,-307.33 1271.83,-290.21 1381.05,-265.28 1381.96,-265.07 1382.89,-264.85 1383.82,-264.63"/>
<polygon fill="black" stroke="black" points="1385.06,-267.93 1393.91,-262.1 1383.36,-261.14 1385.06,-267.93"/>
</g>
<!-- 2519ea7b&#45;28cd&#45;4707&#45;9850&#45;a18973284b90 -->
<g id="node33" class="node">
<title>2519ea7b&#45;28cd&#45;4707&#45;9850&#45;a18973284b90</title>
<ellipse fill="#ffff80" stroke="black" cx="1047.05" cy="-388.49" rx="110.12" ry="21.43"/>
<text text-anchor="middle" x="1047.05" y="-383.49" font-family="Times,serif" font-size="20.00">IsClosed(cabinet)</text>
</g>
<!-- 96fec384&#45;0b49&#45;4389&#45;b3ad&#45;24d5d2011e50&#45;&gt;2519ea7b&#45;28cd&#45;4707&#45;9850&#45;a18973284b90 -->
<g id="edge32" class="edge">
<title>96fec384&#45;0b49&#45;4389&#45;b3ad&#45;24d5d2011e50&#45;&gt;2519ea7b&#45;28cd&#45;4707&#45;9850&#45;a18973284b90</title>
<path fill="none" stroke="black" d="M1358.36,-455.73C1315.04,-446.51 1205.59,-423.23 1128.78,-406.88"/>
<polygon fill="black" stroke="black" points="1129.15,-403.38 1118.64,-404.72 1127.69,-410.23 1129.15,-403.38"/>
</g>
<!-- 766c9a83&#45;a267&#45;4130&#45;90e0&#45;037dbdc33239 -->
<g id="node34" class="node">
<title>766c9a83&#45;a267&#45;4130&#45;90e0&#45;037dbdc33239</title>
<ellipse fill="#ffff80" stroke="black" cx="1274.05" cy="-388.49" rx="98.99" ry="21.43"/>
<text text-anchor="middle" x="1274.05" y="-383.49" font-family="Times,serif" font-size="20.00">IsHandEmpty()</text>
</g>
<!-- 96fec384&#45;0b49&#45;4389&#45;b3ad&#45;24d5d2011e50&#45;&gt;766c9a83&#45;a267&#45;4130&#45;90e0&#45;037dbdc33239 -->
<g id="edge33" class="edge">
<title>96fec384&#45;0b49&#45;4389&#45;b3ad&#45;24d5d2011e50&#45;&gt;766c9a83&#45;a267&#45;4130&#45;90e0&#45;037dbdc33239</title>
<path fill="none" stroke="black" d="M1358.15,-446.83C1345.02,-437.88 1327.08,-425.65 1311.15,-414.78"/>
<polygon fill="black" stroke="black" points="1312.77,-411.66 1302.54,-408.92 1308.83,-417.44 1312.77,-411.66"/>
</g>
<!-- db435f17&#45;a291&#45;4880&#45;a323&#45;7d1e42eb61f0 -->
<g id="node35" class="node">
<title>db435f17&#45;a291&#45;4880&#45;a323&#45;7d1e42eb61f0</title>
<ellipse fill="#ffff80" stroke="black" cx="1480.05" cy="-388.49" rx="89.19" ry="21.43"/>
<text text-anchor="middle" x="1480.05" y="-383.49" font-family="Times,serif" font-size="20.00">On(pen,table)</text>
</g>
<!-- 96fec384&#45;0b49&#45;4389&#45;b3ad&#45;24d5d2011e50&#45;&gt;db435f17&#45;a291&#45;4880&#45;a323&#45;7d1e42eb61f0 -->
<g id="edge34" class="edge">
<title>96fec384&#45;0b49&#45;4389&#45;b3ad&#45;24d5d2011e50&#45;&gt;db435f17&#45;a291&#45;4880&#45;a323&#45;7d1e42eb61f0</title>
<path fill="none" stroke="black" d="M1395.94,-446.83C1409.17,-437.81 1427.28,-425.46 1443.3,-414.54"/>
<polygon fill="black" stroke="black" points="1445.66,-417.17 1451.95,-408.65 1441.71,-411.39 1445.66,-417.17"/>
</g>
<!-- c827c8ec&#45;f9ee&#45;47aa&#45;8321&#45;23da8f5809a0 -->
<g id="node36" class="node">
<title>c827c8ec&#45;f9ee&#45;47aa&#45;8321&#45;23da8f5809a0</title>
<ellipse fill="#ffff80" stroke="black" cx="1684.05" cy="-388.49" rx="96.75" ry="21.43"/>
<text text-anchor="middle" x="1684.05" y="-383.49" font-family="Times,serif" font-size="20.00">On(book,table)</text>
</g>
<!-- 96fec384&#45;0b49&#45;4389&#45;b3ad&#45;24d5d2011e50&#45;&gt;c827c8ec&#45;f9ee&#45;47aa&#45;8321&#45;23da8f5809a0 -->
<g id="edge35" class="edge">
<title>96fec384&#45;0b49&#45;4389&#45;b3ad&#45;24d5d2011e50&#45;&gt;c827c8ec&#45;f9ee&#45;47aa&#45;8321&#45;23da8f5809a0</title>
<path fill="none" stroke="black" d="M1395.79,-455.42C1437.25,-445.94 1538.69,-422.74 1609.43,-406.56"/>
<polygon fill="black" stroke="black" points="1610.23,-409.97 1619.2,-404.32 1608.67,-403.14 1610.23,-409.97"/>
</g>
<!-- 3665cbf8&#45;f673&#45;4194&#45;ac71&#45;e2568771a164 -->
<g id="node37" class="node">
<title>3665cbf8&#45;f673&#45;4194&#45;ac71&#45;e2568771a164</title>
<polygon fill="lightgreen" stroke="black" points="1929.05,-406.49 1799.05,-406.49 1799.05,-370.49 1929.05,-370.49 1929.05,-406.49"/>
<text text-anchor="middle" x="1864.05" y="-383.49" font-family="Times,serif" font-size="20.00">Open(cabinet)</text>
</g>
<!-- 96fec384&#45;0b49&#45;4389&#45;b3ad&#45;24d5d2011e50&#45;&gt;3665cbf8&#45;f673&#45;4194&#45;ac71&#45;e2568771a164 -->
<g id="edge36" class="edge">
<title>96fec384&#45;0b49&#45;4389&#45;b3ad&#45;24d5d2011e50&#45;&gt;3665cbf8&#45;f673&#45;4194&#45;ac71&#45;e2568771a164</title>
<path fill="none" stroke="black" d="M1395.72,-458.42C1454.29,-454.19 1639.43,-439.23 1790.05,-409.71 1791.52,-409.42 1793,-409.12 1794.49,-408.8"/>
<polygon fill="black" stroke="black" points="1795.45,-412.17 1804.45,-406.58 1793.93,-405.34 1795.45,-412.17"/>
</g>
<!-- df690ec4&#45;75cd&#45;43ec&#45;968b&#45;14bcd803049c -->
<g id="node39" class="node">
<title>df690ec4&#45;75cd&#45;43ec&#45;968b&#45;14bcd803049c</title>
<ellipse fill="#ffff80" stroke="black" cx="1324.05" cy="-532.92" rx="96.75" ry="21.43"/>
<text text-anchor="middle" x="1324.05" y="-527.92" font-family="Times,serif" font-size="20.00">On(book,table)</text>
</g>
<!-- 2e3ee5c9&#45;9bf8&#45;48ea&#45;ae4d&#45;4fc08b00e1c9&#45;&gt;df690ec4&#45;75cd&#45;43ec&#45;968b&#45;14bcd803049c -->
<g id="edge38" class="edge">
<title>2e3ee5c9&#45;9bf8&#45;48ea&#45;ae4d&#45;4fc08b00e1c9&#45;&gt;df690ec4&#45;75cd&#45;43ec&#45;968b&#45;14bcd803049c</title>
<path fill="none" stroke="black" d="M1762.35,-601.78C1709.85,-595.12 1556.64,-575.21 1430.05,-554.13 1421.52,-552.71 1412.62,-551.15 1403.77,-549.54"/>
<polygon fill="black" stroke="black" points="1404.28,-546.07 1393.81,-547.7 1403.01,-552.96 1404.28,-546.07"/>
</g>
<!-- 4170de74&#45;29df&#45;42fc&#45;8fda&#45;822645c56173 -->
<g id="node40" class="node">
<title>4170de74&#45;29df&#45;42fc&#45;8fda&#45;822645c56173</title>
<ellipse fill="#ffff80" stroke="black" cx="1549.05" cy="-532.92" rx="110.12" ry="21.43"/>
<text text-anchor="middle" x="1549.05" y="-527.92" font-family="Times,serif" font-size="20.00">IsClosed(cabinet)</text>
</g>
<!-- 2e3ee5c9&#45;9bf8&#45;48ea&#45;ae4d&#45;4fc08b00e1c9&#45;&gt;4170de74&#45;29df&#45;42fc&#45;8fda&#45;822645c56173 -->
<g id="edge39" class="edge">
<title>2e3ee5c9&#45;9bf8&#45;48ea&#45;ae4d&#45;4fc08b00e1c9&#45;&gt;4170de74&#45;29df&#45;42fc&#45;8fda&#45;822645c56173</title>
<path fill="none" stroke="black" d="M1762.45,-598.5C1731,-588.99 1665.84,-569.26 1615.74,-554.1"/>
<polygon fill="black" stroke="black" points="1616.52,-550.68 1605.94,-551.14 1614.5,-557.38 1616.52,-550.68"/>
</g>
<!-- a241780f&#45;7adb&#45;4c03&#45;9211&#45;05bbabf90498 -->
<g id="node41" class="node">
<title>a241780f&#45;7adb&#45;4c03&#45;9211&#45;05bbabf90498</title>
<ellipse fill="#ffff80" stroke="black" cx="1781.05" cy="-532.92" rx="103.48" ry="21.43"/>
<text text-anchor="middle" x="1781.05" y="-527.92" font-family="Times,serif" font-size="20.00">IsClosed(fridge)</text>
</g>
<!-- 2e3ee5c9&#45;9bf8&#45;48ea&#45;ae4d&#45;4fc08b00e1c9&#45;&gt;a241780f&#45;7adb&#45;4c03&#45;9211&#45;05bbabf90498 -->
<g id="edge40" class="edge">
<title>2e3ee5c9&#45;9bf8&#45;48ea&#45;ae4d&#45;4fc08b00e1c9&#45;&gt;a241780f&#45;7adb&#45;4c03&#45;9211&#45;05bbabf90498</title>
<path fill="none" stroke="black" d="M1781.05,-589.92C1781.05,-582.55 1781.05,-573.24 1781.05,-564.35"/>
<polygon fill="black" stroke="black" points="1784.55,-564.23 1781.05,-554.23 1777.55,-564.23 1784.55,-564.23"/>
</g>
<!-- f86be0ad&#45;6e7f&#45;4701&#45;99bb&#45;c823b5db6588 -->
<g id="node42" class="node">
<title>f86be0ad&#45;6e7f&#45;4701&#45;99bb&#45;c823b5db6588</title>
<ellipse fill="#ffff80" stroke="black" cx="2001.05" cy="-532.92" rx="98.99" ry="21.43"/>
<text text-anchor="middle" x="2001.05" y="-527.92" font-family="Times,serif" font-size="20.00">IsHandEmpty()</text>
</g>
<!-- 2e3ee5c9&#45;9bf8&#45;48ea&#45;ae4d&#45;4fc08b00e1c9&#45;&gt;f86be0ad&#45;6e7f&#45;4701&#45;99bb&#45;c823b5db6588 -->
<g id="edge41" class="edge">
<title>2e3ee5c9&#45;9bf8&#45;48ea&#45;ae4d&#45;4fc08b00e1c9&#45;&gt;f86be0ad&#45;6e7f&#45;4701&#45;99bb&#45;c823b5db6588</title>
<path fill="none" stroke="black" d="M1799.8,-598.15C1830.07,-588.49 1891.03,-569.03 1937.97,-554.05"/>
<polygon fill="black" stroke="black" points="1939.29,-557.3 1947.75,-550.93 1937.16,-550.63 1939.29,-557.3"/>
</g>
<!-- 22d545a9&#45;59e0&#45;4cbe&#45;bdd0&#45;faaec489eca5 -->
<g id="node43" class="node">
<title>22d545a9&#45;59e0&#45;4cbe&#45;bdd0&#45;faaec489eca5</title>
<ellipse fill="#ffff80" stroke="black" cx="2207.05" cy="-532.92" rx="89.19" ry="21.43"/>
<text text-anchor="middle" x="2207.05" y="-527.92" font-family="Times,serif" font-size="20.00">On(pen,table)</text>
</g>
<!-- 2e3ee5c9&#45;9bf8&#45;48ea&#45;ae4d&#45;4fc08b00e1c9&#45;&gt;22d545a9&#45;59e0&#45;4cbe&#45;bdd0&#45;faaec489eca5 -->
<g id="edge42" class="edge">
<title>2e3ee5c9&#45;9bf8&#45;48ea&#45;ae4d&#45;4fc08b00e1c9&#45;&gt;22d545a9&#45;59e0&#45;4cbe&#45;bdd0&#45;faaec489eca5</title>
<path fill="none" stroke="black" d="M1799.6,-601.65C1849.66,-594.88 1991.68,-575.17 2109.05,-554.13 2116.83,-552.74 2124.94,-551.2 2133.01,-549.62"/>
<polygon fill="black" stroke="black" points="2133.7,-553.05 2142.83,-547.66 2132.33,-546.18 2133.7,-553.05"/>
</g>
<!-- e13989c8&#45;ae73&#45;4d2b&#45;814f&#45;ca4d34a52b56 -->
<g id="node44" class="node">
<title>e13989c8&#45;ae73&#45;4d2b&#45;814f&#45;ca4d34a52b56</title>
<polygon fill="lightgreen" stroke="black" points="2434.05,-550.92 2314.05,-550.92 2314.05,-514.92 2434.05,-514.92 2434.05,-550.92"/>
<text text-anchor="middle" x="2374.05" y="-527.92" font-family="Times,serif" font-size="20.00">Open(fridge)</text>
</g>
<!-- 2e3ee5c9&#45;9bf8&#45;48ea&#45;ae4d&#45;4fc08b00e1c9&#45;&gt;e13989c8&#45;ae73&#45;4d2b&#45;814f&#45;ca4d34a52b56 -->
<g id="edge43" class="edge">
<title>2e3ee5c9&#45;9bf8&#45;48ea&#45;ae4d&#45;4fc08b00e1c9&#45;&gt;e13989c8&#45;ae73&#45;4d2b&#45;814f&#45;ca4d34a52b56</title>
<path fill="none" stroke="black" d="M1799.79,-603.63C1868.1,-601.52 2109.86,-591.68 2305.05,-554.13 2306.5,-553.85 2307.97,-553.55 2309.45,-553.24"/>
<polygon fill="black" stroke="black" points="2310.33,-556.63 2319.29,-550.98 2308.76,-549.81 2310.33,-556.63"/>
</g>
</g>
</svg>
