solid AssimpScene
 facet normal 0 0 0
  outer loop
  vertex -0.00272802822 -2.09490665e-07 0.00539747952
  vertex 0.00246096053 -9.22765935e-07 0.028501343
  vertex 0.00331611768 0.00350584462 0.0269598849
  endloop
 endfacet

 facet normal 0 0 0
  outer loop
  vertex -0.00272802822 -2.09490665e-07 0.00539747952
  vertex 0.00331611768 0.00350584462 0.0269598849
  vertex -0.00248934049 0.00354992761 0.000230608668
  endloop
 endfacet

 facet normal 0 0 0
  outer loop
  vertex 0.00925745349 0.00139808853 0.00105389021
  vertex 0.00115648715 0.00354992948 -0.0022164199
  vertex 0.00338829239 0.00680697756 0.00582050299
  endloop
 endfacet

 facet normal 0 0 0
  outer loop
  vertex 0.0187465623 -0.00244923355 0.0456028394
  vertex 0.0192619637 -0.00397923728 0.0409909934
  vertex 0.0202661566 0.000247188145 0.0446670912
  endloop
 endfacet

 facet normal 0 0 0
  outer loop
  vertex 0.0187465623 -0.00244923355 0.0456028394
  vertex 0.0154422168 -0.00413941499 0.0434175506
  vertex 0.0192619637 -0.00397923728 0.0409909934
  endloop
 endfacet

 facet normal 0 0 0
  outer loop
  vertex 0.00574627705 -0.0042957617 0.0306474846
  vertex 0.00825809874 -0.00587954186 0.027766414
  vertex 0.0154422168 -0.00413941499 0.0434175506
  endloop
 endfacet

 facet normal 0 0 0
  outer loop
  vertex 0.0205882024 -0.000931668445 0.0402599238
  vertex 0.0202661566 0.000247188145 0.0446670912
  vertex 0.0192619637 -0.00397923728 0.0409909934
  endloop
 endfacet

 facet normal 0 0 0
  outer loop
  vertex 0.0205882024 -0.000931668445 0.0402599238
  vertex 0.0192619637 -0.00397923728 0.0409909934
  vertex 0.00971511845 -0.00139982917 0.00210660417
  endloop
 endfacet

 facet normal 0 0 0
  outer loop
  vertex 0.0205882024 -0.000931668445 0.0402599238
  vertex 0.00971511845 -0.00139982917 0.00210660417
  vertex 0.00925745349 0.00139808853 0.00105389021
  endloop
 endfacet

 facet normal 0 0 0
  outer loop
  vertex 0.0205882024 -0.000931668445 0.0402599238
  vertex 0.00925745349 0.00139808853 0.00105389021
  vertex 0.0191293024 0.00375751033 0.0388875976
  endloop
 endfacet

 facet normal 0 0 0
  outer loop
  vertex -0.000919672544 0.00354992924 -0.00232469197
  vertex 0.00338829239 0.00680697756 0.00582050299
  vertex 0.00115648715 0.00354992948 -0.0022164199
  endloop
 endfacet

 facet normal 0 0 0
  outer loop
  vertex -0.000919672544 0.00354992924 -0.00232469197
  vertex 0.00115648715 0.00354992948 -0.0022164199
  vertex -2.66521165e-05 -0.00244374014 -0.00249985512
  endloop
 endfacet

 facet normal 0 0 0
  outer loop
  vertex -0.000919672544 0.00354992924 -0.00232469197
  vertex -0.00235983613 -0.00355166616 -0.000825334282
  vertex -0.00248934049 0.00354992761 0.000230608668
  endloop
 endfacet

 facet normal 0 0 0
  outer loop
  vertex 0.00801741052 0.00562035292 0.0085638389
  vertex 0.0191293024 0.00375751033 0.0388875976
  vertex 0.00925745349 0.00139808853 0.00105389021
  endloop
 endfacet

 facet normal 0 0 0
  outer loop
  vertex 0.00801741052 0.00562035292 0.0085638389
  vertex 0.00925745349 0.00139808853 0.00105389021
  vertex 0.00338829239 0.00680697756 0.00582050299
  endloop
 endfacet

 facet normal 0 0 0
  outer loop
  vertex -0.00272802822 -2.09490665e-07 0.00539747952
  vertex -0.00248934049 0.00354992761 0.000230608668
  vertex -0.00235983613 -0.00355166616 -0.000825334282
  endloop
 endfacet

 facet normal 0 0 0
  outer loop
  vertex -0.00272802822 -2.09490665e-07 0.00539747952
  vertex -0.00235983613 -0.00355166616 -0.000825334282
  vertex -0.00151403307 -0.00408010511 0.00557266595
  endloop
 endfacet

 facet normal 0 0 0
  outer loop
  vertex 0.0011564875 -0.003551665 -0.002216422
  vertex -2.66521165e-05 -0.00244374014 -0.00249985512
  vertex 0.00115648715 0.00354992948 -0.0022164199
  endloop
 endfacet

 facet normal 0 0 0
  outer loop
  vertex 0.000310262782 0.0058922004 0.00619256683
  vertex -0.00248934049 0.00354992761 0.000230608668
  vertex 0.00331611768 0.00350584462 0.0269598849
  endloop
 endfacet

 facet normal 0 0 0
  outer loop
  vertex 0.000310262782 0.0058922004 0.00619256683
  vertex 0.00331611768 0.00350584462 0.0269598849
  vertex 0.0074581001 0.00540233403 0.0299957208
  endloop
 endfacet

 facet normal 0 0 0
  outer loop
  vertex 0.000310262782 0.0058922004 0.00619256683
  vertex 0.0074581001 0.00540233403 0.0299957208
  vertex 0.00338829239 0.00680697756 0.00582050299
  endloop
 endfacet

 facet normal 0 0 0
  outer loop
  vertex 0.00338829239 0.00680697756 0.00582050299
  vertex -0.000919672544 0.00354992924 -0.00232469197
  vertex -0.00248934049 0.00354992761 0.000230608668
  endloop
 endfacet

 facet normal 0 0 0
  outer loop
  vertex 0.00338829239 0.00680697756 0.00582050299
  vertex -0.00248934049 0.00354992761 0.000230608668
  vertex 0.000310262782 0.0058922004 0.00619256683
  endloop
 endfacet

 facet normal 0 0 0
  outer loop
  vertex 0.00837882049 -0.00544010801 0.00890875142
  vertex 0.00971511845 -0.00139982917 0.00210660417
  vertex 0.0192619637 -0.00397923728 0.0409909934
  endloop
 endfacet

 facet normal 0 0 0
  outer loop
  vertex 0.000377440621 -0.00609781919 0.00452025933
  vertex -0.00151403307 -0.00408010511 0.00557266595
  vertex -0.00235983613 -0.00355166616 -0.000825334282
  endloop
 endfacet

 facet normal 0 0 0
  outer loop
  vertex 0.000377440621 -0.00609781919 0.00452025933
  vertex 0.00395732792 -0.00678302674 0.00612155767
  vertex 0.00825809874 -0.00587954186 0.027766414
  endloop
 endfacet

 facet normal 0 0 0
  outer loop
  vertex 0.000377440621 -0.00609781919 0.00452025933
  vertex 0.00825809874 -0.00587954186 0.027766414
  vertex 0.00574627705 -0.0042957617 0.0306474846
  endloop
 endfacet

 facet normal 0 0 0
  outer loop
  vertex 0.0157325249 0.00536853354 0.0383501425
  vertex 0.00338829239 0.00680697756 0.00582050299
  vertex 0.0074581001 0.00540233403 0.0299957208
  endloop
 endfacet

 facet normal 0 0 0
  outer loop
  vertex 0.0157325249 0.00536853354 0.0383501425
  vertex 0.0074581001 0.00540233403 0.0299957208
  vertex 0.0159103051 0.00429373188 0.0433665998
  endloop
 endfacet

 facet normal 0 0 0
  outer loop
  vertex 0.0157325249 0.00536853354 0.0383501425
  vertex 0.00801741052 0.00562035292 0.0085638389
  vertex 0.00338829239 0.00680697756 0.00582050299
  endloop
 endfacet

 facet normal 0 0 0
  outer loop
  vertex 0.00574627705 -0.0042957617 0.0306474846
  vertex 0.0154422168 -0.00413941499 0.0434175506
  vertex 0.0145947142 -0.00162084494 0.0449280813
  endloop
 endfacet

 facet normal 0 0 0
  outer loop
  vertex 0.00574627705 -0.0042957617 0.0306474846
  vertex 0.0145947142 -0.00162084494 0.0449280813
  vertex 0.00563304499 -0.00172547379 0.0333836898
  endloop
 endfacet

 facet normal 0 0 0
  outer loop
  vertex 0.0160787832 -0.00529978564 0.0390093327
  vertex 0.0192619637 -0.00397923728 0.0409909934
  vertex 0.0154422168 -0.00413941499 0.0434175506
  endloop
 endfacet

 facet normal 0 0 0
  outer loop
  vertex 0.0160787832 -0.00529978564 0.0390093327
  vertex 0.0154422168 -0.00413941499 0.0434175506
  vertex 0.00825809874 -0.00587954186 0.027766414
  endloop
 endfacet

 facet normal 0 0 0
  outer loop
  vertex 0.0160787832 -0.00529978564 0.0390093327
  vertex 0.00825809874 -0.00587954186 0.027766414
  vertex 0.00395732792 -0.00678302674 0.00612155767
  endloop
 endfacet

 facet normal 0 0 0
  outer loop
  vertex 0.0160787832 -0.00529978564 0.0390093327
  vertex 0.00395732792 -0.00678302674 0.00612155767
  vertex 0.00837882049 -0.00544010801 0.00890875142
  endloop
 endfacet

 facet normal 0 0 0
  outer loop
  vertex 0.0160787832 -0.00529978564 0.0390093327
  vertex 0.00837882049 -0.00544010801 0.00890875142
  vertex 0.0192619637 -0.00397923728 0.0409909934
  endloop
 endfacet

 facet normal 0 0 0
  outer loop
  vertex 0.0145947142 -0.00162084494 0.0449280813
  vertex 0.0131265 0.00160313875 0.0431647636
  vertex 0.00563304499 -0.00172547379 0.0333836898
  endloop
 endfacet

 facet normal 0 0 0
  outer loop
  vertex 0.00837757811 -0.001399828 0.000316673686
  vertex 0.00971511845 -0.00139982917 0.00210660417
  vertex 0.00837882049 -0.00544010801 0.00890875142
  endloop
 endfacet

 facet normal 0 0 0
  outer loop
  vertex 0.00837757811 -0.001399828 0.000316673686
  vertex 0.00837882049 -0.00544010801 0.00890875142
  vertex 0.00395732792 -0.00678302674 0.00612155767
  endloop
 endfacet

 facet normal 0 0 0
  outer loop
  vertex 0.00837757811 -0.001399828 0.000316673686
  vertex 0.00395732792 -0.00678302674 0.00612155767
  vertex 0.0011564875 -0.003551665 -0.002216422
  endloop
 endfacet

 facet normal 0 0 0
  outer loop
  vertex 0.00837757811 -0.001399828 0.000316673686
  vertex 0.0011564875 -0.003551665 -0.002216422
  vertex 0.00115648715 0.00354992948 -0.0022164199
  endloop
 endfacet

 facet normal 0 0 0
  outer loop
  vertex 0.00837757811 -0.001399828 0.000316673686
  vertex 0.00115648715 0.00354992948 -0.0022164199
  vertex 0.00925745349 0.00139808853 0.00105389021
  endloop
 endfacet

 facet normal 0 0 0
  outer loop
  vertex 0.00837757811 -0.001399828 0.000316673686
  vertex 0.00925745349 0.00139808853 0.00105389021
  vertex 0.00971511845 -0.00139982917 0.00210660417
  endloop
 endfacet

 facet normal 0 0 0
  outer loop
  vertex 0.00482548634 0.00262640114 0.0315948389
  vertex 0.00246096053 -9.22765935e-07 0.028501343
  vertex 0.00563304499 -0.00172547379 0.0333836898
  endloop
 endfacet

 facet normal 0 0 0
  outer loop
  vertex 0.00482548634 0.00262640114 0.0315948389
  vertex 0.00563304499 -0.00172547379 0.0333836898
  vertex 0.0131265 0.00160313875 0.0431647636
  endloop
 endfacet

 facet normal 0 0 0
  outer loop
  vertex 0.00482548634 0.00262640114 0.0315948389
  vertex 0.0159103051 0.00429373188 0.0433665998
  vertex 0.0074581001 0.00540233403 0.0299957208
  endloop
 endfacet

 facet normal 0 0 0
  outer loop
  vertex 0.00482548634 0.00262640114 0.0315948389
  vertex 0.0074581001 0.00540233403 0.0299957208
  vertex 0.00331611768 0.00350584462 0.0269598849
  endloop
 endfacet

 facet normal 0 0 0
  outer loop
  vertex 0.00482548634 0.00262640114 0.0315948389
  vertex 0.00331611768 0.00350584462 0.0269598849
  vertex 0.00246096053 -9.22765935e-07 0.028501343
  endloop
 endfacet

 facet normal 0 0 0
  outer loop
  vertex 0.0189160798 -8.86297073e-07 0.0465779528
  vertex 0.0169601571 -7.13665827e-07 0.0468779765
  vertex 0.0187465623 -0.00244923355 0.0456028394
  endloop
 endfacet

 facet normal 0 0 0
  outer loop
  vertex 0.0189160798 -8.86297073e-07 0.0465779528
  vertex 0.0187465623 -0.00244923355 0.0456028394
  vertex 0.0202661566 0.000247188145 0.0446670912
  endloop
 endfacet

 facet normal 0 0 0
  outer loop
  vertex 0.0189160798 -8.86297073e-07 0.0465779528
  vertex 0.0202661566 0.000247188145 0.0446670912
  vertex 0.018741278 0.00247821491 0.0455780849
  endloop
 endfacet

 facet normal 0 0 0
  outer loop
  vertex 0.0189160798 -8.86297073e-07 0.0465779528
  vertex 0.018741278 0.00247821491 0.0455780849
  vertex 0.0169601571 -7.13665827e-07 0.0468779765
  endloop
 endfacet

 facet normal 0 0 0
  outer loop
  vertex 0.0190507025 0.00412482349 0.0415864401
  vertex 0.0159103051 0.00429373188 0.0433665998
  vertex 0.018741278 0.00247821491 0.0455780849
  endloop
 endfacet

 facet normal 0 0 0
  outer loop
  vertex 0.0190507025 0.00412482349 0.0415864401
  vertex 0.018741278 0.00247821491 0.0455780849
  vertex 0.0202661566 0.000247188145 0.0446670912
  endloop
 endfacet

 facet normal 0 0 0
  outer loop
  vertex 0.0202661566 0.000247188145 0.0446670912
  vertex 0.0205882024 -0.000931668445 0.0402599238
  vertex 0.0191293024 0.00375751033 0.0388875976
  endloop
 endfacet

 facet normal 0 0 0
  outer loop
  vertex 0.0202661566 0.000247188145 0.0446670912
  vertex 0.0191293024 0.00375751033 0.0388875976
  vertex 0.0190507025 0.00412482349 0.0415864401
  endloop
 endfacet

 facet normal 0 0 0
  outer loop
  vertex 0.0190507025 0.00412482349 0.0415864401
  vertex 0.0191293024 0.00375751033 0.0388875976
  vertex 0.00801741052 0.00562035292 0.0085638389
  endloop
 endfacet

 facet normal 0 0 0
  outer loop
  vertex 0.0190507025 0.00412482349 0.0415864401
  vertex 0.00801741052 0.00562035292 0.0085638389
  vertex 0.0157325249 0.00536853354 0.0383501425
  endloop
 endfacet

 facet normal 0 0 0
  outer loop
  vertex 0.0190507025 0.00412482349 0.0415864401
  vertex 0.0157325249 0.00536853354 0.0383501425
  vertex 0.0159103051 0.00429373188 0.0433665998
  endloop
 endfacet

 facet normal 0 0 0
  outer loop
  vertex 0.0155856209 0.00233101286 0.0455260053
  vertex 0.0159103051 0.00429373188 0.0433665998
  vertex 0.00482548634 0.00262640114 0.0315948389
  endloop
 endfacet

 facet normal 0 0 0
  outer loop
  vertex 0.0155856209 0.00233101286 0.0455260053
  vertex 0.00482548634 0.00262640114 0.0315948389
  vertex 0.0131265 0.00160313875 0.0431647636
  endloop
 endfacet

 facet normal 0 0 0
  outer loop
  vertex 0.0155856209 0.00233101286 0.0455260053
  vertex 0.0131265 0.00160313875 0.0431647636
  vertex 0.0145947142 -0.00162084494 0.0449280813
  endloop
 endfacet

 facet normal 0 0 0
  outer loop
  vertex 0.0155856209 0.00233101286 0.0455260053
  vertex 0.0145947142 -0.00162084494 0.0449280813
  vertex 0.0169601571 -7.13665827e-07 0.0468779765
  endloop
 endfacet

 facet normal 0 0 0
  outer loop
  vertex 0.0155856209 0.00233101286 0.0455260053
  vertex 0.0169601571 -7.13665827e-07 0.0468779765
  vertex 0.018741278 0.00247821491 0.0455780849
  endloop
 endfacet

 facet normal 0 0 0
  outer loop
  vertex 0.0155856209 0.00233101286 0.0455260053
  vertex 0.018741278 0.00247821491 0.0455780849
  vertex 0.0159103051 0.00429373188 0.0433665998
  endloop
 endfacet

 facet normal 0 0 0
  outer loop
  vertex 0.00259276689 -0.00270761643 0.0262635835
  vertex -0.00151403307 -0.00408010511 0.00557266595
  vertex 0.000377440621 -0.00609781919 0.00452025933
  endloop
 endfacet

 facet normal 0 0 0
  outer loop
  vertex 0.00259276689 -0.00270761643 0.0262635835
  vertex 0.000377440621 -0.00609781919 0.00452025933
  vertex 0.00574627705 -0.0042957617 0.0306474846
  endloop
 endfacet

 facet normal 0 0 0
  outer loop
  vertex 0.00259276689 -0.00270761643 0.0262635835
  vertex 0.00574627705 -0.0042957617 0.0306474846
  vertex 0.00563304499 -0.00172547379 0.0333836898
  endloop
 endfacet

 facet normal 0 0 0
  outer loop
  vertex 0.00259276689 -0.00270761643 0.0262635835
  vertex 0.00563304499 -0.00172547379 0.0333836898
  vertex 0.00246096053 -9.22765935e-07 0.028501343
  endloop
 endfacet

 facet normal 0 0 0
  outer loop
  vertex 0.00259276689 -0.00270761643 0.0262635835
  vertex 0.00246096053 -9.22765935e-07 0.028501343
  vertex -0.00272802822 -2.09490665e-07 0.00539747952
  endloop
 endfacet

 facet normal 0 0 0
  outer loop
  vertex 0.00259276689 -0.00270761643 0.0262635835
  vertex -0.00272802822 -2.09490665e-07 0.00539747952
  vertex -0.00151403307 -0.00408010511 0.00557266595
  endloop
 endfacet

 facet normal 0 0 0
  outer loop
  vertex 0.0162679646 -0.00246293284 0.0458294153
  vertex 0.0154422168 -0.00413941499 0.0434175506
  vertex 0.0187465623 -0.00244923355 0.0456028394
  endloop
 endfacet

 facet normal 0 0 0
  outer loop
  vertex 0.0162679646 -0.00246293284 0.0458294153
  vertex 0.0187465623 -0.00244923355 0.0456028394
  vertex 0.0169601571 -7.13665827e-07 0.0468779765
  endloop
 endfacet

 facet normal 0 0 0
  outer loop
  vertex 0.0162679646 -0.00246293284 0.0458294153
  vertex 0.0169601571 -7.13665827e-07 0.0468779765
  vertex 0.0145947142 -0.00162084494 0.0449280813
  endloop
 endfacet

 facet normal 0 0 0
  outer loop
  vertex 0.0162679646 -0.00246293284 0.0458294153
  vertex 0.0145947142 -0.00162084494 0.0449280813
  vertex 0.0154422168 -0.00413941499 0.0434175506
  endloop
 endfacet

 facet normal 0 0 0
  outer loop
  vertex -0.000919672311 -0.00355166616 -0.00232469407
  vertex -2.66521165e-05 -0.00244374014 -0.00249985512
  vertex 0.0011564875 -0.003551665 -0.002216422
  endloop
 endfacet

 facet normal 0 0 0
  outer loop
  vertex -0.000919672311 -0.00355166616 -0.00232469407
  vertex 0.0011564875 -0.003551665 -0.002216422
  vertex 0.00395732792 -0.00678302674 0.00612155767
  endloop
 endfacet

 facet normal 0 0 0
  outer loop
  vertex -0.000919672311 -0.00355166616 -0.00232469407
  vertex 0.00395732792 -0.00678302674 0.00612155767
  vertex 0.000377440621 -0.00609781919 0.00452025933
  endloop
 endfacet

 facet normal 0 0 0
  outer loop
  vertex -0.000919672311 -0.00355166616 -0.00232469407
  vertex 0.000377440621 -0.00609781919 0.00452025933
  vertex -0.00235983613 -0.00355166616 -0.000825334282
  endloop
 endfacet

 facet normal 0 0 0
  outer loop
  vertex -0.000919672311 -0.00355166616 -0.00232469407
  vertex -0.00235983613 -0.00355166616 -0.000825334282
  vertex -0.000919672544 0.00354992924 -0.00232469197
  endloop
 endfacet

 facet normal 0 0 0
  outer loop
  vertex -0.000919672311 -0.00355166616 -0.00232469407
  vertex -0.000919672544 0.00354992924 -0.00232469197
  vertex -2.66521165e-05 -0.00244374014 -0.00249985512
  endloop
 endfacet

endsolid AssimpScene
