solid AssimpScene
 facet normal 0 0 0
  outer loop
  vertex 0.000742777775 0.00863490906 0.0377805158
  vertex -0.000734010828 0.00962677598 0.0372042209
  vertex -0.00198764494 0.00857665949 0.036942292
  endloop
 endfacet

 facet normal 0 0 0
  outer loop
  vertex 0.000742777775 0.00863490906 0.0377805158
  vertex -0.00198764494 0.00857665949 0.036942292
  vertex -0.000258249813 -0.00332930149 0.0387179404
  endloop
 endfacet

 facet normal 0 0 0
  outer loop
  vertex 0.00230677752 -0.00609702803 -0.00119126611
  vertex 0.000601525709 0.00581249036 -0.00291089364
  vertex 0.0123858517 0.00545891607 0.00893963501
  endloop
 endfacet

 facet normal 0 0 0
  outer loop
  vertex 0.00230677752 -0.00609702803 -0.00119126611
  vertex 0.0123858517 0.00545891607 0.00893963501
  vertex 0.0126382727 -0.00385141419 0.0101015698
  endloop
 endfacet

 facet normal 0 0 0
  outer loop
  vertex -0.00251715328 -0.00349456118 0.036332123
  vertex -0.00198764494 0.00857665949 0.036942292
  vertex -0.00344253727 0.00419338187 0.0315970629
  endloop
 endfacet

 facet normal 0 0 0
  outer loop
  vertex 0.00811279658 -0.00392980641 0.0247057676
  vertex 0.0126382727 -0.00385141419 0.0101015698
  vertex 0.0106664831 0.00048856897 0.0218701269
  endloop
 endfacet

 facet normal 0 0 0
  outer loop
  vertex 0.00223175366 -0.0034260368 0.0373208486
  vertex 0.00811279658 -0.00392980641 0.0247057676
  vertex 0.0106664831 0.00048856897 0.0218701269
  endloop
 endfacet

 facet normal 0 0 0
  outer loop
  vertex 0.00223175366 -0.0034260368 0.0373208486
  vertex 0.0106664831 0.00048856897 0.0218701269
  vertex 0.00179346872 0.00955939945 0.0362312496
  endloop
 endfacet

 facet normal 0 0 0
  outer loop
  vertex 0.0094856061 0.00571069354 0.0227162056
  vertex 0.00179346872 0.00955939945 0.0362312496
  vertex 0.0106664831 0.00048856897 0.0218701269
  endloop
 endfacet

 facet normal 0 0 0
  outer loop
  vertex 0.000742777775 0.00863490906 0.0377805158
  vertex -0.000258249813 -0.00332930149 0.0387179404
  vertex 0.000871636963 -0.00434394879 0.0381111503
  endloop
 endfacet

 facet normal 0 0 0
  outer loop
  vertex 0.000742777775 0.00863490906 0.0377805158
  vertex 0.000871636963 -0.00434394879 0.0381111503
  vertex 0.00223175366 -0.0034260368 0.0373208486
  endloop
 endfacet

 facet normal 0 0 0
  outer loop
  vertex 0.000742777775 0.00863490906 0.0377805158
  vertex 0.00223175366 -0.0034260368 0.0373208486
  vertex 0.00179346872 0.00955939945 0.0362312496
  endloop
 endfacet

 facet normal 0 0 0
  outer loop
  vertex -0.000261462614 -0.00615339866 -0.00200516591
  vertex 0.000601525709 0.00581249036 -0.00291089364
  vertex 0.00230677752 -0.00609702803 -0.00119126611
  endloop
 endfacet

 facet normal 0 0 0
  outer loop
  vertex 0.00260334928 0.00771586783 0.00377533794
  vertex 0.00179346872 0.00955939945 0.0362312496
  vertex 0.0123858517 0.00545891607 0.00893963501
  endloop
 endfacet

 facet normal 0 0 0
  outer loop
  vertex -0.00335754314 -0.00261310022 0.0108435256
  vertex -0.00344253727 0.00419338187 0.0315970629
  vertex -0.00198369729 0.006999203 -0.000740130607
  endloop
 endfacet

 facet normal 0 0 0
  outer loop
  vertex -0.00335754314 -0.00261310022 0.0108435256
  vertex -0.00198369729 0.006999203 -0.000740130607
  vertex -0.0017934686 -0.00701089203 -0.000401768513
  endloop
 endfacet

 facet normal 0 0 0
  outer loop
  vertex -0.00335754314 -0.00261310022 0.0108435256
  vertex -0.0017934686 -0.00701089203 -0.000401768513
  vertex -0.00251715328 -0.00349456118 0.036332123
  endloop
 endfacet

 facet normal 0 0 0
  outer loop
  vertex -0.00335754314 -0.00261310022 0.0108435256
  vertex -0.00251715328 -0.00349456118 0.036332123
  vertex -0.00344253727 0.00419338187 0.0315970629
  endloop
 endfacet

 facet normal 0 0 0
  outer loop
  vertex -0.00153101399 -0.00437940424 0.0375991613
  vertex -0.00251715328 -0.00349456118 0.036332123
  vertex -0.0017934686 -0.00701089203 -0.000401768513
  endloop
 endfacet

 facet normal 0 0 0
  outer loop
  vertex -0.00153101399 -0.00437940424 0.0375991613
  vertex -0.0017934686 -0.00701089203 -0.000401768513
  vertex 0.0026200437 -0.00711754104 0.0048116059
  endloop
 endfacet

 facet normal 0 0 0
  outer loop
  vertex -0.00153101399 -0.00437940424 0.0375991613
  vertex -0.000258249813 -0.00332930149 0.0387179404
  vertex -0.00198764494 0.00857665949 0.036942292
  endloop
 endfacet

 facet normal 0 0 0
  outer loop
  vertex -0.00153101399 -0.00437940424 0.0375991613
  vertex -0.00198764494 0.00857665949 0.036942292
  vertex -0.00251715328 -0.00349456118 0.036332123
  endloop
 endfacet

 facet normal 0 0 0
  outer loop
  vertex -0.00199858774 0.00950344279 0.0354231857
  vertex 0.00260334928 0.00771586783 0.00377533794
  vertex -0.00198369729 0.006999203 -0.000740130607
  endloop
 endfacet

 facet normal 0 0 0
  outer loop
  vertex -0.00199858774 0.00950344279 0.0354231857
  vertex -0.00198369729 0.006999203 -0.000740130607
  vertex -0.00344253727 0.00419338187 0.0315970629
  endloop
 endfacet

 facet normal 0 0 0
  outer loop
  vertex -0.00199858774 0.00950344279 0.0354231857
  vertex -0.00344253727 0.00419338187 0.0315970629
  vertex -0.00198764494 0.00857665949 0.036942292
  endloop
 endfacet

 facet normal 0 0 0
  outer loop
  vertex 0.00153101399 0.00692791073 -0.00176968111
  vertex 0.00260334928 0.00771586783 0.00377533794
  vertex 0.0123858517 0.00545891607 0.00893963501
  endloop
 endfacet

 facet normal 0 0 0
  outer loop
  vertex 0.00153101399 0.00692791073 -0.00176968111
  vertex 0.0123858517 0.00545891607 0.00893963501
  vertex 0.000601525709 0.00581249036 -0.00291089364
  endloop
 endfacet

 facet normal 0 0 0
  outer loop
  vertex 0.000871636963 -0.00434394879 0.0381111503
  vertex -0.000258249813 -0.00332930149 0.0387179404
  vertex -0.00153101399 -0.00437940424 0.0375991613
  endloop
 endfacet

 facet normal 0 0 0
  outer loop
  vertex 0.000871636963 -0.00434394879 0.0381111503
  vertex -0.00153101399 -0.00437940424 0.0375991613
  vertex 0.0026200437 -0.00711754104 0.0048116059
  endloop
 endfacet

 facet normal 0 0 0
  outer loop
  vertex 0.000871636963 -0.00434394879 0.0381111503
  vertex 0.0026200437 -0.00711754104 0.0048116059
  vertex 0.0126382727 -0.00385141419 0.0101015698
  endloop
 endfacet

 facet normal 0 0 0
  outer loop
  vertex 0.000871636963 -0.00434394879 0.0381111503
  vertex 0.0126382727 -0.00385141419 0.0101015698
  vertex 0.00811279658 -0.00392980641 0.0247057676
  endloop
 endfacet

 facet normal 0 0 0
  outer loop
  vertex 0.000871636963 -0.00434394879 0.0381111503
  vertex 0.00811279658 -0.00392980641 0.0247057676
  vertex 0.00223175366 -0.0034260368 0.0373208486
  endloop
 endfacet

 facet normal 0 0 0
  outer loop
  vertex -0.000734010828 0.00962677598 0.0372042209
  vertex 0.000742777775 0.00863490906 0.0377805158
  vertex 0.00179346872 0.00955939945 0.0362312496
  endloop
 endfacet

 facet normal 0 0 0
  outer loop
  vertex 0.00179346872 0.00955939945 0.0362312496
  vertex 0.00260334928 0.00771586783 0.00377533794
  vertex -0.00199858774 0.00950344279 0.0354231857
  endloop
 endfacet

 facet normal 0 0 0
  outer loop
  vertex 0.00179346872 0.00955939945 0.0362312496
  vertex -0.00199858774 0.00950344279 0.0354231857
  vertex -0.000734010828 0.00962677598 0.0372042209
  endloop
 endfacet

 facet normal 0 0 0
  outer loop
  vertex -0.000734010828 0.00962677598 0.0372042209
  vertex -0.00199858774 0.00950344279 0.0354231857
  vertex -0.00198764494 0.00857665949 0.036942292
  endloop
 endfacet

 facet normal 0 0 0
  outer loop
  vertex 0.000417782314 -0.00708486093 -0.00146995031
  vertex -0.0017934686 -0.00701089203 -0.000401768513
  vertex -0.000261462614 -0.00615339866 -0.00200516591
  endloop
 endfacet

 facet normal 0 0 0
  outer loop
  vertex 0.000417782314 -0.00708486093 -0.00146995031
  vertex -0.000261462614 -0.00615339866 -0.00200516591
  vertex 0.00230677752 -0.00609702803 -0.00119126611
  endloop
 endfacet

 facet normal 0 0 0
  outer loop
  vertex 0.000417782314 -0.00708486093 -0.00146995031
  vertex 0.00230677752 -0.00609702803 -0.00119126611
  vertex 0.0126382727 -0.00385141419 0.0101015698
  endloop
 endfacet

 facet normal 0 0 0
  outer loop
  vertex 0.000417782314 -0.00708486093 -0.00146995031
  vertex 0.0126382727 -0.00385141419 0.0101015698
  vertex 0.0026200437 -0.00711754104 0.0048116059
  endloop
 endfacet

 facet normal 0 0 0
  outer loop
  vertex 0.000417782314 -0.00708486093 -0.00146995031
  vertex 0.0026200437 -0.00711754104 0.0048116059
  vertex -0.0017934686 -0.00701089203 -0.000401768513
  endloop
 endfacet

 facet normal 0 0 0
  outer loop
  vertex -0.00123200729 0.00585293956 -0.00232819258
  vertex 0.000601525709 0.00581249036 -0.00291089364
  vertex -0.000261462614 -0.00615339866 -0.00200516591
  endloop
 endfacet

 facet normal 0 0 0
  outer loop
  vertex -0.00123200729 0.00585293956 -0.00232819258
  vertex -0.000261462614 -0.00615339866 -0.00200516591
  vertex -0.0017934686 -0.00701089203 -0.000401768513
  endloop
 endfacet

 facet normal 0 0 0
  outer loop
  vertex -0.00123200729 0.00585293956 -0.00232819258
  vertex -0.0017934686 -0.00701089203 -0.000401768513
  vertex -0.00198369729 0.006999203 -0.000740130607
  endloop
 endfacet

 facet normal 0 0 0
  outer loop
  vertex 0.0121188052 0.00515185017 0.0141445594
  vertex 0.0123858517 0.00545891607 0.00893963501
  vertex 0.00179346872 0.00955939945 0.0362312496
  endloop
 endfacet

 facet normal 0 0 0
  outer loop
  vertex 0.0121188052 0.00515185017 0.0141445594
  vertex 0.00179346872 0.00955939945 0.0362312496
  vertex 0.0094856061 0.00571069354 0.0227162056
  endloop
 endfacet

 facet normal 0 0 0
  outer loop
  vertex 0.0121188052 0.00515185017 0.0141445594
  vertex 0.0094856061 0.00571069354 0.0227162056
  vertex 0.0106664831 0.00048856897 0.0218701269
  endloop
 endfacet

 facet normal 0 0 0
  outer loop
  vertex 0.0121188052 0.00515185017 0.0141445594
  vertex 0.0106664831 0.00048856897 0.0218701269
  vertex 0.0126382727 -0.00385141419 0.0101015698
  endloop
 endfacet

 facet normal 0 0 0
  outer loop
  vertex 0.0121188052 0.00515185017 0.0141445594
  vertex 0.0126382727 -0.00385141419 0.0101015698
  vertex 0.0123858517 0.00545891607 0.00893963501
  endloop
 endfacet

 facet normal 0 0 0
  outer loop
  vertex -0.000563466689 0.00688423961 -0.00240030116
  vertex -0.00198369729 0.006999203 -0.000740130607
  vertex 0.00260334928 0.00771586783 0.00377533794
  endloop
 endfacet

 facet normal 0 0 0
  outer loop
  vertex -0.000563466689 0.00688423961 -0.00240030116
  vertex 0.00260334928 0.00771586783 0.00377533794
  vertex 0.00153101399 0.00692791073 -0.00176968111
  endloop
 endfacet

 facet normal 0 0 0
  outer loop
  vertex -0.000563466689 0.00688423961 -0.00240030116
  vertex 0.00153101399 0.00692791073 -0.00176968111
  vertex 0.000601525709 0.00581249036 -0.00291089364
  endloop
 endfacet

 facet normal 0 0 0
  outer loop
  vertex -0.000563466689 0.00688423961 -0.00240030116
  vertex 0.000601525709 0.00581249036 -0.00291089364
  vertex -0.00123200729 0.00585293956 -0.00232819258
  endloop
 endfacet

 facet normal 0 0 0
  outer loop
  vertex -0.000563466689 0.00688423961 -0.00240030116
  vertex -0.00123200729 0.00585293956 -0.00232819258
  vertex -0.00198369729 0.006999203 -0.000740130607
  endloop
 endfacet

endsolid AssimpScene
