solid AssimpScene
 facet normal 0 0 0
  outer loop
  vertex -0.00249175541 -0.00603161473 0.0408034772
  vertex -0.00249248766 0.00595773617 0.0408110917
  vertex -0.00354716228 0.00335911405 0.00994764268
  endloop
 endfacet

 facet normal 0 0 0
  outer loop
  vertex -0.00249175541 -0.00603161473 0.0408034772
  vertex -0.00354716228 0.00335911405 0.00994764268
  vertex -0.00355672743 -0.00334126526 0.0101423571
  endloop
 endfacet

 facet normal 0 0 0
  outer loop
  vertex 0.0108856605 0.0010049158 0.0265699029
  vertex 0.0119671784 -0.00502309902 0.00893264264
  vertex 0.0123993792 0.00457549468 0.00942803081
  endloop
 endfacet

 facet normal 0 0 0
  outer loop
  vertex 0.00148832414 0.00601264555 -0.00200554752
  vertex 0.0123993792 0.00457549468 0.00942803081
  vertex 0.0119671784 -0.00502309902 0.00893264264
  endloop
 endfacet

 facet normal 0 0 0
  outer loop
  vertex 0.00794682279 0.00593075622 0.0294215679
  vertex 0.0108856605 0.0010049158 0.0265699029
  vertex 0.0123993792 0.00457549468 0.00942803081
  endloop
 endfacet

 facet normal 0 0 0
  outer loop
  vertex 0.00928021502 -0.00484197959 0.0281117763
  vertex 0.0119671784 -0.00502309902 0.00893264264
  vertex 0.0108856605 0.0010049158 0.0265699029
  endloop
 endfacet

 facet normal 0 0 0
  outer loop
  vertex 0.00928021502 -0.00484197959 0.0281117763
  vertex 0.0108856605 0.0010049158 0.0265699029
  vertex 0.00183559454 -0.00703161675 0.0417975336
  endloop
 endfacet

 facet normal 0 0 0
  outer loop
  vertex 0.000995705603 -0.00703161675 -0.00173947506
  vertex -7.78219255e-05 -0.00408334285 -0.00250353804
  vertex 0.00148832414 0.00601264555 -0.00200554752
  endloop
 endfacet

 facet normal 0 0 0
  outer loop
  vertex 0.000995705603 -0.00703161675 -0.00173947506
  vertex 0.00148832414 0.00601264555 -0.00200554752
  vertex 0.0119671784 -0.00502309902 0.00893264264
  endloop
 endfacet

 facet normal 0 0 0
  outer loop
  vertex -0.00355672743 -0.00334126526 0.0101423571
  vertex -0.00181656156 -0.00703161675 -0.000840437657
  vertex -0.00249175541 -0.00603161473 0.0408034772
  endloop
 endfacet

 facet normal 0 0 0
  outer loop
  vertex 0.00226552668 0.00595672522 0.0420664959
  vertex 0.00183559454 -0.00703161675 0.0417975336
  vertex 0.0108856605 0.0010049158 0.0265699029
  endloop
 endfacet

 facet normal 0 0 0
  outer loop
  vertex 0.00226552668 0.00595672522 0.0420664959
  vertex 0.0108856605 0.0010049158 0.0265699029
  vertex 0.00794682279 0.00593075622 0.0294215679
  endloop
 endfacet

 facet normal 0 0 0
  outer loop
  vertex 0.00226552668 0.00595672522 0.0420664959
  vertex -0.000168238985 0.00595460273 0.0435047448
  vertex -0.000167502949 -0.00603161706 0.0434971303
  endloop
 endfacet

 facet normal 0 0 0
  outer loop
  vertex 0.00226552668 0.00595672522 0.0420664959
  vertex -0.000167502949 -0.00603161706 0.0434971303
  vertex 0.00183559454 -0.00703161675 0.0417975336
  endloop
 endfacet

 facet normal 0 0 0
  outer loop
  vertex 0.00266033993 0.00737236021 0.00473780977
  vertex 0.00794682279 0.00593075622 0.0294215679
  vertex 0.0123993792 0.00457549468 0.00942803081
  endloop
 endfacet

 facet normal 0 0 0
  outer loop
  vertex -0.00181741745 0.00701068575 -0.000831525191
  vertex -0.00181656156 -0.00703161675 -0.000840437657
  vertex -0.00355672743 -0.00334126526 0.0101423571
  endloop
 endfacet

 facet normal 0 0 0
  outer loop
  vertex -0.00181741745 0.00701068575 -0.000831525191
  vertex -0.00355672743 -0.00334126526 0.0101423571
  vertex -0.00354716228 0.00335911405 0.00994764268
  endloop
 endfacet

 facet normal 0 0 0
  outer loop
  vertex -0.00354716228 0.00335911405 0.00994764268
  vertex -0.00249248766 0.00595773617 0.0408110917
  vertex -0.00181741745 0.00701068575 -0.000831525191
  endloop
 endfacet

 facet normal 0 0 0
  outer loop
  vertex -0.000359348924 0.00601305254 -0.00247112778
  vertex 0.00148832414 0.00601264555 -0.00200554752
  vertex -7.78219255e-05 -0.00408334285 -0.00250353804
  endloop
 endfacet

 facet normal 0 0 0
  outer loop
  vertex -0.00176623114 0.00695638033 0.0419510305
  vertex 0.00266033993 0.00737236021 0.00473780977
  vertex -0.00181741745 0.00701068575 -0.000831525191
  endloop
 endfacet

 facet normal 0 0 0
  outer loop
  vertex -0.00176623114 0.00695638033 0.0419510305
  vertex -0.00181741745 0.00701068575 -0.000831525191
  vertex -0.00249248766 0.00595773617 0.0408110917
  endloop
 endfacet

 facet normal 0 0 0
  outer loop
  vertex -0.00176537887 -0.00703161722 0.0419421457
  vertex 0.00183559454 -0.00703161675 0.0417975336
  vertex -0.000167502949 -0.00603161706 0.0434971303
  endloop
 endfacet

 facet normal 0 0 0
  outer loop
  vertex -0.00176537887 -0.00703161722 0.0419421457
  vertex -0.000167502949 -0.00603161706 0.0434971303
  vertex -0.000168238985 0.00595460273 0.0435047448
  endloop
 endfacet

 facet normal 0 0 0
  outer loop
  vertex -0.00176537887 -0.00703161722 0.0419421457
  vertex -0.000168238985 0.00595460273 0.0435047448
  vertex -0.00176623114 0.00695638033 0.0419510305
  endloop
 endfacet

 facet normal 0 0 0
  outer loop
  vertex -0.00176537887 -0.00703161722 0.0419421457
  vertex -0.00176623114 0.00695638033 0.0419510305
  vertex -0.00249248766 0.00595773617 0.0408110917
  endloop
 endfacet

 facet normal 0 0 0
  outer loop
  vertex -0.00176537887 -0.00703161722 0.0419421457
  vertex -0.00249248766 0.00595773617 0.0408110917
  vertex -0.00249175541 -0.00603161473 0.0408034772
  endloop
 endfacet

 facet normal 0 0 0
  outer loop
  vertex -0.00176537887 -0.00703161722 0.0419421457
  vertex -0.00249175541 -0.00603161473 0.0408034772
  vertex -0.00181656156 -0.00703161675 -0.000840437657
  endloop
 endfacet

 facet normal 0 0 0
  outer loop
  vertex -0.00176537887 -0.00703161722 0.0419421457
  vertex -0.00181656156 -0.00703161675 -0.000840437657
  vertex 0.000995705603 -0.00703161675 -0.00173947506
  endloop
 endfacet

 facet normal 0 0 0
  outer loop
  vertex -0.00176537887 -0.00703161722 0.0419421457
  vertex 0.000995705603 -0.00703161675 -0.00173947506
  vertex 0.00183559454 -0.00703161675 0.0417975336
  endloop
 endfacet

 facet normal 0 0 0
  outer loop
  vertex 0.00130815525 0.00695602782 0.0425240137
  vertex 0.00226552668 0.00595672522 0.0420664959
  vertex 0.00794682279 0.00593075622 0.0294215679
  endloop
 endfacet

 facet normal 0 0 0
  outer loop
  vertex 0.00130815525 0.00695602782 0.0425240137
  vertex 0.00794682279 0.00593075622 0.0294215679
  vertex 0.00266033993 0.00737236021 0.00473780977
  endloop
 endfacet

 facet normal 0 0 0
  outer loop
  vertex 0.00130815525 0.00695602782 0.0425240137
  vertex 0.00266033993 0.00737236021 0.00473780977
  vertex -0.00176623114 0.00695638033 0.0419510305
  endloop
 endfacet

 facet normal 0 0 0
  outer loop
  vertex 0.00130815525 0.00695602782 0.0425240137
  vertex -0.00176623114 0.00695638033 0.0419510305
  vertex -0.000168238985 0.00595460273 0.0435047448
  endloop
 endfacet

 facet normal 0 0 0
  outer loop
  vertex 0.00130815525 0.00695602782 0.0425240137
  vertex -0.000168238985 0.00595460273 0.0435047448
  vertex 0.00226552668 0.00595672522 0.0420664959
  endloop
 endfacet

 facet normal 0 0 0
  outer loop
  vertex 0.000994849484 0.00701217074 -0.00173056149
  vertex -0.00181741745 0.00701068575 -0.000831525191
  vertex 0.00266033993 0.00737236021 0.00473780977
  endloop
 endfacet

 facet normal 0 0 0
  outer loop
  vertex 0.000994849484 0.00701217074 -0.00173056149
  vertex 0.00266033993 0.00737236021 0.00473780977
  vertex 0.0123993792 0.00457549468 0.00942803081
  endloop
 endfacet

 facet normal 0 0 0
  outer loop
  vertex 0.000994849484 0.00701217074 -0.00173056149
  vertex 0.0123993792 0.00457549468 0.00942803081
  vertex 0.00148832414 0.00601264555 -0.00200554752
  endloop
 endfacet

 facet normal 0 0 0
  outer loop
  vertex 0.000994849484 0.00701217074 -0.00173056149
  vertex 0.00148832414 0.00601264555 -0.00200554752
  vertex -0.000359348924 0.00601305254 -0.00247112778
  endloop
 endfacet

 facet normal 0 0 0
  outer loop
  vertex 0.000994849484 0.00701217074 -0.00173056149
  vertex -0.000359348924 0.00601305254 -0.00247112778
  vertex -0.00181741745 0.00701068575 -0.000831525191
  endloop
 endfacet

 facet normal 0 0 0
  outer loop
  vertex 0.00693196198 -0.00646263221 0.0304609798
  vertex 0.0119671784 -0.00502309902 0.00893264264
  vertex 0.00928021502 -0.00484197959 0.0281117763
  endloop
 endfacet

 facet normal 0 0 0
  outer loop
  vertex 0.00693196198 -0.00646263221 0.0304609798
  vertex 0.00928021502 -0.00484197959 0.0281117763
  vertex 0.00183559454 -0.00703161675 0.0417975336
  endloop
 endfacet

 facet normal 0 0 0
  outer loop
  vertex 0.00693196198 -0.00646263221 0.0304609798
  vertex 0.00183559454 -0.00703161675 0.0417975336
  vertex 0.000995705603 -0.00703161675 -0.00173947506
  endloop
 endfacet

 facet normal 0 0 0
  outer loop
  vertex 0.00693196198 -0.00646263221 0.0304609798
  vertex 0.000995705603 -0.00703161675 -0.00173947506
  vertex 0.0119671784 -0.00502309902 0.00893264264
  endloop
 endfacet

 facet normal 0 0 0
  outer loop
  vertex -0.000358617603 -0.00603172416 -0.00247877231
  vertex -7.78219255e-05 -0.00408334285 -0.00250353804
  vertex 0.000995705603 -0.00703161675 -0.00173947506
  endloop
 endfacet

 facet normal 0 0 0
  outer loop
  vertex -0.000358617603 -0.00603172416 -0.00247877231
  vertex 0.000995705603 -0.00703161675 -0.00173947506
  vertex -0.00181656156 -0.00703161675 -0.000840437657
  endloop
 endfacet

 facet normal 0 0 0
  outer loop
  vertex -0.000358617603 -0.00603172416 -0.00247877231
  vertex -0.00181656156 -0.00703161675 -0.000840437657
  vertex -0.00181741745 0.00701068575 -0.000831525191
  endloop
 endfacet

 facet normal 0 0 0
  outer loop
  vertex -0.000358617603 -0.00603172416 -0.00247877231
  vertex -0.00181741745 0.00701068575 -0.000831525191
  vertex -0.000359348924 0.00601305254 -0.00247112778
  endloop
 endfacet

 facet normal 0 0 0
  outer loop
  vertex -0.000358617603 -0.00603172416 -0.00247877231
  vertex -0.000359348924 0.00601305254 -0.00247112778
  vertex -7.78219255e-05 -0.00408334285 -0.00250353804
  endloop
 endfacet

endsolid AssimpScene
