solid AssimpScene
 facet normal 0 0 0
  outer loop
  vertex 0.00012940196 -0.0060000075 0.0344278291
  vertex 0.00193819264 0.0060000089 0.0335102566
  vertex 0.000254599174 0.00700000254 0.0339149721
  endloop
 endfacet

 facet normal 0 0 0
  outer loop
  vertex 0.00012940196 -0.0060000075 0.0344278291
  vertex 0.000254599174 0.00700000254 0.0339149721
  vertex -0.000863190449 0.00600000937 0.0342774019
  endloop
 endfacet

 facet normal 0 0 0
  outer loop
  vertex 0.00132634374 0.00599996513 -0.00211904757
  vertex 0.012265929 0.00456073973 0.00945383869
  vertex 0.0118359765 -0.00497361738 0.00875797402
  endloop
 endfacet

 facet normal 0 0 0
  outer loop
  vertex 0.00132634374 0.00599996513 -0.00211904757
  vertex 0.0118359765 -0.00497361738 0.00875797402
  vertex 0.00119965349 -0.00699999835 -0.00160026154
  endloop
 endfacet

 facet normal 0 0 0
  outer loop
  vertex 0.00132634374 0.00599996513 -0.00211904757
  vertex 0.00119965349 -0.00699999835 -0.00160026154
  vertex -5.55605729e-05 -0.00402250513 -0.00249931309
  endloop
 endfacet

 facet normal 0 0 0
  outer loop
  vertex -0.00191947725 -0.00699999975 0.0324930251
  vertex -0.00389131578 -0.00107089989 0.0279016495
  vertex -0.00377408066 -0.00330879842 0.0102846231
  endloop
 endfacet

 facet normal 0 0 0
  outer loop
  vertex -0.00191947725 -0.00699999975 0.0324930251
  vertex -0.00377408066 -0.00330879842 0.0102846231
  vertex -0.00199583196 -0.00700000022 -0.000129049338
  endloop
 endfacet

 facet normal 0 0 0
  outer loop
  vertex 0.00951166824 0.0040386878 0.0212234501
  vertex 0.00193819264 0.0060000089 0.0335102566
  vertex 0.0104413638 -0.00163564831 0.0205878131
  endloop
 endfacet

 facet normal 0 0 0
  outer loop
  vertex 0.00951166824 0.0040386878 0.0212234501
  vertex 0.0104413638 -0.00163564831 0.0205878131
  vertex 0.012265929 0.00456073973 0.00945383869
  endloop
 endfacet

 facet normal 0 0 0
  outer loop
  vertex -0.0037593497 0.00335464021 0.0100759482
  vertex -0.00377408066 -0.00330879842 0.0102846231
  vertex -0.00389131578 -0.00107089989 0.0279016495
  endloop
 endfacet

 facet normal 0 0 0
  outer loop
  vertex -0.0037593497 0.00335464021 0.0100759482
  vertex -0.00389131578 -0.00107089989 0.0279016495
  vertex -0.00191947771 0.00700000068 0.0324930251
  endloop
 endfacet

 facet normal 0 0 0
  outer loop
  vertex 0.0016737876 -0.00699999975 0.0330259725
  vertex -0.00191947725 -0.00699999975 0.0324930251
  vertex -0.00199583196 -0.00700000022 -0.000129049338
  endloop
 endfacet

 facet normal 0 0 0
  outer loop
  vertex 0.0016737876 -0.00699999975 0.0330259725
  vertex -0.00199583196 -0.00700000022 -0.000129049338
  vertex 0.00119965349 -0.00699999835 -0.00160026154
  endloop
 endfacet

 facet normal 0 0 0
  outer loop
  vertex 0.0016737876 -0.00699999975 0.0330259725
  vertex 0.00119965349 -0.00699999835 -0.00160026154
  vertex 0.0118359765 -0.00497361738 0.00875797402
  endloop
 endfacet

 facet normal 0 0 0
  outer loop
  vertex 0.0016737876 -0.00699999975 0.0330259725
  vertex 0.0118359765 -0.00497361738 0.00875797402
  vertex 0.00782357994 -0.00579488836 0.0223390032
  endloop
 endfacet

 facet normal 0 0 0
  outer loop
  vertex 0.0016737876 -0.00699999975 0.0330259725
  vertex 0.00782357994 -0.00579488836 0.0223390032
  vertex 0.0104413638 -0.00163564831 0.0205878131
  endloop
 endfacet

 facet normal 0 0 0
  outer loop
  vertex 0.0016737876 -0.00699999975 0.0330259725
  vertex 0.0104413638 -0.00163564831 0.0205878131
  vertex 0.00193819264 0.0060000089 0.0335102566
  endloop
 endfacet

 facet normal 0 0 0
  outer loop
  vertex 0.0016737876 -0.00699999975 0.0330259725
  vertex 0.00193819264 0.0060000089 0.0335102566
  vertex 0.00012940196 -0.0060000075 0.0344278291
  endloop
 endfacet

 facet normal 0 0 0
  outer loop
  vertex 0.0016737876 -0.00699999975 0.0330259725
  vertex 0.00012940196 -0.0060000075 0.0344278291
  vertex -0.00191947725 -0.00699999975 0.0324930251
  endloop
 endfacet

 facet normal 0 0 0
  outer loop
  vertex 0.00560333533 0.00674802437 0.0227912348
  vertex 0.00193819264 0.0060000089 0.0335102566
  vertex 0.00951166824 0.0040386878 0.0212234501
  endloop
 endfacet

 facet normal 0 0 0
  outer loop
  vertex 0.00560333533 0.00674802437 0.0227912348
  vertex 0.00951166824 0.0040386878 0.0212234501
  vertex 0.012265929 0.00456073973 0.00945383869
  endloop
 endfacet

 facet normal 0 0 0
  outer loop
  vertex -0.000640754355 -0.00599996187 -0.00241643074
  vertex -5.55605729e-05 -0.00402250513 -0.00249931309
  vertex 0.00119965349 -0.00699999835 -0.00160026154
  endloop
 endfacet

 facet normal 0 0 0
  outer loop
  vertex -0.000640754355 -0.00599996187 -0.00241643074
  vertex 0.00119965349 -0.00699999835 -0.00160026154
  vertex -0.00199583196 -0.00700000022 -0.000129049338
  endloop
 endfacet

 facet normal 0 0 0
  outer loop
  vertex 0.00265872665 0.00735700782 0.0046011759
  vertex -0.00149572734 0.00700000161 -0.00132770545
  vertex -0.00191947771 0.00700000068 0.0324930251
  endloop
 endfacet

 facet normal 0 0 0
  outer loop
  vertex 0.00265872665 0.00735700782 0.0046011759
  vertex 0.00560333533 0.00674802437 0.0227912348
  vertex 0.012265929 0.00456073973 0.00945383869
  endloop
 endfacet

 facet normal 0 0 0
  outer loop
  vertex 0.000254599174 0.00700000254 0.0339149721
  vertex -0.00191947771 0.00700000068 0.0324930251
  vertex -0.000863190449 0.00600000937 0.0342774019
  endloop
 endfacet

 facet normal 0 0 0
  outer loop
  vertex 0.000254599174 0.00700000254 0.0339149721
  vertex 0.00193819264 0.0060000089 0.0335102566
  vertex 0.00560333533 0.00674802437 0.0227912348
  endloop
 endfacet

 facet normal 0 0 0
  outer loop
  vertex 0.000254599174 0.00700000254 0.0339149721
  vertex 0.00560333533 0.00674802437 0.0227912348
  vertex 0.00265872665 0.00735700782 0.0046011759
  endloop
 endfacet

 facet normal 0 0 0
  outer loop
  vertex 0.000254599174 0.00700000254 0.0339149721
  vertex 0.00265872665 0.00735700782 0.0046011759
  vertex -0.00191947771 0.00700000068 0.0324930251
  endloop
 endfacet

 facet normal 0 0 0
  outer loop
  vertex 0.0125309415 -0.00391988549 0.0103127593
  vertex 0.012265929 0.00456073973 0.00945383869
  vertex 0.0104413638 -0.00163564831 0.0205878131
  endloop
 endfacet

 facet normal 0 0 0
  outer loop
  vertex 0.0125309415 -0.00391988549 0.0103127593
  vertex 0.0104413638 -0.00163564831 0.0205878131
  vertex 0.00782357994 -0.00579488836 0.0223390032
  endloop
 endfacet

 facet normal 0 0 0
  outer loop
  vertex 0.0125309415 -0.00391988549 0.0103127593
  vertex 0.00782357994 -0.00579488836 0.0223390032
  vertex 0.0118359765 -0.00497361738 0.00875797402
  endloop
 endfacet

 facet normal 0 0 0
  outer loop
  vertex 0.0125309415 -0.00391988549 0.0103127593
  vertex 0.0118359765 -0.00497361738 0.00875797402
  vertex 0.012265929 0.00456073973 0.00945383869
  endloop
 endfacet

 facet normal 0 0 0
  outer loop
  vertex 0.00144668482 0.00700000068 -0.00138097804
  vertex -0.00149572734 0.00700000161 -0.00132770545
  vertex 0.00265872665 0.00735700782 0.0046011759
  endloop
 endfacet

 facet normal 0 0 0
  outer loop
  vertex 0.00144668482 0.00700000068 -0.00138097804
  vertex 0.00265872665 0.00735700782 0.0046011759
  vertex 0.012265929 0.00456073973 0.00945383869
  endloop
 endfacet

 facet normal 0 0 0
  outer loop
  vertex 0.00144668482 0.00700000068 -0.00138097804
  vertex 0.012265929 0.00456073973 0.00945383869
  vertex 0.00132634374 0.00599996513 -0.00211904757
  endloop
 endfacet

 facet normal 0 0 0
  outer loop
  vertex -0.00064073375 0.00599996187 -0.00241643423
  vertex -0.00149572734 0.00700000161 -0.00132770545
  vertex 0.00144668482 0.00700000068 -0.00138097804
  endloop
 endfacet

 facet normal 0 0 0
  outer loop
  vertex -0.00064073375 0.00599996187 -0.00241643423
  vertex 0.00144668482 0.00700000068 -0.00138097804
  vertex 0.00132634374 0.00599996513 -0.00211904757
  endloop
 endfacet

 facet normal 0 0 0
  outer loop
  vertex -0.00064073375 0.00599996187 -0.00241643423
  vertex 0.00132634374 0.00599996513 -0.00211904757
  vertex -5.55605729e-05 -0.00402250513 -0.00249931309
  endloop
 endfacet

 facet normal 0 0 0
  outer loop
  vertex -0.00064073375 0.00599996187 -0.00241643423
  vertex -5.55605729e-05 -0.00402250513 -0.00249931309
  vertex -0.000640754355 -0.00599996187 -0.00241643074
  endloop
 endfacet

 facet normal 0 0 0
  outer loop
  vertex -0.00199583196 -0.00700000022 -0.000129049338
  vertex -0.00377408066 -0.00330879842 0.0102846231
  vertex -0.0037593497 0.00335464021 0.0100759482
  endloop
 endfacet

 facet normal 0 0 0
  outer loop
  vertex -0.00199583196 -0.00700000022 -0.000129049338
  vertex -0.0037593497 0.00335464021 0.0100759482
  vertex -0.00244568172 0.00599995255 -0.000518175249
  endloop
 endfacet

 facet normal 0 0 0
  outer loop
  vertex -0.00244568172 0.00599995255 -0.000518175249
  vertex -0.0037593497 0.00335464021 0.0100759482
  vertex -0.00191947771 0.00700000068 0.0324930251
  endloop
 endfacet

 facet normal 0 0 0
  outer loop
  vertex -0.00244568172 0.00599995255 -0.000518175249
  vertex -0.00191947771 0.00700000068 0.0324930251
  vertex -0.00149572734 0.00700000161 -0.00132770545
  endloop
 endfacet

 facet normal 0 0 0
  outer loop
  vertex -0.00244568172 0.00599995255 -0.000518175249
  vertex -0.00149572734 0.00700000161 -0.00132770545
  vertex -0.00064073375 0.00599996187 -0.00241643423
  endloop
 endfacet

 facet normal 0 0 0
  outer loop
  vertex -0.00244568172 0.00599995255 -0.000518175249
  vertex -0.00064073375 0.00599996187 -0.00241643423
  vertex -0.000640754355 -0.00599996187 -0.00241643074
  endloop
 endfacet

 facet normal 0 0 0
  outer loop
  vertex -0.00244568172 0.00599995255 -0.000518175249
  vertex -0.000640754355 -0.00599996187 -0.00241643074
  vertex -0.00199583196 -0.00700000022 -0.000129049338
  endloop
 endfacet

 facet normal 0 0 0
  outer loop
  vertex -0.0017399044 -0.00599998003 0.0337262936
  vertex 0.00012940196 -0.0060000075 0.0344278291
  vertex -0.000863190449 0.00600000937 0.0342774019
  endloop
 endfacet

 facet normal 0 0 0
  outer loop
  vertex -0.0017399044 -0.00599998003 0.0337262936
  vertex -0.000863190449 0.00600000937 0.0342774019
  vertex -0.00191947771 0.00700000068 0.0324930251
  endloop
 endfacet

 facet normal 0 0 0
  outer loop
  vertex -0.0017399044 -0.00599998003 0.0337262936
  vertex -0.00191947771 0.00700000068 0.0324930251
  vertex -0.00389131578 -0.00107089989 0.0279016495
  endloop
 endfacet

 facet normal 0 0 0
  outer loop
  vertex -0.0017399044 -0.00599998003 0.0337262936
  vertex -0.00389131578 -0.00107089989 0.0279016495
  vertex -0.00191947725 -0.00699999975 0.0324930251
  endloop
 endfacet

 facet normal 0 0 0
  outer loop
  vertex -0.0017399044 -0.00599998003 0.0337262936
  vertex -0.00191947725 -0.00699999975 0.0324930251
  vertex 0.00012940196 -0.0060000075 0.0344278291
  endloop
 endfacet

endsolid AssimpScene
