solid AssimpScene
 facet normal 0 0 0
  outer loop
  vertex -0.0208596494 0.0208596513 0.000499999791
  vertex -0.0173396636 0.0238660015 0.0005000034
  vertex -0.00911600236 0.0280561652 0.000499998161
  endloop
 endfacet

 facet normal 0 0 0
  outer loop
  vertex -0.0208596494 0.0208596513 0.000499999791
  vertex -0.00911600236 0.0280561652 0.000499998161
  vertex 0.00757128187 0.00486576743 -0.00149999664
  endloop
 endfacet

 facet normal 0 0 0
  outer loop
  vertex -0.0208596494 0.0208596513 0.000499999791
  vertex 0.00757128187 0.00486576743 -0.00149999664
  vertex -0.00800000131 7.93916495e-12 -0.00150000374
  endloop
 endfacet

 facet normal 0 0 0
  outer loop
  vertex -0.0208596494 0.0208596513 0.000499999791
  vertex -0.00800000131 7.93916495e-12 -0.00150000374
  vertex -0.0291368067 0.00461481698 0.00050000014
  endloop
 endfacet

 facet normal 0 0 0
  outer loop
  vertex -0.0208596494 0.0208596513 0.000499999791
  vertex -0.0291368067 0.00461481698 0.00050000014
  vertex -0.0262846909 0.0133927194 0.000500000606
  endloop
 endfacet

 facet normal 0 0 0
  outer loop
  vertex -0.00130411715 -0.033365611 0.120531857
  vertex 0.0113828899 -0.0327624157 0.092977643
  vertex 0.0135814091 0.0219698306 0.0986222774
  endloop
 endfacet

 facet normal 0 0 0
  outer loop
  vertex -0.00641266257 0.0378033556 0.122509405
  vertex -0.00364490505 0.0313619412 0.126388162
  vertex -0.000305722933 0.030949302 0.124674506
  endloop
 endfacet

 facet normal 0 0 0
  outer loop
  vertex -0.00641266257 0.0378033556 0.122509405
  vertex -0.000305722933 0.030949302 0.124674506
  vertex 0.000557826832 0.0392762683 0.117283002
  endloop
 endfacet

 facet normal 0 0 0
  outer loop
  vertex 0.0304722544 0.0186121948 0.0474828929
  vertex 0.0135814091 0.0219698306 0.0986222774
  vertex 0.0113828899 -0.0327624157 0.092977643
  endloop
 endfacet

 facet normal 0 0 0
  outer loop
  vertex 0.0304722544 0.0186121948 0.0474828929
  vertex 0.0113828899 -0.0327624157 0.092977643
  vertex 0.0280561689 -0.0091160005 0.00250000181
  endloop
 endfacet

 facet normal 0 0 0
  outer loop
  vertex -0.0148949632 0.0330321938 0.0837456957
  vertex -0.00997898635 0.0374103636 0.0727588981
  vertex -0.0208596494 0.0208596513 0.000499999791
  endloop
 endfacet

 facet normal 0 0 0
  outer loop
  vertex -0.0121703492 -0.0336127281 0.118927658
  vertex -0.00796305109 -0.0341368876 0.12192034
  vertex -0.0160222929 -0.0122368066 0.123810813
  endloop
 endfacet

 facet normal 0 0 0
  outer loop
  vertex -0.0121703492 -0.0336127281 0.118927658
  vertex -0.0145950867 -0.0316715501 0.110856697
  vertex -0.00855593104 -0.0389977209 0.116413452
  endloop
 endfacet

 facet normal 0 0 0
  outer loop
  vertex -0.0121703492 -0.0336127281 0.118927658
  vertex -0.00855593104 -0.0389977209 0.116413452
  vertex -0.00796305109 -0.0341368876 0.12192034
  endloop
 endfacet

 facet normal 0 0 0
  outer loop
  vertex 0.0269840993 0.0307328235 0.0370918252
  vertex 0.0304607283 0.0214488991 0.0394444317
  vertex 0.0280561689 0.0091160005 0.000499998278
  endloop
 endfacet

 facet normal 0 0 0
  outer loop
  vertex -0.00130939763 -0.0412507728 0.0882712603
  vertex 0.00461481651 -0.0291368049 0.000499996531
  vertex 0.0058994838 -0.0394340456 0.0886897072
  endloop
 endfacet

 facet normal 0 0 0
  outer loop
  vertex -0.00130939763 -0.0412507728 0.0882712603
  vertex 0.0058994838 -0.0394340456 0.0886897072
  vertex 0.0037581455 -0.0402576774 0.106306285
  endloop
 endfacet

 facet normal 0 0 0
  outer loop
  vertex -0.00130939763 -0.0412507728 0.0882712603
  vertex 0.0037581455 -0.0402576774 0.106306285
  vertex 0.000212006009 -0.0412738211 0.110165425
  endloop
 endfacet

 facet normal 0 0 0
  outer loop
  vertex -0.000305722933 0.030949302 0.124674506
  vertex -0.00130411715 -0.033365611 0.120531857
  vertex 0.0135814091 0.0219698306 0.0986222774
  endloop
 endfacet

 facet normal 0 0 0
  outer loop
  vertex -0.000305722933 0.030949302 0.124674506
  vertex 0.0135814091 0.0219698306 0.0986222774
  vertex 0.0121363802 0.0332121067 0.0977160856
  endloop
 endfacet

 facet normal 0 0 0
  outer loop
  vertex 0.000212023981 0.037599761 0.0569448322
  vertex 1.78054196e-10 0.0294999983 0.000500001479
  vertex -0.00911600236 0.0280561652 0.000499998161
  endloop
 endfacet

 facet normal 0 0 0
  outer loop
  vertex 0.000212023981 0.037599761 0.0569448322
  vertex -0.00911600236 0.0280561652 0.000499998161
  vertex -0.00997898635 0.0374103636 0.0727588981
  endloop
 endfacet

 facet normal 0 0 0
  outer loop
  vertex 0.000212023981 0.037599761 0.0569448322
  vertex -0.00997898635 0.0374103636 0.0727588981
  vertex -0.00679134531 0.039429564 0.0970234275
  endloop
 endfacet

 facet normal 0 0 0
  outer loop
  vertex 0.000212023981 0.037599761 0.0569448322
  vertex -0.00679134531 0.039429564 0.0970234275
  vertex 0.000212015308 0.0403123423 0.0962156504
  endloop
 endfacet

 facet normal 0 0 0
  outer loop
  vertex 0.000212023981 0.037599761 0.0569448322
  vertex 0.000212015308 0.0403123423 0.0962156504
  vertex 0.0250021406 0.0312936679 0.0317954421
  endloop
 endfacet

 facet normal 0 0 0
  outer loop
  vertex 0.000212023981 0.037599761 0.0569448322
  vertex 0.0250021406 0.0312936679 0.0317954421
  vertex 1.78054196e-10 0.0294999983 0.000500001479
  endloop
 endfacet

 facet normal 0 0 0
  outer loop
  vertex -0.0291368049 -0.00461481651 0.00250000227
  vertex -0.0291368067 -0.00461481651 0.000500001654
  vertex -0.0262846909 -0.0133927194 0.000499997695
  endloop
 endfacet

 facet normal 0 0 0
  outer loop
  vertex -0.0291368049 -0.00461481651 0.00250000227
  vertex -0.0262846909 -0.0133927194 0.000499997695
  vertex -0.0145950867 -0.0316715501 0.110856697
  endloop
 endfacet

 facet normal 0 0 0
  outer loop
  vertex -0.00525732245 0.00760577293 0.128443792
  vertex -0.00130411715 -0.033365611 0.120531857
  vertex -0.000305722933 0.030949302 0.124674506
  endloop
 endfacet

 facet normal 0 0 0
  outer loop
  vertex -0.00525732245 0.00760577293 0.128443792
  vertex -0.000305722933 0.030949302 0.124674506
  vertex -0.00364490505 0.0313619412 0.126388162
  endloop
 endfacet

 facet normal 0 0 0
  outer loop
  vertex -0.00525732245 0.00760577293 0.128443792
  vertex -0.00364490505 0.0313619412 0.126388162
  vertex -0.00916618202 0.00905587431 0.129627958
  endloop
 endfacet

 facet normal 0 0 0
  outer loop
  vertex -0.0185486246 -0.0110245841 0.114389546
  vertex -0.0291368049 -0.00461481651 0.00250000227
  vertex -0.0145950867 -0.0316715501 0.110856697
  endloop
 endfacet

 facet normal 0 0 0
  outer loop
  vertex -0.0185486246 -0.0110245841 0.114389546
  vertex -0.0145950867 -0.0316715501 0.110856697
  vertex -0.0121703492 -0.0336127281 0.118927658
  endloop
 endfacet

 facet normal 0 0 0
  outer loop
  vertex -0.0185486246 -0.0110245841 0.114389546
  vertex -0.0121703492 -0.0336127281 0.118927658
  vertex -0.0160222929 -0.0122368066 0.123810813
  endloop
 endfacet

 facet normal 0 0 0
  outer loop
  vertex -0.0185486246 -0.0110245841 0.114389546
  vertex -0.0160222929 -0.0122368066 0.123810813
  vertex -0.017255282 0.00915043335 0.125876963
  endloop
 endfacet

 facet normal 0 0 0
  outer loop
  vertex -0.0262846909 0.0133927194 0.000500000606
  vertex -0.0291368067 0.00461481698 0.00050000014
  vertex -0.0151000107 0.0310375877 0.107725561
  endloop
 endfacet

 facet normal 0 0 0
  outer loop
  vertex -0.0262846909 0.0133927194 0.000500000606
  vertex -0.0151000107 0.0310375877 0.107725561
  vertex -0.0148949632 0.0330321938 0.0837456957
  endloop
 endfacet

 facet normal 0 0 0
  outer loop
  vertex -0.0262846909 0.0133927194 0.000500000606
  vertex -0.0148949632 0.0330321938 0.0837456957
  vertex -0.0208596494 0.0208596513 0.000499999791
  endloop
 endfacet

 facet normal 0 0 0
  outer loop
  vertex -0.0208596494 -0.0208596513 0.000499998627
  vertex -0.0133927194 -0.0262846909 0.000499998743
  vertex -0.00942000374 -0.0382645242 0.0807797238
  endloop
 endfacet

 facet normal 0 0 0
  outer loop
  vertex -0.0262846909 -0.0133927194 0.000499997695
  vertex -0.0291368067 -0.00461481651 0.000500001654
  vertex -0.00800000131 7.93916495e-12 -0.00150000374
  endloop
 endfacet

 facet normal 0 0 0
  outer loop
  vertex -0.0262846909 -0.0133927194 0.000499997695
  vertex -0.00800000131 7.93916495e-12 -0.00150000374
  vertex -0.0133927194 -0.0262846909 0.000499998743
  endloop
 endfacet

 facet normal 0 0 0
  outer loop
  vertex -0.0262846909 -0.0133927194 0.000499997695
  vertex -0.0133927194 -0.0262846909 0.000499998743
  vertex -0.0208596494 -0.0208596513 0.000499998627
  endloop
 endfacet

 facet normal 0 0 0
  outer loop
  vertex 0.0133927194 -0.0262846909 0.000500002468
  vertex 0.0208596494 -0.0208596475 0.000499997812
  vertex 0.0058994838 -0.0394340456 0.0886897072
  endloop
 endfacet

 facet normal 0 0 0
  outer loop
  vertex 0.0133927194 -0.0262846909 0.000500002468
  vertex 0.0058994838 -0.0394340456 0.0886897072
  vertex 0.00461481651 -0.0291368049 0.000499996531
  endloop
 endfacet

 facet normal 0 0 0
  outer loop
  vertex -0.00461481651 -0.0291368049 0.000499997579
  vertex 0.00461481651 -0.0291368049 0.000499996531
  vertex -0.00130939763 -0.0412507728 0.0882712603
  endloop
 endfacet

 facet normal 0 0 0
  outer loop
  vertex -0.00461481651 -0.0291368049 0.000499997579
  vertex -0.00130939763 -0.0412507728 0.0882712603
  vertex -0.00942000374 -0.0382645242 0.0807797238
  endloop
 endfacet

 facet normal 0 0 0
  outer loop
  vertex -0.00461481651 -0.0291368049 0.000499997579
  vertex -0.00942000374 -0.0382645242 0.0807797238
  vertex -0.0133927194 -0.0262846909 0.000499998743
  endloop
 endfacet

 facet normal 0 0 0
  outer loop
  vertex -0.00467900001 -0.0405113213 0.115306631
  vertex -0.00796305109 -0.0341368876 0.12192034
  vertex -0.00855593104 -0.0389977209 0.116413452
  endloop
 endfacet

 facet normal 0 0 0
  outer loop
  vertex 0.000212006009 -0.0412738211 0.110165425
  vertex -0.00130411715 -0.033365611 0.120531857
  vertex -0.00349308574 -0.0337493606 0.121971242
  endloop
 endfacet

 facet normal 0 0 0
  outer loop
  vertex 0.000212006009 -0.0412738211 0.110165425
  vertex -0.00349308574 -0.0337493606 0.121971242
  vertex -0.00467900001 -0.0405113213 0.115306631
  endloop
 endfacet

 facet normal 0 0 0
  outer loop
  vertex 0.00911600143 0.0280561652 0.0005000034
  vertex 0.0250021406 0.0312936679 0.0317954421
  vertex 0.0173396654 0.0238660015 0.000499997695
  endloop
 endfacet

 facet normal 0 0 0
  outer loop
  vertex 0.00911600143 0.0280561652 0.0005000034
  vertex 1.78054196e-10 0.0294999983 0.000500001479
  vertex 0.0250021406 0.0312936679 0.0317954421
  endloop
 endfacet

 facet normal 0 0 0
  outer loop
  vertex 0.0238660015 0.0173396617 0.000499999558
  vertex 0.0173396654 0.0238660015 0.000499997695
  vertex 0.0250021406 0.0312936679 0.0317954421
  endloop
 endfacet

 facet normal 0 0 0
  outer loop
  vertex 0.0238660015 0.0173396617 0.000499999558
  vertex 0.0250021406 0.0312936679 0.0317954421
  vertex 0.0269840993 0.0307328235 0.0370918252
  endloop
 endfacet

 facet normal 0 0 0
  outer loop
  vertex 0.0238660015 0.0173396617 0.000499999558
  vertex 0.0269840993 0.0307328235 0.0370918252
  vertex 0.0280561689 0.0091160005 0.000499998278
  endloop
 endfacet

 facet normal 0 0 0
  outer loop
  vertex 0.00509822601 0.0387982056 0.108514749
  vertex 0.0121363802 0.0332121067 0.0977160856
  vertex 0.0269840993 0.0307328235 0.0370918252
  endloop
 endfacet

 facet normal 0 0 0
  outer loop
  vertex 0.00509822601 0.0387982056 0.108514749
  vertex 0.0269840993 0.0307328235 0.0370918252
  vertex 0.0250021406 0.0312936679 0.0317954421
  endloop
 endfacet

 facet normal 0 0 0
  outer loop
  vertex 0.00509822601 0.0387982056 0.108514749
  vertex 0.0250021406 0.0312936679 0.0317954421
  vertex 0.000212015308 0.0403123423 0.0962156504
  endloop
 endfacet

 facet normal 0 0 0
  outer loop
  vertex 0.00509822601 0.0387982056 0.108514749
  vertex 0.000212015308 0.0403123423 0.0962156504
  vertex 0.000557826832 0.0392762683 0.117283002
  endloop
 endfacet

 facet normal 0 0 0
  outer loop
  vertex 0.00509822601 0.0387982056 0.108514749
  vertex 0.000557826832 0.0392762683 0.117283002
  vertex -0.000305722933 0.030949302 0.124674506
  endloop
 endfacet

 facet normal 0 0 0
  outer loop
  vertex 0.00509822601 0.0387982056 0.108514749
  vertex -0.000305722933 0.030949302 0.124674506
  vertex 0.0121363802 0.0332121067 0.0977160856
  endloop
 endfacet

 facet normal 0 0 0
  outer loop
  vertex 0.0037581455 -0.0402576774 0.106306285
  vertex 0.0113828899 -0.0327624157 0.092977643
  vertex -0.00130411715 -0.033365611 0.120531857
  endloop
 endfacet

 facet normal 0 0 0
  outer loop
  vertex 0.0037581455 -0.0402576774 0.106306285
  vertex -0.00130411715 -0.033365611 0.120531857
  vertex 0.000212006009 -0.0412738211 0.110165425
  endloop
 endfacet

 facet normal 0 0 0
  outer loop
  vertex -0.0100864349 0.0369791687 0.113325201
  vertex -0.00997898635 0.0374103636 0.0727588981
  vertex -0.0148949632 0.0330321938 0.0837456957
  endloop
 endfacet

 facet normal 0 0 0
  outer loop
  vertex -0.0100864349 0.0369791687 0.113325201
  vertex -0.0148949632 0.0330321938 0.0837456957
  vertex -0.0151000107 0.0310375877 0.107725561
  endloop
 endfacet

 facet normal 0 0 0
  outer loop
  vertex -0.0193867087 0.00980507396 0.11573942
  vertex -0.017255282 0.00915043335 0.125876963
  vertex -0.0118415328 0.032849852 0.123608321
  endloop
 endfacet

 facet normal 0 0 0
  outer loop
  vertex -0.0193867087 0.00980507396 0.11573942
  vertex -0.0118415328 0.032849852 0.123608321
  vertex -0.0151000107 0.0310375877 0.107725561
  endloop
 endfacet

 facet normal 0 0 0
  outer loop
  vertex -0.0193867087 0.00980507396 0.11573942
  vertex -0.0151000107 0.0310375877 0.107725561
  vertex -0.0291368067 0.00461481698 0.00050000014
  endloop
 endfacet

 facet normal 0 0 0
  outer loop
  vertex -0.0193867087 0.00980507396 0.11573942
  vertex -0.0291368067 0.00461481698 0.00050000014
  vertex -0.0291368049 -0.00461481651 0.00250000227
  endloop
 endfacet

 facet normal 0 0 0
  outer loop
  vertex -0.0193867087 0.00980507396 0.11573942
  vertex -0.0291368049 -0.00461481651 0.00250000227
  vertex -0.0185486246 -0.0110245841 0.114389546
  endloop
 endfacet

 facet normal 0 0 0
  outer loop
  vertex -0.0193867087 0.00980507396 0.11573942
  vertex -0.0185486246 -0.0110245841 0.114389546
  vertex -0.017255282 0.00915043335 0.125876963
  endloop
 endfacet

 facet normal 0 0 0
  outer loop
  vertex 0.0262846928 -0.0133927194 0.000499996997
  vertex 0.0208596494 -0.0208596475 0.000499997812
  vertex 0.0286429618 -0.00453659939 -2.75706014e-09
  endloop
 endfacet

 facet normal 0 0 0
  outer loop
  vertex 0.0262846928 -0.0133927194 0.000499996997
  vertex 0.0286429618 -0.00453659939 -2.75706014e-09
  vertex 0.0280561689 -0.0091160005 0.00250000181
  endloop
 endfacet

 facet normal 0 0 0
  outer loop
  vertex 0.0262846928 -0.0133927194 0.000499996997
  vertex 0.0280561689 -0.0091160005 0.00250000181
  vertex 0.0113828899 -0.0327624157 0.092977643
  endloop
 endfacet

 facet normal 0 0 0
  outer loop
  vertex -0.00679134531 0.039429564 0.0970234275
  vertex -0.00997898635 0.0374103636 0.0727588981
  vertex -0.0100864349 0.0369791687 0.113325201
  endloop
 endfacet

 facet normal 0 0 0
  outer loop
  vertex -0.0291368067 -0.00461481651 0.000500001654
  vertex -0.0291368049 -0.00461481651 0.00250000227
  vertex -0.0291368067 0.00461481698 0.00050000014
  endloop
 endfacet

 facet normal 0 0 0
  outer loop
  vertex -0.0291368067 -0.00461481651 0.000500001654
  vertex -0.0291368067 0.00461481698 0.00050000014
  vertex -0.00800000131 7.93916495e-12 -0.00150000374
  endloop
 endfacet

 facet normal 0 0 0
  outer loop
  vertex 0.0298543479 0.0223393086 0.047620032
  vertex 0.0304722544 0.0186121948 0.0474828929
  vertex 0.0304607283 0.0214488991 0.0394444317
  endloop
 endfacet

 facet normal 0 0 0
  outer loop
  vertex 0.0298543479 0.0223393086 0.047620032
  vertex 0.0304607283 0.0214488991 0.0394444317
  vertex 0.0269840993 0.0307328235 0.0370918252
  endloop
 endfacet

 facet normal 0 0 0
  outer loop
  vertex 0.0298543479 0.0223393086 0.047620032
  vertex 0.0269840993 0.0307328235 0.0370918252
  vertex 0.0121363802 0.0332121067 0.0977160856
  endloop
 endfacet

 facet normal 0 0 0
  outer loop
  vertex 0.0121363802 0.0332121067 0.0977160856
  vertex 0.0135814091 0.0219698306 0.0986222774
  vertex 0.0304722544 0.0186121948 0.0474828929
  endloop
 endfacet

 facet normal 0 0 0
  outer loop
  vertex 0.0121363802 0.0332121067 0.0977160856
  vertex 0.0304722544 0.0186121948 0.0474828929
  vertex 0.0298543479 0.0223393086 0.047620032
  endloop
 endfacet

 facet normal 0 0 0
  outer loop
  vertex 0.00872974936 -0.0372800976 0.0938261747
  vertex 0.0113828899 -0.0327624157 0.092977643
  vertex 0.0037581455 -0.0402576774 0.106306285
  endloop
 endfacet

 facet normal 0 0 0
  outer loop
  vertex 0.00872974936 -0.0372800976 0.0938261747
  vertex 0.0037581455 -0.0402576774 0.106306285
  vertex 0.0058994838 -0.0394340456 0.0886897072
  endloop
 endfacet

 facet normal 0 0 0
  outer loop
  vertex 0.00872974936 -0.0372800976 0.0938261747
  vertex 0.0058994838 -0.0394340456 0.0886897072
  vertex 0.0208596494 -0.0208596475 0.000499997812
  endloop
 endfacet

 facet normal 0 0 0
  outer loop
  vertex 0.00872974936 -0.0372800976 0.0938261747
  vertex 0.0208596494 -0.0208596475 0.000499997812
  vertex 0.0262846928 -0.0133927194 0.000499996997
  endloop
 endfacet

 facet normal 0 0 0
  outer loop
  vertex 0.00872974936 -0.0372800976 0.0938261747
  vertex 0.0262846928 -0.0133927194 0.000499996997
  vertex 0.0113828899 -0.0327624157 0.092977643
  endloop
 endfacet

 facet normal 0 0 0
  outer loop
  vertex 0.0295000002 -6.51156767e-11 0.000500000664
  vertex 0.0304607283 0.0214488991 0.0394444317
  vertex 0.0304722544 0.0186121948 0.0474828929
  endloop
 endfacet

 facet normal 0 0 0
  outer loop
  vertex 0.0295000002 -6.51156767e-11 0.000500000664
  vertex 0.0304722544 0.0186121948 0.0474828929
  vertex 0.0280561689 -0.0091160005 0.00250000181
  endloop
 endfacet

 facet normal 0 0 0
  outer loop
  vertex 0.0295000002 -6.51156767e-11 0.000500000664
  vertex 0.0280561689 -0.0091160005 0.00250000181
  vertex 0.0286429618 -0.00453659939 -2.75706014e-09
  endloop
 endfacet

 facet normal 0 0 0
  outer loop
  vertex 0.0295000002 -6.51156767e-11 0.000500000664
  vertex 0.0286429618 -0.00453659939 -2.75706014e-09
  vertex 0.0280561689 0.0091160005 0.000499998278
  endloop
 endfacet

 facet normal 0 0 0
  outer loop
  vertex 0.0295000002 -6.51156767e-11 0.000500000664
  vertex 0.0280561689 0.0091160005 0.000499998278
  vertex 0.0304607283 0.0214488991 0.0394444317
  endloop
 endfacet

 facet normal 0 0 0
  outer loop
  vertex -0.0106587419 -0.0130998483 0.12613897
  vertex -0.0160222929 -0.0122368066 0.123810813
  vertex -0.00796305109 -0.0341368876 0.12192034
  endloop
 endfacet

 facet normal 0 0 0
  outer loop
  vertex -0.00617172057 -0.0130998176 0.126138553
  vertex -0.00525732245 0.00760577293 0.128443792
  vertex -0.00916618202 0.00905587431 0.129627958
  endloop
 endfacet

 facet normal 0 0 0
  outer loop
  vertex -0.00916618202 0.00905587431 0.129627958
  vertex -0.0106587419 -0.0130998483 0.12613897
  vertex -0.00796305109 -0.0341368876 0.12192034
  endloop
 endfacet

 facet normal 0 0 0
  outer loop
  vertex -0.00916618202 0.00905587431 0.129627958
  vertex -0.00796305109 -0.0341368876 0.12192034
  vertex -0.00617172057 -0.0130998176 0.126138553
  endloop
 endfacet

 facet normal 0 0 0
  outer loop
  vertex -0.00349308574 -0.0337493606 0.121971242
  vertex -0.00130411715 -0.033365611 0.120531857
  vertex -0.00525732245 0.00760577293 0.128443792
  endloop
 endfacet

 facet normal 0 0 0
  outer loop
  vertex -0.00349308574 -0.0337493606 0.121971242
  vertex -0.00525732245 0.00760577293 0.128443792
  vertex -0.00617172057 -0.0130998176 0.126138553
  endloop
 endfacet

 facet normal 0 0 0
  outer loop
  vertex -0.00349308574 -0.0337493606 0.121971242
  vertex -0.00617172057 -0.0130998176 0.126138553
  vertex -0.00796305109 -0.0341368876 0.12192034
  endloop
 endfacet

 facet normal 0 0 0
  outer loop
  vertex -0.00349308574 -0.0337493606 0.121971242
  vertex -0.00796305109 -0.0341368876 0.12192034
  vertex -0.00467900001 -0.0405113213 0.115306631
  endloop
 endfacet

 facet normal 0 0 0
  outer loop
  vertex -0.0129620722 -0.0350373797 0.084461309
  vertex -0.0262846909 -0.0133927194 0.000499997695
  vertex -0.0208596494 -0.0208596513 0.000499998627
  endloop
 endfacet

 facet normal 0 0 0
  outer loop
  vertex -0.0129620722 -0.0350373797 0.084461309
  vertex -0.0208596494 -0.0208596513 0.000499998627
  vertex -0.00942000374 -0.0382645242 0.0807797238
  endloop
 endfacet

 facet normal 0 0 0
  outer loop
  vertex -0.0129620722 -0.0350373797 0.084461309
  vertex -0.00942000374 -0.0382645242 0.0807797238
  vertex -0.00855593104 -0.0389977209 0.116413452
  endloop
 endfacet

 facet normal 0 0 0
  outer loop
  vertex -0.0129620722 -0.0350373797 0.084461309
  vertex -0.00855593104 -0.0389977209 0.116413452
  vertex -0.0145950867 -0.0316715501 0.110856697
  endloop
 endfacet

 facet normal 0 0 0
  outer loop
  vertex -0.0129620722 -0.0350373797 0.084461309
  vertex -0.0145950867 -0.0316715501 0.110856697
  vertex -0.0262846909 -0.0133927194 0.000499997695
  endloop
 endfacet

 facet normal 0 0 0
  outer loop
  vertex -0.00575953349 -0.0408988781 0.101884782
  vertex -0.00130939763 -0.0412507728 0.0882712603
  vertex 0.000212006009 -0.0412738211 0.110165425
  endloop
 endfacet

 facet normal 0 0 0
  outer loop
  vertex -0.00575953349 -0.0408988781 0.101884782
  vertex 0.000212006009 -0.0412738211 0.110165425
  vertex -0.00467900001 -0.0405113213 0.115306631
  endloop
 endfacet

 facet normal 0 0 0
  outer loop
  vertex -0.00575953349 -0.0408988781 0.101884782
  vertex -0.00467900001 -0.0405113213 0.115306631
  vertex -0.00855593104 -0.0389977209 0.116413452
  endloop
 endfacet

 facet normal 0 0 0
  outer loop
  vertex -0.00575953349 -0.0408988781 0.101884782
  vertex -0.00855593104 -0.0389977209 0.116413452
  vertex -0.00942000374 -0.0382645242 0.0807797238
  endloop
 endfacet

 facet normal 0 0 0
  outer loop
  vertex -0.00575953349 -0.0408988781 0.101884782
  vertex -0.00942000374 -0.0382645242 0.0807797238
  vertex -0.00130939763 -0.0412507728 0.0882712603
  endloop
 endfacet

 facet normal 0 0 0
  outer loop
  vertex -0.0100864349 0.0369791687 0.113325201
  vertex -0.0151000107 0.0310375877 0.107725561
  vertex -0.0118415328 0.032849852 0.123608321
  endloop
 endfacet

 facet normal 0 0 0
  outer loop
  vertex -0.0100864349 0.0369791687 0.113325201
  vertex -0.0118415328 0.032849852 0.123608321
  vertex -0.00956146978 0.0363081023 0.12265078
  endloop
 endfacet

 facet normal 0 0 0
  outer loop
  vertex -0.0124991164 0.0105058337 0.128830016
  vertex -0.0118415328 0.032849852 0.123608321
  vertex -0.017255282 0.00915043335 0.125876963
  endloop
 endfacet

 facet normal 0 0 0
  outer loop
  vertex -0.0124991164 0.0105058337 0.128830016
  vertex -0.017255282 0.00915043335 0.125876963
  vertex -0.0160222929 -0.0122368066 0.123810813
  endloop
 endfacet

 facet normal 0 0 0
  outer loop
  vertex -0.0124991164 0.0105058337 0.128830016
  vertex -0.0160222929 -0.0122368066 0.123810813
  vertex -0.0106587419 -0.0130998483 0.12613897
  endloop
 endfacet

 facet normal 0 0 0
  outer loop
  vertex -0.0124991164 0.0105058337 0.128830016
  vertex -0.0106587419 -0.0130998483 0.12613897
  vertex -0.00916618202 0.00905587431 0.129627958
  endloop
 endfacet

 facet normal 0 0 0
  outer loop
  vertex -0.0124991164 0.0105058337 0.128830016
  vertex -0.00916618202 0.00905587431 0.129627958
  vertex -0.00364490505 0.0313619412 0.126388162
  endloop
 endfacet

 facet normal 0 0 0
  outer loop
  vertex -0.00483917724 0.0396683551 0.111622706
  vertex -0.00415980443 0.0392309539 0.11972063
  vertex 0.000557826832 0.0392762683 0.117283002
  endloop
 endfacet

 facet normal 0 0 0
  outer loop
  vertex -0.00483917724 0.0396683551 0.111622706
  vertex 0.000557826832 0.0392762683 0.117283002
  vertex 0.000212015308 0.0403123423 0.0962156504
  endloop
 endfacet

 facet normal 0 0 0
  outer loop
  vertex -0.00483917724 0.0396683551 0.111622706
  vertex 0.000212015308 0.0403123423 0.0962156504
  vertex -0.00679134531 0.039429564 0.0970234275
  endloop
 endfacet

 facet normal 0 0 0
  outer loop
  vertex -0.00679134531 0.039429564 0.0970234275
  vertex -0.0100864349 0.0369791687 0.113325201
  vertex -0.00956146978 0.0363081023 0.12265078
  endloop
 endfacet

 facet normal 0 0 0
  outer loop
  vertex -0.00679134531 0.039429564 0.0970234275
  vertex -0.00956146978 0.0363081023 0.12265078
  vertex -0.00415980443 0.0392309539 0.11972063
  endloop
 endfacet

 facet normal 0 0 0
  outer loop
  vertex -0.00679134531 0.039429564 0.0970234275
  vertex -0.00415980443 0.0392309539 0.11972063
  vertex -0.00483917724 0.0396683551 0.111622706
  endloop
 endfacet

 facet normal 0 0 0
  outer loop
  vertex -0.00911600236 0.0280561652 0.000499998161
  vertex 1.78054196e-10 0.0294999983 0.000500001479
  vertex 0.00911600143 0.0280561652 0.0005000034
  endloop
 endfacet

 facet normal 0 0 0
  outer loop
  vertex -0.00911600236 0.0280561652 0.000499998161
  vertex 0.00911600143 0.0280561652 0.0005000034
  vertex 0.00757128187 0.00486576743 -0.00149999664
  endloop
 endfacet

 facet normal 0 0 0
  outer loop
  vertex 0.00911600143 0.0280561652 0.0005000034
  vertex 0.0173396654 0.0238660015 0.000499997695
  vertex 0.0238660015 0.0173396617 0.000499999558
  endloop
 endfacet

 facet normal 0 0 0
  outer loop
  vertex 0.00911600143 0.0280561652 0.0005000034
  vertex 0.0238660015 0.0173396617 0.000499999558
  vertex 0.0280561689 0.0091160005 0.000499998278
  endloop
 endfacet

 facet normal 0 0 0
  outer loop
  vertex 0.00911600143 0.0280561652 0.0005000034
  vertex 0.0280561689 0.0091160005 0.000499998278
  vertex 0.00757128187 0.00486576743 -0.00149999664
  endloop
 endfacet

 facet normal 0 0 0
  outer loop
  vertex 0.00757128187 0.00486576743 -0.00149999664
  vertex 0.0280561689 0.0091160005 0.000499998278
  vertex 0.0286429618 -0.00453659939 -2.75706014e-09
  endloop
 endfacet

 facet normal 0 0 0
  outer loop
  vertex -0.00954429898 0.0348400362 0.124249682
  vertex -0.00364490505 0.0313619412 0.126388162
  vertex -0.00641266257 0.0378033556 0.122509405
  endloop
 endfacet

 facet normal 0 0 0
  outer loop
  vertex -0.00954429898 0.0348400362 0.124249682
  vertex -0.00641266257 0.0378033556 0.122509405
  vertex -0.00956146978 0.0363081023 0.12265078
  endloop
 endfacet

 facet normal 0 0 0
  outer loop
  vertex -0.00954429898 0.0348400362 0.124249682
  vertex -0.00956146978 0.0363081023 0.12265078
  vertex -0.0118415328 0.032849852 0.123608321
  endloop
 endfacet

 facet normal 0 0 0
  outer loop
  vertex -0.00954429898 0.0348400362 0.124249682
  vertex -0.0118415328 0.032849852 0.123608321
  vertex -0.0124991164 0.0105058337 0.128830016
  endloop
 endfacet

 facet normal 0 0 0
  outer loop
  vertex -0.00954429898 0.0348400362 0.124249682
  vertex -0.0124991164 0.0105058337 0.128830016
  vertex -0.00364490505 0.0313619412 0.126388162
  endloop
 endfacet

 facet normal 0 0 0
  outer loop
  vertex -0.00415980443 0.0392309539 0.11972063
  vertex -0.00956146978 0.0363081023 0.12265078
  vertex -0.00641266257 0.0378033556 0.122509405
  endloop
 endfacet

 facet normal 0 0 0
  outer loop
  vertex -0.00415980443 0.0392309539 0.11972063
  vertex -0.00641266257 0.0378033556 0.122509405
  vertex 0.000557826832 0.0392762683 0.117283002
  endloop
 endfacet

 facet normal 0 0 0
  outer loop
  vertex -0.0173396636 0.0238660015 0.0005000034
  vertex -0.00997898635 0.0374103636 0.0727588981
  vertex -0.00911600236 0.0280561652 0.000499998161
  endloop
 endfacet

 facet normal 0 0 0
  outer loop
  vertex -0.0173396636 0.0238660015 0.0005000034
  vertex -0.0208596494 0.0208596513 0.000499999791
  vertex -0.00997898635 0.0374103636 0.0727588981
  endloop
 endfacet

 facet normal 0 0 0
  outer loop
  vertex 0.00373873534 -0.00818668865 -0.00150000176
  vertex -0.00800000131 7.93916495e-12 -0.00150000374
  vertex 0.00757128187 0.00486576743 -0.00149999664
  endloop
 endfacet

 facet normal 0 0 0
  outer loop
  vertex 0.00373873534 -0.00818668865 -0.00150000176
  vertex 0.00757128187 0.00486576743 -0.00149999664
  vertex 0.0286429618 -0.00453659939 -2.75706014e-09
  endloop
 endfacet

 facet normal 0 0 0
  outer loop
  vertex 0.0286429618 -0.00453659939 -2.75706014e-09
  vertex 0.0208596494 -0.0208596475 0.000499997812
  vertex 0.0133927194 -0.0262846909 0.000500002468
  endloop
 endfacet

 facet normal 0 0 0
  outer loop
  vertex 0.0286429618 -0.00453659939 -2.75706014e-09
  vertex 0.0133927194 -0.0262846909 0.000500002468
  vertex 0.00461481651 -0.0291368049 0.000499996531
  endloop
 endfacet

 facet normal 0 0 0
  outer loop
  vertex 0.0286429618 -0.00453659939 -2.75706014e-09
  vertex 0.00461481651 -0.0291368049 0.000499996531
  vertex 0.00373873534 -0.00818668865 -0.00150000176
  endloop
 endfacet

 facet normal 0 0 0
  outer loop
  vertex 0.00461481651 -0.0291368049 0.000499996531
  vertex -0.00461481651 -0.0291368049 0.000499997579
  vertex -0.0133927194 -0.0262846909 0.000499998743
  endloop
 endfacet

 facet normal 0 0 0
  outer loop
  vertex 0.00461481651 -0.0291368049 0.000499996531
  vertex -0.0133927194 -0.0262846909 0.000499998743
  vertex -0.00800000131 7.93916495e-12 -0.00150000374
  endloop
 endfacet

 facet normal 0 0 0
  outer loop
  vertex 0.00461481651 -0.0291368049 0.000499996531
  vertex -0.00800000131 7.93916495e-12 -0.00150000374
  vertex 0.00373873534 -0.00818668865 -0.00150000176
  endloop
 endfacet

endsolid AssimpScene
