solid AssimpScene
 facet normal 0 0 0
  outer loop
  vertex 0.00875455234 0.00380396587 0.030036943
  vertex 0.00937490538 0.00588800153 0.0258372705
  vertex 0.00165944837 0.00653416943 0.0045349421
  endloop
 endfacet

 facet normal 0 0 0
  outer loop
  vertex 0.00875455234 0.00380396587 0.030036943
  vertex 0.00165944837 0.00653416943 0.0045349421
  vertex -0.00144430448 0.00301361503 0.0056394483
  endloop
 endfacet

 facet normal 0 0 0
  outer loop
  vertex 0.00165944837 0.00653416943 0.0045349421
  vertex 0.00851403922 0.00600611372 0.0072586406
  vertex -0.000172786124 0.00356555684 -0.00253638858
  endloop
 endfacet

 facet normal 0 0 0
  outer loop
  vertex 0.00931873824 0.00142968399 -0.000108988148
  vertex -0.000172786124 0.00356555684 -0.00253638858
  vertex 0.00851403922 0.00600611372 0.0072586406
  endloop
 endfacet

 facet normal 0 0 0
  outer loop
  vertex 0.00931873824 0.00142968399 -0.000108988148
  vertex 0.00851403922 0.00600611372 0.0072586406
  vertex 0.0231346227 0.00462474814 0.035677053
  endloop
 endfacet

 facet normal 0 0 0
  outer loop
  vertex -0.00243852078 0.00359205343 -0.000571911514
  vertex -0.00144430448 0.00301361503 0.0056394483
  vertex 0.00165944837 0.00653416943 0.0045349421
  endloop
 endfacet

 facet normal 0 0 0
  outer loop
  vertex -0.00243852078 0.00359205343 -0.000571911514
  vertex 0.00165944837 0.00653416943 0.0045349421
  vertex -0.000172786124 0.00356555684 -0.00253638858
  endloop
 endfacet

 facet normal 0 0 0
  outer loop
  vertex 0.0242050141 -0.00192817335 0.0429756977
  vertex 0.0240395945 -0.00362354005 0.0384872034
  vertex 0.0255820621 0.000847220945 0.0418963246
  endloop
 endfacet

 facet normal 0 0 0
  outer loop
  vertex 0.0242050141 -0.00192817335 0.0429756977
  vertex 0.0206559934 -0.00363033079 0.0412366018
  vertex 0.0240395945 -0.00362354005 0.0384872034
  endloop
 endfacet

 facet normal 0 0 0
  outer loop
  vertex 0.0253418256 -0.000548877113 0.0373424143
  vertex 0.00989853777 -0.00135703047 0.000912804389
  vertex 0.00931873824 0.00142968399 -0.000108988148
  endloop
 endfacet

 facet normal 0 0 0
  outer loop
  vertex 0.0253418256 -0.000548877113 0.0373424143
  vertex 0.0255820621 0.000847220945 0.0418963246
  vertex 0.0240395945 -0.00362354005 0.0384872034
  endloop
 endfacet

 facet normal 0 0 0
  outer loop
  vertex 0.0253418256 -0.000548877113 0.0373424143
  vertex 0.0240395945 -0.00362354005 0.0384872034
  vertex 0.00989853777 -0.00135703047 0.000912804389
  endloop
 endfacet

 facet normal 0 0 0
  outer loop
  vertex 0.00853617582 -0.00574769638 0.00741846021
  vertex 0.00989853777 -0.00135703047 0.000912804389
  vertex 0.0240395945 -0.00362354005 0.0384872034
  endloop
 endfacet

 facet normal 0 0 0
  outer loop
  vertex 0.00875455234 0.00380396587 0.030036943
  vertex 0.0205354244 0.00505494047 0.0402038731
  vertex 0.00937490538 0.00588800153 0.0258372705
  endloop
 endfacet

 facet normal 0 0 0
  outer loop
  vertex 0.00875455234 0.00380396587 0.030036943
  vertex -0.00144430448 0.00301361503 0.0056394483
  vertex 0.00575182121 0.000365823013 0.0275910273
  endloop
 endfacet

 facet normal 0 0 0
  outer loop
  vertex 0.0192512926 0.0027815986 0.0417803861
  vertex 0.0205354244 0.00505494047 0.0402038731
  vertex 0.00875455234 0.00380396587 0.030036943
  endloop
 endfacet

 facet normal 0 0 0
  outer loop
  vertex 0.00866859872 -0.00222714338 0.0307910237
  vertex 0.00972087402 -0.00466317357 0.0284846351
  vertex 0.0206559934 -0.00363033079 0.0412366018
  endloop
 endfacet

 facet normal 0 0 0
  outer loop
  vertex -0.00200692657 -0.0035211714 -0.0014551772
  vertex -0.0024468617 -0.00349633954 0.000576570455
  vertex -0.00243852078 0.00359205343 -0.000571911514
  endloop
 endfacet

 facet normal 0 0 0
  outer loop
  vertex -0.00200692657 -0.0035211714 -0.0014551772
  vertex -0.00243852078 0.00359205343 -0.000571911514
  vertex -0.000172786124 0.00356555684 -0.00253638858
  endloop
 endfacet

 facet normal 0 0 0
  outer loop
  vertex -0.00200692657 -0.0035211714 -0.0014551772
  vertex -0.000172786124 0.00356555684 -0.00253638858
  vertex 0.000284943904 -0.00353603228 -0.00244115107
  endloop
 endfacet

 facet normal 0 0 0
  outer loop
  vertex -0.00200692657 -0.0035211714 -0.0014551772
  vertex 0.000284943904 -0.00353603228 -0.00244115107
  vertex 0.0032231363 -0.00667649228 0.00514686853
  endloop
 endfacet

 facet normal 0 0 0
  outer loop
  vertex 0.0196615793 -0.00501354784 0.0352521315
  vertex 0.0240395945 -0.00362354005 0.0384872034
  vertex 0.0206559934 -0.00363033079 0.0412366018
  endloop
 endfacet

 facet normal 0 0 0
  outer loop
  vertex 0.0196615793 -0.00501354784 0.0352521315
  vertex 0.0206559934 -0.00363033079 0.0412366018
  vertex 0.00972087402 -0.00466317357 0.0284846351
  endloop
 endfacet

 facet normal 0 0 0
  outer loop
  vertex 0.0196615793 -0.00501354784 0.0352521315
  vertex 0.00972087402 -0.00466317357 0.0284846351
  vertex 0.0032231363 -0.00667649228 0.00514686853
  endloop
 endfacet

 facet normal 0 0 0
  outer loop
  vertex 0.0196615793 -0.00501354784 0.0352521315
  vertex 0.0032231363 -0.00667649228 0.00514686853
  vertex 0.00853617582 -0.00574769638 0.00741846021
  endloop
 endfacet

 facet normal 0 0 0
  outer loop
  vertex 0.0196615793 -0.00501354784 0.0352521315
  vertex 0.00853617582 -0.00574769638 0.00741846021
  vertex 0.0240395945 -0.00362354005 0.0384872034
  endloop
 endfacet

 facet normal 0 0 0
  outer loop
  vertex 0.0192439184 -0.00106461265 0.042139031
  vertex 0.022600051 0.00054418802 0.0444344543
  vertex 0.0192512926 0.0027815986 0.0417803861
  endloop
 endfacet

 facet normal 0 0 0
  outer loop
  vertex 0.0192439184 -0.00106461265 0.042139031
  vertex 0.00866859872 -0.00222714338 0.0307910237
  vertex 0.0206559934 -0.00363033079 0.0412366018
  endloop
 endfacet

 facet normal 0 0 0
  outer loop
  vertex 0.0217478089 0.00308204116 0.043377202
  vertex 0.0240534283 0.00345320371 0.0424722992
  vertex 0.0227773152 0.00506663416 0.0397999547
  endloop
 endfacet

 facet normal 0 0 0
  outer loop
  vertex 0.0217478089 0.00308204116 0.043377202
  vertex 0.0227773152 0.00506663416 0.0397999547
  vertex 0.0205354244 0.00505494047 0.0402038731
  endloop
 endfacet

 facet normal 0 0 0
  outer loop
  vertex 0.0217478089 0.00308204116 0.043377202
  vertex 0.0205354244 0.00505494047 0.0402038731
  vertex 0.0192512926 0.0027815986 0.0417803861
  endloop
 endfacet

 facet normal 0 0 0
  outer loop
  vertex 0.0217478089 0.00308204116 0.043377202
  vertex 0.0192512926 0.0027815986 0.0417803861
  vertex 0.022600051 0.00054418802 0.0444344543
  endloop
 endfacet

 facet normal 0 0 0
  outer loop
  vertex 0.000527347263 -0.00542238401 0.00602718862
  vertex 0.0032231363 -0.00667649228 0.00514686853
  vertex 0.00972087402 -0.00466317357 0.0284846351
  endloop
 endfacet

 facet normal 0 0 0
  outer loop
  vertex 0.000527347263 -0.00542238401 0.00602718862
  vertex -0.0024468617 -0.00349633954 0.000576570455
  vertex -0.00200692657 -0.0035211714 -0.0014551772
  endloop
 endfacet

 facet normal 0 0 0
  outer loop
  vertex 0.000527347263 -0.00542238401 0.00602718862
  vertex -0.00200692657 -0.0035211714 -0.0014551772
  vertex 0.0032231363 -0.00667649228 0.00514686853
  endloop
 endfacet

 facet normal 0 0 0
  outer loop
  vertex 0.0248508751 0.00366713968 0.0389266238
  vertex 0.0240534283 0.00345320371 0.0424722992
  vertex 0.0255820621 0.000847220945 0.0418963246
  endloop
 endfacet

 facet normal 0 0 0
  outer loop
  vertex 0.0248508751 0.00366713968 0.0389266238
  vertex 0.0255820621 0.000847220945 0.0418963246
  vertex 0.0253418256 -0.000548877113 0.0373424143
  endloop
 endfacet

 facet normal 0 0 0
  outer loop
  vertex 0.0248508751 0.00366713968 0.0389266238
  vertex 0.0253418256 -0.000548877113 0.0373424143
  vertex 0.00931873824 0.00142968399 -0.000108988148
  endloop
 endfacet

 facet normal 0 0 0
  outer loop
  vertex 0.0248508751 0.00366713968 0.0389266238
  vertex 0.00931873824 0.00142968399 -0.000108988148
  vertex 0.0231346227 0.00462474814 0.035677053
  endloop
 endfacet

 facet normal 0 0 0
  outer loop
  vertex 0.00835114252 -0.00137416483 -0.000699074008
  vertex 0.000284943904 -0.00353603228 -0.00244115107
  vertex -0.000172786124 0.00356555684 -0.00253638858
  endloop
 endfacet

 facet normal 0 0 0
  outer loop
  vertex 0.00835114252 -0.00137416483 -0.000699074008
  vertex -0.000172786124 0.00356555684 -0.00253638858
  vertex 0.00931873824 0.00142968399 -0.000108988148
  endloop
 endfacet

 facet normal 0 0 0
  outer loop
  vertex 0.00835114252 -0.00137416483 -0.000699074008
  vertex 0.00931873824 0.00142968399 -0.000108988148
  vertex 0.00989853777 -0.00135703047 0.000912804389
  endloop
 endfacet

 facet normal 0 0 0
  outer loop
  vertex 0.00835114252 -0.00137416483 -0.000699074008
  vertex 0.00989853777 -0.00135703047 0.000912804389
  vertex 0.00853617582 -0.00574769638 0.00741846021
  endloop
 endfacet

 facet normal 0 0 0
  outer loop
  vertex 0.00835114252 -0.00137416483 -0.000699074008
  vertex 0.00853617582 -0.00574769638 0.00741846021
  vertex 0.0032231363 -0.00667649228 0.00514686853
  endloop
 endfacet

 facet normal 0 0 0
  outer loop
  vertex 0.00835114252 -0.00137416483 -0.000699074008
  vertex 0.0032231363 -0.00667649228 0.00514686853
  vertex 0.000284943904 -0.00353603228 -0.00244115107
  endloop
 endfacet

 facet normal 0 0 0
  outer loop
  vertex -0.00196827156 -0.000928728958 0.00569637259
  vertex 0.00575182121 0.000365823013 0.0275910273
  vertex -0.00144430448 0.00301361503 0.0056394483
  endloop
 endfacet

 facet normal 0 0 0
  outer loop
  vertex -0.00196827156 -0.000928728958 0.00569637259
  vertex -0.00144430448 0.00301361503 0.0056394483
  vertex -0.00243852078 0.00359205343 -0.000571911514
  endloop
 endfacet

 facet normal 0 0 0
  outer loop
  vertex -0.00196827156 -0.000928728958 0.00569637259
  vertex -0.00243852078 0.00359205343 -0.000571911514
  vertex -0.0024468617 -0.00349633954 0.000576570455
  endloop
 endfacet

 facet normal 0 0 0
  outer loop
  vertex 0.0244810991 0.00118783722 0.0438239835
  vertex 0.0255820621 0.000847220945 0.0418963246
  vertex 0.0240534283 0.00345320371 0.0424722992
  endloop
 endfacet

 facet normal 0 0 0
  outer loop
  vertex 0.0244810991 0.00118783722 0.0438239835
  vertex 0.0240534283 0.00345320371 0.0424722992
  vertex 0.0217478089 0.00308204116 0.043377202
  endloop
 endfacet

 facet normal 0 0 0
  outer loop
  vertex 0.0244810991 0.00118783722 0.0438239835
  vertex 0.0217478089 0.00308204116 0.043377202
  vertex 0.022600051 0.00054418802 0.0444344543
  endloop
 endfacet

 facet normal 0 0 0
  outer loop
  vertex 0.0244810991 0.00118783722 0.0438239835
  vertex 0.022600051 0.00054418802 0.0444344543
  vertex 0.0242050141 -0.00192817335 0.0429756977
  endloop
 endfacet

 facet normal 0 0 0
  outer loop
  vertex 0.0244810991 0.00118783722 0.0438239835
  vertex 0.0242050141 -0.00192817335 0.0429756977
  vertex 0.0255820621 0.000847220945 0.0418963246
  endloop
 endfacet

 facet normal 0 0 0
  outer loop
  vertex 0.0199624281 0.00586111238 0.0355280787
  vertex 0.00851403922 0.00600611372 0.0072586406
  vertex 0.00165944837 0.00653416943 0.0045349421
  endloop
 endfacet

 facet normal 0 0 0
  outer loop
  vertex 0.0199624281 0.00586111238 0.0355280787
  vertex 0.00165944837 0.00653416943 0.0045349421
  vertex 0.00937490538 0.00588800153 0.0258372705
  endloop
 endfacet

 facet normal 0 0 0
  outer loop
  vertex 0.0199624281 0.00586111238 0.0355280787
  vertex 0.00937490538 0.00588800153 0.0258372705
  vertex 0.0205354244 0.00505494047 0.0402038731
  endloop
 endfacet

 facet normal 0 0 0
  outer loop
  vertex 0.0199624281 0.00586111238 0.0355280787
  vertex 0.0231346227 0.00462474814 0.035677053
  vertex 0.00851403922 0.00600611372 0.0072586406
  endloop
 endfacet

 facet normal 0 0 0
  outer loop
  vertex 0.0217766557 -0.00192161324 0.0435136557
  vertex 0.0206559934 -0.00363033079 0.0412366018
  vertex 0.0242050141 -0.00192817335 0.0429756977
  endloop
 endfacet

 facet normal 0 0 0
  outer loop
  vertex 0.0217766557 -0.00192161324 0.0435136557
  vertex 0.0242050141 -0.00192817335 0.0429756977
  vertex 0.022600051 0.00054418802 0.0444344543
  endloop
 endfacet

 facet normal 0 0 0
  outer loop
  vertex 0.0217766557 -0.00192161324 0.0435136557
  vertex 0.022600051 0.00054418802 0.0444344543
  vertex 0.0192439184 -0.00106461265 0.042139031
  endloop
 endfacet

 facet normal 0 0 0
  outer loop
  vertex 0.0217766557 -0.00192161324 0.0435136557
  vertex 0.0192439184 -0.00106461265 0.042139031
  vertex 0.0206559934 -0.00363033079 0.0412366018
  endloop
 endfacet

 facet normal 0 0 0
  outer loop
  vertex 0.00829267595 0.00040764999 0.0313679874
  vertex 0.00575182121 0.000365823013 0.0275910273
  vertex 0.00866859872 -0.00222714338 0.0307910237
  endloop
 endfacet

 facet normal 0 0 0
  outer loop
  vertex 0.00829267595 0.00040764999 0.0313679874
  vertex 0.00866859872 -0.00222714338 0.0307910237
  vertex 0.0192439184 -0.00106461265 0.042139031
  endloop
 endfacet

 facet normal 0 0 0
  outer loop
  vertex 0.00829267595 0.00040764999 0.0313679874
  vertex 0.0192439184 -0.00106461265 0.042139031
  vertex 0.0192512926 0.0027815986 0.0417803861
  endloop
 endfacet

 facet normal 0 0 0
  outer loop
  vertex 0.00829267595 0.00040764999 0.0313679874
  vertex 0.0192512926 0.0027815986 0.0417803861
  vertex 0.00875455234 0.00380396587 0.030036943
  endloop
 endfacet

 facet normal 0 0 0
  outer loop
  vertex 0.00829267595 0.00040764999 0.0313679874
  vertex 0.00875455234 0.00380396587 0.030036943
  vertex 0.00575182121 0.000365823013 0.0275910273
  endloop
 endfacet

 facet normal 0 0 0
  outer loop
  vertex 0.00579753844 -0.00236277143 0.0257757939
  vertex 0.00575182121 0.000365823013 0.0275910273
  vertex -0.00196827156 -0.000928728958 0.00569637259
  endloop
 endfacet

 facet normal 0 0 0
  outer loop
  vertex -0.00196827156 -0.000928728958 0.00569637259
  vertex -0.0024468617 -0.00349633954 0.000576570455
  vertex 0.000527347263 -0.00542238401 0.00602718862
  endloop
 endfacet

 facet normal 0 0 0
  outer loop
  vertex -0.00196827156 -0.000928728958 0.00569637259
  vertex 0.000527347263 -0.00542238401 0.00602718862
  vertex 0.00579753844 -0.00236277143 0.0257757939
  endloop
 endfacet

 facet normal 0 0 0
  outer loop
  vertex 0.00579753844 -0.00236277143 0.0257757939
  vertex 0.000527347263 -0.00542238401 0.00602718862
  vertex 0.00972087402 -0.00466317357 0.0284846351
  endloop
 endfacet

 facet normal 0 0 0
  outer loop
  vertex 0.00579753844 -0.00236277143 0.0257757939
  vertex 0.00972087402 -0.00466317357 0.0284846351
  vertex 0.00866859872 -0.00222714338 0.0307910237
  endloop
 endfacet

 facet normal 0 0 0
  outer loop
  vertex 0.00579753844 -0.00236277143 0.0257757939
  vertex 0.00866859872 -0.00222714338 0.0307910237
  vertex 0.00575182121 0.000365823013 0.0275910273
  endloop
 endfacet

 facet normal 0 0 0
  outer loop
  vertex 0.0227773152 0.00506663416 0.0397999547
  vertex 0.0240534283 0.00345320371 0.0424722992
  vertex 0.0248508751 0.00366713968 0.0389266238
  endloop
 endfacet

 facet normal 0 0 0
  outer loop
  vertex 0.0227773152 0.00506663416 0.0397999547
  vertex 0.0248508751 0.00366713968 0.0389266238
  vertex 0.0231346227 0.00462474814 0.035677053
  endloop
 endfacet

 facet normal 0 0 0
  outer loop
  vertex 0.0227773152 0.00506663416 0.0397999547
  vertex 0.0231346227 0.00462474814 0.035677053
  vertex 0.0199624281 0.00586111238 0.0355280787
  endloop
 endfacet

 facet normal 0 0 0
  outer loop
  vertex 0.0227773152 0.00506663416 0.0397999547
  vertex 0.0199624281 0.00586111238 0.0355280787
  vertex 0.0205354244 0.00505494047 0.0402038731
  endloop
 endfacet

endsolid AssimpScene
