solid AssimpScene
 facet normal 0 0 0
  outer loop
  vertex -0.00595000759 -0.000905481225 -0.00286009093
  vertex -0.0056056669 0.0119265178 -0.00365797593
  vertex 0.00954461563 0.00746486103 -0.00333492667
  endloop
 endfacet

 facet normal 0 0 0
  outer loop
  vertex -0.00595000759 -0.000905481225 -0.00286009093
  vertex 0.00954461563 0.00746486103 -0.00333492667
  vertex 0.00594999269 -0.000789714744 -0.00289419317
  endloop
 endfacet

 facet normal 0 0 0
  outer loop
  vertex 0.00585998595 0.0130393254 -0.00332012237
  vertex 0.007449992 0.0132703157 -0.000760103401
  vertex 0.00954461563 0.00746486103 -0.00333492667
  endloop
 endfacet

 facet normal 0 0 0
  outer loop
  vertex 0.00585998595 0.0130393254 -0.00332012237
  vertex 0.00954461563 0.00746486103 -0.00333492667
  vertex -0.0056056669 0.0119265178 -0.00365797593
  endloop
 endfacet

 facet normal 0 0 0
  outer loop
  vertex -0.00471747248 -0.00130991789 0.0127815334
  vertex -8.56686388e-10 -0.00360021857 0.00447569275
  vertex 0.000281342916 -0.00170651102 0.015224616
  endloop
 endfacet

 facet normal 0 0 0
  outer loop
  vertex -0.000639560109 0.0107571865 0.0248581711
  vertex 0.0038912294 0.0107840309 0.0231890436
  vertex -0.00278524519 0.0115897618 0.0217792429
  endloop
 endfacet

 facet normal 0 0 0
  outer loop
  vertex -0.000639560109 0.0107571865 0.0248581711
  vertex -0.00278524519 0.0115897618 0.0217792429
  vertex -0.00519735971 0.00908950251 0.0238233879
  endloop
 endfacet

 facet normal 0 0 0
  outer loop
  vertex -0.000639560109 0.0107571865 0.0248581711
  vertex -0.00519735971 0.00908950251 0.0238233879
  vertex -1.30664226e-08 0.00809335057 0.0260458943
  endloop
 endfacet

 facet normal 0 0 0
  outer loop
  vertex -0.00779808918 0.00322835729 0.0169369169
  vertex -0.0074500083 -0.00199937867 -4.98525551e-05
  vertex -0.00471747248 -0.00130991789 0.0127815334
  endloop
 endfacet

 facet normal 0 0 0
  outer loop
  vertex -0.00779808918 0.00322835729 0.0169369169
  vertex -0.00471747248 -0.00130991789 0.0127815334
  vertex -0.00554694189 0.00356832705 0.0217552017
  endloop
 endfacet

 facet normal 0 0 0
  outer loop
  vertex -0.00789089222 0.00740716979 0.0191891007
  vertex -0.00998906046 0.00747376448 -0.00284770783
  vertex -0.009523605 0.00310350396 -0.00286295149
  endloop
 endfacet

 facet normal 0 0 0
  outer loop
  vertex -0.00789089222 0.00740716979 0.0191891007
  vertex -0.009523605 0.00310350396 -0.00286295149
  vertex -0.00779808918 0.00322835729 0.0169369169
  endloop
 endfacet

 facet normal 0 0 0
  outer loop
  vertex -0.009523605 0.00310350396 -0.00286295149
  vertex -0.00998906046 0.00747376448 -0.00284770783
  vertex -0.0056056669 0.0119265178 -0.00365797593
  endloop
 endfacet

 facet normal 0 0 0
  outer loop
  vertex -0.009523605 0.00310350396 -0.00286295149
  vertex -0.0056056669 0.0119265178 -0.00365797593
  vertex -0.00595000759 -0.000905481225 -0.00286009093
  endloop
 endfacet

 facet normal 0 0 0
  outer loop
  vertex -0.009523605 0.00310350396 -0.00286295149
  vertex -0.0074500083 -0.00199937867 -4.98525551e-05
  vertex -0.00779808918 0.00322835729 0.0169369169
  endloop
 endfacet

 facet normal 0 0 0
  outer loop
  vertex 0.00970058423 0.00391795347 0.00266761915
  vertex 0.00776393013 0.00695031043 0.0198654793
  vertex 0.00730262417 0.0016724657 0.0155040734
  endloop
 endfacet

 facet normal 0 0 0
  outer loop
  vertex 0.00970058423 0.00391795347 0.00266761915
  vertex 0.00730262417 0.0016724657 0.0155040734
  vertex 0.00744999154 -0.00179485511 -0.00088232517
  endloop
 endfacet

 facet normal 0 0 0
  outer loop
  vertex 0.00965811219 0.00320919137 -0.00272976537
  vertex 0.00970058423 0.00391795347 0.00266761915
  vertex 0.00744999154 -0.00179485511 -0.00088232517
  endloop
 endfacet

 facet normal 0 0 0
  outer loop
  vertex 0.00965811219 0.00320919137 -0.00272976537
  vertex 0.00744999154 -0.00179485511 -0.00088232517
  vertex 0.00594999269 -0.000789714744 -0.00289419317
  endloop
 endfacet

 facet normal 0 0 0
  outer loop
  vertex 0.00965811219 0.00320919137 -0.00272976537
  vertex 0.00594999269 -0.000789714744 -0.00289419317
  vertex 0.00954461563 0.00746486103 -0.00333492667
  endloop
 endfacet

 facet normal 0 0 0
  outer loop
  vertex 0.00448262924 -0.00173447724 0.0116844391
  vertex 0.00594999222 -0.00296155829 -0.000478718488
  vertex 0.00744999154 -0.00179485511 -0.00088232517
  endloop
 endfacet

 facet normal 0 0 0
  outer loop
  vertex 0.00448262924 -0.00173447724 0.0116844391
  vertex 0.00744999154 -0.00179485511 -0.00088232517
  vertex 0.00730262417 0.0016724657 0.0155040734
  endloop
 endfacet

 facet normal 0 0 0
  outer loop
  vertex 0.00448262924 -0.00173447724 0.0116844391
  vertex 0.00730262417 0.0016724657 0.0155040734
  vertex 0.00424262974 0.00283036986 0.0218839459
  endloop
 endfacet

 facet normal 0 0 0
  outer loop
  vertex 0.00448262924 -0.00173447724 0.0116844391
  vertex 0.00424262974 0.00283036986 0.0218839459
  vertex 0.000281342916 -0.00170651102 0.015224616
  endloop
 endfacet

 facet normal 0 0 0
  outer loop
  vertex 0.00448262924 -0.00173447724 0.0116844391
  vertex 0.000281342916 -0.00170651102 0.015224616
  vertex -8.56686388e-10 -0.00360021857 0.00447569275
  endloop
 endfacet

 facet normal 0 0 0
  outer loop
  vertex -0.00595000712 -0.00286259665 -0.00089751929
  vertex -0.0074500083 -0.00199937867 -4.98525551e-05
  vertex -0.009523605 0.00310350396 -0.00286295149
  endloop
 endfacet

 facet normal 0 0 0
  outer loop
  vertex -0.00595000712 -0.00286259665 -0.00089751929
  vertex -0.009523605 0.00310350396 -0.00286295149
  vertex -0.00595000759 -0.000905481225 -0.00286009093
  endloop
 endfacet

 facet normal 0 0 0
  outer loop
  vertex -0.00595000712 -0.00286259665 -0.00089751929
  vertex -0.00595000759 -0.000905481225 -0.00286009093
  vertex 0.00594999269 -0.000789714744 -0.00289419317
  endloop
 endfacet

 facet normal 0 0 0
  outer loop
  vertex -0.00595000712 -0.00286259665 -0.00089751929
  vertex -8.56686388e-10 -0.00360021857 0.00447569275
  vertex -0.00471747248 -0.00130991789 0.0127815334
  endloop
 endfacet

 facet normal 0 0 0
  outer loop
  vertex -0.00595000712 -0.00286259665 -0.00089751929
  vertex -0.00471747248 -0.00130991789 0.0127815334
  vertex -0.0074500083 -0.00199937867 -4.98525551e-05
  endloop
 endfacet

 facet normal 0 0 0
  outer loop
  vertex 0.00444999197 0.0145718828 -0.00150217465
  vertex 0.007449992 0.0132703157 -0.000760103401
  vertex 0.00585998595 0.0130393254 -0.00332012237
  endloop
 endfacet

 facet normal 0 0 0
  outer loop
  vertex 0.00444999197 0.0145718828 -0.00150217465
  vertex -0.00472753309 0.0146060074 -0.000856332306
  vertex -0.00278524519 0.0115897618 0.0217792429
  endloop
 endfacet

 facet normal 0 0 0
  outer loop
  vertex 0.00444999197 0.0145718828 -0.00150217465
  vertex -0.00278524519 0.0115897618 0.0217792429
  vertex 0.0038912294 0.0107840309 0.0231890436
  endloop
 endfacet

 facet normal 0 0 0
  outer loop
  vertex 0.00444999197 0.0145718828 -0.00150217465
  vertex 0.0038912294 0.0107840309 0.0231890436
  vertex 0.007449992 0.0132703157 -0.000760103401
  endloop
 endfacet

 facet normal 0 0 0
  outer loop
  vertex 0.00945515465 0.00936637539 0.00267448253
  vertex 0.00776393013 0.00695031043 0.0198654793
  vertex 0.00970058423 0.00391795347 0.00266761915
  endloop
 endfacet

 facet normal 0 0 0
  outer loop
  vertex 0.00945515465 0.00936637539 0.00267448253
  vertex 0.00970058423 0.00391795347 0.00266761915
  vertex 0.00965811219 0.00320919137 -0.00272976537
  endloop
 endfacet

 facet normal 0 0 0
  outer loop
  vertex 0.00945515465 0.00936637539 0.00267448253
  vertex 0.00965811219 0.00320919137 -0.00272976537
  vertex 0.00954461563 0.00746486103 -0.00333492667
  endloop
 endfacet

 facet normal 0 0 0
  outer loop
  vertex 0.00945515465 0.00936637539 0.00267448253
  vertex 0.00954461563 0.00746486103 -0.00333492667
  vertex 0.007449992 0.0132703157 -0.000760103401
  endloop
 endfacet

 facet normal 0 0 0
  outer loop
  vertex -0.00271960907 0.0059401975 0.0250817575
  vertex -1.30664226e-08 0.00809335057 0.0260458943
  vertex -0.00519735971 0.00908950251 0.0238233879
  endloop
 endfacet

 facet normal 0 0 0
  outer loop
  vertex -0.00271960907 0.0059401975 0.0250817575
  vertex -0.00554694189 0.00356832705 0.0217552017
  vertex -0.000429687469 0.00403419696 0.0242657159
  endloop
 endfacet

 facet normal 0 0 0
  outer loop
  vertex 0.00594999222 -0.00296155829 -0.000478718488
  vertex -8.56686388e-10 -0.00360021857 0.00447569275
  vertex -0.00595000712 -0.00286259665 -0.00089751929
  endloop
 endfacet

 facet normal 0 0 0
  outer loop
  vertex 0.00594999222 -0.00296155829 -0.000478718488
  vertex -0.00595000712 -0.00286259665 -0.00089751929
  vertex 0.00594999269 -0.000789714744 -0.00289419317
  endloop
 endfacet

 facet normal 0 0 0
  outer loop
  vertex 0.00594999222 -0.00296155829 -0.000478718488
  vertex 0.00594999269 -0.000789714744 -0.00289419317
  vertex 0.00744999154 -0.00179485511 -0.00088232517
  endloop
 endfacet

 facet normal 0 0 0
  outer loop
  vertex 0.00594999222 -0.00296155829 -0.000478718488
  vertex 0.00448262924 -0.00173447724 0.0116844391
  vertex -8.56686388e-10 -0.00360021857 0.00447569275
  endloop
 endfacet

 facet normal 0 0 0
  outer loop
  vertex 0.00697122142 0.00940564182 0.0198145024
  vertex 0.007449992 0.0132703157 -0.000760103401
  vertex 0.0038912294 0.0107840309 0.0231890436
  endloop
 endfacet

 facet normal 0 0 0
  outer loop
  vertex 0.00697122142 0.00940564182 0.0198145024
  vertex 0.0038912294 0.0107840309 0.0231890436
  vertex 0.00480465591 0.00790734496 0.0243592747
  endloop
 endfacet

 facet normal 0 0 0
  outer loop
  vertex 0.00697122142 0.00940564182 0.0198145024
  vertex 0.00480465591 0.00790734496 0.0243592747
  vertex 0.00776393013 0.00695031043 0.0198654793
  endloop
 endfacet

 facet normal 0 0 0
  outer loop
  vertex 0.00697122142 0.00940564182 0.0198145024
  vertex 0.00776393013 0.00695031043 0.0198654793
  vertex 0.00945515465 0.00936637539 0.00267448253
  endloop
 endfacet

 facet normal 0 0 0
  outer loop
  vertex 0.00697122142 0.00940564182 0.0198145024
  vertex 0.00945515465 0.00936637539 0.00267448253
  vertex 0.007449992 0.0132703157 -0.000760103401
  endloop
 endfacet

 facet normal 0 0 0
  outer loop
  vertex 0.00650312006 0.00402344018 0.021167906
  vertex 0.00424262974 0.00283036986 0.0218839459
  vertex 0.00730262417 0.0016724657 0.0155040734
  endloop
 endfacet

 facet normal 0 0 0
  outer loop
  vertex 0.00650312006 0.00402344018 0.021167906
  vertex 0.00730262417 0.0016724657 0.0155040734
  vertex 0.00776393013 0.00695031043 0.0198654793
  endloop
 endfacet

 facet normal 0 0 0
  outer loop
  vertex 0.00650312006 0.00402344018 0.021167906
  vertex 0.00776393013 0.00695031043 0.0198654793
  vertex 0.00480465591 0.00790734496 0.0243592747
  endloop
 endfacet

 facet normal 0 0 0
  outer loop
  vertex 0.00255859154 0.00965883769 0.0252771042
  vertex 0.00480465591 0.00790734496 0.0243592747
  vertex 0.0038912294 0.0107840309 0.0231890436
  endloop
 endfacet

 facet normal 0 0 0
  outer loop
  vertex 0.00255859154 0.00965883769 0.0252771042
  vertex 0.0038912294 0.0107840309 0.0231890436
  vertex -0.000639560109 0.0107571865 0.0248581711
  endloop
 endfacet

 facet normal 0 0 0
  outer loop
  vertex 0.00255859154 0.00965883769 0.0252771042
  vertex -0.000639560109 0.0107571865 0.0248581711
  vertex -1.30664226e-08 0.00809335057 0.0260458943
  endloop
 endfacet

 facet normal 0 0 0
  outer loop
  vertex -0.00615554303 0.0134709235 -0.0028161176
  vertex -0.0056056669 0.0119265178 -0.00365797593
  vertex -0.00998906046 0.00747376448 -0.00284770783
  endloop
 endfacet

 facet normal 0 0 0
  outer loop
  vertex -0.00615554303 0.0134709235 -0.0028161176
  vertex -0.00998906046 0.00747376448 -0.00284770783
  vertex -0.00745000644 0.0132703157 -0.000760110852
  endloop
 endfacet

 facet normal 0 0 0
  outer loop
  vertex -0.00615554303 0.0134709235 -0.0028161176
  vertex -0.00745000644 0.0132703157 -0.000760110852
  vertex -0.00472753309 0.0146060074 -0.000856332306
  endloop
 endfacet

 facet normal 0 0 0
  outer loop
  vertex -0.00615554303 0.0134709235 -0.0028161176
  vertex -0.00472753309 0.0146060074 -0.000856332306
  vertex 0.00444999197 0.0145718828 -0.00150217465
  endloop
 endfacet

 facet normal 0 0 0
  outer loop
  vertex -0.00615554303 0.0134709235 -0.0028161176
  vertex 0.00444999197 0.0145718828 -0.00150217465
  vertex 0.00585998595 0.0130393254 -0.00332012237
  endloop
 endfacet

 facet normal 0 0 0
  outer loop
  vertex -0.00615554303 0.0134709235 -0.0028161176
  vertex 0.00585998595 0.0130393254 -0.00332012237
  vertex -0.0056056669 0.0119265178 -0.00365797593
  endloop
 endfacet

 facet normal 0 0 0
  outer loop
  vertex 0.00285153231 0.00566313136 0.024896808
  vertex 0.00480465591 0.00790734496 0.0243592747
  vertex 0.00255859154 0.00965883769 0.0252771042
  endloop
 endfacet

 facet normal 0 0 0
  outer loop
  vertex 0.00285153231 0.00566313136 0.024896808
  vertex 0.00255859154 0.00965883769 0.0252771042
  vertex -1.30664226e-08 0.00809335057 0.0260458943
  endloop
 endfacet

 facet normal 0 0 0
  outer loop
  vertex 0.00285153231 0.00566313136 0.024896808
  vertex -1.30664226e-08 0.00809335057 0.0260458943
  vertex -0.00271960907 0.0059401975 0.0250817575
  endloop
 endfacet

 facet normal 0 0 0
  outer loop
  vertex 0.00285153231 0.00566313136 0.024896808
  vertex -0.00271960907 0.0059401975 0.0250817575
  vertex -0.000429687469 0.00403419696 0.0242657159
  endloop
 endfacet

 facet normal 0 0 0
  outer loop
  vertex 0.00285153231 0.00566313136 0.024896808
  vertex -0.000429687469 0.00403419696 0.0242657159
  vertex 0.00424262974 0.00283036986 0.0218839459
  endloop
 endfacet

 facet normal 0 0 0
  outer loop
  vertex 0.00285153231 0.00566313136 0.024896808
  vertex 0.00424262974 0.00283036986 0.0218839459
  vertex 0.00650312006 0.00402344018 0.021167906
  endloop
 endfacet

 facet normal 0 0 0
  outer loop
  vertex 0.00285153231 0.00566313136 0.024896808
  vertex 0.00650312006 0.00402344018 0.021167906
  vertex 0.00480465591 0.00790734496 0.0243592747
  endloop
 endfacet

 facet normal 0 0 0
  outer loop
  vertex -0.00635798415 0.00987881422 0.0207630899
  vertex -0.00519735971 0.00908950251 0.0238233879
  vertex -0.00278524519 0.0115897618 0.0217792429
  endloop
 endfacet

 facet normal 0 0 0
  outer loop
  vertex -0.00635798415 0.00987881422 0.0207630899
  vertex -0.00278524519 0.0115897618 0.0217792429
  vertex -0.00472753309 0.0146060074 -0.000856332306
  endloop
 endfacet

 facet normal 0 0 0
  outer loop
  vertex -0.00635798415 0.00987881422 0.0207630899
  vertex -0.00472753309 0.0146060074 -0.000856332306
  vertex -0.00745000644 0.0132703157 -0.000760110852
  endloop
 endfacet

 facet normal 0 0 0
  outer loop
  vertex -0.00635798415 0.00987881422 0.0207630899
  vertex -0.00789089222 0.00740716979 0.0191891007
  vertex -0.00519735971 0.00908950251 0.0238233879
  endloop
 endfacet

 facet normal 0 0 0
  outer loop
  vertex -0.00207281741 0.00121453393 0.0206302758
  vertex 0.000281342916 -0.00170651102 0.015224616
  vertex 0.00424262974 0.00283036986 0.0218839459
  endloop
 endfacet

 facet normal 0 0 0
  outer loop
  vertex -0.00207281741 0.00121453393 0.0206302758
  vertex 0.00424262974 0.00283036986 0.0218839459
  vertex -0.000429687469 0.00403419696 0.0242657159
  endloop
 endfacet

 facet normal 0 0 0
  outer loop
  vertex -0.00207281741 0.00121453393 0.0206302758
  vertex -0.000429687469 0.00403419696 0.0242657159
  vertex -0.00554694189 0.00356832705 0.0217552017
  endloop
 endfacet

 facet normal 0 0 0
  outer loop
  vertex -0.00207281741 0.00121453393 0.0206302758
  vertex -0.00554694189 0.00356832705 0.0217552017
  vertex -0.00471747248 -0.00130991789 0.0127815334
  endloop
 endfacet

 facet normal 0 0 0
  outer loop
  vertex -0.00207281741 0.00121453393 0.0206302758
  vertex -0.00471747248 -0.00130991789 0.0127815334
  vertex 0.000281342916 -0.00170651102 0.015224616
  endloop
 endfacet

 facet normal 0 0 0
  outer loop
  vertex -0.00659474777 0.00657131104 0.0223298781
  vertex -0.00554694189 0.00356832705 0.0217552017
  vertex -0.00271960907 0.0059401975 0.0250817575
  endloop
 endfacet

 facet normal 0 0 0
  outer loop
  vertex -0.00659474777 0.00657131104 0.0223298781
  vertex -0.00271960907 0.0059401975 0.0250817575
  vertex -0.00519735971 0.00908950251 0.0238233879
  endloop
 endfacet

 facet normal 0 0 0
  outer loop
  vertex -0.00659474777 0.00657131104 0.0223298781
  vertex -0.00519735971 0.00908950251 0.0238233879
  vertex -0.00789089222 0.00740716979 0.0191891007
  endloop
 endfacet

 facet normal 0 0 0
  outer loop
  vertex -0.00659474777 0.00657131104 0.0223298781
  vertex -0.00789089222 0.00740716979 0.0191891007
  vertex -0.00779808918 0.00322835729 0.0169369169
  endloop
 endfacet

 facet normal 0 0 0
  outer loop
  vertex -0.00659474777 0.00657131104 0.0223298781
  vertex -0.00779808918 0.00322835729 0.0169369169
  vertex -0.00554694189 0.00356832705 0.0217552017
  endloop
 endfacet

 facet normal 0 0 0
  outer loop
  vertex -0.00933824014 0.00964011252 0.00281928596
  vertex -0.00789089222 0.00740716979 0.0191891007
  vertex -0.00635798415 0.00987881422 0.0207630899
  endloop
 endfacet

 facet normal 0 0 0
  outer loop
  vertex -0.00933824014 0.00964011252 0.00281928596
  vertex -0.00635798415 0.00987881422 0.0207630899
  vertex -0.00745000644 0.0132703157 -0.000760110852
  endloop
 endfacet

 facet normal 0 0 0
  outer loop
  vertex -0.00933824014 0.00964011252 0.00281928596
  vertex -0.00745000644 0.0132703157 -0.000760110852
  vertex -0.00998906046 0.00747376448 -0.00284770783
  endloop
 endfacet

 facet normal 0 0 0
  outer loop
  vertex -0.00933824014 0.00964011252 0.00281928596
  vertex -0.00998906046 0.00747376448 -0.00284770783
  vertex -0.00789089222 0.00740716979 0.0191891007
  endloop
 endfacet

endsolid AssimpScene
