solid AssimpScene
 facet normal 0 0 0
  outer loop
  vertex -0.00461851666 0.0142429853 -0.0163406096
  vertex -0.00510776136 0.0243000686 0.0356040075
  vertex -0.00263872696 0.0242597759 0.0308512393
  endloop
 endfacet

 facet normal 0 0 0
  outer loop
  vertex -0.00461851666 0.0142429853 -0.0163406096
  vertex -0.00263872696 0.0242597759 0.0308512393
  vertex -0.000365136599 0.0168130863 -0.00995576289
  endloop
 endfacet

 facet normal 0 0 0
  outer loop
  vertex -0.0100537539 0.00421727449 -0.0181291737
  vertex -0.0103861047 -0.00608687475 -0.00353350863
  vertex -0.0104812765 0.0085735973 -0.0180871617
  endloop
 endfacet

 facet normal 0 0 0
  outer loop
  vertex -0.0100537539 0.00421727449 -0.0181291737
  vertex -0.0104812765 0.0085735973 -0.0180871617
  vertex -0.00440197065 0.00846051332 -0.0185350832
  endloop
 endfacet

 facet normal 0 0 0
  outer loop
  vertex 0.0100906901 0.00421809684 -0.0181235801
  vertex -0.0100537539 0.00421727449 -0.0181291737
  vertex -0.00440197065 0.00846051332 -0.0185350832
  endloop
 endfacet

 facet normal 0 0 0
  outer loop
  vertex 0.0100906901 0.00421809684 -0.0181235801
  vertex -0.00440197065 0.00846051332 -0.0185350832
  vertex 0.010415094 0.00868258625 -0.0181863848
  endloop
 endfacet

 facet normal 0 0 0
  outer loop
  vertex -0.00572693907 -0.00903819501 -0.00255105458
  vertex -0.00766678387 0.00801725313 0.0462900028
  vertex -0.0103861047 -0.00608687475 -0.00353350863
  endloop
 endfacet

 facet normal 0 0 0
  outer loop
  vertex -0.00572693907 -0.00903819501 -0.00255105458
  vertex -0.0103861047 -0.00608687475 -0.00353350863
  vertex -0.0100537539 0.00421727449 -0.0181291737
  endloop
 endfacet

 facet normal 0 0 0
  outer loop
  vertex 0.00528487051 0.0140188104 -0.016458353
  vertex -0.00461851666 0.0142429853 -0.0163406096
  vertex -0.000365136599 0.0168130863 -0.00995576289
  endloop
 endfacet

 facet normal 0 0 0
  outer loop
  vertex -0.00320009119 0.00594026782 0.0462746285
  vertex -0.00766678387 0.00801725313 0.0462900028
  vertex -0.00572693907 -0.00903819501 -0.00255105458
  endloop
 endfacet

 facet normal 0 0 0
  outer loop
  vertex 0.00972333457 0.0151102059 0.0381711759
  vertex 0.00739119807 0.00796827581 0.046192307
  vertex 0.010499903 -0.00260153273 0.00297719822
  endloop
 endfacet

 facet normal 0 0 0
  outer loop
  vertex 0.00972333457 0.0151102059 0.0381711759
  vertex 0.010499903 -0.00260153273 0.00297719822
  vertex 0.010415094 0.00868258625 -0.0181863848
  endloop
 endfacet

 facet normal 0 0 0
  outer loop
  vertex -0.00510776136 0.0243000686 0.0356040075
  vertex -0.00858477596 0.0219675265 0.0359575152
  vertex -0.00669358065 0.010010317 0.0471749865
  endloop
 endfacet

 facet normal 0 0 0
  outer loop
  vertex -0.00510776136 0.0243000686 0.0356040075
  vertex 0.00362707861 0.0244590864 0.0356230438
  vertex -0.00263872696 0.0242597759 0.0308512393
  endloop
 endfacet

 facet normal 0 0 0
  outer loop
  vertex -0.00975172315 0.0157443918 0.0379552655
  vertex -0.0103861047 -0.00608687475 -0.00353350863
  vertex -0.00766678387 0.00801725313 0.0462900028
  endloop
 endfacet

 facet normal 0 0 0
  outer loop
  vertex -0.00975172315 0.0157443918 0.0379552655
  vertex -0.00766678387 0.00801725313 0.0462900028
  vertex -0.00669358065 0.010010317 0.0471749865
  endloop
 endfacet

 facet normal 0 0 0
  outer loop
  vertex -0.00975172315 0.0157443918 0.0379552655
  vertex -0.00669358065 0.010010317 0.0471749865
  vertex -0.00858477596 0.0219675265 0.0359575152
  endloop
 endfacet

 facet normal 0 0 0
  outer loop
  vertex -0.00975172315 0.0157443918 0.0379552655
  vertex -0.00858477596 0.0219675265 0.0359575152
  vertex -0.0104812765 0.0085735973 -0.0180871617
  endloop
 endfacet

 facet normal 0 0 0
  outer loop
  vertex -0.00975172315 0.0157443918 0.0379552655
  vertex -0.0104812765 0.0085735973 -0.0180871617
  vertex -0.0103861047 -0.00608687475 -0.00353350863
  endloop
 endfacet

 facet normal 0 0 0
  outer loop
  vertex 0.0104706055 -0.00594517728 -0.00357946986
  vertex 0.0100906901 0.00421809684 -0.0181235801
  vertex 0.010415094 0.00868258625 -0.0181863848
  endloop
 endfacet

 facet normal 0 0 0
  outer loop
  vertex 0.0104706055 -0.00594517728 -0.00357946986
  vertex 0.010415094 0.00868258625 -0.0181863848
  vertex 0.010499903 -0.00260153273 0.00297719822
  endloop
 endfacet

 facet normal 0 0 0
  outer loop
  vertex 0.0104706055 -0.00594517728 -0.00357946986
  vertex 0.010499903 -0.00260153273 0.00297719822
  vertex 0.00739119807 0.00796827581 0.046192307
  endloop
 endfacet

 facet normal 0 0 0
  outer loop
  vertex 0.0104706055 -0.00594517728 -0.00357946986
  vertex 0.00739119807 0.00796827581 0.046192307
  vertex 0.00877694692 -0.00764593901 -0.00305548962
  endloop
 endfacet

 facet normal 0 0 0
  outer loop
  vertex 0.0104706055 -0.00594517728 -0.00357946986
  vertex 0.00877694692 -0.00764593901 -0.00305548962
  vertex 0.0100906901 0.00421809684 -0.0181235801
  endloop
 endfacet

 facet normal 0 0 0
  outer loop
  vertex 0.00572688645 -0.00903819315 -0.00255103945
  vertex 0.00877694692 -0.00764593901 -0.00305548962
  vertex 0.00739119807 0.00796827581 0.046192307
  endloop
 endfacet

 facet normal 0 0 0
  outer loop
  vertex 0.00572688645 -0.00903819315 -0.00255103945
  vertex 0.00739119807 0.00796827581 0.046192307
  vertex 0.00319990492 0.00651842821 0.0474330634
  endloop
 endfacet

 facet normal 0 0 0
  outer loop
  vertex 0.00572688645 -0.00903819315 -0.00255103945
  vertex 0.00319990492 0.00651842821 0.0474330634
  vertex -0.00320009119 0.00594026782 0.0462746285
  endloop
 endfacet

 facet normal 0 0 0
  outer loop
  vertex 0.00572688645 -0.00903819315 -0.00255103945
  vertex -0.00320009119 0.00594026782 0.0462746285
  vertex -0.00572693907 -0.00903819501 -0.00255105458
  endloop
 endfacet

 facet normal 0 0 0
  outer loop
  vertex 0.00572688645 -0.00903819315 -0.00255103945
  vertex -0.00572693907 -0.00903819501 -0.00255105458
  vertex -0.0100537539 0.00421727449 -0.0181291737
  endloop
 endfacet

 facet normal 0 0 0
  outer loop
  vertex 0.00572688645 -0.00903819315 -0.00255103945
  vertex -0.0100537539 0.00421727449 -0.0181291737
  vertex 0.0100906901 0.00421809684 -0.0181235801
  endloop
 endfacet

 facet normal 0 0 0
  outer loop
  vertex 0.00572688645 -0.00903819315 -0.00255103945
  vertex 0.0100906901 0.00421809684 -0.0181235801
  vertex 0.00877694692 -0.00764593901 -0.00305548962
  endloop
 endfacet

 facet normal 0 0 0
  outer loop
  vertex -0.00320009445 0.00753090624 0.0482399762
  vertex -0.00766678387 0.00801725313 0.0462900028
  vertex -0.00320009119 0.00594026782 0.0462746285
  endloop
 endfacet

 facet normal 0 0 0
  outer loop
  vertex -0.00320009445 0.00753090624 0.0482399762
  vertex -0.00320009119 0.00594026782 0.0462746285
  vertex 0.00319990492 0.00651842821 0.0474330634
  endloop
 endfacet

 facet normal 0 0 0
  outer loop
  vertex -0.00320009445 0.00753090624 0.0482399762
  vertex 0.00319990492 0.00651842821 0.0474330634
  vertex -9.40483176e-08 0.00878913235 0.0485450961
  endloop
 endfacet

 facet normal 0 0 0
  outer loop
  vertex -0.00320009445 0.00753090624 0.0482399762
  vertex -9.40483176e-08 0.00878913235 0.0485450961
  vertex -0.00320009468 0.011103332 0.047526665
  endloop
 endfacet

 facet normal 0 0 0
  outer loop
  vertex -0.00320009445 0.00753090624 0.0482399762
  vertex -0.00320009468 0.011103332 0.047526665
  vertex -0.00669358065 0.010010317 0.0471749865
  endloop
 endfacet

 facet normal 0 0 0
  outer loop
  vertex -0.00320009445 0.00753090624 0.0482399762
  vertex -0.00669358065 0.010010317 0.0471749865
  vertex -0.00766678387 0.00801725313 0.0462900028
  endloop
 endfacet

 facet normal 0 0 0
  outer loop
  vertex -0.00823820755 0.0129852714 -0.013053338
  vertex -0.00858477596 0.0219675265 0.0359575152
  vertex -0.00510776136 0.0243000686 0.0356040075
  endloop
 endfacet

 facet normal 0 0 0
  outer loop
  vertex -0.00510776136 0.0243000686 0.0356040075
  vertex -0.00461851666 0.0142429853 -0.0163406096
  vertex -0.0076048281 0.0123043535 -0.0173906107
  endloop
 endfacet

 facet normal 0 0 0
  outer loop
  vertex -0.00510776136 0.0243000686 0.0356040075
  vertex -0.0076048281 0.0123043535 -0.0173906107
  vertex -0.00823820755 0.0129852714 -0.013053338
  endloop
 endfacet

 facet normal 0 0 0
  outer loop
  vertex -0.00823820755 0.0129852714 -0.013053338
  vertex -0.0104812765 0.0085735973 -0.0180871617
  vertex -0.00858477596 0.0219675265 0.0359575152
  endloop
 endfacet

 facet normal 0 0 0
  outer loop
  vertex 0.00601770822 0.0236920193 0.031883467
  vertex 0.00362707861 0.0244590864 0.0356230438
  vertex 0.00752543053 0.0228805356 0.0362710878
  endloop
 endfacet

 facet normal 0 0 0
  outer loop
  vertex 0.00601770822 0.0236920193 0.031883467
  vertex 0.00752543053 0.0228805356 0.0362710878
  vertex 0.00859676581 0.0218857732 0.0350986719
  endloop
 endfacet

 facet normal 0 0 0
  outer loop
  vertex 0.00601770822 0.0236920193 0.031883467
  vertex 0.00528487051 0.0140188104 -0.016458353
  vertex -0.000365136599 0.0168130863 -0.00995576289
  endloop
 endfacet

 facet normal 0 0 0
  outer loop
  vertex -0.000365136599 0.0168130863 -0.00995576289
  vertex -0.00263872696 0.0242597759 0.0308512393
  vertex 0.00362707861 0.0244590864 0.0356230438
  endloop
 endfacet

 facet normal 0 0 0
  outer loop
  vertex -0.000365136599 0.0168130863 -0.00995576289
  vertex 0.00362707861 0.0244590864 0.0356230438
  vertex 0.00601770822 0.0236920193 0.031883467
  endloop
 endfacet

 facet normal 0 0 0
  outer loop
  vertex 0.00924638659 0.0203798488 0.036949683
  vertex 0.00859676581 0.0218857732 0.0350986719
  vertex 0.00752543053 0.0228805356 0.0362710878
  endloop
 endfacet

 facet normal 0 0 0
  outer loop
  vertex 0.00924638659 0.0203798488 0.036949683
  vertex 0.00752543053 0.0228805356 0.0362710878
  vertex 0.00660641957 0.0100373281 0.0471554175
  endloop
 endfacet

 facet normal 0 0 0
  outer loop
  vertex 0.00924638659 0.0203798488 0.036949683
  vertex 0.00660641957 0.0100373281 0.0471554175
  vertex 0.00739119807 0.00796827581 0.046192307
  endloop
 endfacet

 facet normal 0 0 0
  outer loop
  vertex 0.00924638659 0.0203798488 0.036949683
  vertex 0.00739119807 0.00796827581 0.046192307
  vertex 0.00972333457 0.0151102059 0.0381711759
  endloop
 endfacet

 facet normal 0 0 0
  outer loop
  vertex 0.00924638659 0.0203798488 0.036949683
  vertex 0.00972333457 0.0151102059 0.0381711759
  vertex 0.010415094 0.00868258625 -0.0181863848
  endloop
 endfacet

 facet normal 0 0 0
  outer loop
  vertex 0.00924638659 0.0203798488 0.036949683
  vertex 0.010415094 0.00868258625 -0.0181863848
  vertex 0.00859676581 0.0218857732 0.0350986719
  endloop
 endfacet

 facet normal 0 0 0
  outer loop
  vertex -0.00320009468 0.011103332 0.047526665
  vertex -9.40483176e-08 0.00878913235 0.0485450961
  vertex 0.00660641957 0.0100373281 0.0471554175
  endloop
 endfacet

 facet normal 0 0 0
  outer loop
  vertex -0.00320009468 0.011103332 0.047526665
  vertex 0.00660641957 0.0100373281 0.0471554175
  vertex 0.00752543053 0.0228805356 0.0362710878
  endloop
 endfacet

 facet normal 0 0 0
  outer loop
  vertex -0.00320009468 0.011103332 0.047526665
  vertex 0.00752543053 0.0228805356 0.0362710878
  vertex 0.00362707861 0.0244590864 0.0356230438
  endloop
 endfacet

 facet normal 0 0 0
  outer loop
  vertex -0.00320009468 0.011103332 0.047526665
  vertex 0.00362707861 0.0244590864 0.0356230438
  vertex -0.00510776136 0.0243000686 0.0356040075
  endloop
 endfacet

 facet normal 0 0 0
  outer loop
  vertex -0.00320009468 0.011103332 0.047526665
  vertex -0.00510776136 0.0243000686 0.0356040075
  vertex -0.00669358065 0.010010317 0.0471749865
  endloop
 endfacet

 facet normal 0 0 0
  outer loop
  vertex 0.00823759008 0.0129876751 -0.0130452905
  vertex 0.00601770822 0.0236920193 0.031883467
  vertex 0.00859676581 0.0218857732 0.0350986719
  endloop
 endfacet

 facet normal 0 0 0
  outer loop
  vertex 0.00823759008 0.0129876751 -0.0130452905
  vertex 0.00859676581 0.0218857732 0.0350986719
  vertex 0.010415094 0.00868258625 -0.0181863848
  endloop
 endfacet

 facet normal 0 0 0
  outer loop
  vertex 0.00823759008 0.0129876751 -0.0130452905
  vertex 0.010415094 0.00868258625 -0.0181863848
  vertex 0.00528487051 0.0140188104 -0.016458353
  endloop
 endfacet

 facet normal 0 0 0
  outer loop
  vertex 0.00823759008 0.0129876751 -0.0130452905
  vertex 0.00528487051 0.0140188104 -0.016458353
  vertex 0.00601770822 0.0236920193 0.031883467
  endloop
 endfacet

 facet normal 0 0 0
  outer loop
  vertex 0.00660641911 0.0081519885 0.0474198237
  vertex 0.00660641957 0.0100373281 0.0471554175
  vertex -9.40483176e-08 0.00878913235 0.0485450961
  endloop
 endfacet

 facet normal 0 0 0
  outer loop
  vertex 0.00660641911 0.0081519885 0.0474198237
  vertex -9.40483176e-08 0.00878913235 0.0485450961
  vertex 0.00319990492 0.00651842821 0.0474330634
  endloop
 endfacet

 facet normal 0 0 0
  outer loop
  vertex 0.00660641911 0.0081519885 0.0474198237
  vertex 0.00319990492 0.00651842821 0.0474330634
  vertex 0.00739119807 0.00796827581 0.046192307
  endloop
 endfacet

 facet normal 0 0 0
  outer loop
  vertex 0.00660641911 0.0081519885 0.0474198237
  vertex 0.00739119807 0.00796827581 0.046192307
  vertex 0.00660641957 0.0100373281 0.0471554175
  endloop
 endfacet

 facet normal 0 0 0
  outer loop
  vertex -0.0076048281 0.0123043535 -0.0173906107
  vertex -0.0104812765 0.0085735973 -0.0180871617
  vertex -0.00823820755 0.0129852714 -0.013053338
  endloop
 endfacet

 facet normal 0 0 0
  outer loop
  vertex -0.0076048281 0.0123043535 -0.0173906107
  vertex -0.00461851666 0.0142429853 -0.0163406096
  vertex 0.00528487051 0.0140188104 -0.016458353
  endloop
 endfacet

 facet normal 0 0 0
  outer loop
  vertex 0.00528487051 0.0140188104 -0.016458353
  vertex 0.010415094 0.00868258625 -0.0181863848
  vertex -0.00440197065 0.00846051332 -0.0185350832
  endloop
 endfacet

 facet normal 0 0 0
  outer loop
  vertex 0.00528487051 0.0140188104 -0.016458353
  vertex -0.00440197065 0.00846051332 -0.0185350832
  vertex -0.0076048281 0.0123043535 -0.0173906107
  endloop
 endfacet

 facet normal 0 0 0
  outer loop
  vertex -0.0076048281 0.0123043535 -0.0173906107
  vertex -0.00440197065 0.00846051332 -0.0185350832
  vertex -0.0104812765 0.0085735973 -0.0180871617
  endloop
 endfacet

endsolid AssimpScene
