solid AssimpScene
 facet normal 0 0 0
  outer loop
  vertex 0.0115592554 0.0173395015 0.0184748024
  vertex 0.0115438392 0.0148866083 0.0195360631
  vertex 0.0111996997 0.00455472386 1.1556508e-09
  endloop
 endfacet

 facet normal 0 0 0
  outer loop
  vertex 0.0115592554 0.0173395015 0.0184748024
  vertex 0.0111996997 0.00455472386 1.1556508e-09
  vertex 0.0111996997 0.00455472386 -0.00599999866
  endloop
 endfacet

 facet normal 0 0 0
  outer loop
  vertex 0.0115592554 0.0173395015 0.0184748024
  vertex 0.0111996997 0.00455472386 -0.00599999866
  vertex 0.0115236277 0.0116712842 -0.0053346646
  endloop
 endfacet

 facet normal 0 0 0
  outer loop
  vertex 0.0115592554 0.0173395015 0.0184748024
  vertex 0.0115236277 0.0116712842 -0.0053346646
  vertex 0.0115971118 0.0233612359 0.00832301192
  endloop
 endfacet

 facet normal 0 0 0
  outer loop
  vertex -0.00588223152 0.0107939076 -0.00586269563
  vertex -0.00580254383 0.0234706122 0.00832301192
  vertex 0.0115971118 0.0233612359 0.00832301192
  endloop
 endfacet

 facet normal 0 0 0
  outer loop
  vertex -0.00588223152 0.0107939076 -0.00586269563
  vertex 0.0115971118 0.0233612359 0.00832301192
  vertex 0.0115236277 0.0116712842 -0.0053346646
  endloop
 endfacet

 facet normal 0 0 0
  outer loop
  vertex -0.007531757 -0.00160082197 -0.00600000052
  vertex -0.00580254383 0.0234706122 0.00832301192
  vertex -0.00588223152 0.0107939076 -0.00586269563
  endloop
 endfacet

 facet normal 0 0 0
  outer loop
  vertex -0.00584039697 0.0174488779 0.0184748024
  vertex -0.00580254383 0.0234706122 0.00832301192
  vertex -0.007531757 -0.00160082197 -0.00600000052
  endloop
 endfacet

 facet normal 0 0 0
  outer loop
  vertex -0.00584039697 0.0174488779 0.0184748024
  vertex -0.007531757 -0.00160082197 -0.00600000052
  vertex -0.00753175747 -0.00160082232 -2.91907665e-10
  endloop
 endfacet

 facet normal 0 0 0
  outer loop
  vertex -0.00584039697 0.0174488779 0.0184748024
  vertex -0.00753175747 -0.00160082232 -2.91907665e-10
  vertex -0.00586131634 0.0141210835 0.019224124
  endloop
 endfacet

 facet normal 0 0 0
  outer loop
  vertex -0.00584039697 0.0174488779 0.0184748024
  vertex -0.00586131634 0.0141210835 0.019224124
  vertex 0.0115438392 0.0148866083 0.0195360631
  endloop
 endfacet

 facet normal 0 0 0
  outer loop
  vertex -0.00486458978 -0.00596873183 -0.00600000145
  vertex -4.84018856e-05 -0.00769984722 -0.00600000098
  vertex -0.0017714171 -0.00749346893 8.99295638e-10
  endloop
 endfacet

 facet normal 0 0 0
  outer loop
  vertex 0.0115592554 0.0173395015 0.0184748024
  vertex 0.0115971118 0.0233612359 0.00832301192
  vertex -0.00580254383 0.0234706122 0.00832301192
  endloop
 endfacet

 facet normal 0 0 0
  outer loop
  vertex 0.0115592554 0.0173395015 0.0184748024
  vertex -0.00580254383 0.0234706122 0.00832301192
  vertex -0.00584039697 0.0174488779 0.0184748024
  endloop
 endfacet

 facet normal 0 0 0
  outer loop
  vertex 0.0115592554 0.0173395015 0.0184748024
  vertex -0.00584039697 0.0174488779 0.0184748024
  vertex 0.0115438392 0.0148866083 0.0195360631
  endloop
 endfacet

 facet normal 0 0 0
  outer loop
  vertex 0.0111996997 0.00455472386 1.1556508e-09
  vertex 0.0115438392 0.0148866083 0.0195360631
  vertex 0.00830292329 -0.0043511698 -1.26221222e-09
  endloop
 endfacet

 facet normal 0 0 0
  outer loop
  vertex 0.0111996997 0.00455472386 -0.00599999866
  vertex 0.0111996997 0.00455472386 1.1556508e-09
  vertex 0.00830292329 -0.0043511698 -1.26221222e-09
  endloop
 endfacet

 facet normal 0 0 0
  outer loop
  vertex 0.0111996997 0.00455472386 -0.00599999866
  vertex 0.00830292329 -0.0043511698 -1.26221222e-09
  vertex 0.00830292236 -0.00435116934 -0.00600000145
  endloop
 endfacet

 facet normal 0 0 0
  outer loop
  vertex 0.00830292236 -0.00435116934 -0.00600000145
  vertex -4.84018856e-05 -0.00769984722 -0.00600000098
  vertex -0.00486458978 -0.00596873183 -0.00600000145
  endloop
 endfacet

 facet normal 0 0 0
  outer loop
  vertex 0.00830292236 -0.00435116934 -0.00600000145
  vertex -0.00486458978 -0.00596873183 -0.00600000145
  vertex -0.007531757 -0.00160082197 -0.00600000052
  endloop
 endfacet

 facet normal 0 0 0
  outer loop
  vertex 0.00830292236 -0.00435116934 -0.00600000145
  vertex -0.007531757 -0.00160082197 -0.00600000052
  vertex -0.00588223152 0.0107939076 -0.00586269563
  endloop
 endfacet

 facet normal 0 0 0
  outer loop
  vertex 0.00830292236 -0.00435116934 -0.00600000145
  vertex -0.00588223152 0.0107939076 -0.00586269563
  vertex 0.0111996997 0.00455472386 -0.00599999866
  endloop
 endfacet

 facet normal 0 0 0
  outer loop
  vertex 0.0111996997 0.00455472386 -0.00599999866
  vertex -0.00588223152 0.0107939076 -0.00586269563
  vertex 0.0115236277 0.0116712842 -0.0053346646
  endloop
 endfacet

 facet normal 0 0 0
  outer loop
  vertex -0.00607764395 -0.00472781574 -1.86708191e-10
  vertex -0.00753175747 -0.00160082232 -2.91907665e-10
  vertex -0.007531757 -0.00160082197 -0.00600000052
  endloop
 endfacet

 facet normal 0 0 0
  outer loop
  vertex -0.00607764395 -0.00472781574 -1.86708191e-10
  vertex -0.007531757 -0.00160082197 -0.00600000052
  vertex -0.00486458978 -0.00596873183 -0.00600000145
  endloop
 endfacet

 facet normal 0 0 0
  outer loop
  vertex -0.00607764395 -0.00472781574 -1.86708191e-10
  vertex -0.00486458978 -0.00596873183 -0.00600000145
  vertex -0.0017714171 -0.00749346893 8.99295638e-10
  endloop
 endfacet

 facet normal 0 0 0
  outer loop
  vertex -0.00607764395 -0.00472781574 -1.86708191e-10
  vertex -0.0017714171 -0.00749346893 8.99295638e-10
  vertex -0.00586131634 0.0141210835 0.019224124
  endloop
 endfacet

 facet normal 0 0 0
  outer loop
  vertex -0.00607764395 -0.00472781574 -1.86708191e-10
  vertex -0.00586131634 0.0141210835 0.019224124
  vertex -0.00753175747 -0.00160082232 -2.91907665e-10
  endloop
 endfacet

 facet normal 0 0 0
  outer loop
  vertex 0.00156273635 -0.00753975101 -4.57589938e-10
  vertex 0.00830292329 -0.0043511698 -1.26221222e-09
  vertex 0.0115438392 0.0148866083 0.0195360631
  endloop
 endfacet

 facet normal 0 0 0
  outer loop
  vertex 0.0115438392 0.0148866083 0.0195360631
  vertex -0.00586131634 0.0141210835 0.019224124
  vertex -0.0017714171 -0.00749346893 8.99295638e-10
  endloop
 endfacet

 facet normal 0 0 0
  outer loop
  vertex 0.0115438392 0.0148866083 0.0195360631
  vertex -0.0017714171 -0.00749346893 8.99295638e-10
  vertex 0.00156273635 -0.00753975101 -4.57589938e-10
  endloop
 endfacet

 facet normal 0 0 0
  outer loop
  vertex 0.00156273635 -0.00753975101 -4.57589938e-10
  vertex -0.0017714171 -0.00749346893 8.99295638e-10
  vertex -4.84018856e-05 -0.00769984722 -0.00600000098
  endloop
 endfacet

 facet normal 0 0 0
  outer loop
  vertex 0.00156273635 -0.00753975101 -4.57589938e-10
  vertex -4.84018856e-05 -0.00769984722 -0.00600000098
  vertex 0.00830292236 -0.00435116934 -0.00600000145
  endloop
 endfacet

 facet normal 0 0 0
  outer loop
  vertex 0.00156273635 -0.00753975101 -4.57589938e-10
  vertex 0.00830292236 -0.00435116934 -0.00600000145
  vertex 0.00830292329 -0.0043511698 -1.26221222e-09
  endloop
 endfacet

endsolid AssimpScene
