solid AssimpScene
 facet normal 0 0 0
  outer loop
  vertex 0.00297840266 -0.00510113034 0.0283957552
  vertex -6.79962322e-05 -0.000926817127 0.0285748411
  vertex -0.00249999855 -0.00355206477 2.2420154e-06
  endloop
 endfacet

 facet normal 0 0 0
  outer loop
  vertex 0.00297840266 -0.00510113034 0.0283957552
  vertex -0.00249999855 -0.00355206477 2.2420154e-06
  vertex 0.000170330983 -0.00623064907 0.0051665213
  endloop
 endfacet

 facet normal 0 0 0
  outer loop
  vertex 0.0143173123 -0.00350721972 0.0459471084
  vertex 0.015499386 -0.00375619857 0.040471822
  vertex 0.0166251995 -0.000267943222 0.0448555611
  endloop
 endfacet

 facet normal 0 0 0
  outer loop
  vertex 0.00912247598 -0.00140022766 0.00189514144
  vertex 0.00338158151 -0.00678342581 0.0064574643
  vertex 0.00135412149 -0.00355206523 -0.00210151193
  endloop
 endfacet

 facet normal 0 0 0
  outer loop
  vertex 0.00214244239 0.0034111978 0.0312583372
  vertex 0.0113957375 0.00399940228 0.0449013077
  vertex 0.00497656129 0.00577581301 0.0285541825
  endloop
 endfacet

 facet normal 0 0 0
  outer loop
  vertex 0.0144407013 0.00293078739 0.0466606952
  vertex 0.0166251995 -0.000267943222 0.0448555611
  vertex 0.015358964 0.00404728809 0.0426289253
  endloop
 endfacet

 facet normal 0 0 0
  outer loop
  vertex 0.00135411997 0.00354953064 -0.00210150587
  vertex -0.000204281328 0.00244313828 -0.00249161338
  vertex -0.00227457634 0.00354952994 -0.00103744725
  endloop
 endfacet

 facet normal 0 0 0
  outer loop
  vertex 0.00135411997 0.00354953064 -0.00210150587
  vertex 0.00135412149 -0.00355206523 -0.00210151193
  vertex -0.000204281328 0.00244313828 -0.00249161338
  endloop
 endfacet

 facet normal 0 0 0
  outer loop
  vertex -0.000703467987 -0.00355206383 -0.00239898614
  vertex -0.000204281328 0.00244313828 -0.00249161338
  vertex 0.00135412149 -0.00355206523 -0.00210151193
  endloop
 endfacet

 facet normal 0 0 0
  outer loop
  vertex -0.000703467987 -0.00355206383 -0.00239898614
  vertex 0.00135412149 -0.00355206523 -0.00210151193
  vertex 0.00338158151 -0.00678342581 0.0064574643
  endloop
 endfacet

 facet normal 0 0 0
  outer loop
  vertex -0.000703467987 -0.00355206383 -0.00239898614
  vertex -0.00249999855 -0.00355206477 2.2420154e-06
  vertex -0.00227457634 0.00354952994 -0.00103744725
  endloop
 endfacet

 facet normal 0 0 0
  outer loop
  vertex -0.000703467987 -0.00355206383 -0.00239898614
  vertex -0.00227457634 0.00354952994 -0.00103744725
  vertex -0.000204281328 0.00244313828 -0.00249161338
  endloop
 endfacet

 facet normal 0 0 0
  outer loop
  vertex -0.00320967892 -6.06312256e-07 0.00512571167
  vertex -0.00201664213 0.00407923339 0.00541114481
  vertex -0.00227457634 0.00354952994 -0.00103744725
  endloop
 endfacet

 facet normal 0 0 0
  outer loop
  vertex -0.00320967892 -6.06312256e-07 0.00512571167
  vertex -0.00227457634 0.00354952994 -0.00103744725
  vertex -0.00249999855 -0.00355206477 2.2420154e-06
  endloop
 endfacet

 facet normal 0 0 0
  outer loop
  vertex -0.00320967892 -6.06312256e-07 0.00512571167
  vertex -0.00249999855 -0.00355206477 2.2420154e-06
  vertex -6.79962322e-05 -0.000926817127 0.0285748411
  endloop
 endfacet

 facet normal 0 0 0
  outer loop
  vertex 0.000170330983 -0.00623064907 0.0051665213
  vertex 0.00338158151 -0.00678342581 0.0064574643
  vertex 0.00297840266 -0.00510113034 0.0283957552
  endloop
 endfacet

 facet normal 0 0 0
  outer loop
  vertex 0.000170330983 -0.00623064907 0.0051665213
  vertex -0.00249999855 -0.00355206477 2.2420154e-06
  vertex -0.000703467987 -0.00355206383 -0.00239898614
  endloop
 endfacet

 facet normal 0 0 0
  outer loop
  vertex 0.000170330983 -0.00623064907 0.0051665213
  vertex -0.000703467987 -0.00355206383 -0.00239898614
  vertex 0.00338158151 -0.00678342581 0.0064574643
  endloop
 endfacet

 facet normal 0 0 0
  outer loop
  vertex 0.0120145818 -0.00245776516 0.0471286774
  vertex 0.0109100109 -0.00469442317 0.0426881202
  vertex 0.0143173123 -0.00350721972 0.0459471084
  endloop
 endfacet

 facet normal 0 0 0
  outer loop
  vertex 0.00750707276 0.00545406993 0.00961675029
  vertex 0.015358964 0.00404728809 0.0426289253
  vertex 0.00948206242 0.00139768852 0.00298526417
  endloop
 endfacet

 facet normal 0 0 0
  outer loop
  vertex 0.00752586545 -0.00544322841 0.00963328779
  vertex 0.00338158151 -0.00678342581 0.0064574643
  vertex 0.00912247598 -0.00140022766 0.00189514144
  endloop
 endfacet

 facet normal 0 0 0
  outer loop
  vertex 0.00752586545 -0.00544322841 0.00963328779
  vertex 0.00912247598 -0.00140022766 0.00189514144
  vertex 0.015499386 -0.00375619857 0.040471822
  endloop
 endfacet

 facet normal 0 0 0
  outer loop
  vertex 1.53724045e-07 0.00611971272 0.00455335574
  vertex 0.00338178524 0.00678197434 0.00645758677
  vertex 0.00135411997 0.00354953064 -0.00210150587
  endloop
 endfacet

 facet normal 0 0 0
  outer loop
  vertex 1.53724045e-07 0.00611971272 0.00455335574
  vertex 0.00135411997 0.00354953064 -0.00210150587
  vertex -0.00227457634 0.00354952994 -0.00103744725
  endloop
 endfacet

 facet normal 0 0 0
  outer loop
  vertex 1.53724045e-07 0.00611971272 0.00455335574
  vertex -0.00227457634 0.00354952994 -0.00103744725
  vertex -0.00201664213 0.00407923339 0.00541114481
  endloop
 endfacet

 facet normal 0 0 0
  outer loop
  vertex 1.53724045e-07 0.00611971272 0.00455335574
  vertex -0.00201664213 0.00407923339 0.00541114481
  vertex 0.00214244239 0.0034111978 0.0312583372
  endloop
 endfacet

 facet normal 0 0 0
  outer loop
  vertex 1.53724045e-07 0.00611971272 0.00455335574
  vertex 0.00214244239 0.0034111978 0.0312583372
  vertex 0.00497656129 0.00577581301 0.0285541825
  endloop
 endfacet

 facet normal 0 0 0
  outer loop
  vertex 1.53724045e-07 0.00611971272 0.00455335574
  vertex 0.00497656129 0.00577581301 0.0285541825
  vertex 0.00338178524 0.00678197434 0.00645758677
  endloop
 endfacet

 facet normal 0 0 0
  outer loop
  vertex 0.0145730898 -0.00105419813 0.0479346775
  vertex 0.0131078437 -1.19630693e-06 0.048261743
  vertex 0.0120145818 -0.00245776516 0.0471286774
  endloop
 endfacet

 facet normal 0 0 0
  outer loop
  vertex 0.0145730898 -0.00105419813 0.0479346775
  vertex 0.0120145818 -0.00245776516 0.0471286774
  vertex 0.0143173123 -0.00350721972 0.0459471084
  endloop
 endfacet

 facet normal 0 0 0
  outer loop
  vertex 0.0145730898 -0.00105419813 0.0479346775
  vertex 0.0143173123 -0.00350721972 0.0459471084
  vertex 0.0166251995 -0.000267943222 0.0448555611
  endloop
 endfacet

 facet normal 0 0 0
  outer loop
  vertex 0.0145730898 -0.00105419813 0.0479346775
  vertex 0.0166251995 -0.000267943222 0.0448555611
  vertex 0.0144407013 0.00293078739 0.0466606952
  endloop
 endfacet

 facet normal 0 0 0
  outer loop
  vertex 0.0145730898 -0.00105419813 0.0479346775
  vertex 0.0144407013 0.00293078739 0.0466606952
  vertex 0.0131078437 -1.19630693e-06 0.048261743
  endloop
 endfacet

 facet normal 0 0 0
  outer loop
  vertex 0.0164035782 0.0013104626 0.0395393632
  vertex 0.015358964 0.00404728809 0.0426289253
  vertex 0.0166251995 -0.000267943222 0.0448555611
  endloop
 endfacet

 facet normal 0 0 0
  outer loop
  vertex 0.0164035782 0.0013104626 0.0395393632
  vertex 0.0166251995 -0.000267943222 0.0448555611
  vertex 0.015499386 -0.00375619857 0.040471822
  endloop
 endfacet

 facet normal 0 0 0
  outer loop
  vertex 0.0164035782 0.0013104626 0.0395393632
  vertex 0.015499386 -0.00375619857 0.040471822
  vertex 0.00912247598 -0.00140022766 0.00189514144
  endloop
 endfacet

 facet normal 0 0 0
  outer loop
  vertex 0.0164035782 0.0013104626 0.0395393632
  vertex 0.00912247598 -0.00140022766 0.00189514144
  vertex 0.00948206242 0.00139768852 0.00298526417
  endloop
 endfacet

 facet normal 0 0 0
  outer loop
  vertex 0.0164035782 0.0013104626 0.0395393632
  vertex 0.00948206242 0.00139768852 0.00298526417
  vertex 0.015358964 0.00404728809 0.0426289253
  endloop
 endfacet

 facet normal 0 0 0
  outer loop
  vertex 0.0110030891 0.00163721968 0.0467669144
  vertex 0.0113957375 0.00399940228 0.0449013077
  vertex 0.00214244239 0.0034111978 0.0312583372
  endloop
 endfacet

 facet normal 0 0 0
  outer loop
  vertex 0.0110030891 0.00163721968 0.0467669144
  vertex 0.00982283521 -0.00149977405 0.0452874638
  vertex 0.0120145818 -0.00245776516 0.0471286774
  endloop
 endfacet

 facet normal 0 0 0
  outer loop
  vertex 0.0110030891 0.00163721968 0.0467669144
  vertex 0.0120145818 -0.00245776516 0.0471286774
  vertex 0.0131078437 -1.19630693e-06 0.048261743
  endloop
 endfacet

 facet normal 0 0 0
  outer loop
  vertex 0.0110030891 0.00163721968 0.0467669144
  vertex 0.0131078437 -1.19630693e-06 0.048261743
  vertex 0.0144407013 0.00293078739 0.0466606952
  endloop
 endfacet

 facet normal 0 0 0
  outer loop
  vertex 0.0110030891 0.00163721968 0.0467669144
  vertex 0.0144407013 0.00293078739 0.0466606952
  vertex 0.0113957375 0.00399940228 0.0449013077
  endloop
 endfacet

 facet normal 0 0 0
  outer loop
  vertex 0.0124248052 0.00530399429 0.0402583294
  vertex 0.00497656129 0.00577581301 0.0285541825
  vertex 0.0113957375 0.00399940228 0.0449013077
  endloop
 endfacet

 facet normal 0 0 0
  outer loop
  vertex 0.0113957375 0.00399940228 0.0449013077
  vertex 0.0144407013 0.00293078739 0.0466606952
  vertex 0.015358964 0.00404728809 0.0426289253
  endloop
 endfacet

 facet normal 0 0 0
  outer loop
  vertex 0.0113957375 0.00399940228 0.0449013077
  vertex 0.015358964 0.00404728809 0.0426289253
  vertex 0.0124248052 0.00530399429 0.0402583294
  endloop
 endfacet

 facet normal 0 0 0
  outer loop
  vertex 0.0124248052 0.00530399429 0.0402583294
  vertex 0.015358964 0.00404728809 0.0426289253
  vertex 0.00750707276 0.00545406993 0.00961675029
  endloop
 endfacet

 facet normal 0 0 0
  outer loop
  vertex 0.0124248052 0.00530399429 0.0402583294
  vertex 0.00750707276 0.00545406993 0.00961675029
  vertex 0.00338178524 0.00678197434 0.00645758677
  endloop
 endfacet

 facet normal 0 0 0
  outer loop
  vertex 0.0124248052 0.00530399429 0.0402583294
  vertex 0.00338178524 0.00678197434 0.00645758677
  vertex 0.00497656129 0.00577581301 0.0285541825
  endloop
 endfacet

 facet normal 0 0 0
  outer loop
  vertex 0.00282626227 -0.00333456672 0.0326225311
  vertex 0.00297840266 -0.00510113034 0.0283957552
  vertex 0.0109100109 -0.00469442317 0.0426881202
  endloop
 endfacet

 facet normal 0 0 0
  outer loop
  vertex 0.00282626227 -0.00333456672 0.0326225311
  vertex 0.0109100109 -0.00469442317 0.0426881202
  vertex 0.0120145818 -0.00245776516 0.0471286774
  endloop
 endfacet

 facet normal 0 0 0
  outer loop
  vertex 0.00282626227 -0.00333456672 0.0326225311
  vertex 0.0120145818 -0.00245776516 0.0471286774
  vertex 0.00982283521 -0.00149977405 0.0452874638
  endloop
 endfacet

 facet normal 0 0 0
  outer loop
  vertex 0.00282626227 -0.00333456672 0.0326225311
  vertex -6.79962322e-05 -0.000926817127 0.0285748411
  vertex 0.00297840266 -0.00510113034 0.0283957552
  endloop
 endfacet

 facet normal 0 0 0
  outer loop
  vertex 0.0121949613 -0.00536368648 0.0397025384
  vertex 0.015499386 -0.00375619857 0.040471822
  vertex 0.0143173123 -0.00350721972 0.0459471084
  endloop
 endfacet

 facet normal 0 0 0
  outer loop
  vertex 0.0121949613 -0.00536368648 0.0397025384
  vertex 0.0143173123 -0.00350721972 0.0459471084
  vertex 0.0109100109 -0.00469442317 0.0426881202
  endloop
 endfacet

 facet normal 0 0 0
  outer loop
  vertex 0.0121949613 -0.00536368648 0.0397025384
  vertex 0.0109100109 -0.00469442317 0.0426881202
  vertex 0.00297840266 -0.00510113034 0.0283957552
  endloop
 endfacet

 facet normal 0 0 0
  outer loop
  vertex 0.0121949613 -0.00536368648 0.0397025384
  vertex 0.00297840266 -0.00510113034 0.0283957552
  vertex 0.00338158151 -0.00678342581 0.0064574643
  endloop
 endfacet

 facet normal 0 0 0
  outer loop
  vertex 0.0121949613 -0.00536368648 0.0397025384
  vertex 0.00338158151 -0.00678342581 0.0064574643
  vertex 0.00752586545 -0.00544322841 0.00963328779
  endloop
 endfacet

 facet normal 0 0 0
  outer loop
  vertex 0.0121949613 -0.00536368648 0.0397025384
  vertex 0.00752586545 -0.00544322841 0.00963328779
  vertex 0.015499386 -0.00375619857 0.040471822
  endloop
 endfacet

 facet normal 0 0 0
  outer loop
  vertex 0.00831362419 0.00139768841 0.00108063291
  vertex 0.00912247598 -0.00140022766 0.00189514144
  vertex 0.00135412149 -0.00355206523 -0.00210151193
  endloop
 endfacet

 facet normal 0 0 0
  outer loop
  vertex 0.00831362419 0.00139768841 0.00108063291
  vertex 0.00135412149 -0.00355206523 -0.00210151193
  vertex 0.00135411997 0.00354953064 -0.00210150587
  endloop
 endfacet

 facet normal 0 0 0
  outer loop
  vertex 0.00831362419 0.00139768841 0.00108063291
  vertex 0.00135411997 0.00354953064 -0.00210150587
  vertex 0.00338178524 0.00678197434 0.00645758677
  endloop
 endfacet

 facet normal 0 0 0
  outer loop
  vertex 0.00338178524 0.00678197434 0.00645758677
  vertex 0.00750707276 0.00545406993 0.00961675029
  vertex 0.00948206242 0.00139768852 0.00298526417
  endloop
 endfacet

 facet normal 0 0 0
  outer loop
  vertex 0.00338178524 0.00678197434 0.00645758677
  vertex 0.00948206242 0.00139768852 0.00298526417
  vertex 0.00831362419 0.00139768841 0.00108063291
  endloop
 endfacet

 facet normal 0 0 0
  outer loop
  vertex 0.00831362419 0.00139768841 0.00108063291
  vertex 0.00948206242 0.00139768852 0.00298526417
  vertex 0.00912247598 -0.00140022766 0.00189514144
  endloop
 endfacet

 facet normal 0 0 0
  outer loop
  vertex -0.000218012719 0.00183483795 0.0265027322
  vertex 0.00214244239 0.0034111978 0.0312583372
  vertex -0.00201664213 0.00407923339 0.00541114481
  endloop
 endfacet

 facet normal 0 0 0
  outer loop
  vertex -0.000218012719 0.00183483795 0.0265027322
  vertex -0.00201664213 0.00407923339 0.00541114481
  vertex -0.00320967892 -6.06312256e-07 0.00512571167
  endloop
 endfacet

 facet normal 0 0 0
  outer loop
  vertex -0.000218012719 0.00183483795 0.0265027322
  vertex -0.00320967892 -6.06312256e-07 0.00512571167
  vertex -6.79962322e-05 -0.000926817127 0.0285748411
  endloop
 endfacet

 facet normal 0 0 0
  outer loop
  vertex 0.00137835136 0.000889244606 0.0321770757
  vertex -6.79962322e-05 -0.000926817127 0.0285748411
  vertex 0.00282626227 -0.00333456672 0.0326225311
  endloop
 endfacet

 facet normal 0 0 0
  outer loop
  vertex 0.00137835136 0.000889244606 0.0321770757
  vertex 0.00282626227 -0.00333456672 0.0326225311
  vertex 0.00982283521 -0.00149977405 0.0452874638
  endloop
 endfacet

 facet normal 0 0 0
  outer loop
  vertex 0.00137835136 0.000889244606 0.0321770757
  vertex 0.00982283521 -0.00149977405 0.0452874638
  vertex 0.0110030891 0.00163721968 0.0467669144
  endloop
 endfacet

 facet normal 0 0 0
  outer loop
  vertex 0.00137835136 0.000889244606 0.0321770757
  vertex 0.0110030891 0.00163721968 0.0467669144
  vertex 0.00214244239 0.0034111978 0.0312583372
  endloop
 endfacet

 facet normal 0 0 0
  outer loop
  vertex 0.00137835136 0.000889244606 0.0321770757
  vertex 0.00214244239 0.0034111978 0.0312583372
  vertex -0.000218012719 0.00183483795 0.0265027322
  endloop
 endfacet

 facet normal 0 0 0
  outer loop
  vertex 0.00137835136 0.000889244606 0.0321770757
  vertex -0.000218012719 0.00183483795 0.0265027322
  vertex -6.79962322e-05 -0.000926817127 0.0285748411
  endloop
 endfacet

endsolid AssimpScene
