solid AssimpScene
 facet normal 0 0 0
  outer loop
  vertex 0.00224543689 -0.00667474326 0.00543544395
  vertex 0.00627552206 -0.00606283545 0.00800005347
  vertex 0.0126223536 -0.00405000569 0.0279965606
  endloop
 endfacet

 facet normal 0 0 0
  outer loop
  vertex 0.00224543689 -0.00667474326 0.00543544395
  vertex 0.0126223536 -0.00405000569 0.0279965606
  vertex 0.00979086477 -0.0043844115 0.0294798072
  endloop
 endfacet

 facet normal 0 0 0
  outer loop
  vertex 0.00844366942 0.00406544795 0.0289720111
  vertex 0.0126966322 0.00400797045 0.0280338358
  vertex 0.00241999142 0.00670636678 0.00566138141
  endloop
 endfacet

 facet normal 0 0 0
  outer loop
  vertex 0.00848072208 -0.00139805896 0.000950030633
  vertex 0.0094200233 0.00139768037 0.00261701993
  vertex 0.0142744929 -0.00166919769 0.0275043324
  endloop
 endfacet

 facet normal 0 0 0
  outer loop
  vertex 0.00213922956 0.00420420105 0.0192023236
  vertex 0.00844366942 0.00406544795 0.0289720111
  vertex 0.00241999142 0.00670636678 0.00566138141
  endloop
 endfacet

 facet normal 0 0 0
  outer loop
  vertex 0.00258430443 -0.00413351553 0.0203508232
  vertex 0.000295989827 4.06499368e-08 0.0194565579
  vertex -0.000543384813 -0.00548704853 0.00598335685
  endloop
 endfacet

 facet normal 0 0 0
  outer loop
  vertex 0.0138321314 0.000484979973 0.0317507833
  vertex 0.0112821758 -2.95996827e-08 0.0336509347
  vertex 0.0132744089 -0.0026361146 0.0310368389
  endloop
 endfacet

 facet normal 0 0 0
  outer loop
  vertex 0.0138321314 0.000484979973 0.0317507833
  vertex 0.0132744089 -0.0026361146 0.0310368389
  vertex 0.0142744929 -0.00166919769 0.0275043324
  endloop
 endfacet

 facet normal 0 0 0
  outer loop
  vertex 0.0108748525 0.00319275679 0.032048814
  vertex 0.0126966322 0.00400797045 0.0280338358
  vertex 0.00844366942 0.00406544795 0.0289720111
  endloop
 endfacet

 facet normal 0 0 0
  outer loop
  vertex -0.00307381176 6.1600651e-05 0.0053685857
  vertex -0.00245503918 0.00355015765 -0.000470907486
  vertex -0.00245517772 -0.00355031923 -0.000470512168
  endloop
 endfacet

 facet normal 0 0 0
  outer loop
  vertex -0.00307381176 6.1600651e-05 0.0053685857
  vertex -0.00245517772 -0.00355031923 -0.000470512168
  vertex -0.000543384813 -0.00548704853 0.00598335685
  endloop
 endfacet

 facet normal 0 0 0
  outer loop
  vertex -0.00307381176 6.1600651e-05 0.0053685857
  vertex -0.000543384813 -0.00548704853 0.00598335685
  vertex 0.000295989827 4.06499368e-08 0.0194565579
  endloop
 endfacet

 facet normal 0 0 0
  outer loop
  vertex 0.00224543689 -0.00667474326 0.00543544395
  vertex -0.000543384813 -0.00548704853 0.00598335685
  vertex -0.00245517772 -0.00355031923 -0.000470512168
  endloop
 endfacet

 facet normal 0 0 0
  outer loop
  vertex 0.00224543689 -0.00667474326 0.00543544395
  vertex 0.00979086477 -0.0043844115 0.0294798072
  vertex 0.00258430443 -0.00413351553 0.0203508232
  endloop
 endfacet

 facet normal 0 0 0
  outer loop
  vertex 0.00224543689 -0.00667474326 0.00543544395
  vertex 0.00258430443 -0.00413351553 0.0203508232
  vertex -0.000543384813 -0.00548704853 0.00598335685
  endloop
 endfacet

 facet normal 0 0 0
  outer loop
  vertex 0.00709757674 0.00566327432 0.00861815829
  vertex 0.00241999142 0.00670636678 0.00566138141
  vertex 0.0126966322 0.00400797045 0.0280338358
  endloop
 endfacet

 facet normal 0 0 0
  outer loop
  vertex 0.00709757674 0.00566327432 0.00861815829
  vertex 0.0126966322 0.00400797045 0.0280338358
  vertex 0.0094200233 0.00139768037 0.00261701993
  endloop
 endfacet

 facet normal 0 0 0
  outer loop
  vertex 0.00809534173 -0.00217119791 0.0305320118
  vertex 0.000295989827 4.06499368e-08 0.0194565579
  vertex 0.00258430443 -0.00413351553 0.0203508232
  endloop
 endfacet

 facet normal 0 0 0
  outer loop
  vertex 0.00809534173 -0.00217119791 0.0305320118
  vertex 0.00258430443 -0.00413351553 0.0203508232
  vertex 0.00979086477 -0.0043844115 0.0294798072
  endloop
 endfacet

 facet normal 0 0 0
  outer loop
  vertex 0.00848072208 -0.00139805896 0.000950030633
  vertex 0.00627552206 -0.00606283545 0.00800005347
  vertex 0.00224543689 -0.00667474326 0.00543544395
  endloop
 endfacet

 facet normal 0 0 0
  outer loop
  vertex 0.00848072208 -0.00139805896 0.000950030633
  vertex 0.00224543689 -0.00667474326 0.00543544395
  vertex 0.00133181794 -0.00355037488 -0.00211566477
  endloop
 endfacet

 facet normal 0 0 0
  outer loop
  vertex 0.00133181794 -0.00355037488 -0.00211566477
  vertex -1.82413385e-06 -0.00244273827 -0.00249994779
  vertex 0.000430950633 0.00355013204 -0.00246251537
  endloop
 endfacet

 facet normal 0 0 0
  outer loop
  vertex 0.0110051148 -0.00285759475 0.0324105024
  vertex 0.0132744089 -0.0026361146 0.0310368389
  vertex 0.0112821758 -2.95996827e-08 0.0336509347
  endloop
 endfacet

 facet normal 0 0 0
  outer loop
  vertex 0.0110051148 -0.00285759475 0.0324105024
  vertex 0.0112821758 -2.95996827e-08 0.0336509347
  vertex 0.00809534173 -0.00217119791 0.0305320118
  endloop
 endfacet

 facet normal 0 0 0
  outer loop
  vertex 0.0110051148 -0.00285759475 0.0324105024
  vertex 0.00809534173 -0.00217119791 0.0305320118
  vertex 0.00979086477 -0.0043844115 0.0294798072
  endloop
 endfacet

 facet normal 0 0 0
  outer loop
  vertex -0.000543241273 0.0054869391 0.0059833182
  vertex -0.00245503918 0.00355015765 -0.000470907486
  vertex -0.00307381176 6.1600651e-05 0.0053685857
  endloop
 endfacet

 facet normal 0 0 0
  outer loop
  vertex -0.00307381176 6.1600651e-05 0.0053685857
  vertex 0.000295989827 4.06499368e-08 0.0194565579
  vertex 0.00213922956 0.00420420105 0.0192023236
  endloop
 endfacet

 facet normal 0 0 0
  outer loop
  vertex -0.00307381176 6.1600651e-05 0.0053685857
  vertex 0.00213922956 0.00420420105 0.0192023236
  vertex -0.000543241273 0.0054869391 0.0059833182
  endloop
 endfacet

 facet normal 0 0 0
  outer loop
  vertex -0.000543241273 0.0054869391 0.0059833182
  vertex 0.00213922956 0.00420420105 0.0192023236
  vertex 0.00241999142 0.00670636678 0.00566138141
  endloop
 endfacet

 facet normal 0 0 0
  outer loop
  vertex -0.000543241273 0.0054869391 0.0059833182
  vertex 0.00241999142 0.00670636678 0.00566138141
  vertex -0.00245503918 0.00355015765 -0.000470907486
  endloop
 endfacet

 facet normal 0 0 0
  outer loop
  vertex 0.014103137 0.00120419986 0.0251988582
  vertex 0.0138321314 0.000484979973 0.0317507833
  vertex 0.0142744929 -0.00166919769 0.0275043324
  endloop
 endfacet

 facet normal 0 0 0
  outer loop
  vertex 0.014103137 0.00120419986 0.0251988582
  vertex 0.0142744929 -0.00166919769 0.0275043324
  vertex 0.0094200233 0.00139768037 0.00261701993
  endloop
 endfacet

 facet normal 0 0 0
  outer loop
  vertex 0.014103137 0.00120419986 0.0251988582
  vertex 0.0094200233 0.00139768037 0.00261701993
  vertex 0.0126966322 0.00400797045 0.0280338358
  endloop
 endfacet

 facet normal 0 0 0
  outer loop
  vertex 0.0126223536 -0.00405000569 0.0279965606
  vertex 0.00627552206 -0.00606283545 0.00800005347
  vertex 0.00848072208 -0.00139805896 0.000950030633
  endloop
 endfacet

 facet normal 0 0 0
  outer loop
  vertex 0.0126223536 -0.00405000569 0.0279965606
  vertex 0.00848072208 -0.00139805896 0.000950030633
  vertex 0.0142744929 -0.00166919769 0.0275043324
  endloop
 endfacet

 facet normal 0 0 0
  outer loop
  vertex 0.0126223536 -0.00405000569 0.0279965606
  vertex 0.0142744929 -0.00166919769 0.0275043324
  vertex 0.0132744089 -0.0026361146 0.0310368389
  endloop
 endfacet

 facet normal 0 0 0
  outer loop
  vertex 0.0126223536 -0.00405000569 0.0279965606
  vertex 0.0132744089 -0.0026361146 0.0310368389
  vertex 0.0110051148 -0.00285759475 0.0324105024
  endloop
 endfacet

 facet normal 0 0 0
  outer loop
  vertex 0.0126223536 -0.00405000569 0.0279965606
  vertex 0.0110051148 -0.00285759475 0.0324105024
  vertex 0.00979086477 -0.0043844115 0.0294798072
  endloop
 endfacet

 facet normal 0 0 0
  outer loop
  vertex 0.00888068788 0.00128543563 0.0319116265
  vertex 0.00844366942 0.00406544795 0.0289720111
  vertex 0.00213922956 0.00420420105 0.0192023236
  endloop
 endfacet

 facet normal 0 0 0
  outer loop
  vertex 0.00888068788 0.00128543563 0.0319116265
  vertex 0.00213922956 0.00420420105 0.0192023236
  vertex 0.000295989827 4.06499368e-08 0.0194565579
  endloop
 endfacet

 facet normal 0 0 0
  outer loop
  vertex 0.00888068788 0.00128543563 0.0319116265
  vertex 0.000295989827 4.06499368e-08 0.0194565579
  vertex 0.00809534173 -0.00217119791 0.0305320118
  endloop
 endfacet

 facet normal 0 0 0
  outer loop
  vertex 0.00888068788 0.00128543563 0.0319116265
  vertex 0.00809534173 -0.00217119791 0.0305320118
  vertex 0.0112821758 -2.95996827e-08 0.0336509347
  endloop
 endfacet

 facet normal 0 0 0
  outer loop
  vertex 0.00888068788 0.00128543563 0.0319116265
  vertex 0.0112821758 -2.95996827e-08 0.0336509347
  vertex 0.0108748525 0.00319275679 0.032048814
  endloop
 endfacet

 facet normal 0 0 0
  outer loop
  vertex 0.00888068788 0.00128543563 0.0319116265
  vertex 0.0108748525 0.00319275679 0.032048814
  vertex 0.00844366942 0.00406544795 0.0289720111
  endloop
 endfacet

 facet normal 0 0 0
  outer loop
  vertex 0.00846214034 0.0013976976 0.000935557531
  vertex 0.0094200233 0.00139768037 0.00261701993
  vertex 0.00848072208 -0.00139805896 0.000950030633
  endloop
 endfacet

 facet normal 0 0 0
  outer loop
  vertex 0.00846214034 0.0013976976 0.000935557531
  vertex 0.00848072208 -0.00139805896 0.000950030633
  vertex 0.00133181794 -0.00355037488 -0.00211566477
  endloop
 endfacet

 facet normal 0 0 0
  outer loop
  vertex 0.00846214034 0.0013976976 0.000935557531
  vertex 0.00133181794 -0.00355037488 -0.00211566477
  vertex 0.000430950633 0.00355013204 -0.00246251537
  endloop
 endfacet

 facet normal 0 0 0
  outer loop
  vertex 0.000430950633 0.00355013204 -0.00246251537
  vertex 0.00241999142 0.00670636678 0.00566138141
  vertex 0.00709757674 0.00566327432 0.00861815829
  endloop
 endfacet

 facet normal 0 0 0
  outer loop
  vertex 0.000430950633 0.00355013204 -0.00246251537
  vertex 0.00709757674 0.00566327432 0.00861815829
  vertex 0.00846214034 0.0013976976 0.000935557531
  endloop
 endfacet

 facet normal 0 0 0
  outer loop
  vertex 0.00846214034 0.0013976976 0.000935557531
  vertex 0.00709757674 0.00566327432 0.00861815829
  vertex 0.0094200233 0.00139768037 0.00261701993
  endloop
 endfacet

 facet normal 0 0 0
  outer loop
  vertex -0.00142001431 -0.00355035532 -0.00205734815
  vertex -1.82413385e-06 -0.00244273827 -0.00249994779
  vertex 0.00133181794 -0.00355037488 -0.00211566477
  endloop
 endfacet

 facet normal 0 0 0
  outer loop
  vertex -0.00142001431 -0.00355035532 -0.00205734815
  vertex 0.00133181794 -0.00355037488 -0.00211566477
  vertex 0.00224543689 -0.00667474326 0.00543544395
  endloop
 endfacet

 facet normal 0 0 0
  outer loop
  vertex -0.00142001431 -0.00355035532 -0.00205734815
  vertex 0.00224543689 -0.00667474326 0.00543544395
  vertex -0.00245517772 -0.00355031923 -0.000470512168
  endloop
 endfacet

 facet normal 0 0 0
  outer loop
  vertex 0.0132286344 0.00271585933 0.0309825838
  vertex 0.0126966322 0.00400797045 0.0280338358
  vertex 0.0108748525 0.00319275679 0.032048814
  endloop
 endfacet

 facet normal 0 0 0
  outer loop
  vertex 0.0132286344 0.00271585933 0.0309825838
  vertex 0.0108748525 0.00319275679 0.032048814
  vertex 0.0112821758 -2.95996827e-08 0.0336509347
  endloop
 endfacet

 facet normal 0 0 0
  outer loop
  vertex 0.0132286344 0.00271585933 0.0309825838
  vertex 0.0112821758 -2.95996827e-08 0.0336509347
  vertex 0.0138321314 0.000484979973 0.0317507833
  endloop
 endfacet

 facet normal 0 0 0
  outer loop
  vertex 0.0132286344 0.00271585933 0.0309825838
  vertex 0.0138321314 0.000484979973 0.0317507833
  vertex 0.014103137 0.00120419986 0.0251988582
  endloop
 endfacet

 facet normal 0 0 0
  outer loop
  vertex 0.0132286344 0.00271585933 0.0309825838
  vertex 0.014103137 0.00120419986 0.0251988582
  vertex 0.0126966322 0.00400797045 0.0280338358
  endloop
 endfacet

 facet normal 0 0 0
  outer loop
  vertex -0.00141975621 0.0035501516 -0.00205751834
  vertex 0.000430950633 0.00355013204 -0.00246251537
  vertex -1.82413385e-06 -0.00244273827 -0.00249994779
  endloop
 endfacet

 facet normal 0 0 0
  outer loop
  vertex -0.00141975621 0.0035501516 -0.00205751834
  vertex -1.82413385e-06 -0.00244273827 -0.00249994779
  vertex -0.00142001431 -0.00355035532 -0.00205734815
  endloop
 endfacet

 facet normal 0 0 0
  outer loop
  vertex -0.00141975621 0.0035501516 -0.00205751834
  vertex -0.00142001431 -0.00355035532 -0.00205734815
  vertex -0.00245517772 -0.00355031923 -0.000470512168
  endloop
 endfacet

 facet normal 0 0 0
  outer loop
  vertex -0.00141975621 0.0035501516 -0.00205751834
  vertex -0.00245517772 -0.00355031923 -0.000470512168
  vertex -0.00245503918 0.00355015765 -0.000470907486
  endloop
 endfacet

 facet normal 0 0 0
  outer loop
  vertex -0.00141975621 0.0035501516 -0.00205751834
  vertex -0.00245503918 0.00355015765 -0.000470907486
  vertex 0.00241999142 0.00670636678 0.00566138141
  endloop
 endfacet

 facet normal 0 0 0
  outer loop
  vertex -0.00141975621 0.0035501516 -0.00205751834
  vertex 0.00241999142 0.00670636678 0.00566138141
  vertex 0.000430950633 0.00355013204 -0.00246251537
  endloop
 endfacet

endsolid AssimpScene
