solid AssimpScene
 facet normal 0 0 0
  outer loop
  vertex 0.00170662673 0.00700000348 0.0369627364
  vertex 0.00800166931 0.00562961772 0.0242972448
  vertex 0.0121046603 0.00482739415 0.00917143654
  endloop
 endfacet

 facet normal 0 0 0
  outer loop
  vertex 0.00170662673 0.00700000348 0.0369627364
  vertex 0.0121046603 0.00482739415 0.00917143654
  vertex 0.000757631264 0.0075659845 0.00380995194
  endloop
 endfacet

 facet normal 0 0 0
  outer loop
  vertex 0.00170662673 0.00700000348 0.0369627364
  vertex -0.000211157138 0.00410100259 0.0384109765
  vertex 0.00226290687 -0.00599994557 0.0369824097
  endloop
 endfacet

 facet normal 0 0 0
  outer loop
  vertex 0.00170662673 0.00700000348 0.0369627364
  vertex 0.00226290687 -0.00599994557 0.0369824097
  vertex 0.0101600653 0.00249131396 0.0221335851
  endloop
 endfacet

 facet normal 0 0 0
  outer loop
  vertex -0.00195275224 0.00700000348 -0.000432152126
  vertex -0.00362314959 0.0033539962 0.0106987888
  vertex -0.00198726682 0.00700000348 0.0361452587
  endloop
 endfacet

 facet normal 0 0 0
  outer loop
  vertex -0.00195275224 0.00700000348 -0.000432152126
  vertex -0.00198726682 0.00700000348 0.0361452587
  vertex 0.000757631264 0.0075659845 0.00380995194
  endloop
 endfacet

 facet normal 0 0 0
  outer loop
  vertex 0.00159460341 -0.00599995349 -0.00192541862
  vertex 0.0121046603 0.00482739415 0.00917143654
  vertex 0.0123553723 -0.00455185864 0.00966525078
  endloop
 endfacet

 facet normal 0 0 0
  outer loop
  vertex 0.00142983906 0.00700000348 -0.00139841402
  vertex 0.000757631264 0.0075659845 0.00380995194
  vertex 0.0121046603 0.00482739415 0.00917143654
  endloop
 endfacet

 facet normal 0 0 0
  outer loop
  vertex 0.00142983906 0.00700000348 -0.00139841402
  vertex 0.0121046603 0.00482739415 0.00917143654
  vertex 0.00159460341 -0.00599995349 -0.00192541862
  endloop
 endfacet

 facet normal 0 0 0
  outer loop
  vertex 0.00142983906 0.00700000348 -0.00139841402
  vertex 0.00159460341 -0.00599995349 -0.00192541862
  vertex -0.000174725865 0.00404561264 -0.00249408023
  endloop
 endfacet

 facet normal 0 0 0
  outer loop
  vertex -0.000261654379 -0.00600005034 0.0384059772
  vertex 0.00100461836 -0.00699999696 0.0376493149
  vertex 0.00226290687 -0.00599994557 0.0369824097
  endloop
 endfacet

 facet normal 0 0 0
  outer loop
  vertex -0.000261654379 -0.00600005034 0.0384059772
  vertex 0.00226290687 -0.00599994557 0.0369824097
  vertex -0.000211157138 0.00410100259 0.0384109765
  endloop
 endfacet

 facet normal 0 0 0
  outer loop
  vertex 0.00972826965 -0.00345685426 0.022619769
  vertex 0.0101600653 0.00249131396 0.0221335851
  vertex 0.00226290687 -0.00599994557 0.0369824097
  endloop
 endfacet

 facet normal 0 0 0
  outer loop
  vertex -0.00366835017 3.75976654e-08 0.0319394432
  vertex -0.00198726682 0.00700000348 0.0361452587
  vertex -0.00362314959 0.0033539962 0.0106987888
  endloop
 endfacet

 facet normal 0 0 0
  outer loop
  vertex -0.000269420736 0.00700000394 0.0379017107
  vertex -0.000211157138 0.00410100259 0.0384109765
  vertex 0.00170662673 0.00700000348 0.0369627364
  endloop
 endfacet

 facet normal 0 0 0
  outer loop
  vertex 0.00170662673 0.00700000348 0.0369627364
  vertex 0.000757631264 0.0075659845 0.00380995194
  vertex -0.00198726682 0.00700000348 0.0361452587
  endloop
 endfacet

 facet normal 0 0 0
  outer loop
  vertex 0.00170662673 0.00700000348 0.0369627364
  vertex -0.00198726682 0.00700000348 0.0361452587
  vertex -0.000269420736 0.00700000394 0.0379017107
  endloop
 endfacet

 facet normal 0 0 0
  outer loop
  vertex -0.00362333516 -0.00335345929 0.0107002305
  vertex -0.00199724943 -0.00699999696 0.0358150899
  vertex -0.00366835017 3.75976654e-08 0.0319394432
  endloop
 endfacet

 facet normal 0 0 0
  outer loop
  vertex -0.00362333516 -0.00335345929 0.0107002305
  vertex -0.00366835017 3.75976654e-08 0.0319394432
  vertex -0.00362314959 0.0033539962 0.0106987888
  endloop
 endfacet

 facet normal 0 0 0
  outer loop
  vertex 0.005436345 -0.00676224893 0.0262511466
  vertex 0.0123553723 -0.00455185864 0.00966525078
  vertex 0.00972826965 -0.00345685426 0.022619769
  endloop
 endfacet

 facet normal 0 0 0
  outer loop
  vertex 0.005436345 -0.00676224893 0.0262511466
  vertex 0.00972826965 -0.00345685426 0.022619769
  vertex 0.00226290687 -0.00599994557 0.0369824097
  endloop
 endfacet

 facet normal 0 0 0
  outer loop
  vertex 0.00224356586 -0.00744025083 0.00427560089
  vertex 0.0123553723 -0.00455185864 0.00966525078
  vertex 0.005436345 -0.00676224893 0.0262511466
  endloop
 endfacet

 facet normal 0 0 0
  outer loop
  vertex 0.00224356586 -0.00744025083 0.00427560089
  vertex -0.00199724943 -0.00699999696 0.0358150899
  vertex -0.00151171326 -0.00699999742 -0.00130947528
  endloop
 endfacet

 facet normal 0 0 0
  outer loop
  vertex 0.00100461836 -0.00699999696 0.0376493149
  vertex -0.00199724943 -0.00699999696 0.0358150899
  vertex 0.00224356586 -0.00744025083 0.00427560089
  endloop
 endfacet

 facet normal 0 0 0
  outer loop
  vertex 0.00100461836 -0.00699999696 0.0376493149
  vertex 0.00224356586 -0.00744025083 0.00427560089
  vertex 0.005436345 -0.00676224893 0.0262511466
  endloop
 endfacet

 facet normal 0 0 0
  outer loop
  vertex 0.00100461836 -0.00699999696 0.0376493149
  vertex 0.005436345 -0.00676224893 0.0262511466
  vertex 0.00226290687 -0.00599994557 0.0369824097
  endloop
 endfacet

 facet normal 0 0 0
  outer loop
  vertex -0.000706271094 0.00700000348 -0.00187114475
  vertex -0.00195275224 0.00700000348 -0.000432152126
  vertex 0.000757631264 0.0075659845 0.00380995194
  endloop
 endfacet

 facet normal 0 0 0
  outer loop
  vertex -0.000706271094 0.00700000348 -0.00187114475
  vertex 0.000757631264 0.0075659845 0.00380995194
  vertex 0.00142983906 0.00700000348 -0.00139841402
  endloop
 endfacet

 facet normal 0 0 0
  outer loop
  vertex -0.000706271094 0.00700000348 -0.00187114475
  vertex 0.00142983906 0.00700000348 -0.00139841402
  vertex -0.000174725865 0.00404561264 -0.00249408023
  endloop
 endfacet

 facet normal 0 0 0
  outer loop
  vertex 0.00800166931 0.00562961772 0.0242972448
  vertex 0.00170662673 0.00700000348 0.0369627364
  vertex 0.0101600653 0.00249131396 0.0221335851
  endloop
 endfacet

 facet normal 0 0 0
  outer loop
  vertex 0.00800166931 0.00562961772 0.0242972448
  vertex 0.0101600653 0.00249131396 0.0221335851
  vertex 0.0121046603 0.00482739415 0.00917143654
  endloop
 endfacet

 facet normal 0 0 0
  outer loop
  vertex -0.0019512329 -0.00599999214 0.0374826007
  vertex -0.00199724943 -0.00699999696 0.0358150899
  vertex 0.00100461836 -0.00699999696 0.0376493149
  endloop
 endfacet

 facet normal 0 0 0
  outer loop
  vertex -0.0019512329 -0.00599999214 0.0374826007
  vertex 0.00100461836 -0.00699999696 0.0376493149
  vertex -0.000261654379 -0.00600005034 0.0384059772
  endloop
 endfacet

 facet normal 0 0 0
  outer loop
  vertex -0.0019512329 -0.00599999214 0.0374826007
  vertex -0.00366835017 3.75976654e-08 0.0319394432
  vertex -0.00199724943 -0.00699999696 0.0358150899
  endloop
 endfacet

 facet normal 0 0 0
  outer loop
  vertex -0.00046088174 -0.00599991623 -0.00245715119
  vertex -0.000174725865 0.00404561264 -0.00249408023
  vertex 0.00159460341 -0.00599995349 -0.00192541862
  endloop
 endfacet

 facet normal 0 0 0
  outer loop
  vertex -0.00195119611 0.00600015512 0.0374826416
  vertex -0.00198726682 0.00700000348 0.0361452587
  vertex -0.00366835017 3.75976654e-08 0.0319394432
  endloop
 endfacet

 facet normal 0 0 0
  outer loop
  vertex -0.00195119611 0.00600015512 0.0374826416
  vertex -0.00366835017 3.75976654e-08 0.0319394432
  vertex -0.0019512329 -0.00599999214 0.0374826007
  endloop
 endfacet

 facet normal 0 0 0
  outer loop
  vertex -0.0019512329 -0.00599999214 0.0374826007
  vertex -0.000261654379 -0.00600005034 0.0384059772
  vertex -0.000211157138 0.00410100259 0.0384109765
  endloop
 endfacet

 facet normal 0 0 0
  outer loop
  vertex -0.0019512329 -0.00599999214 0.0374826007
  vertex -0.000211157138 0.00410100259 0.0384109765
  vertex -0.00195119611 0.00600015512 0.0374826416
  endloop
 endfacet

 facet normal 0 0 0
  outer loop
  vertex -0.00195119611 0.00600015512 0.0374826416
  vertex -0.000211157138 0.00410100259 0.0384109765
  vertex -0.000269420736 0.00700000394 0.0379017107
  endloop
 endfacet

 facet normal 0 0 0
  outer loop
  vertex -0.00195119611 0.00600015512 0.0374826416
  vertex -0.000269420736 0.00700000394 0.0379017107
  vertex -0.00198726682 0.00700000348 0.0361452587
  endloop
 endfacet

 facet normal 0 0 0
  outer loop
  vertex 0.00142983906 -0.00699999789 -0.00139841286
  vertex 0.00159460341 -0.00599995349 -0.00192541862
  vertex 0.0123553723 -0.00455185864 0.00966525078
  endloop
 endfacet

 facet normal 0 0 0
  outer loop
  vertex 0.00142983906 -0.00699999789 -0.00139841286
  vertex 0.0123553723 -0.00455185864 0.00966525078
  vertex 0.00224356586 -0.00744025083 0.00427560089
  endloop
 endfacet

 facet normal 0 0 0
  outer loop
  vertex 0.00142983906 -0.00699999789 -0.00139841286
  vertex 0.00224356586 -0.00744025083 0.00427560089
  vertex -0.00151171326 -0.00699999742 -0.00130947528
  endloop
 endfacet

 facet normal 0 0 0
  outer loop
  vertex 0.00142983906 -0.00699999789 -0.00139841286
  vertex -0.00151171326 -0.00699999742 -0.00130947528
  vertex -0.00046088174 -0.00599991623 -0.00245715119
  endloop
 endfacet

 facet normal 0 0 0
  outer loop
  vertex 0.00142983906 -0.00699999789 -0.00139841286
  vertex -0.00046088174 -0.00599991623 -0.00245715119
  vertex 0.00159460341 -0.00599995349 -0.00192541862
  endloop
 endfacet

 facet normal 0 0 0
  outer loop
  vertex -0.00249289558 -0.00600008806 -0.000188335427
  vertex -0.00151171326 -0.00699999742 -0.00130947528
  vertex -0.00199724943 -0.00699999696 0.0358150899
  endloop
 endfacet

 facet normal 0 0 0
  outer loop
  vertex -0.00249289558 -0.00600008806 -0.000188335427
  vertex -0.00199724943 -0.00699999696 0.0358150899
  vertex -0.00362333516 -0.00335345929 0.0107002305
  endloop
 endfacet

 facet normal 0 0 0
  outer loop
  vertex 0.0114977835 -0.000857871608 0.018408278
  vertex 0.0101600653 0.00249131396 0.0221335851
  vertex 0.00972826965 -0.00345685426 0.022619769
  endloop
 endfacet

 facet normal 0 0 0
  outer loop
  vertex 0.0114977835 -0.000857871608 0.018408278
  vertex 0.00972826965 -0.00345685426 0.022619769
  vertex 0.0123553723 -0.00455185864 0.00966525078
  endloop
 endfacet

 facet normal 0 0 0
  outer loop
  vertex 0.0114977835 -0.000857871608 0.018408278
  vertex 0.0123553723 -0.00455185864 0.00966525078
  vertex 0.0121046603 0.00482739415 0.00917143654
  endloop
 endfacet

 facet normal 0 0 0
  outer loop
  vertex 0.0114977835 -0.000857871608 0.018408278
  vertex 0.0121046603 0.00482739415 0.00917143654
  vertex 0.0101600653 0.00249131396 0.0221335851
  endloop
 endfacet

 facet normal 0 0 0
  outer loop
  vertex -0.00194038742 0.00600002473 -0.00157635764
  vertex -0.000706271094 0.00700000348 -0.00187114475
  vertex -0.000174725865 0.00404561264 -0.00249408023
  endloop
 endfacet

 facet normal 0 0 0
  outer loop
  vertex -0.00194038742 0.00600002473 -0.00157635764
  vertex -0.000174725865 0.00404561264 -0.00249408023
  vertex -0.00046088174 -0.00599991623 -0.00245715119
  endloop
 endfacet

 facet normal 0 0 0
  outer loop
  vertex -0.00194038742 0.00600002473 -0.00157635764
  vertex -0.00046088174 -0.00599991623 -0.00245715119
  vertex -0.00151171326 -0.00699999742 -0.00130947528
  endloop
 endfacet

 facet normal 0 0 0
  outer loop
  vertex -0.00194038742 0.00600002473 -0.00157635764
  vertex -0.00151171326 -0.00699999742 -0.00130947528
  vertex -0.00249289558 -0.00600008806 -0.000188335427
  endloop
 endfacet

 facet normal 0 0 0
  outer loop
  vertex -0.00194038742 0.00600002473 -0.00157635764
  vertex -0.00249289558 -0.00600008806 -0.000188335427
  vertex -0.00362333516 -0.00335345929 0.0107002305
  endloop
 endfacet

 facet normal 0 0 0
  outer loop
  vertex -0.00194038742 0.00600002473 -0.00157635764
  vertex -0.00362333516 -0.00335345929 0.0107002305
  vertex -0.00362314959 0.0033539962 0.0106987888
  endloop
 endfacet

 facet normal 0 0 0
  outer loop
  vertex -0.00194038742 0.00600002473 -0.00157635764
  vertex -0.00362314959 0.0033539962 0.0106987888
  vertex -0.00195275224 0.00700000348 -0.000432152126
  endloop
 endfacet

 facet normal 0 0 0
  outer loop
  vertex -0.00194038742 0.00600002473 -0.00157635764
  vertex -0.00195275224 0.00700000348 -0.000432152126
  vertex -0.000706271094 0.00700000348 -0.00187114475
  endloop
 endfacet

endsolid AssimpScene
