<?xml version="1.0" encoding="UTF-8" standalone="no"?>
<!DOCTYPE svg PUBLIC "-//W3C//DTD SVG 1.1//EN"
 "http://www.w3.org/Graphics/SVG/1.1/DTD/svg11.dtd">
<!-- Generated by graphviz version 2.43.0 (0)
 -->
<!-- Title: pastafarianism Pages: 1 -->
<svg width="2906pt" height="839pt"
 viewBox="0.00 0.00 2906.16 838.56" xmlns="http://www.w3.org/2000/svg" xmlns:xlink="http://www.w3.org/1999/xlink">
<g id="graph0" class="graph" transform="scale(1 1) rotate(0) translate(4 834.56)">
<title>pastafarianism</title>
<polygon fill="white" stroke="transparent" points="-4,4 -4,-834.56 2902.16,-834.56 2902.16,4 -4,4"/>
<!-- 9fd2f9c5&#45;faaa&#45;4b3d&#45;a806&#45;5b5dcb72ad42 -->
<g id="node1" class="node">
<title>9fd2f9c5&#45;faaa&#45;4b3d&#45;a806&#45;5b5dcb72ad42</title>
<polygon fill="#b0ffff" stroke="black" points="1296.16,-830.56 1260.16,-830.56 1260.16,-800.56 1296.16,-800.56 1296.16,-830.56"/>
<text text-anchor="middle" x="1278.16" y="-810.56" font-family="Times,serif" font-size="20.00"> ? </text>
</g>
<!-- 7c877227&#45;80ea&#45;4ec9&#45;bd7c&#45;68f53bb29adc -->
<g id="node2" class="node">
<title>7c877227&#45;80ea&#45;4ec9&#45;bd7c&#45;68f53bb29adc</title>
<polygon fill="#ff8080" stroke="black" points="1036.66,-764.56 999.66,-764.56 999.66,-734.56 1036.66,-734.56 1036.66,-764.56"/>
<text text-anchor="middle" x="1018.16" y="-744.56" font-family="Times,serif" font-size="20.00">→</text>
</g>
<!-- 9fd2f9c5&#45;faaa&#45;4b3d&#45;a806&#45;5b5dcb72ad42&#45;&gt;7c877227&#45;80ea&#45;4ec9&#45;bd7c&#45;68f53bb29adc -->
<g id="edge1" class="edge">
<title>9fd2f9c5&#45;faaa&#45;4b3d&#45;a806&#45;5b5dcb72ad42&#45;&gt;7c877227&#45;80ea&#45;4ec9&#45;bd7c&#45;68f53bb29adc</title>
<path fill="none" stroke="black" d="M1259.88,-810.06C1215.23,-799.07 1100.38,-770.8 1046.66,-757.57"/>
<polygon fill="black" stroke="black" points="1047.32,-754.13 1036.77,-755.14 1045.64,-760.93 1047.32,-754.13"/>
</g>
<!-- 9542c708&#45;be3a&#45;4ebe&#45;b57f&#45;b5b14e8dc8e2 -->
<g id="node8" class="node">
<title>9542c708&#45;be3a&#45;4ebe&#45;b57f&#45;b5b14e8dc8e2</title>
<polygon fill="#ff8080" stroke="black" points="1689.66,-764.56 1652.66,-764.56 1652.66,-734.56 1689.66,-734.56 1689.66,-764.56"/>
<text text-anchor="middle" x="1671.16" y="-744.56" font-family="Times,serif" font-size="20.00">→</text>
</g>
<!-- 9fd2f9c5&#45;faaa&#45;4b3d&#45;a806&#45;5b5dcb72ad42&#45;&gt;9542c708&#45;be3a&#45;4ebe&#45;b57f&#45;b5b14e8dc8e2 -->
<g id="edge7" class="edge">
<title>9fd2f9c5&#45;faaa&#45;4b3d&#45;a806&#45;5b5dcb72ad42&#45;&gt;9542c708&#45;be3a&#45;4ebe&#45;b57f&#45;b5b14e8dc8e2</title>
<path fill="none" stroke="black" d="M1296.32,-811.6C1358.9,-801.41 1565.83,-767.71 1642.37,-755.25"/>
<polygon fill="black" stroke="black" points="1642.96,-758.7 1652.27,-753.63 1641.84,-751.79 1642.96,-758.7"/>
</g>
<!-- 8e23293b&#45;cf37&#45;44a7&#45;8fd4&#45;7c646d057b48 -->
<g id="node3" class="node">
<title>8e23293b&#45;cf37&#45;44a7&#45;8fd4&#45;7c646d057b48</title>
<ellipse fill="#ffff80" stroke="black" cx="303.16" cy="-677.35" rx="128.89" ry="21.43"/>
<text text-anchor="middle" x="303.16" y="-672.35" font-family="Times,serif" font-size="20.00">IsSwitchedOn(radio)</text>
</g>
<!-- 7c877227&#45;80ea&#45;4ec9&#45;bd7c&#45;68f53bb29adc&#45;&gt;8e23293b&#45;cf37&#45;44a7&#45;8fd4&#45;7c646d057b48 -->
<g id="edge2" class="edge">
<title>7c877227&#45;80ea&#45;4ec9&#45;bd7c&#45;68f53bb29adc&#45;&gt;8e23293b&#45;cf37&#45;44a7&#45;8fd4&#45;7c646d057b48</title>
<path fill="none" stroke="black" d="M999.19,-747.32C926.65,-742.51 659.88,-724.03 441.16,-698.56 429.11,-697.15 416.49,-695.53 403.98,-693.82"/>
<polygon fill="black" stroke="black" points="404.38,-690.34 393.99,-692.43 403.41,-697.27 404.38,-690.34"/>
</g>
<!-- 60bdcb50&#45;05b1&#45;4f27&#45;b506&#45;4c5582d3b432 -->
<g id="node4" class="node">
<title>60bdcb50&#45;05b1&#45;4f27&#45;b506&#45;4c5582d3b432</title>
<ellipse fill="#ffff80" stroke="black" cx="587.16" cy="-677.35" rx="137.36" ry="21.43"/>
<text text-anchor="middle" x="587.16" y="-672.35" font-family="Times,serif" font-size="20.00">IsOpened(microwave)</text>
</g>
<!-- 7c877227&#45;80ea&#45;4ec9&#45;bd7c&#45;68f53bb29adc&#45;&gt;60bdcb50&#45;05b1&#45;4f27&#45;b506&#45;4c5582d3b432 -->
<g id="edge3" class="edge">
<title>7c877227&#45;80ea&#45;4ec9&#45;bd7c&#45;68f53bb29adc&#45;&gt;60bdcb50&#45;05b1&#45;4f27&#45;b506&#45;4c5582d3b432</title>
<path fill="none" stroke="black" d="M999.64,-745.54C946.8,-736.93 792.44,-711.79 688.28,-694.82"/>
<polygon fill="black" stroke="black" points="688.8,-691.36 678.36,-693.2 687.67,-698.27 688.8,-691.36"/>
</g>
<!-- bb878ede&#45;9a17&#45;4f49&#45;8617&#45;eca78e5ff39b -->
<g id="node5" class="node">
<title>bb878ede&#45;9a17&#45;4f49&#45;8617&#45;eca78e5ff39b</title>
<ellipse fill="#ffff80" stroke="black" cx="886.16" cy="-677.35" rx="144.5" ry="21.43"/>
<text text-anchor="middle" x="886.16" y="-672.35" font-family="Times,serif" font-size="20.00">On(pie,breakfast_table)</text>
</g>
<!-- 7c877227&#45;80ea&#45;4ec9&#45;bd7c&#45;68f53bb29adc&#45;&gt;bb878ede&#45;9a17&#45;4f49&#45;8617&#45;eca78e5ff39b -->
<g id="edge4" class="edge">
<title>7c877227&#45;80ea&#45;4ec9&#45;bd7c&#45;68f53bb29adc&#45;&gt;bb878ede&#45;9a17&#45;4f49&#45;8617&#45;eca78e5ff39b</title>
<path fill="none" stroke="black" d="M999.53,-738.65C982.02,-729.34 955.12,-715.03 931.92,-702.69"/>
<polygon fill="black" stroke="black" points="933.38,-699.5 922.9,-697.89 930.09,-705.68 933.38,-699.5"/>
</g>
<!-- 5fa7f25c&#45;313c&#45;4117&#45;95bc&#45;273bab025af8 -->
<g id="node6" class="node">
<title>5fa7f25c&#45;313c&#45;4117&#45;95bc&#45;273bab025af8</title>
<ellipse fill="#ffff80" stroke="black" cx="1150.16" cy="-677.35" rx="101.65" ry="21.43"/>
<text text-anchor="middle" x="1150.16" y="-672.35" font-family="Times,serif" font-size="20.00">IsOpened(oven)</text>
</g>
<!-- 7c877227&#45;80ea&#45;4ec9&#45;bd7c&#45;68f53bb29adc&#45;&gt;5fa7f25c&#45;313c&#45;4117&#45;95bc&#45;273bab025af8 -->
<g id="edge5" class="edge">
<title>7c877227&#45;80ea&#45;4ec9&#45;bd7c&#45;68f53bb29adc&#45;&gt;5fa7f25c&#45;313c&#45;4117&#45;95bc&#45;273bab025af8</title>
<path fill="none" stroke="black" d="M1036.79,-738.65C1054.55,-729.2 1081.97,-714.62 1105.39,-702.16"/>
<polygon fill="black" stroke="black" points="1107.29,-705.11 1114.48,-697.32 1104.01,-698.93 1107.29,-705.11"/>
</g>
<!-- 0a64a47a&#45;9caf&#45;4aa9&#45;a29b&#45;c968a1ea7617 -->
<g id="node7" class="node">
<title>0a64a47a&#45;9caf&#45;4aa9&#45;a29b&#45;c968a1ea7617</title>
<ellipse fill="#ffff80" stroke="black" cx="1395.16" cy="-677.35" rx="125.32" ry="21.43"/>
<text text-anchor="middle" x="1395.16" y="-672.35" font-family="Times,serif" font-size="20.00">IsSwitchedOn(light)</text>
</g>
<!-- 7c877227&#45;80ea&#45;4ec9&#45;bd7c&#45;68f53bb29adc&#45;&gt;0a64a47a&#45;9caf&#45;4aa9&#45;a29b&#45;c968a1ea7617 -->
<g id="edge6" class="edge">
<title>7c877227&#45;80ea&#45;4ec9&#45;bd7c&#45;68f53bb29adc&#45;&gt;0a64a47a&#45;9caf&#45;4aa9&#45;a29b&#45;c968a1ea7617</title>
<path fill="none" stroke="black" d="M1036.85,-745.08C1084.76,-736.16 1214.41,-712.01 1303.86,-695.35"/>
<polygon fill="black" stroke="black" points="1304.56,-698.78 1313.75,-693.51 1303.27,-691.9 1304.56,-698.78"/>
</g>
<!-- cbc09371&#45;6498&#45;4657&#45;b5aa&#45;8cfc0a8a385c -->
<g id="node9" class="node">
<title>cbc09371&#45;6498&#45;4657&#45;b5aa&#45;8cfc0a8a385c</title>
<ellipse fill="#ffff80" stroke="black" cx="1671.16" cy="-677.35" rx="132.87" ry="21.43"/>
<text text-anchor="middle" x="1671.16" y="-672.35" font-family="Times,serif" font-size="20.00">IsClosed(microwave)</text>
</g>
<!-- 9542c708&#45;be3a&#45;4ebe&#45;b57f&#45;b5b14e8dc8e2&#45;&gt;cbc09371&#45;6498&#45;4657&#45;b5aa&#45;8cfc0a8a385c -->
<g id="edge8" class="edge">
<title>9542c708&#45;be3a&#45;4ebe&#45;b57f&#45;b5b14e8dc8e2&#45;&gt;cbc09371&#45;6498&#45;4657&#45;b5aa&#45;8cfc0a8a385c</title>
<path fill="none" stroke="black" d="M1671.16,-734.35C1671.16,-726.98 1671.16,-717.67 1671.16,-708.77"/>
<polygon fill="black" stroke="black" points="1674.66,-708.65 1671.16,-698.65 1667.66,-708.65 1674.66,-708.65"/>
</g>
<!-- e3743fbd&#45;979a&#45;4fec&#45;85d2&#45;f150466fff4f -->
<g id="node10" class="node">
<title>e3743fbd&#45;979a&#45;4fec&#45;85d2&#45;f150466fff4f</title>
<polygon fill="#b0ffff" stroke="black" points="1858.16,-692.35 1822.16,-692.35 1822.16,-662.35 1858.16,-662.35 1858.16,-692.35"/>
<text text-anchor="middle" x="1840.16" y="-672.35" font-family="Times,serif" font-size="20.00"> ? </text>
</g>
<!-- 9542c708&#45;be3a&#45;4ebe&#45;b57f&#45;b5b14e8dc8e2&#45;&gt;e3743fbd&#45;979a&#45;4fec&#45;85d2&#45;f150466fff4f -->
<g id="edge9" class="edge">
<title>9542c708&#45;be3a&#45;4ebe&#45;b57f&#45;b5b14e8dc8e2&#45;&gt;e3743fbd&#45;979a&#45;4fec&#45;85d2&#45;f150466fff4f</title>
<path fill="none" stroke="black" d="M1689.84,-743.94C1717.72,-736.61 1771.43,-720.85 1813.16,-698.56 1813.57,-698.34 1813.98,-698.11 1814.4,-697.88"/>
<polygon fill="black" stroke="black" points="1816.41,-700.75 1822.95,-692.42 1812.64,-694.85 1816.41,-700.75"/>
</g>
<!-- 799d6345&#45;a19e&#45;4acd&#45;9c9e&#45;3db267b9de69 -->
<g id="node11" class="node">
<title>799d6345&#45;a19e&#45;4acd&#45;9c9e&#45;3db267b9de69</title>
<polygon fill="#ff8080" stroke="black" points="1514.66,-620.13 1477.66,-620.13 1477.66,-590.13 1514.66,-590.13 1514.66,-620.13"/>
<text text-anchor="middle" x="1496.16" y="-600.13" font-family="Times,serif" font-size="20.00">→</text>
</g>
<!-- e3743fbd&#45;979a&#45;4fec&#45;85d2&#45;f150466fff4f&#45;&gt;799d6345&#45;a19e&#45;4acd&#45;9c9e&#45;3db267b9de69 -->
<g id="edge10" class="edge">
<title>e3743fbd&#45;979a&#45;4fec&#45;85d2&#45;f150466fff4f&#45;&gt;799d6345&#45;a19e&#45;4acd&#45;9c9e&#45;3db267b9de69</title>
<path fill="none" stroke="black" d="M1823.8,-662.16C1820.45,-659.83 1816.83,-657.68 1813.16,-656.13 1713.34,-613.99 1582.25,-607.02 1525,-606.1"/>
<polygon fill="black" stroke="black" points="1524.91,-602.6 1514.88,-606 1524.84,-609.6 1524.91,-602.6"/>
</g>
<!-- 3a92b2de&#45;0c59&#45;4074&#45;8959&#45;72ab546bd256 -->
<g id="node42" class="node">
<title>3a92b2de&#45;0c59&#45;4074&#45;8959&#45;72ab546bd256</title>
<polygon fill="#ff8080" stroke="black" points="2203.66,-620.13 2166.66,-620.13 2166.66,-590.13 2203.66,-590.13 2203.66,-620.13"/>
<text text-anchor="middle" x="2185.16" y="-600.13" font-family="Times,serif" font-size="20.00">→</text>
</g>
<!-- e3743fbd&#45;979a&#45;4fec&#45;85d2&#45;f150466fff4f&#45;&gt;3a92b2de&#45;0c59&#45;4074&#45;8959&#45;72ab546bd256 -->
<g id="edge41" class="edge">
<title>e3743fbd&#45;979a&#45;4fec&#45;85d2&#45;f150466fff4f&#45;&gt;3a92b2de&#45;0c59&#45;4074&#45;8959&#45;72ab546bd256</title>
<path fill="none" stroke="black" d="M1858.22,-672.67C1914.55,-661.21 2087.33,-626.04 2156.29,-612.01"/>
<polygon fill="black" stroke="black" points="2157.34,-615.37 2166.44,-609.94 2155.94,-608.51 2157.34,-615.37"/>
</g>
<!-- 549a6ec6&#45;f8fa&#45;42ce&#45;9e4b&#45;91798408e8a9 -->
<g id="node12" class="node">
<title>549a6ec6&#45;f8fa&#45;42ce&#45;9e4b&#45;91798408e8a9</title>
<ellipse fill="#ffff80" stroke="black" cx="1358.16" cy="-532.92" rx="101.65" ry="21.43"/>
<text text-anchor="middle" x="1358.16" y="-527.92" font-family="Times,serif" font-size="20.00">IsOpened(oven)</text>
</g>
<!-- 799d6345&#45;a19e&#45;4acd&#45;9c9e&#45;3db267b9de69&#45;&gt;549a6ec6&#45;f8fa&#45;42ce&#45;9e4b&#45;91798408e8a9 -->
<g id="edge11" class="edge">
<title>799d6345&#45;a19e&#45;4acd&#45;9c9e&#45;3db267b9de69&#45;&gt;549a6ec6&#45;f8fa&#45;42ce&#45;9e4b&#45;91798408e8a9</title>
<path fill="none" stroke="black" d="M1477.55,-594.66C1458.81,-585.13 1429.16,-570.05 1404.1,-557.3"/>
<polygon fill="black" stroke="black" points="1405.61,-554.13 1395.11,-552.72 1402.43,-560.37 1405.61,-554.13"/>
</g>
<!-- 99521631&#45;a39f&#45;4938&#45;80b3&#45;04c4f28f298d -->
<g id="node13" class="node">
<title>99521631&#45;a39f&#45;4938&#45;80b3&#45;04c4f28f298d</title>
<polygon fill="#b0ffff" stroke="black" points="1514.16,-547.92 1478.16,-547.92 1478.16,-517.92 1514.16,-517.92 1514.16,-547.92"/>
<text text-anchor="middle" x="1496.16" y="-527.92" font-family="Times,serif" font-size="20.00"> ? </text>
</g>
<!-- 799d6345&#45;a19e&#45;4acd&#45;9c9e&#45;3db267b9de69&#45;&gt;99521631&#45;a39f&#45;4938&#45;80b3&#45;04c4f28f298d -->
<g id="edge12" class="edge">
<title>799d6345&#45;a19e&#45;4acd&#45;9c9e&#45;3db267b9de69&#45;&gt;99521631&#45;a39f&#45;4938&#45;80b3&#45;04c4f28f298d</title>
<path fill="none" stroke="black" d="M1496.16,-589.92C1496.16,-580.88 1496.16,-568.93 1496.16,-558.4"/>
<polygon fill="black" stroke="black" points="1499.66,-558.11 1496.16,-548.11 1492.66,-558.11 1499.66,-558.11"/>
</g>
<!-- 1b050781&#45;df9b&#45;4888&#45;a9ee&#45;9137cc3c6ba3 -->
<g id="node14" class="node">
<title>1b050781&#45;df9b&#45;4888&#45;a9ee&#45;9137cc3c6ba3</title>
<polygon fill="#b0ffff" stroke="black" points="1210.16,-475.71 1174.16,-475.71 1174.16,-445.71 1210.16,-445.71 1210.16,-475.71"/>
<text text-anchor="middle" x="1192.16" y="-455.71" font-family="Times,serif" font-size="20.00"> ? </text>
</g>
<!-- 99521631&#45;a39f&#45;4938&#45;80b3&#45;04c4f28f298d&#45;&gt;1b050781&#45;df9b&#45;4888&#45;a9ee&#45;9137cc3c6ba3 -->
<g id="edge13" class="edge">
<title>99521631&#45;a39f&#45;4938&#45;80b3&#45;04c4f28f298d&#45;&gt;1b050781&#45;df9b&#45;4888&#45;a9ee&#45;9137cc3c6ba3</title>
<path fill="none" stroke="black" d="M1479.77,-517.8C1476.43,-515.47 1472.81,-513.3 1469.16,-511.71 1383.82,-474.56 1272.15,-465.01 1220.55,-462.55"/>
<polygon fill="black" stroke="black" points="1220.63,-459.05 1210.49,-462.13 1220.33,-466.05 1220.63,-459.05"/>
</g>
<!-- 4c0629a6&#45;0684&#45;40c3&#45;b7e8&#45;13f955aef310 -->
<g id="node36" class="node">
<title>4c0629a6&#45;0684&#45;40c3&#45;b7e8&#45;13f955aef310</title>
<polygon fill="#ff8080" stroke="black" points="1693.66,-475.71 1656.66,-475.71 1656.66,-445.71 1693.66,-445.71 1693.66,-475.71"/>
<text text-anchor="middle" x="1675.16" y="-455.71" font-family="Times,serif" font-size="20.00">→</text>
</g>
<!-- 99521631&#45;a39f&#45;4938&#45;80b3&#45;04c4f28f298d&#45;&gt;4c0629a6&#45;0684&#45;40c3&#45;b7e8&#45;13f955aef310 -->
<g id="edge35" class="edge">
<title>99521631&#45;a39f&#45;4938&#45;80b3&#45;04c4f28f298d&#45;&gt;4c0629a6&#45;0684&#45;40c3&#45;b7e8&#45;13f955aef310</title>
<path fill="none" stroke="black" d="M1513.33,-517.79C1516.48,-515.57 1519.83,-513.44 1523.16,-511.71 1563.89,-490.49 1615.4,-475.82 1646.78,-468.1"/>
<polygon fill="black" stroke="black" points="1647.7,-471.48 1656.61,-465.74 1646.07,-464.67 1647.7,-471.48"/>
</g>
<!-- 72f104ae&#45;af10&#45;4a87&#45;83e2&#45;42a5991229c5 -->
<g id="node15" class="node">
<title>72f104ae&#45;af10&#45;4a87&#45;83e2&#45;42a5991229c5</title>
<polygon fill="#ff8080" stroke="black" points="764.66,-403.49 727.66,-403.49 727.66,-373.49 764.66,-373.49 764.66,-403.49"/>
<text text-anchor="middle" x="746.16" y="-383.49" font-family="Times,serif" font-size="20.00">→</text>
</g>
<!-- 1b050781&#45;df9b&#45;4888&#45;a9ee&#45;9137cc3c6ba3&#45;&gt;72f104ae&#45;af10&#45;4a87&#45;83e2&#45;42a5991229c5 -->
<g id="edge14" class="edge">
<title>1b050781&#45;df9b&#45;4888&#45;a9ee&#45;9137cc3c6ba3&#45;&gt;72f104ae&#45;af10&#45;4a87&#45;83e2&#45;42a5991229c5</title>
<path fill="none" stroke="black" d="M1174.12,-456.87C1105.36,-446.04 859.27,-407.3 774.83,-394.01"/>
<polygon fill="black" stroke="black" points="775.34,-390.54 764.91,-392.45 774.25,-397.46 775.34,-390.54"/>
</g>
<!-- bded665f&#45;dfc0&#45;4024&#45;a2c5&#45;f9c1e65bc5af -->
<g id="node31" class="node">
<title>bded665f&#45;dfc0&#45;4024&#45;a2c5&#45;f9c1e65bc5af</title>
<polygon fill="#ff8080" stroke="black" points="1210.66,-403.49 1173.66,-403.49 1173.66,-373.49 1210.66,-373.49 1210.66,-403.49"/>
<text text-anchor="middle" x="1192.16" y="-383.49" font-family="Times,serif" font-size="20.00">→</text>
</g>
<!-- 1b050781&#45;df9b&#45;4888&#45;a9ee&#45;9137cc3c6ba3&#45;&gt;bded665f&#45;dfc0&#45;4024&#45;a2c5&#45;f9c1e65bc5af -->
<g id="edge30" class="edge">
<title>1b050781&#45;df9b&#45;4888&#45;a9ee&#45;9137cc3c6ba3&#45;&gt;bded665f&#45;dfc0&#45;4024&#45;a2c5&#45;f9c1e65bc5af</title>
<path fill="none" stroke="black" d="M1192.16,-445.5C1192.16,-436.46 1192.16,-424.51 1192.16,-413.97"/>
<polygon fill="black" stroke="black" points="1195.66,-413.68 1192.16,-403.68 1188.66,-413.68 1195.66,-413.68"/>
</g>
<!-- fb9f6085&#45;1954&#45;49fa&#45;a18e&#45;bb5e92643b15 -->
<g id="node16" class="node">
<title>fb9f6085&#45;1954&#45;49fa&#45;a18e&#45;bb5e92643b15</title>
<ellipse fill="#ffff80" stroke="black" cx="566.16" cy="-310.07" rx="144.5" ry="21.43"/>
<text text-anchor="middle" x="566.16" y="-305.07" font-family="Times,serif" font-size="20.00">On(pie,breakfast_table)</text>
</g>
<!-- 72f104ae&#45;af10&#45;4a87&#45;83e2&#45;42a5991229c5&#45;&gt;fb9f6085&#45;1954&#45;49fa&#45;a18e&#45;bb5e92643b15 -->
<g id="edge15" class="edge">
<title>72f104ae&#45;af10&#45;4a87&#45;83e2&#45;42a5991229c5&#45;&gt;fb9f6085&#45;1954&#45;49fa&#45;a18e&#45;bb5e92643b15</title>
<path fill="none" stroke="black" d="M727.57,-379.6C702.59,-368.99 657.11,-349.68 620.78,-334.26"/>
<polygon fill="black" stroke="black" points="621.86,-330.91 611.28,-330.23 619.12,-337.36 621.86,-330.91"/>
</g>
<!-- 0dc11f19&#45;3c82&#45;471e&#45;bc28&#45;6ac36287f31d -->
<g id="node17" class="node">
<title>0dc11f19&#45;3c82&#45;471e&#45;bc28&#45;6ac36287f31d</title>
<polygon fill="#b0ffff" stroke="black" points="764.16,-325.07 728.16,-325.07 728.16,-295.07 764.16,-295.07 764.16,-325.07"/>
<text text-anchor="middle" x="746.16" y="-305.07" font-family="Times,serif" font-size="20.00"> ? </text>
</g>
<!-- 72f104ae&#45;af10&#45;4a87&#45;83e2&#45;42a5991229c5&#45;&gt;0dc11f19&#45;3c82&#45;471e&#45;bc28&#45;6ac36287f31d -->
<g id="edge16" class="edge">
<title>72f104ae&#45;af10&#45;4a87&#45;83e2&#45;42a5991229c5&#45;&gt;0dc11f19&#45;3c82&#45;471e&#45;bc28&#45;6ac36287f31d</title>
<path fill="none" stroke="black" d="M746.16,-373.47C746.16,-362.88 746.16,-348.06 746.16,-335.52"/>
<polygon fill="black" stroke="black" points="749.66,-335.25 746.16,-325.25 742.66,-335.25 749.66,-335.25"/>
</g>
<!-- 30a12a24&#45;e4cf&#45;43c1&#45;9a60&#45;91fae0abaf2c -->
<g id="node18" class="node">
<title>30a12a24&#45;e4cf&#45;43c1&#45;9a60&#45;91fae0abaf2c</title>
<polygon fill="#ff8080" stroke="black" points="541.66,-252.85 504.66,-252.85 504.66,-222.85 541.66,-222.85 541.66,-252.85"/>
<text text-anchor="middle" x="523.16" y="-232.85" font-family="Times,serif" font-size="20.00">→</text>
</g>
<!-- 0dc11f19&#45;3c82&#45;471e&#45;bc28&#45;6ac36287f31d&#45;&gt;30a12a24&#45;e4cf&#45;43c1&#45;9a60&#45;91fae0abaf2c -->
<g id="edge17" class="edge">
<title>0dc11f19&#45;3c82&#45;471e&#45;bc28&#45;6ac36287f31d&#45;&gt;30a12a24&#45;e4cf&#45;43c1&#45;9a60&#45;91fae0abaf2c</title>
<path fill="none" stroke="black" d="M729.38,-294.95C726.13,-292.67 722.64,-290.52 719.16,-288.85 663.15,-262.06 591.02,-248.43 551.75,-242.56"/>
<polygon fill="black" stroke="black" points="552.21,-239.09 541.82,-241.13 551.22,-246.02 552.21,-239.09"/>
</g>
<!-- 274eb2d8&#45;30c4&#45;4284&#45;8987&#45;96bb2522d1af -->
<g id="node27" class="node">
<title>274eb2d8&#45;30c4&#45;4284&#45;8987&#45;96bb2522d1af</title>
<polygon fill="#ff8080" stroke="black" points="848.66,-252.85 811.66,-252.85 811.66,-222.85 848.66,-222.85 848.66,-252.85"/>
<text text-anchor="middle" x="830.16" y="-232.85" font-family="Times,serif" font-size="20.00">→</text>
</g>
<!-- 0dc11f19&#45;3c82&#45;471e&#45;bc28&#45;6ac36287f31d&#45;&gt;274eb2d8&#45;30c4&#45;4284&#45;8987&#45;96bb2522d1af -->
<g id="edge26" class="edge">
<title>0dc11f19&#45;3c82&#45;471e&#45;bc28&#45;6ac36287f31d&#45;&gt;274eb2d8&#45;30c4&#45;4284&#45;8987&#45;96bb2522d1af</title>
<path fill="none" stroke="black" d="M763.16,-294.86C775.23,-284.77 791.62,-271.06 805.18,-259.73"/>
<polygon fill="black" stroke="black" points="807.76,-262.14 813.18,-253.04 803.27,-256.77 807.76,-262.14"/>
</g>
<!-- 4766f846&#45;6539&#45;48ad&#45;bd78&#45;a344061adcbd -->
<g id="node19" class="node">
<title>4766f846&#45;6539&#45;48ad&#45;bd78&#45;a344061adcbd</title>
<ellipse fill="#ffff80" stroke="black" cx="358.16" cy="-165.64" rx="128.89" ry="21.43"/>
<text text-anchor="middle" x="358.16" y="-160.64" font-family="Times,serif" font-size="20.00">IsSwitchedOn(radio)</text>
</g>
<!-- 30a12a24&#45;e4cf&#45;43c1&#45;9a60&#45;91fae0abaf2c&#45;&gt;4766f846&#45;6539&#45;48ad&#45;bd78&#45;a344061adcbd -->
<g id="edge18" class="edge">
<title>30a12a24&#45;e4cf&#45;43c1&#45;9a60&#45;91fae0abaf2c&#45;&gt;4766f846&#45;6539&#45;48ad&#45;bd78&#45;a344061adcbd</title>
<path fill="none" stroke="black" d="M504.55,-228.93C482.23,-219.44 443.83,-203.09 411.95,-189.53"/>
<polygon fill="black" stroke="black" points="413.3,-186.3 402.73,-185.61 410.56,-192.74 413.3,-186.3"/>
</g>
<!-- 37ef6a11&#45;383c&#45;41bb&#45;b032&#45;0691b6775cdc -->
<g id="node20" class="node">
<title>37ef6a11&#45;383c&#45;41bb&#45;b032&#45;0691b6775cdc</title>
<polygon fill="#b0ffff" stroke="black" points="541.16,-180.64 505.16,-180.64 505.16,-150.64 541.16,-150.64 541.16,-180.64"/>
<text text-anchor="middle" x="523.16" y="-160.64" font-family="Times,serif" font-size="20.00"> ? </text>
</g>
<!-- 30a12a24&#45;e4cf&#45;43c1&#45;9a60&#45;91fae0abaf2c&#45;&gt;37ef6a11&#45;383c&#45;41bb&#45;b032&#45;0691b6775cdc -->
<g id="edge19" class="edge">
<title>30a12a24&#45;e4cf&#45;43c1&#45;9a60&#45;91fae0abaf2c&#45;&gt;37ef6a11&#45;383c&#45;41bb&#45;b032&#45;0691b6775cdc</title>
<path fill="none" stroke="black" d="M523.16,-222.64C523.16,-213.6 523.16,-201.65 523.16,-191.12"/>
<polygon fill="black" stroke="black" points="526.66,-190.83 523.16,-180.83 519.66,-190.83 526.66,-190.83"/>
</g>
<!-- 822a130a&#45;4e53&#45;4df3&#45;a2d2&#45;eb8b4e002e56 -->
<g id="node21" class="node">
<title>822a130a&#45;4e53&#45;4df3&#45;a2d2&#45;eb8b4e002e56</title>
<polygon fill="#ff8080" stroke="black" points="407.66,-108.43 370.66,-108.43 370.66,-78.43 407.66,-78.43 407.66,-108.43"/>
<text text-anchor="middle" x="389.16" y="-88.43" font-family="Times,serif" font-size="20.00">→</text>
</g>
<!-- 37ef6a11&#45;383c&#45;41bb&#45;b032&#45;0691b6775cdc&#45;&gt;822a130a&#45;4e53&#45;4df3&#45;a2d2&#45;eb8b4e002e56 -->
<g id="edge20" class="edge">
<title>37ef6a11&#45;383c&#45;41bb&#45;b032&#45;0691b6775cdc&#45;&gt;822a130a&#45;4e53&#45;4df3&#45;a2d2&#45;eb8b4e002e56</title>
<path fill="none" stroke="black" d="M505.51,-150.62C502.46,-148.44 499.27,-146.29 496.16,-144.43 470.53,-129.07 439.42,-115 417.37,-105.72"/>
<polygon fill="black" stroke="black" points="418.5,-102.41 407.92,-101.81 415.82,-108.87 418.5,-102.41"/>
</g>
<!-- a5cda396&#45;aebd&#45;4010&#45;8359&#45;86b20b0de9ef -->
<g id="node24" class="node">
<title>a5cda396&#45;aebd&#45;4010&#45;8359&#45;86b20b0de9ef</title>
<polygon fill="#ff8080" stroke="black" points="674.66,-108.43 637.66,-108.43 637.66,-78.43 674.66,-78.43 674.66,-108.43"/>
<text text-anchor="middle" x="656.16" y="-88.43" font-family="Times,serif" font-size="20.00">→</text>
</g>
<!-- 37ef6a11&#45;383c&#45;41bb&#45;b032&#45;0691b6775cdc&#45;&gt;a5cda396&#45;aebd&#45;4010&#45;8359&#45;86b20b0de9ef -->
<g id="edge23" class="edge">
<title>37ef6a11&#45;383c&#45;41bb&#45;b032&#45;0691b6775cdc&#45;&gt;a5cda396&#45;aebd&#45;4010&#45;8359&#45;86b20b0de9ef</title>
<path fill="none" stroke="black" d="M540.81,-150.63C543.86,-148.45 547.05,-146.3 550.16,-144.43 575.56,-129.14 606.38,-115.06 628.22,-105.76"/>
<polygon fill="black" stroke="black" points="629.71,-108.94 637.58,-101.84 627,-102.48 629.71,-108.94"/>
</g>
<!-- e36e7093&#45;7b02&#45;4522&#45;8f25&#45;d7d239ad0360 -->
<g id="node22" class="node">
<title>e36e7093&#45;7b02&#45;4522&#45;8f25&#45;d7d239ad0360</title>
<ellipse fill="#ffff80" stroke="black" cx="125.16" cy="-21.21" rx="125.32" ry="21.43"/>
<text text-anchor="middle" x="125.16" y="-16.21" font-family="Times,serif" font-size="20.00">IsSwitchedOn(light)</text>
</g>
<!-- 822a130a&#45;4e53&#45;4df3&#45;a2d2&#45;eb8b4e002e56&#45;&gt;e36e7093&#45;7b02&#45;4522&#45;8f25&#45;d7d239ad0360 -->
<g id="edge21" class="edge">
<title>822a130a&#45;4e53&#45;4df3&#45;a2d2&#45;eb8b4e002e56&#45;&gt;e36e7093&#45;7b02&#45;4522&#45;8f25&#45;d7d239ad0360</title>
<path fill="none" stroke="black" d="M370.59,-87.49C335.65,-78.19 258.33,-57.63 199.75,-42.05"/>
<polygon fill="black" stroke="black" points="200.35,-38.59 189.78,-39.4 198.55,-45.35 200.35,-38.59"/>
</g>
<!-- d45aa4d8&#45;aa29&#45;486a&#45;98de&#45;ac2cd31721ad -->
<g id="node23" class="node">
<title>d45aa4d8&#45;aa29&#45;486a&#45;98de&#45;ac2cd31721ad</title>
<polygon fill="lightgreen" stroke="black" points="510.16,-39.21 268.16,-39.21 268.16,-3.21 510.16,-3.21 510.16,-39.21"/>
<text text-anchor="middle" x="389.16" y="-16.21" font-family="Times,serif" font-size="20.00">OpenAppliance(microwave)</text>
</g>
<!-- 822a130a&#45;4e53&#45;4df3&#45;a2d2&#45;eb8b4e002e56&#45;&gt;d45aa4d8&#45;aa29&#45;486a&#45;98de&#45;ac2cd31721ad -->
<g id="edge22" class="edge">
<title>822a130a&#45;4e53&#45;4df3&#45;a2d2&#45;eb8b4e002e56&#45;&gt;d45aa4d8&#45;aa29&#45;486a&#45;98de&#45;ac2cd31721ad</title>
<path fill="none" stroke="black" d="M389.16,-78.22C389.16,-69.98 389.16,-59.32 389.16,-49.52"/>
<polygon fill="black" stroke="black" points="392.66,-49.38 389.16,-39.38 385.66,-49.38 392.66,-49.38"/>
</g>
<!-- acb2e582&#45;547d&#45;4788&#45;bfdf&#45;266450a7ca73 -->
<g id="node25" class="node">
<title>acb2e582&#45;547d&#45;4788&#45;bfdf&#45;266450a7ca73</title>
<ellipse fill="#ffff80" stroke="black" cx="656.16" cy="-21.21" rx="127.97" ry="21.43"/>
<text text-anchor="middle" x="656.16" y="-16.21" font-family="Times,serif" font-size="20.00">IsSwitchedOff(light)</text>
</g>
<!-- a5cda396&#45;aebd&#45;4010&#45;8359&#45;86b20b0de9ef&#45;&gt;acb2e582&#45;547d&#45;4788&#45;bfdf&#45;266450a7ca73 -->
<g id="edge24" class="edge">
<title>a5cda396&#45;aebd&#45;4010&#45;8359&#45;86b20b0de9ef&#45;&gt;acb2e582&#45;547d&#45;4788&#45;bfdf&#45;266450a7ca73</title>
<path fill="none" stroke="black" d="M656.16,-78.22C656.16,-70.84 656.16,-61.54 656.16,-52.64"/>
<polygon fill="black" stroke="black" points="659.66,-52.52 656.16,-42.52 652.66,-52.52 659.66,-52.52"/>
</g>
<!-- 947369d3&#45;0060&#45;4015&#45;8d1f&#45;f2d1e1fa8d07 -->
<g id="node26" class="node">
<title>947369d3&#45;0060&#45;4015&#45;8d1f&#45;f2d1e1fa8d07</title>
<polygon fill="lightgreen" stroke="black" points="946.16,-39.21 802.16,-39.21 802.16,-3.21 946.16,-3.21 946.16,-39.21"/>
<text text-anchor="middle" x="874.16" y="-16.21" font-family="Times,serif" font-size="20.00">SwitchOn(light)</text>
</g>
<!-- a5cda396&#45;aebd&#45;4010&#45;8359&#45;86b20b0de9ef&#45;&gt;947369d3&#45;0060&#45;4015&#45;8d1f&#45;f2d1e1fa8d07 -->
<g id="edge25" class="edge">
<title>a5cda396&#45;aebd&#45;4010&#45;8359&#45;86b20b0de9ef&#45;&gt;947369d3&#45;0060&#45;4015&#45;8d1f&#45;f2d1e1fa8d07</title>
<path fill="none" stroke="black" d="M674.74,-86.44C704.74,-76.78 765.14,-57.32 811.65,-42.34"/>
<polygon fill="black" stroke="black" points="812.91,-45.62 821.35,-39.22 810.76,-38.96 812.91,-45.62"/>
</g>
<!-- 4ee797ad&#45;502e&#45;4751&#45;8a32&#45;b3ef67956f4b -->
<g id="node28" class="node">
<title>4ee797ad&#45;502e&#45;4751&#45;8a32&#45;b3ef67956f4b</title>
<ellipse fill="#ffff80" stroke="black" cx="691.16" cy="-165.64" rx="131.54" ry="21.43"/>
<text text-anchor="middle" x="691.16" y="-160.64" font-family="Times,serif" font-size="20.00">IsSwitchedOff(radio)</text>
</g>
<!-- 274eb2d8&#45;30c4&#45;4284&#45;8987&#45;96bb2522d1af&#45;&gt;4ee797ad&#45;502e&#45;4751&#45;8a32&#45;b3ef67956f4b -->
<g id="edge27" class="edge">
<title>274eb2d8&#45;30c4&#45;4284&#45;8987&#45;96bb2522d1af&#45;&gt;4ee797ad&#45;502e&#45;4751&#45;8a32&#45;b3ef67956f4b</title>
<path fill="none" stroke="black" d="M811.41,-227.38C792.8,-217.98 763.51,-203.19 738.5,-190.55"/>
<polygon fill="black" stroke="black" points="740.01,-187.39 729.51,-186.01 736.85,-193.64 740.01,-187.39"/>
</g>
<!-- d5799ad6&#45;31bf&#45;4cd9&#45;bd1b&#45;5ccd2a90cfbe -->
<g id="node29" class="node">
<title>d5799ad6&#45;31bf&#45;4cd9&#45;bd1b&#45;5ccd2a90cfbe</title>
<ellipse fill="#ffff80" stroke="black" cx="969.16" cy="-165.64" rx="127.97" ry="21.43"/>
<text text-anchor="middle" x="969.16" y="-160.64" font-family="Times,serif" font-size="20.00">IsSwitchedOff(light)</text>
</g>
<!-- 274eb2d8&#45;30c4&#45;4284&#45;8987&#45;96bb2522d1af&#45;&gt;d5799ad6&#45;31bf&#45;4cd9&#45;bd1b&#45;5ccd2a90cfbe -->
<g id="edge28" class="edge">
<title>274eb2d8&#45;30c4&#45;4284&#45;8987&#45;96bb2522d1af&#45;&gt;d5799ad6&#45;31bf&#45;4cd9&#45;bd1b&#45;5ccd2a90cfbe</title>
<path fill="none" stroke="black" d="M848.9,-227.38C867.52,-217.98 896.8,-203.19 921.82,-190.55"/>
<polygon fill="black" stroke="black" points="923.46,-193.64 930.81,-186.01 920.31,-187.39 923.46,-193.64"/>
</g>
<!-- 78d6bf6c&#45;43e8&#45;469b&#45;94ff&#45;76747ee22a68 -->
<g id="node30" class="node">
<title>78d6bf6c&#45;43e8&#45;469b&#45;94ff&#45;76747ee22a68</title>
<polygon fill="lightgreen" stroke="black" points="1263.66,-183.64 1114.66,-183.64 1114.66,-147.64 1263.66,-147.64 1263.66,-183.64"/>
<text text-anchor="middle" x="1189.16" y="-160.64" font-family="Times,serif" font-size="20.00">SwitchOn(radio)</text>
</g>
<!-- 274eb2d8&#45;30c4&#45;4284&#45;8987&#45;96bb2522d1af&#45;&gt;78d6bf6c&#45;43e8&#45;469b&#45;94ff&#45;76747ee22a68 -->
<g id="edge29" class="edge">
<title>274eb2d8&#45;30c4&#45;4284&#45;8987&#45;96bb2522d1af&#45;&gt;78d6bf6c&#45;43e8&#45;469b&#45;94ff&#45;76747ee22a68</title>
<path fill="none" stroke="black" d="M848.97,-233.84C893.72,-226.6 1009.93,-207.27 1106.16,-186.85 1107.61,-186.55 1109.07,-186.23 1110.55,-185.91"/>
<polygon fill="black" stroke="black" points="1111.39,-189.31 1120.39,-183.72 1109.87,-182.48 1111.39,-189.31"/>
</g>
<!-- 0370e41f&#45;c1d7&#45;44d6&#45;b322&#45;0060f5004317 -->
<g id="node32" class="node">
<title>0370e41f&#45;c1d7&#45;44d6&#45;b322&#45;0060f5004317</title>
<ellipse fill="#ffff80" stroke="black" cx="914.16" cy="-310.07" rx="131.54" ry="21.43"/>
<text text-anchor="middle" x="914.16" y="-305.07" font-family="Times,serif" font-size="20.00">IsSwitchedOff(radio)</text>
</g>
<!-- bded665f&#45;dfc0&#45;4024&#45;a2c5&#45;f9c1e65bc5af&#45;&gt;0370e41f&#45;c1d7&#45;44d6&#45;b322&#45;0060f5004317 -->
<g id="edge31" class="edge">
<title>bded665f&#45;dfc0&#45;4024&#45;a2c5&#45;f9c1e65bc5af&#45;&gt;0370e41f&#45;c1d7&#45;44d6&#45;b322&#45;0060f5004317</title>
<path fill="none" stroke="black" d="M1173.49,-382.36C1136.16,-372.1 1050.55,-348.56 987.86,-331.33"/>
<polygon fill="black" stroke="black" points="988.58,-327.89 978.01,-328.62 986.72,-334.64 988.58,-327.89"/>
</g>
<!-- 5c96878f&#45;8bad&#45;45eb&#45;9386&#45;2ec8da835a1c -->
<g id="node33" class="node">
<title>5c96878f&#45;8bad&#45;45eb&#45;9386&#45;2ec8da835a1c</title>
<ellipse fill="#ffff80" stroke="black" cx="1192.16" cy="-310.07" rx="127.97" ry="21.43"/>
<text text-anchor="middle" x="1192.16" y="-305.07" font-family="Times,serif" font-size="20.00">IsSwitchedOff(light)</text>
</g>
<!-- bded665f&#45;dfc0&#45;4024&#45;a2c5&#45;f9c1e65bc5af&#45;&gt;5c96878f&#45;8bad&#45;45eb&#45;9386&#45;2ec8da835a1c -->
<g id="edge32" class="edge">
<title>bded665f&#45;dfc0&#45;4024&#45;a2c5&#45;f9c1e65bc5af&#45;&gt;5c96878f&#45;8bad&#45;45eb&#45;9386&#45;2ec8da835a1c</title>
<path fill="none" stroke="black" d="M1192.16,-373.47C1192.16,-364.53 1192.16,-352.57 1192.16,-341.52"/>
<polygon fill="black" stroke="black" points="1195.66,-341.33 1192.16,-331.33 1188.66,-341.33 1195.66,-341.33"/>
</g>
<!-- 3e7812b6&#45;9ff0&#45;4c4d&#45;a5d0&#45;e2c198e41210 -->
<g id="node34" class="node">
<title>3e7812b6&#45;9ff0&#45;4c4d&#45;a5d0&#45;e2c198e41210</title>
<ellipse fill="#ffff80" stroke="black" cx="1421.16" cy="-310.07" rx="83.38" ry="21.43"/>
<text text-anchor="middle" x="1421.16" y="-305.07" font-family="Times,serif" font-size="20.00">Holding(pie)</text>
</g>
<!-- bded665f&#45;dfc0&#45;4024&#45;a2c5&#45;f9c1e65bc5af&#45;&gt;3e7812b6&#45;9ff0&#45;4c4d&#45;a5d0&#45;e2c198e41210 -->
<g id="edge33" class="edge">
<title>bded665f&#45;dfc0&#45;4024&#45;a2c5&#45;f9c1e65bc5af&#45;&gt;3e7812b6&#45;9ff0&#45;4c4d&#45;a5d0&#45;e2c198e41210</title>
<path fill="none" stroke="black" d="M1209.64,-373.46C1213.01,-371.17 1216.59,-369 1220.16,-367.28 1243.52,-356.02 1303.6,-339.78 1352.03,-327.65"/>
<polygon fill="black" stroke="black" points="1353,-331.01 1361.85,-325.2 1351.31,-324.22 1353,-331.01"/>
</g>
<!-- 1f5a8f20&#45;aa79&#45;431c&#45;b818&#45;2a19eb1fbf4a -->
<g id="node35" class="node">
<title>1f5a8f20&#45;aa79&#45;431c&#45;b818&#45;2a19eb1fbf4a</title>
<polygon fill="lightgreen" stroke="black" points="1764.16,-328.07 1522.16,-328.07 1522.16,-292.07 1764.16,-292.07 1764.16,-328.07"/>
<text text-anchor="middle" x="1643.16" y="-305.07" font-family="Times,serif" font-size="20.00">PlaceOnBreakfastTable(pie)</text>
</g>
<!-- bded665f&#45;dfc0&#45;4024&#45;a2c5&#45;f9c1e65bc5af&#45;&gt;1f5a8f20&#45;aa79&#45;431c&#45;b818&#45;2a19eb1fbf4a -->
<g id="edge34" class="edge">
<title>bded665f&#45;dfc0&#45;4024&#45;a2c5&#45;f9c1e65bc5af&#45;&gt;1f5a8f20&#45;aa79&#45;431c&#45;b818&#45;2a19eb1fbf4a</title>
<path fill="none" stroke="black" d="M1208.83,-373.41C1212.39,-371.02 1216.25,-368.81 1220.16,-367.28 1342.3,-319.37 1383.21,-349.36 1513.16,-331.28 1517.12,-330.73 1521.14,-330.16 1525.21,-329.57"/>
<polygon fill="black" stroke="black" points="1525.98,-333 1535.37,-328.1 1524.97,-326.07 1525.98,-333"/>
</g>
<!-- 0e8ed7c7&#45;7e4c&#45;4a3b&#45;a021&#45;51e6432df563 -->
<g id="node37" class="node">
<title>0e8ed7c7&#45;7e4c&#45;4a3b&#45;a021&#45;51e6432df563</title>
<ellipse fill="#ffff80" stroke="black" cx="1315.16" cy="-388.49" rx="86.03" ry="21.43"/>
<text text-anchor="middle" x="1315.16" y="-383.49" font-family="Times,serif" font-size="20.00">On(pie,table)</text>
</g>
<!-- 4c0629a6&#45;0684&#45;40c3&#45;b7e8&#45;13f955aef310&#45;&gt;0e8ed7c7&#45;7e4c&#45;4a3b&#45;a021&#45;51e6432df563 -->
<g id="edge36" class="edge">
<title>4c0629a6&#45;0684&#45;40c3&#45;b7e8&#45;13f955aef310&#45;&gt;0e8ed7c7&#45;7e4c&#45;4a3b&#45;a021&#45;51e6432df563</title>
<path fill="none" stroke="black" d="M1656.49,-456.34C1613.17,-448.49 1502.42,-428.22 1410.16,-409.71 1402.92,-408.25 1395.37,-406.7 1387.84,-405.14"/>
<polygon fill="black" stroke="black" points="1388.47,-401.69 1377.97,-403.07 1387.04,-408.55 1388.47,-401.69"/>
</g>
<!-- e2326196&#45;1640&#45;4953&#45;967c&#45;d7a4f108abc3 -->
<g id="node38" class="node">
<title>e2326196&#45;1640&#45;4953&#45;967c&#45;d7a4f108abc3</title>
<ellipse fill="#ffff80" stroke="black" cx="1551.16" cy="-388.49" rx="131.54" ry="21.43"/>
<text text-anchor="middle" x="1551.16" y="-383.49" font-family="Times,serif" font-size="20.00">IsSwitchedOff(radio)</text>
</g>
<!-- 4c0629a6&#45;0684&#45;40c3&#45;b7e8&#45;13f955aef310&#45;&gt;e2326196&#45;1640&#45;4953&#45;967c&#45;d7a4f108abc3 -->
<g id="edge37" class="edge">
<title>4c0629a6&#45;0684&#45;40c3&#45;b7e8&#45;13f955aef310&#45;&gt;e2326196&#45;1640&#45;4953&#45;967c&#45;d7a4f108abc3</title>
<path fill="none" stroke="black" d="M1656.59,-449.19C1640.28,-439.96 1615.9,-426.15 1594.69,-414.14"/>
<polygon fill="black" stroke="black" points="1596.25,-411 1585.83,-409.12 1592.8,-417.1 1596.25,-411"/>
</g>
<!-- c608988a&#45;4284&#45;44fd&#45;9375&#45;d5d07a2a7df6 -->
<g id="node39" class="node">
<title>c608988a&#45;4284&#45;44fd&#45;9375&#45;d5d07a2a7df6</title>
<ellipse fill="#ffff80" stroke="black" cx="1800.16" cy="-388.49" rx="98.99" ry="21.43"/>
<text text-anchor="middle" x="1800.16" y="-383.49" font-family="Times,serif" font-size="20.00">IsHandEmpty()</text>
</g>
<!-- 4c0629a6&#45;0684&#45;40c3&#45;b7e8&#45;13f955aef310&#45;&gt;c608988a&#45;4284&#45;44fd&#45;9375&#45;d5d07a2a7df6 -->
<g id="edge38" class="edge">
<title>4c0629a6&#45;0684&#45;40c3&#45;b7e8&#45;13f955aef310&#45;&gt;c608988a&#45;4284&#45;44fd&#45;9375&#45;d5d07a2a7df6</title>
<path fill="none" stroke="black" d="M1693.87,-449.19C1710.63,-439.78 1735.84,-425.62 1757.49,-413.46"/>
<polygon fill="black" stroke="black" points="1759.21,-416.51 1766.21,-408.56 1755.78,-410.41 1759.21,-416.51"/>
</g>
<!-- 9a1d971a&#45;a095&#45;4c3d&#45;842a&#45;f2f8358d3b6b -->
<g id="node40" class="node">
<title>9a1d971a&#45;a095&#45;4c3d&#45;842a&#45;f2f8358d3b6b</title>
<ellipse fill="#ffff80" stroke="black" cx="2045.16" cy="-388.49" rx="127.97" ry="21.43"/>
<text text-anchor="middle" x="2045.16" y="-383.49" font-family="Times,serif" font-size="20.00">IsSwitchedOff(light)</text>
</g>
<!-- 4c0629a6&#45;0684&#45;40c3&#45;b7e8&#45;13f955aef310&#45;&gt;9a1d971a&#45;a095&#45;4c3d&#45;842a&#45;f2f8358d3b6b -->
<g id="edge39" class="edge">
<title>4c0629a6&#45;0684&#45;40c3&#45;b7e8&#45;13f955aef310&#45;&gt;9a1d971a&#45;a095&#45;4c3d&#45;842a&#45;f2f8358d3b6b</title>
<path fill="none" stroke="black" d="M1693.76,-456.18C1740.68,-447.27 1866.32,-423.43 1953.89,-406.81"/>
<polygon fill="black" stroke="black" points="1954.66,-410.23 1963.84,-404.92 1953.36,-403.35 1954.66,-410.23"/>
</g>
<!-- 478015d1&#45;f8a0&#45;4920&#45;95e6&#45;332096ef919c -->
<g id="node41" class="node">
<title>478015d1&#45;f8a0&#45;4920&#45;95e6&#45;332096ef919c</title>
<polygon fill="lightgreen" stroke="black" points="2303.66,-406.49 2190.66,-406.49 2190.66,-370.49 2303.66,-370.49 2303.66,-406.49"/>
<text text-anchor="middle" x="2247.16" y="-383.49" font-family="Times,serif" font-size="20.00">PickUp(pie)</text>
</g>
<!-- 4c0629a6&#45;0684&#45;40c3&#45;b7e8&#45;13f955aef310&#45;&gt;478015d1&#45;f8a0&#45;4920&#45;95e6&#45;332096ef919c -->
<g id="edge40" class="edge">
<title>4c0629a6&#45;0684&#45;40c3&#45;b7e8&#45;13f955aef310&#45;&gt;478015d1&#45;f8a0&#45;4920&#45;95e6&#45;332096ef919c</title>
<path fill="none" stroke="black" d="M1693.78,-459.23C1760.55,-457.24 1994.05,-447.82 2182.16,-409.71 2183.26,-409.48 2184.37,-409.25 2185.48,-409"/>
<polygon fill="black" stroke="black" points="2186.7,-412.31 2195.6,-406.56 2185.06,-405.5 2186.7,-412.31"/>
</g>
<!-- 38a3532c&#45;c0e6&#45;4392&#45;9cb1&#45;2a1ad71d4a47 -->
<g id="node43" class="node">
<title>38a3532c&#45;c0e6&#45;4392&#45;9cb1&#45;2a1ad71d4a47</title>
<ellipse fill="#ffff80" stroke="black" cx="1664.16" cy="-532.92" rx="131.54" ry="21.43"/>
<text text-anchor="middle" x="1664.16" y="-527.92" font-family="Times,serif" font-size="20.00">IsSwitchedOff(radio)</text>
</g>
<!-- 3a92b2de&#45;0c59&#45;4074&#45;8959&#45;72ab546bd256&#45;&gt;38a3532c&#45;c0e6&#45;4392&#45;9cb1&#45;2a1ad71d4a47 -->
<g id="edge42" class="edge">
<title>3a92b2de&#45;0c59&#45;4074&#45;8959&#45;72ab546bd256&#45;&gt;38a3532c&#45;c0e6&#45;4392&#45;9cb1&#45;2a1ad71d4a47</title>
<path fill="none" stroke="black" d="M2166.56,-601.76C2111.41,-594.72 1943.92,-573.21 1805.16,-554.13 1793.48,-552.53 1781.27,-550.82 1769.12,-549.1"/>
<polygon fill="black" stroke="black" points="1769.34,-545.6 1758.94,-547.66 1768.35,-552.53 1769.34,-545.6"/>
</g>
<!-- 1cd160ed&#45;c8cf&#45;4409&#45;bbe6&#45;a9a9c83e569d -->
<g id="node44" class="node">
<title>1cd160ed&#45;c8cf&#45;4409&#45;bbe6&#45;a9a9c83e569d</title>
<ellipse fill="#ffff80" stroke="black" cx="1942.16" cy="-532.92" rx="127.97" ry="21.43"/>
<text text-anchor="middle" x="1942.16" y="-527.92" font-family="Times,serif" font-size="20.00">IsSwitchedOff(light)</text>
</g>
<!-- 3a92b2de&#45;0c59&#45;4074&#45;8959&#45;72ab546bd256&#45;&gt;1cd160ed&#45;c8cf&#45;4409&#45;bbe6&#45;a9a9c83e569d -->
<g id="edge43" class="edge">
<title>3a92b2de&#45;0c59&#45;4074&#45;8959&#45;72ab546bd256&#45;&gt;1cd160ed&#45;c8cf&#45;4409&#45;bbe6&#45;a9a9c83e569d</title>
<path fill="none" stroke="black" d="M2166.49,-598.74C2134.06,-589.37 2065.72,-569.62 2012.94,-554.37"/>
<polygon fill="black" stroke="black" points="2013.85,-550.99 2003.27,-551.58 2011.91,-557.72 2013.85,-550.99"/>
</g>
<!-- 640ee6e3&#45;3ae8&#45;4f66&#45;b801&#45;96a4acd0ba6a -->
<g id="node45" class="node">
<title>640ee6e3&#45;3ae8&#45;4f66&#45;b801&#45;96a4acd0ba6a</title>
<ellipse fill="#ffff80" stroke="black" cx="2185.16" cy="-532.92" rx="96.75" ry="21.43"/>
<text text-anchor="middle" x="2185.16" y="-527.92" font-family="Times,serif" font-size="20.00">IsClosed(oven)</text>
</g>
<!-- 3a92b2de&#45;0c59&#45;4074&#45;8959&#45;72ab546bd256&#45;&gt;640ee6e3&#45;3ae8&#45;4f66&#45;b801&#45;96a4acd0ba6a -->
<g id="edge44" class="edge">
<title>3a92b2de&#45;0c59&#45;4074&#45;8959&#45;72ab546bd256&#45;&gt;640ee6e3&#45;3ae8&#45;4f66&#45;b801&#45;96a4acd0ba6a</title>
<path fill="none" stroke="black" d="M2185.16,-589.92C2185.16,-582.55 2185.16,-573.24 2185.16,-564.35"/>
<polygon fill="black" stroke="black" points="2188.66,-564.23 2185.16,-554.23 2181.66,-564.23 2188.66,-564.23"/>
</g>
<!-- 11e06c60&#45;0033&#45;4df4&#45;a469&#45;7ba2d0aacdd3 -->
<g id="node46" class="node">
<title>11e06c60&#45;0033&#45;4df4&#45;a469&#45;7ba2d0aacdd3</title>
<ellipse fill="#ffff80" stroke="black" cx="2386.16" cy="-532.92" rx="86.03" ry="21.43"/>
<text text-anchor="middle" x="2386.16" y="-527.92" font-family="Times,serif" font-size="20.00">On(pie,table)</text>
</g>
<!-- 3a92b2de&#45;0c59&#45;4074&#45;8959&#45;72ab546bd256&#45;&gt;11e06c60&#45;0033&#45;4df4&#45;a469&#45;7ba2d0aacdd3 -->
<g id="edge45" class="edge">
<title>3a92b2de&#45;0c59&#45;4074&#45;8959&#45;72ab546bd256&#45;&gt;11e06c60&#45;0033&#45;4df4&#45;a469&#45;7ba2d0aacdd3</title>
<path fill="none" stroke="black" d="M2203.71,-597.65C2231.84,-587.83 2286.47,-568.74 2328.66,-554.01"/>
<polygon fill="black" stroke="black" points="2329.98,-557.25 2338.27,-550.65 2327.67,-550.64 2329.98,-557.25"/>
</g>
<!-- e422a03d&#45;453f&#45;418b&#45;b970&#45;d212cbc1d52e -->
<g id="node47" class="node">
<title>e422a03d&#45;453f&#45;418b&#45;b970&#45;d212cbc1d52e</title>
<ellipse fill="#ffff80" stroke="black" cx="2589.16" cy="-532.92" rx="98.99" ry="21.43"/>
<text text-anchor="middle" x="2589.16" y="-527.92" font-family="Times,serif" font-size="20.00">IsHandEmpty()</text>
</g>
<!-- 3a92b2de&#45;0c59&#45;4074&#45;8959&#45;72ab546bd256&#45;&gt;e422a03d&#45;453f&#45;418b&#45;b970&#45;d212cbc1d52e -->
<g id="edge46" class="edge">
<title>3a92b2de&#45;0c59&#45;4074&#45;8959&#45;72ab546bd256&#45;&gt;e422a03d&#45;453f&#45;418b&#45;b970&#45;d212cbc1d52e</title>
<path fill="none" stroke="black" d="M2203.88,-601.09C2250.67,-593.45 2376.49,-572.77 2481.16,-554.13 2489.62,-552.63 2498.44,-551.02 2507.25,-549.41"/>
<polygon fill="black" stroke="black" points="2507.96,-552.84 2517.15,-547.58 2506.68,-545.95 2507.96,-552.84"/>
</g>
<!-- b645cc6e&#45;4bea&#45;41b0&#45;9947&#45;20021505b5db -->
<g id="node48" class="node">
<title>b645cc6e&#45;4bea&#45;41b0&#45;9947&#45;20021505b5db</title>
<polygon fill="lightgreen" stroke="black" points="2898.16,-550.92 2706.16,-550.92 2706.16,-514.92 2898.16,-514.92 2898.16,-550.92"/>
<text text-anchor="middle" x="2802.16" y="-527.92" font-family="Times,serif" font-size="20.00">OpenAppliance(oven)</text>
</g>
<!-- 3a92b2de&#45;0c59&#45;4074&#45;8959&#45;72ab546bd256&#45;&gt;b645cc6e&#45;4bea&#45;41b0&#45;9947&#45;20021505b5db -->
<g id="edge47" class="edge">
<title>3a92b2de&#45;0c59&#45;4074&#45;8959&#45;72ab546bd256&#45;&gt;b645cc6e&#45;4bea&#45;41b0&#45;9947&#45;20021505b5db</title>
<path fill="none" stroke="black" d="M2203.83,-602.94C2270.83,-598.52 2505.35,-581.9 2697.16,-554.13 2700.57,-553.64 2704.04,-553.11 2707.54,-552.55"/>
<polygon fill="black" stroke="black" points="2708.16,-556 2717.46,-550.92 2707.02,-549.09 2708.16,-556"/>
</g>
</g>
</svg>
