<?xml version="1.0" encoding="UTF-8" standalone="no"?>
<!DOCTYPE svg PUBLIC "-//W3C//DTD SVG 1.1//EN"
 "http://www.w3.org/Graphics/SVG/1.1/DTD/svg11.dtd">
<!-- Generated by graphviz version 2.43.0 (0)
 -->
<!-- Title: pastafarianism Pages: 1 -->
<svg width="3180pt" height="760pt"
 viewBox="0.00 0.00 3179.75 760.13" xmlns="http://www.w3.org/2000/svg" xmlns:xlink="http://www.w3.org/1999/xlink">
<g id="graph0" class="graph" transform="scale(1 1) rotate(0) translate(4 756.13)">
<title>pastafarianism</title>
<polygon fill="white" stroke="transparent" points="-4,4 -4,-756.13 3175.75,-756.13 3175.75,4 -4,4"/>
<!-- f376668e&#45;4ade&#45;4ba4&#45;9011&#45;8dd92405ba90 -->
<g id="node1" class="node">
<title>f376668e&#45;4ade&#45;4ba4&#45;9011&#45;8dd92405ba90</title>
<polygon fill="#b0ffff" stroke="black" points="1524.25,-752.13 1488.25,-752.13 1488.25,-722.13 1524.25,-722.13 1524.25,-752.13"/>
<text text-anchor="middle" x="1506.25" y="-732.13" font-family="Times,serif" font-size="20.00"> ? </text>
</g>
<!-- 45a4b79b&#45;210f&#45;4265&#45;8c8c&#45;589e8a1dbca9 -->
<g id="node2" class="node">
<title>45a4b79b&#45;210f&#45;4265&#45;8c8c&#45;589e8a1dbca9</title>
<polygon fill="#ff8080" stroke="black" points="858.75,-686.13 821.75,-686.13 821.75,-656.13 858.75,-656.13 858.75,-686.13"/>
<text text-anchor="middle" x="840.25" y="-666.13" font-family="Times,serif" font-size="20.00">→</text>
</g>
<!-- f376668e&#45;4ade&#45;4ba4&#45;9011&#45;8dd92405ba90&#45;&gt;45a4b79b&#45;210f&#45;4265&#45;8c8c&#45;589e8a1dbca9 -->
<g id="edge1" class="edge">
<title>f376668e&#45;4ade&#45;4ba4&#45;9011&#45;8dd92405ba90&#45;&gt;45a4b79b&#45;210f&#45;4265&#45;8c8c&#45;589e8a1dbca9</title>
<path fill="none" stroke="black" d="M1488.09,-734.39C1396.2,-725.56 982.38,-685.79 869.03,-674.9"/>
<polygon fill="black" stroke="black" points="869.31,-671.41 859.02,-673.94 868.64,-678.38 869.31,-671.41"/>
</g>
<!-- 641d75ea&#45;964d&#45;48b8&#45;8c20&#45;99f26e65bf0b -->
<g id="node8" class="node">
<title>641d75ea&#45;964d&#45;48b8&#45;8c20&#45;99f26e65bf0b</title>
<polygon fill="#ff8080" stroke="black" points="1524.75,-686.13 1487.75,-686.13 1487.75,-656.13 1524.75,-656.13 1524.75,-686.13"/>
<text text-anchor="middle" x="1506.25" y="-666.13" font-family="Times,serif" font-size="20.00">→</text>
</g>
<!-- f376668e&#45;4ade&#45;4ba4&#45;9011&#45;8dd92405ba90&#45;&gt;641d75ea&#45;964d&#45;48b8&#45;8c20&#45;99f26e65bf0b -->
<g id="edge7" class="edge">
<title>f376668e&#45;4ade&#45;4ba4&#45;9011&#45;8dd92405ba90&#45;&gt;641d75ea&#45;964d&#45;48b8&#45;8c20&#45;99f26e65bf0b</title>
<path fill="none" stroke="black" d="M1506.25,-721.93C1506.25,-714.47 1506.25,-705.12 1506.25,-696.55"/>
<polygon fill="black" stroke="black" points="1509.75,-696.3 1506.25,-686.3 1502.75,-696.3 1509.75,-696.3"/>
</g>
<!-- fc5907c4&#45;5aec&#45;4199&#45;adac&#45;532a7298e9b7 -->
<g id="node41" class="node">
<title>fc5907c4&#45;5aec&#45;4199&#45;adac&#45;532a7298e9b7</title>
<polygon fill="#ff8080" stroke="black" points="2250.75,-686.13 2213.75,-686.13 2213.75,-656.13 2250.75,-656.13 2250.75,-686.13"/>
<text text-anchor="middle" x="2232.25" y="-666.13" font-family="Times,serif" font-size="20.00">→</text>
</g>
<!-- f376668e&#45;4ade&#45;4ba4&#45;9011&#45;8dd92405ba90&#45;&gt;fc5907c4&#45;5aec&#45;4199&#45;adac&#45;532a7298e9b7 -->
<g id="edge40" class="edge">
<title>f376668e&#45;4ade&#45;4ba4&#45;9011&#45;8dd92405ba90&#45;&gt;fc5907c4&#45;5aec&#45;4199&#45;adac&#45;532a7298e9b7</title>
<path fill="none" stroke="black" d="M1524.56,-734.52C1622.34,-725.9 2083,-685.29 2203.4,-674.68"/>
<polygon fill="black" stroke="black" points="2204,-678.14 2213.66,-673.77 2203.39,-671.16 2204,-678.14"/>
</g>
<!-- f18e5e80&#45;59c4&#45;434d&#45;89b4&#45;050568ed517a -->
<g id="node3" class="node">
<title>f18e5e80&#45;59c4&#45;434d&#45;89b4&#45;050568ed517a</title>
<ellipse fill="#ffff80" stroke="black" cx="144.25" cy="-598.92" rx="144.5" ry="21.43"/>
<text text-anchor="middle" x="144.25" y="-593.92" font-family="Times,serif" font-size="20.00">On(pie,breakfast_table)</text>
</g>
<!-- 45a4b79b&#45;210f&#45;4265&#45;8c8c&#45;589e8a1dbca9&#45;&gt;f18e5e80&#45;59c4&#45;434d&#45;89b4&#45;050568ed517a -->
<g id="edge2" class="edge">
<title>45a4b79b&#45;210f&#45;4265&#45;8c8c&#45;589e8a1dbca9&#45;&gt;f18e5e80&#45;59c4&#45;434d&#45;89b4&#45;050568ed517a</title>
<path fill="none" stroke="black" d="M821.47,-668.67C751.9,-663.21 502.35,-643.11 297.25,-620.13 283.97,-618.64 270.05,-616.97 256.25,-615.23"/>
<polygon fill="black" stroke="black" points="256.59,-611.75 246.23,-613.96 255.71,-618.69 256.59,-611.75"/>
</g>
<!-- 1276a682&#45;8696&#45;4d6e&#45;b5ca&#45;081cccf5df69 -->
<g id="node4" class="node">
<title>1276a682&#45;8696&#45;4d6e&#45;b5ca&#45;081cccf5df69</title>
<ellipse fill="#ffff80" stroke="black" cx="431.25" cy="-598.92" rx="125.32" ry="21.43"/>
<text text-anchor="middle" x="431.25" y="-593.92" font-family="Times,serif" font-size="20.00">IsSwitchedOn(light)</text>
</g>
<!-- 45a4b79b&#45;210f&#45;4265&#45;8c8c&#45;589e8a1dbca9&#45;&gt;1276a682&#45;8696&#45;4d6e&#45;b5ca&#45;081cccf5df69 -->
<g id="edge3" class="edge">
<title>45a4b79b&#45;210f&#45;4265&#45;8c8c&#45;589e8a1dbca9&#45;&gt;1276a682&#45;8696&#45;4d6e&#45;b5ca&#45;081cccf5df69</title>
<path fill="none" stroke="black" d="M821.61,-666.93C770.32,-658.13 624.36,-633.07 526.2,-616.22"/>
<polygon fill="black" stroke="black" points="526.7,-612.75 516.26,-614.51 525.52,-619.65 526.7,-612.75"/>
</g>
<!-- 015d8296&#45;31f2&#45;4ef2&#45;a97e&#45;15ff12cb6077 -->
<g id="node5" class="node">
<title>015d8296&#45;31f2&#45;4ef2&#45;a97e&#45;15ff12cb6077</title>
<ellipse fill="#ffff80" stroke="black" cx="711.25" cy="-598.92" rx="137.36" ry="21.43"/>
<text text-anchor="middle" x="711.25" y="-593.92" font-family="Times,serif" font-size="20.00">IsOpened(microwave)</text>
</g>
<!-- 45a4b79b&#45;210f&#45;4265&#45;8c8c&#45;589e8a1dbca9&#45;&gt;015d8296&#45;31f2&#45;4ef2&#45;a97e&#45;15ff12cb6077 -->
<g id="edge4" class="edge">
<title>45a4b79b&#45;210f&#45;4265&#45;8c8c&#45;589e8a1dbca9&#45;&gt;015d8296&#45;31f2&#45;4ef2&#45;a97e&#45;15ff12cb6077</title>
<path fill="none" stroke="black" d="M821.49,-659.92C804.42,-650.63 778.53,-636.54 756.14,-624.35"/>
<polygon fill="black" stroke="black" points="757.57,-621.14 747.11,-619.44 754.22,-627.29 757.57,-621.14"/>
</g>
<!-- c7a56b03&#45;6ad7&#45;4a91&#45;a71e&#45;e9509dfd1bfb -->
<g id="node6" class="node">
<title>c7a56b03&#45;6ad7&#45;4a91&#45;a71e&#45;e9509dfd1bfb</title>
<ellipse fill="#ffff80" stroke="black" cx="968.25" cy="-598.92" rx="101.65" ry="21.43"/>
<text text-anchor="middle" x="968.25" y="-593.92" font-family="Times,serif" font-size="20.00">IsOpened(oven)</text>
</g>
<!-- 45a4b79b&#45;210f&#45;4265&#45;8c8c&#45;589e8a1dbca9&#45;&gt;c7a56b03&#45;6ad7&#45;4a91&#45;a71e&#45;e9509dfd1bfb -->
<g id="edge5" class="edge">
<title>45a4b79b&#45;210f&#45;4265&#45;8c8c&#45;589e8a1dbca9&#45;&gt;c7a56b03&#45;6ad7&#45;4a91&#45;a71e&#45;e9509dfd1bfb</title>
<path fill="none" stroke="black" d="M858.86,-659.92C875.99,-650.53 902.04,-636.24 924.43,-623.96"/>
<polygon fill="black" stroke="black" points="926.36,-626.89 933.44,-619.01 922.99,-620.75 926.36,-626.89"/>
</g>
<!-- 9071db4d&#45;0809&#45;4f2f&#45;bc0f&#45;fc8af350846e -->
<g id="node7" class="node">
<title>9071db4d&#45;0809&#45;4f2f&#45;bc0f&#45;fc8af350846e</title>
<ellipse fill="#ffff80" stroke="black" cx="1217.25" cy="-598.92" rx="128.89" ry="21.43"/>
<text text-anchor="middle" x="1217.25" y="-593.92" font-family="Times,serif" font-size="20.00">IsSwitchedOn(radio)</text>
</g>
<!-- 45a4b79b&#45;210f&#45;4265&#45;8c8c&#45;589e8a1dbca9&#45;&gt;9071db4d&#45;0809&#45;4f2f&#45;bc0f&#45;fc8af350846e -->
<g id="edge6" class="edge">
<title>45a4b79b&#45;210f&#45;4265&#45;8c8c&#45;589e8a1dbca9&#45;&gt;9071db4d&#45;0809&#45;4f2f&#45;bc0f&#45;fc8af350846e</title>
<path fill="none" stroke="black" d="M858.95,-666.65C906.63,-657.77 1035.34,-633.8 1124.75,-617.15"/>
<polygon fill="black" stroke="black" points="1125.44,-620.58 1134.63,-615.31 1124.16,-613.7 1125.44,-620.58"/>
</g>
<!-- 056de6cb&#45;4963&#45;4b94&#45;a0e7&#45;fd8d4733581d -->
<g id="node9" class="node">
<title>056de6cb&#45;4963&#45;4b94&#45;a0e7&#45;fd8d4733581d</title>
<ellipse fill="#ffff80" stroke="black" cx="1447.25" cy="-598.92" rx="83.38" ry="21.43"/>
<text text-anchor="middle" x="1447.25" y="-593.92" font-family="Times,serif" font-size="20.00">Holding(pie)</text>
</g>
<!-- 641d75ea&#45;964d&#45;48b8&#45;8c20&#45;99f26e65bf0b&#45;&gt;056de6cb&#45;4963&#45;4b94&#45;a0e7&#45;fd8d4733581d -->
<g id="edge8" class="edge">
<title>641d75ea&#45;964d&#45;48b8&#45;8c20&#45;99f26e65bf0b&#45;&gt;056de6cb&#45;4963&#45;4b94&#45;a0e7&#45;fd8d4733581d</title>
<path fill="none" stroke="black" d="M1494.31,-655.92C1487.52,-647.85 1478.79,-637.45 1470.69,-627.81"/>
<polygon fill="black" stroke="black" points="1473.2,-625.36 1464.09,-619.96 1467.84,-629.87 1473.2,-625.36"/>
</g>
<!-- 828058d3&#45;c487&#45;4beb&#45;b436&#45;2e09a2a75cc1 -->
<g id="node10" class="node">
<title>828058d3&#45;c487&#45;4beb&#45;b436&#45;2e09a2a75cc1</title>
<polygon fill="#b0ffff" stroke="black" points="1584.25,-613.92 1548.25,-613.92 1548.25,-583.92 1584.25,-583.92 1584.25,-613.92"/>
<text text-anchor="middle" x="1566.25" y="-593.92" font-family="Times,serif" font-size="20.00"> ? </text>
</g>
<!-- 641d75ea&#45;964d&#45;48b8&#45;8c20&#45;99f26e65bf0b&#45;&gt;828058d3&#45;c487&#45;4beb&#45;b436&#45;2e09a2a75cc1 -->
<g id="edge9" class="edge">
<title>641d75ea&#45;964d&#45;48b8&#45;8c20&#45;99f26e65bf0b&#45;&gt;828058d3&#45;c487&#45;4beb&#45;b436&#45;2e09a2a75cc1</title>
<path fill="none" stroke="black" d="M1518.39,-655.92C1526.77,-646.12 1538.07,-632.9 1547.58,-621.77"/>
<polygon fill="black" stroke="black" points="1550.29,-623.98 1554.13,-614.11 1544.97,-619.43 1550.29,-623.98"/>
</g>
<!-- 2aa104d0&#45;8b23&#45;4bbc&#45;a6de&#45;e1e8d07f9f38 -->
<g id="node11" class="node">
<title>2aa104d0&#45;8b23&#45;4bbc&#45;a6de&#45;e1e8d07f9f38</title>
<polygon fill="#ff8080" stroke="black" points="1222.75,-541.71 1185.75,-541.71 1185.75,-511.71 1222.75,-511.71 1222.75,-541.71"/>
<text text-anchor="middle" x="1204.25" y="-521.71" font-family="Times,serif" font-size="20.00">→</text>
</g>
<!-- 828058d3&#45;c487&#45;4beb&#45;b436&#45;2e09a2a75cc1&#45;&gt;2aa104d0&#45;8b23&#45;4bbc&#45;a6de&#45;e1e8d07f9f38 -->
<g id="edge10" class="edge">
<title>828058d3&#45;c487&#45;4beb&#45;b436&#45;2e09a2a75cc1&#45;&gt;2aa104d0&#45;8b23&#45;4bbc&#45;a6de&#45;e1e8d07f9f38</title>
<path fill="none" stroke="black" d="M1550.19,-583.91C1546.77,-581.51 1543.03,-579.28 1539.25,-577.71 1432.73,-533.25 1292.62,-527.57 1233.04,-527.34"/>
<polygon fill="black" stroke="black" points="1232.88,-523.84 1222.88,-527.35 1232.89,-530.84 1232.88,-523.84"/>
</g>
<!-- f09fd757&#45;ca46&#45;4f46&#45;8bbd&#45;8dfc593f5ae3 -->
<g id="node35" class="node">
<title>f09fd757&#45;ca46&#45;4f46&#45;8bbd&#45;8dfc593f5ae3</title>
<polygon fill="#ff8080" stroke="black" points="1805.75,-541.71 1768.75,-541.71 1768.75,-511.71 1805.75,-511.71 1805.75,-541.71"/>
<text text-anchor="middle" x="1787.25" y="-521.71" font-family="Times,serif" font-size="20.00">→</text>
</g>
<!-- 828058d3&#45;c487&#45;4beb&#45;b436&#45;2e09a2a75cc1&#45;&gt;f09fd757&#45;ca46&#45;4f46&#45;8bbd&#45;8dfc593f5ae3 -->
<g id="edge34" class="edge">
<title>828058d3&#45;c487&#45;4beb&#45;b436&#45;2e09a2a75cc1&#45;&gt;f09fd757&#45;ca46&#45;4f46&#45;8bbd&#45;8dfc593f5ae3</title>
<path fill="none" stroke="black" d="M1583.03,-583.81C1586.28,-581.53 1589.77,-579.38 1593.25,-577.71 1648.43,-551.23 1719.4,-537.53 1758.39,-531.55"/>
<polygon fill="black" stroke="black" points="1759.12,-534.98 1768.5,-530.06 1758.1,-528.05 1759.12,-534.98"/>
</g>
<!-- 11b0e2b2&#45;96dc&#45;4666&#45;ad94&#45;8a43d89b1637 -->
<g id="node12" class="node">
<title>11b0e2b2&#45;96dc&#45;4666&#45;ad94&#45;8a43d89b1637</title>
<ellipse fill="#ffff80" stroke="black" cx="1039.25" cy="-454.49" rx="128.89" ry="21.43"/>
<text text-anchor="middle" x="1039.25" y="-449.49" font-family="Times,serif" font-size="20.00">IsSwitchedOn(radio)</text>
</g>
<!-- 2aa104d0&#45;8b23&#45;4bbc&#45;a6de&#45;e1e8d07f9f38&#45;&gt;11b0e2b2&#45;96dc&#45;4666&#45;ad94&#45;8a43d89b1637 -->
<g id="edge11" class="edge">
<title>2aa104d0&#45;8b23&#45;4bbc&#45;a6de&#45;e1e8d07f9f38&#45;&gt;11b0e2b2&#45;96dc&#45;4666&#45;ad94&#45;8a43d89b1637</title>
<path fill="none" stroke="black" d="M1185.64,-517.79C1163.32,-508.29 1124.92,-491.95 1093.05,-478.38"/>
<polygon fill="black" stroke="black" points="1094.39,-475.15 1083.82,-474.46 1091.65,-481.59 1094.39,-475.15"/>
</g>
<!-- a67597f0&#45;58b7&#45;4ef9&#45;b035&#45;c3f3f5c9734c -->
<g id="node13" class="node">
<title>a67597f0&#45;58b7&#45;4ef9&#45;b035&#45;c3f3f5c9734c</title>
<polygon fill="#b0ffff" stroke="black" points="1222.25,-469.49 1186.25,-469.49 1186.25,-439.49 1222.25,-439.49 1222.25,-469.49"/>
<text text-anchor="middle" x="1204.25" y="-449.49" font-family="Times,serif" font-size="20.00"> ? </text>
</g>
<!-- 2aa104d0&#45;8b23&#45;4bbc&#45;a6de&#45;e1e8d07f9f38&#45;&gt;a67597f0&#45;58b7&#45;4ef9&#45;b035&#45;c3f3f5c9734c -->
<g id="edge12" class="edge">
<title>2aa104d0&#45;8b23&#45;4bbc&#45;a6de&#45;e1e8d07f9f38&#45;&gt;a67597f0&#45;58b7&#45;4ef9&#45;b035&#45;c3f3f5c9734c</title>
<path fill="none" stroke="black" d="M1204.25,-511.5C1204.25,-502.46 1204.25,-490.51 1204.25,-479.97"/>
<polygon fill="black" stroke="black" points="1207.75,-479.68 1204.25,-469.68 1200.75,-479.68 1207.75,-479.68"/>
</g>
<!-- e11ce74f&#45;898b&#45;4dca&#45;b8d1&#45;33f14cf9c183 -->
<g id="node14" class="node">
<title>e11ce74f&#45;898b&#45;4dca&#45;b8d1&#45;33f14cf9c183</title>
<polygon fill="#ff8080" stroke="black" points="1000.75,-397.28 963.75,-397.28 963.75,-367.28 1000.75,-367.28 1000.75,-397.28"/>
<text text-anchor="middle" x="982.25" y="-377.28" font-family="Times,serif" font-size="20.00">→</text>
</g>
<!-- a67597f0&#45;58b7&#45;4ef9&#45;b035&#45;c3f3f5c9734c&#45;&gt;e11ce74f&#45;898b&#45;4dca&#45;b8d1&#45;33f14cf9c183 -->
<g id="edge13" class="edge">
<title>a67597f0&#45;58b7&#45;4ef9&#45;b035&#45;c3f3f5c9734c&#45;&gt;e11ce74f&#45;898b&#45;4dca&#45;b8d1&#45;33f14cf9c183</title>
<path fill="none" stroke="black" d="M1187.47,-439.38C1184.22,-437.1 1180.74,-434.95 1177.25,-433.28 1121.65,-406.64 1050.08,-392.97 1010.95,-387.05"/>
<polygon fill="black" stroke="black" points="1011.21,-383.55 1000.81,-385.58 1010.21,-390.48 1011.21,-383.55"/>
</g>
<!-- 2e895382&#45;f51d&#45;4188&#45;8dab&#45;6bea5aa44701 -->
<g id="node30" class="node">
<title>2e895382&#45;f51d&#45;4188&#45;8dab&#45;6bea5aa44701</title>
<polygon fill="#ff8080" stroke="black" points="1443.75,-397.28 1406.75,-397.28 1406.75,-367.28 1443.75,-367.28 1443.75,-397.28"/>
<text text-anchor="middle" x="1425.25" y="-377.28" font-family="Times,serif" font-size="20.00">→</text>
</g>
<!-- a67597f0&#45;58b7&#45;4ef9&#45;b035&#45;c3f3f5c9734c&#45;&gt;2e895382&#45;f51d&#45;4188&#45;8dab&#45;6bea5aa44701 -->
<g id="edge29" class="edge">
<title>a67597f0&#45;58b7&#45;4ef9&#45;b035&#45;c3f3f5c9734c&#45;&gt;2e895382&#45;f51d&#45;4188&#45;8dab&#45;6bea5aa44701</title>
<path fill="none" stroke="black" d="M1221.03,-439.38C1224.28,-437.1 1227.77,-434.95 1231.25,-433.28 1286.43,-406.8 1357.4,-393.1 1396.39,-387.12"/>
<polygon fill="black" stroke="black" points="1397.12,-390.55 1406.5,-385.64 1396.1,-383.63 1397.12,-390.55"/>
</g>
<!-- 66b1af29&#45;43bb&#45;4b92&#45;8436&#45;442243d35574 -->
<g id="node15" class="node">
<title>66b1af29&#45;43bb&#45;4b92&#45;8436&#45;442243d35574</title>
<ellipse fill="#ffff80" stroke="black" cx="809.25" cy="-310.07" rx="137.36" ry="21.43"/>
<text text-anchor="middle" x="809.25" y="-305.07" font-family="Times,serif" font-size="20.00">IsOpened(microwave)</text>
</g>
<!-- e11ce74f&#45;898b&#45;4dca&#45;b8d1&#45;33f14cf9c183&#45;&gt;66b1af29&#45;43bb&#45;4b92&#45;8436&#45;442243d35574 -->
<g id="edge14" class="edge">
<title>e11ce74f&#45;898b&#45;4dca&#45;b8d1&#45;33f14cf9c183&#45;&gt;66b1af29&#45;43bb&#45;4b92&#45;8436&#45;442243d35574</title>
<path fill="none" stroke="black" d="M963.74,-373.77C940.47,-364.32 899.48,-347.69 865.57,-333.92"/>
<polygon fill="black" stroke="black" points="866.79,-330.64 856.21,-330.12 864.16,-337.13 866.79,-330.64"/>
</g>
<!-- aa76f4f4&#45;c0e1&#45;479c&#45;99ca&#45;cf7582886f90 -->
<g id="node16" class="node">
<title>aa76f4f4&#45;c0e1&#45;479c&#45;99ca&#45;cf7582886f90</title>
<polygon fill="#b0ffff" stroke="black" points="1000.25,-325.07 964.25,-325.07 964.25,-295.07 1000.25,-295.07 1000.25,-325.07"/>
<text text-anchor="middle" x="982.25" y="-305.07" font-family="Times,serif" font-size="20.00"> ? </text>
</g>
<!-- e11ce74f&#45;898b&#45;4dca&#45;b8d1&#45;33f14cf9c183&#45;&gt;aa76f4f4&#45;c0e1&#45;479c&#45;99ca&#45;cf7582886f90 -->
<g id="edge15" class="edge">
<title>e11ce74f&#45;898b&#45;4dca&#45;b8d1&#45;33f14cf9c183&#45;&gt;aa76f4f4&#45;c0e1&#45;479c&#45;99ca&#45;cf7582886f90</title>
<path fill="none" stroke="black" d="M982.25,-367.07C982.25,-358.03 982.25,-346.08 982.25,-335.54"/>
<polygon fill="black" stroke="black" points="985.75,-335.25 982.25,-325.25 978.75,-335.25 985.75,-335.25"/>
</g>
<!-- 33724503&#45;f84f&#45;4ea2&#45;9d4a&#45;a9e00680ade8 -->
<g id="node17" class="node">
<title>33724503&#45;f84f&#45;4ea2&#45;9d4a&#45;a9e00680ade8</title>
<polygon fill="#ff8080" stroke="black" points="797.75,-252.85 760.75,-252.85 760.75,-222.85 797.75,-222.85 797.75,-252.85"/>
<text text-anchor="middle" x="779.25" y="-232.85" font-family="Times,serif" font-size="20.00">→</text>
</g>
<!-- aa76f4f4&#45;c0e1&#45;479c&#45;99ca&#45;cf7582886f90&#45;&gt;33724503&#45;f84f&#45;4ea2&#45;9d4a&#45;a9e00680ade8 -->
<g id="edge16" class="edge">
<title>aa76f4f4&#45;c0e1&#45;479c&#45;99ca&#45;cf7582886f90&#45;&gt;33724503&#45;f84f&#45;4ea2&#45;9d4a&#45;a9e00680ade8</title>
<path fill="none" stroke="black" d="M965.43,-295.02C962.19,-292.74 958.71,-290.57 955.25,-288.85 906.36,-264.65 843.86,-250.42 808.01,-243.67"/>
<polygon fill="black" stroke="black" points="808.25,-240.16 797.79,-241.82 807,-247.05 808.25,-240.16"/>
</g>
<!-- 9b28f16e&#45;ed3f&#45;4d29&#45;b277&#45;96c8fd81cd77 -->
<g id="node26" class="node">
<title>9b28f16e&#45;ed3f&#45;4d29&#45;b277&#45;96c8fd81cd77</title>
<polygon fill="#ff8080" stroke="black" points="1082.75,-252.85 1045.75,-252.85 1045.75,-222.85 1082.75,-222.85 1082.75,-252.85"/>
<text text-anchor="middle" x="1064.25" y="-232.85" font-family="Times,serif" font-size="20.00">→</text>
</g>
<!-- aa76f4f4&#45;c0e1&#45;479c&#45;99ca&#45;cf7582886f90&#45;&gt;9b28f16e&#45;ed3f&#45;4d29&#45;b277&#45;96c8fd81cd77 -->
<g id="edge25" class="edge">
<title>aa76f4f4&#45;c0e1&#45;479c&#45;99ca&#45;cf7582886f90&#45;&gt;9b28f16e&#45;ed3f&#45;4d29&#45;b277&#45;96c8fd81cd77</title>
<path fill="none" stroke="black" d="M998.84,-294.86C1010.63,-284.77 1026.63,-271.06 1039.86,-259.73"/>
<polygon fill="black" stroke="black" points="1042.36,-262.2 1047.68,-253.04 1037.81,-256.89 1042.36,-262.2"/>
</g>
<!-- 3e38dbaa&#45;5b21&#45;4850&#45;953b&#45;887163f7ade3 -->
<g id="node18" class="node">
<title>3e38dbaa&#45;5b21&#45;4850&#45;953b&#45;887163f7ade3</title>
<ellipse fill="#ffff80" stroke="black" cx="618.25" cy="-165.64" rx="125.32" ry="21.43"/>
<text text-anchor="middle" x="618.25" y="-160.64" font-family="Times,serif" font-size="20.00">IsSwitchedOn(light)</text>
</g>
<!-- 33724503&#45;f84f&#45;4ea2&#45;9d4a&#45;a9e00680ade8&#45;&gt;3e38dbaa&#45;5b21&#45;4850&#45;953b&#45;887163f7ade3 -->
<g id="edge17" class="edge">
<title>33724503&#45;f84f&#45;4ea2&#45;9d4a&#45;a9e00680ade8&#45;&gt;3e38dbaa&#45;5b21&#45;4850&#45;953b&#45;887163f7ade3</title>
<path fill="none" stroke="black" d="M760.47,-228.66C738.67,-219.15 701.77,-203.07 671.03,-189.66"/>
<polygon fill="black" stroke="black" points="672.27,-186.38 661.71,-185.59 669.47,-192.8 672.27,-186.38"/>
</g>
<!-- 436502ec&#45;f435&#45;428a&#45;a14a&#45;b4d2a567e4ee -->
<g id="node19" class="node">
<title>436502ec&#45;f435&#45;428a&#45;a14a&#45;b4d2a567e4ee</title>
<polygon fill="#b0ffff" stroke="black" points="797.25,-180.64 761.25,-180.64 761.25,-150.64 797.25,-150.64 797.25,-180.64"/>
<text text-anchor="middle" x="779.25" y="-160.64" font-family="Times,serif" font-size="20.00"> ? </text>
</g>
<!-- 33724503&#45;f84f&#45;4ea2&#45;9d4a&#45;a9e00680ade8&#45;&gt;436502ec&#45;f435&#45;428a&#45;a14a&#45;b4d2a567e4ee -->
<g id="edge18" class="edge">
<title>33724503&#45;f84f&#45;4ea2&#45;9d4a&#45;a9e00680ade8&#45;&gt;436502ec&#45;f435&#45;428a&#45;a14a&#45;b4d2a567e4ee</title>
<path fill="none" stroke="black" d="M779.25,-222.64C779.25,-213.6 779.25,-201.65 779.25,-191.12"/>
<polygon fill="black" stroke="black" points="782.75,-190.83 779.25,-180.83 775.75,-190.83 782.75,-190.83"/>
</g>
<!-- 01ca2b13&#45;bda2&#45;4f41&#45;a271&#45;8ab56ab2a3f9 -->
<g id="node20" class="node">
<title>01ca2b13&#45;bda2&#45;4f41&#45;a271&#45;8ab56ab2a3f9</title>
<polygon fill="#ff8080" stroke="black" points="677.75,-108.43 640.75,-108.43 640.75,-78.43 677.75,-78.43 677.75,-108.43"/>
<text text-anchor="middle" x="659.25" y="-88.43" font-family="Times,serif" font-size="20.00">→</text>
</g>
<!-- 436502ec&#45;f435&#45;428a&#45;a14a&#45;b4d2a567e4ee&#45;&gt;01ca2b13&#45;bda2&#45;4f41&#45;a271&#45;8ab56ab2a3f9 -->
<g id="edge19" class="edge">
<title>436502ec&#45;f435&#45;428a&#45;a14a&#45;b4d2a567e4ee&#45;&gt;01ca2b13&#45;bda2&#45;4f41&#45;a271&#45;8ab56ab2a3f9</title>
<path fill="none" stroke="black" d="M761.21,-150.56C758.27,-148.43 755.21,-146.32 752.25,-144.43 731.06,-130.91 705.9,-117.53 687.09,-108.02"/>
<polygon fill="black" stroke="black" points="688.4,-104.76 677.89,-103.41 685.27,-111.02 688.4,-104.76"/>
</g>
<!-- fffee12a&#45;a93a&#45;4268&#45;a0ce&#45;d42badffae82 -->
<g id="node23" class="node">
<title>fffee12a&#45;a93a&#45;4268&#45;a0ce&#45;d42badffae82</title>
<polygon fill="#ff8080" stroke="black" points="916.75,-108.43 879.75,-108.43 879.75,-78.43 916.75,-78.43 916.75,-108.43"/>
<text text-anchor="middle" x="898.25" y="-88.43" font-family="Times,serif" font-size="20.00">→</text>
</g>
<!-- 436502ec&#45;f435&#45;428a&#45;a14a&#45;b4d2a567e4ee&#45;&gt;fffee12a&#45;a93a&#45;4268&#45;a0ce&#45;d42badffae82 -->
<g id="edge22" class="edge">
<title>436502ec&#45;f435&#45;428a&#45;a14a&#45;b4d2a567e4ee&#45;&gt;fffee12a&#45;a93a&#45;4268&#45;a0ce&#45;d42badffae82</title>
<path fill="none" stroke="black" d="M797.29,-150.57C800.24,-148.44 803.29,-146.32 806.25,-144.43 827.1,-131.06 851.82,-117.75 870.38,-108.24"/>
<polygon fill="black" stroke="black" points="872.14,-111.27 879.47,-103.62 868.97,-105.03 872.14,-111.27"/>
</g>
<!-- 21fc2005&#45;3853&#45;45a3&#45;8221&#45;e04204a3ba57 -->
<g id="node21" class="node">
<title>21fc2005&#45;3853&#45;45a3&#45;8221&#45;e04204a3ba57</title>
<ellipse fill="#ffff80" stroke="black" cx="415.25" cy="-21.21" rx="101.65" ry="21.43"/>
<text text-anchor="middle" x="415.25" y="-16.21" font-family="Times,serif" font-size="20.00">IsOpened(oven)</text>
</g>
<!-- 01ca2b13&#45;bda2&#45;4f41&#45;a271&#45;8ab56ab2a3f9&#45;&gt;21fc2005&#45;3853&#45;45a3&#45;8221&#45;e04204a3ba57 -->
<g id="edge20" class="edge">
<title>01ca2b13&#45;bda2&#45;4f41&#45;a271&#45;8ab56ab2a3f9&#45;&gt;21fc2005&#45;3853&#45;45a3&#45;8221&#45;e04204a3ba57</title>
<path fill="none" stroke="black" d="M640.51,-87.03C607.15,-77.44 535.97,-56.95 482.5,-41.57"/>
<polygon fill="black" stroke="black" points="483.31,-38.16 472.73,-38.75 481.38,-44.88 483.31,-38.16"/>
</g>
<!-- 93e5271b&#45;8767&#45;4a00&#45;807d&#45;0fcf4b951566 -->
<g id="node22" class="node">
<title>93e5271b&#45;8767&#45;4a00&#45;807d&#45;0fcf4b951566</title>
<polygon fill="lightgreen" stroke="black" points="783.25,-39.21 535.25,-39.21 535.25,-3.21 783.25,-3.21 783.25,-39.21"/>
<text text-anchor="middle" x="659.25" y="-16.21" font-family="Times,serif" font-size="20.00">PlaceOn(pie,breakfast_table)</text>
</g>
<!-- 01ca2b13&#45;bda2&#45;4f41&#45;a271&#45;8ab56ab2a3f9&#45;&gt;93e5271b&#45;8767&#45;4a00&#45;807d&#45;0fcf4b951566 -->
<g id="edge21" class="edge">
<title>01ca2b13&#45;bda2&#45;4f41&#45;a271&#45;8ab56ab2a3f9&#45;&gt;93e5271b&#45;8767&#45;4a00&#45;807d&#45;0fcf4b951566</title>
<path fill="none" stroke="black" d="M659.25,-78.22C659.25,-69.98 659.25,-59.32 659.25,-49.52"/>
<polygon fill="black" stroke="black" points="662.75,-49.38 659.25,-39.38 655.75,-49.38 662.75,-49.38"/>
</g>
<!-- 61afb85f&#45;b85c&#45;4f0f&#45;ad3d&#45;0242746992fc -->
<g id="node24" class="node">
<title>61afb85f&#45;b85c&#45;4f0f&#45;ad3d&#45;0242746992fc</title>
<ellipse fill="#ffff80" stroke="black" cx="898.25" cy="-21.21" rx="96.75" ry="21.43"/>
<text text-anchor="middle" x="898.25" y="-16.21" font-family="Times,serif" font-size="20.00">IsClosed(oven)</text>
</g>
<!-- fffee12a&#45;a93a&#45;4268&#45;a0ce&#45;d42badffae82&#45;&gt;61afb85f&#45;b85c&#45;4f0f&#45;ad3d&#45;0242746992fc -->
<g id="edge23" class="edge">
<title>fffee12a&#45;a93a&#45;4268&#45;a0ce&#45;d42badffae82&#45;&gt;61afb85f&#45;b85c&#45;4f0f&#45;ad3d&#45;0242746992fc</title>
<path fill="none" stroke="black" d="M898.25,-78.22C898.25,-70.84 898.25,-61.54 898.25,-52.64"/>
<polygon fill="black" stroke="black" points="901.75,-52.52 898.25,-42.52 894.75,-52.52 901.75,-52.52"/>
</g>
<!-- acd0b9f6&#45;a59a&#45;4568&#45;b87d&#45;9b9bc95be532 -->
<g id="node25" class="node">
<title>acd0b9f6&#45;a59a&#45;4568&#45;b87d&#45;9b9bc95be532</title>
<polygon fill="lightgreen" stroke="black" points="1123.75,-39.21 1012.75,-39.21 1012.75,-3.21 1123.75,-3.21 1123.75,-39.21"/>
<text text-anchor="middle" x="1068.25" y="-16.21" font-family="Times,serif" font-size="20.00">Open(oven)</text>
</g>
<!-- fffee12a&#45;a93a&#45;4268&#45;a0ce&#45;d42badffae82&#45;&gt;acd0b9f6&#45;a59a&#45;4568&#45;b87d&#45;9b9bc95be532 -->
<g id="edge24" class="edge">
<title>fffee12a&#45;a93a&#45;4268&#45;a0ce&#45;d42badffae82&#45;&gt;acd0b9f6&#45;a59a&#45;4568&#45;b87d&#45;9b9bc95be532</title>
<path fill="none" stroke="black" d="M916.77,-84.78C940.76,-74.87 983.54,-57.2 1017.53,-43.16"/>
<polygon fill="black" stroke="black" points="1018.95,-46.36 1026.86,-39.31 1016.28,-39.89 1018.95,-46.36"/>
</g>
<!-- 92e90af7&#45;ac0a&#45;4eab&#45;8fcb&#45;8f668b405463 -->
<g id="node27" class="node">
<title>92e90af7&#45;ac0a&#45;4eab&#45;8fcb&#45;8f668b405463</title>
<ellipse fill="#ffff80" stroke="black" cx="943.25" cy="-165.64" rx="127.97" ry="21.43"/>
<text text-anchor="middle" x="943.25" y="-160.64" font-family="Times,serif" font-size="20.00">IsSwitchedOff(light)</text>
</g>
<!-- 9b28f16e&#45;ed3f&#45;4d29&#45;b277&#45;96c8fd81cd77&#45;&gt;92e90af7&#45;ac0a&#45;4eab&#45;8fcb&#45;8f668b405463 -->
<g id="edge26" class="edge">
<title>9b28f16e&#45;ed3f&#45;4d29&#45;b277&#45;96c8fd81cd77&#45;&gt;92e90af7&#45;ac0a&#45;4eab&#45;8fcb&#45;8f668b405463</title>
<path fill="none" stroke="black" d="M1045.61,-226.04C1029.79,-216.85 1006.47,-203.33 986.09,-191.5"/>
<polygon fill="black" stroke="black" points="987.67,-188.37 977.27,-186.38 984.16,-194.42 987.67,-188.37"/>
</g>
<!-- 3da0fa5d&#45;2a28&#45;4ea2&#45;b653&#45;952a081c5289 -->
<g id="node28" class="node">
<title>3da0fa5d&#45;2a28&#45;4ea2&#45;b653&#45;952a081c5289</title>
<ellipse fill="#ffff80" stroke="black" cx="1186.25" cy="-165.64" rx="96.75" ry="21.43"/>
<text text-anchor="middle" x="1186.25" y="-160.64" font-family="Times,serif" font-size="20.00">IsClosed(oven)</text>
</g>
<!-- 9b28f16e&#45;ed3f&#45;4d29&#45;b277&#45;96c8fd81cd77&#45;&gt;3da0fa5d&#45;2a28&#45;4ea2&#45;b653&#45;952a081c5289 -->
<g id="edge27" class="edge">
<title>9b28f16e&#45;ed3f&#45;4d29&#45;b277&#45;96c8fd81cd77&#45;&gt;3da0fa5d&#45;2a28&#45;4ea2&#45;b653&#45;952a081c5289</title>
<path fill="none" stroke="black" d="M1082.78,-226.19C1099.11,-216.79 1123.5,-202.75 1144.51,-190.66"/>
<polygon fill="black" stroke="black" points="1146.34,-193.64 1153.26,-185.62 1142.85,-187.58 1146.34,-193.64"/>
</g>
<!-- 24a009cd&#45;2a12&#45;4fe4&#45;a577&#45;2d04e9f15ca9 -->
<g id="node29" class="node">
<title>24a009cd&#45;2a12&#45;4fe4&#45;a577&#45;2d04e9f15ca9</title>
<polygon fill="lightgreen" stroke="black" points="1429.25,-183.64 1301.25,-183.64 1301.25,-147.64 1429.25,-147.64 1429.25,-183.64"/>
<text text-anchor="middle" x="1365.25" y="-160.64" font-family="Times,serif" font-size="20.00">TurnOn(light)</text>
</g>
<!-- 9b28f16e&#45;ed3f&#45;4d29&#45;b277&#45;96c8fd81cd77&#45;&gt;24a009cd&#45;2a12&#45;4fe4&#45;a577&#45;2d04e9f15ca9 -->
<g id="edge28" class="edge">
<title>9b28f16e&#45;ed3f&#45;4d29&#45;b277&#45;96c8fd81cd77&#45;&gt;24a009cd&#45;2a12&#45;4fe4&#45;a577&#45;2d04e9f15ca9</title>
<path fill="none" stroke="black" d="M1082.95,-233.11C1121.99,-225.22 1214.96,-206.01 1292.25,-186.85 1293.14,-186.63 1294.04,-186.41 1294.95,-186.18"/>
<polygon fill="black" stroke="black" points="1295.95,-189.53 1304.77,-183.66 1294.21,-182.75 1295.95,-189.53"/>
</g>
<!-- 3e1e3bf4&#45;95bf&#45;4c38&#45;87cc&#45;21df06246169 -->
<g id="node31" class="node">
<title>3e1e3bf4&#45;95bf&#45;4c38&#45;87cc&#45;21df06246169</title>
<ellipse fill="#ffff80" stroke="black" cx="1146.25" cy="-310.07" rx="127.97" ry="21.43"/>
<text text-anchor="middle" x="1146.25" y="-305.07" font-family="Times,serif" font-size="20.00">IsSwitchedOff(light)</text>
</g>
<!-- 2e895382&#45;f51d&#45;4188&#45;8dab&#45;6bea5aa44701&#45;&gt;3e1e3bf4&#45;95bf&#45;4c38&#45;87cc&#45;21df06246169 -->
<g id="edge30" class="edge">
<title>2e895382&#45;f51d&#45;4188&#45;8dab&#45;6bea5aa44701&#45;&gt;3e1e3bf4&#45;95bf&#45;4c38&#45;87cc&#45;21df06246169</title>
<path fill="none" stroke="black" d="M1406.51,-376.56C1369.75,-367.31 1286.3,-346.31 1223.75,-330.57"/>
<polygon fill="black" stroke="black" points="1224.45,-327.14 1213.89,-328.09 1222.74,-333.92 1224.45,-327.14"/>
</g>
<!-- 05502142&#45;0f8b&#45;4efe&#45;b94c&#45;126bac2b9a2e -->
<g id="node32" class="node">
<title>05502142&#45;0f8b&#45;4efe&#45;b94c&#45;126bac2b9a2e</title>
<ellipse fill="#ffff80" stroke="black" cx="1425.25" cy="-310.07" rx="132.87" ry="21.43"/>
<text text-anchor="middle" x="1425.25" y="-305.07" font-family="Times,serif" font-size="20.00">IsClosed(microwave)</text>
</g>
<!-- 2e895382&#45;f51d&#45;4188&#45;8dab&#45;6bea5aa44701&#45;&gt;05502142&#45;0f8b&#45;4efe&#45;b94c&#45;126bac2b9a2e -->
<g id="edge31" class="edge">
<title>2e895382&#45;f51d&#45;4188&#45;8dab&#45;6bea5aa44701&#45;&gt;05502142&#45;0f8b&#45;4efe&#45;b94c&#45;126bac2b9a2e</title>
<path fill="none" stroke="black" d="M1425.25,-367.07C1425.25,-359.7 1425.25,-350.39 1425.25,-341.49"/>
<polygon fill="black" stroke="black" points="1428.75,-341.37 1425.25,-331.37 1421.75,-341.37 1428.75,-341.37"/>
</g>
<!-- 1cf26b53&#45;7f4b&#45;42c2&#45;a967&#45;9b0e98e0b14d -->
<g id="node33" class="node">
<title>1cf26b53&#45;7f4b&#45;42c2&#45;a967&#45;9b0e98e0b14d</title>
<ellipse fill="#ffff80" stroke="black" cx="1673.25" cy="-310.07" rx="96.75" ry="21.43"/>
<text text-anchor="middle" x="1673.25" y="-305.07" font-family="Times,serif" font-size="20.00">IsClosed(oven)</text>
</g>
<!-- 2e895382&#45;f51d&#45;4188&#45;8dab&#45;6bea5aa44701&#45;&gt;1cf26b53&#45;7f4b&#45;42c2&#45;a967&#45;9b0e98e0b14d -->
<g id="edge32" class="edge">
<title>2e895382&#45;f51d&#45;4188&#45;8dab&#45;6bea5aa44701&#45;&gt;1cf26b53&#45;7f4b&#45;42c2&#45;a967&#45;9b0e98e0b14d</title>
<path fill="none" stroke="black" d="M1443.89,-376C1477.95,-366.36 1551.76,-345.46 1606.5,-329.96"/>
<polygon fill="black" stroke="black" points="1607.48,-333.33 1616.15,-327.23 1605.57,-326.59 1607.48,-333.33"/>
</g>
<!-- 59976488&#45;bfb4&#45;4d5a&#45;9112&#45;28c08575464f -->
<g id="node34" class="node">
<title>59976488&#45;bfb4&#45;4d5a&#45;9112&#45;28c08575464f</title>
<polygon fill="lightgreen" stroke="black" points="1948.75,-328.07 1787.75,-328.07 1787.75,-292.07 1948.75,-292.07 1948.75,-328.07"/>
<text text-anchor="middle" x="1868.25" y="-305.07" font-family="Times,serif" font-size="20.00">Open(microwave)</text>
</g>
<!-- 2e895382&#45;f51d&#45;4188&#45;8dab&#45;6bea5aa44701&#45;&gt;59976488&#45;bfb4&#45;4d5a&#45;9112&#45;28c08575464f -->
<g id="edge33" class="edge">
<title>2e895382&#45;f51d&#45;4188&#45;8dab&#45;6bea5aa44701&#45;&gt;59976488&#45;bfb4&#45;4d5a&#45;9112&#45;28c08575464f</title>
<path fill="none" stroke="black" d="M1443.76,-379.21C1496.45,-373.22 1651.67,-354.74 1779.25,-331.28 1781.32,-330.9 1783.41,-330.5 1785.53,-330.1"/>
<polygon fill="black" stroke="black" points="1786.37,-333.5 1795.5,-328.11 1785,-326.63 1786.37,-333.5"/>
</g>
<!-- 42aebec8&#45;f195&#45;419c&#45;a127&#45;cd1ba07c8133 -->
<g id="node36" class="node">
<title>42aebec8&#45;f195&#45;419c&#45;a127&#45;cd1ba07c8133</title>
<ellipse fill="#ffff80" stroke="black" cx="1368.25" cy="-454.49" rx="127.97" ry="21.43"/>
<text text-anchor="middle" x="1368.25" y="-449.49" font-family="Times,serif" font-size="20.00">IsSwitchedOff(light)</text>
</g>
<!-- f09fd757&#45;ca46&#45;4f46&#45;8bbd&#45;8dfc593f5ae3&#45;&gt;42aebec8&#45;f195&#45;419c&#45;a127&#45;cd1ba07c8133 -->
<g id="edge35" class="edge">
<title>f09fd757&#45;ca46&#45;4f46&#45;8bbd&#45;8dfc593f5ae3&#45;&gt;42aebec8&#45;f195&#45;419c&#45;a127&#45;cd1ba07c8133</title>
<path fill="none" stroke="black" d="M1768.71,-522.6C1716.59,-513.87 1566.07,-488.64 1465.15,-471.73"/>
<polygon fill="black" stroke="black" points="1465.67,-468.27 1455.23,-470.07 1464.52,-475.17 1465.67,-468.27"/>
</g>
<!-- b79c6e94&#45;6077&#45;48c4&#45;86e4&#45;39830f2cc406 -->
<g id="node37" class="node">
<title>b79c6e94&#45;6077&#45;48c4&#45;86e4&#45;39830f2cc406</title>
<ellipse fill="#ffff80" stroke="black" cx="1646.25" cy="-454.49" rx="131.54" ry="21.43"/>
<text text-anchor="middle" x="1646.25" y="-449.49" font-family="Times,serif" font-size="20.00">IsSwitchedOff(radio)</text>
</g>
<!-- f09fd757&#45;ca46&#45;4f46&#45;8bbd&#45;8dfc593f5ae3&#45;&gt;b79c6e94&#45;6077&#45;48c4&#45;86e4&#45;39830f2cc406 -->
<g id="edge36" class="edge">
<title>f09fd757&#45;ca46&#45;4f46&#45;8bbd&#45;8dfc593f5ae3&#45;&gt;b79c6e94&#45;6077&#45;48c4&#45;86e4&#45;39830f2cc406</title>
<path fill="none" stroke="black" d="M1768.53,-516.38C1749.64,-506.98 1719.72,-492.08 1694.2,-479.37"/>
<polygon fill="black" stroke="black" points="1695.54,-476.13 1685.03,-474.8 1692.42,-482.39 1695.54,-476.13"/>
</g>
<!-- 87d55235&#45;b6e9&#45;4baa&#45;8974&#45;e08e438695fb -->
<g id="node38" class="node">
<title>87d55235&#45;b6e9&#45;4baa&#45;8974&#45;e08e438695fb</title>
<ellipse fill="#ffff80" stroke="black" cx="1928.25" cy="-454.49" rx="132.87" ry="21.43"/>
<text text-anchor="middle" x="1928.25" y="-449.49" font-family="Times,serif" font-size="20.00">IsClosed(microwave)</text>
</g>
<!-- f09fd757&#45;ca46&#45;4f46&#45;8bbd&#45;8dfc593f5ae3&#45;&gt;87d55235&#45;b6e9&#45;4baa&#45;8974&#45;e08e438695fb -->
<g id="edge37" class="edge">
<title>f09fd757&#45;ca46&#45;4f46&#45;8bbd&#45;8dfc593f5ae3&#45;&gt;87d55235&#45;b6e9&#45;4baa&#45;8974&#45;e08e438695fb</title>
<path fill="none" stroke="black" d="M1805.97,-516.38C1824.85,-506.98 1854.78,-492.08 1880.3,-479.37"/>
<polygon fill="black" stroke="black" points="1882.08,-482.39 1889.47,-474.8 1878.96,-476.13 1882.08,-482.39"/>
</g>
<!-- 8d3edd81&#45;1f0f&#45;4448&#45;b39a&#45;8a33f667f632 -->
<g id="node39" class="node">
<title>8d3edd81&#45;1f0f&#45;4448&#45;b39a&#45;8a33f667f632</title>
<ellipse fill="#ffff80" stroke="black" cx="2176.25" cy="-454.49" rx="96.75" ry="21.43"/>
<text text-anchor="middle" x="2176.25" y="-449.49" font-family="Times,serif" font-size="20.00">IsClosed(oven)</text>
</g>
<!-- f09fd757&#45;ca46&#45;4f46&#45;8bbd&#45;8dfc593f5ae3&#45;&gt;8d3edd81&#45;1f0f&#45;4448&#45;b39a&#45;8a33f667f632 -->
<g id="edge38" class="edge">
<title>f09fd757&#45;ca46&#45;4f46&#45;8bbd&#45;8dfc593f5ae3&#45;&gt;8d3edd81&#45;1f0f&#45;4448&#45;b39a&#45;8a33f667f632</title>
<path fill="none" stroke="black" d="M1805.81,-522.52C1851.05,-514.72 1970.63,-494 2070.25,-475.71 2078.46,-474.2 2087.03,-472.6 2095.57,-470.99"/>
<polygon fill="black" stroke="black" points="2096.39,-474.4 2105.57,-469.11 2095.1,-467.52 2096.39,-474.4"/>
</g>
<!-- f76efe73&#45;3706&#45;4eb9&#45;9b44&#45;74720fbe632f -->
<g id="node40" class="node">
<title>f76efe73&#45;3706&#45;4eb9&#45;9b44&#45;74720fbe632f</title>
<polygon fill="lightgreen" stroke="black" points="2423.75,-472.49 2290.75,-472.49 2290.75,-436.49 2423.75,-436.49 2423.75,-472.49"/>
<text text-anchor="middle" x="2357.25" y="-449.49" font-family="Times,serif" font-size="20.00">TurnOn(radio)</text>
</g>
<!-- f09fd757&#45;ca46&#45;4f46&#45;8bbd&#45;8dfc593f5ae3&#45;&gt;f76efe73&#45;3706&#45;4eb9&#45;9b44&#45;74720fbe632f -->
<g id="edge39" class="edge">
<title>f09fd757&#45;ca46&#45;4f46&#45;8bbd&#45;8dfc593f5ae3&#45;&gt;f76efe73&#45;3706&#45;4eb9&#45;9b44&#45;74720fbe632f</title>
<path fill="none" stroke="black" d="M1805.83,-524.92C1871.46,-521.91 2098.34,-509.55 2282.25,-475.71 2283.94,-475.4 2285.64,-475.07 2287.36,-474.72"/>
<polygon fill="black" stroke="black" points="2288.24,-478.11 2297.27,-472.58 2286.76,-471.27 2288.24,-478.11"/>
</g>
<!-- 995929f0&#45;b639&#45;4e2a&#45;9a0a&#45;39a0c022968d -->
<g id="node42" class="node">
<title>995929f0&#45;b639&#45;4e2a&#45;9a0a&#45;39a0c022968d</title>
<ellipse fill="#ffff80" stroke="black" cx="1701.25" cy="-598.92" rx="98.99" ry="21.43"/>
<text text-anchor="middle" x="1701.25" y="-593.92" font-family="Times,serif" font-size="20.00">IsHandEmpty()</text>
</g>
<!-- fc5907c4&#45;5aec&#45;4199&#45;adac&#45;532a7298e9b7&#45;&gt;995929f0&#45;b639&#45;4e2a&#45;9a0a&#45;39a0c022968d -->
<g id="edge41" class="edge">
<title>fc5907c4&#45;5aec&#45;4199&#45;adac&#45;532a7298e9b7&#45;&gt;995929f0&#45;b639&#45;4e2a&#45;9a0a&#45;39a0c022968d</title>
<path fill="none" stroke="black" d="M2213.64,-668.38C2154.39,-662.72 1964.96,-643.88 1809.25,-620.13 1800.39,-618.78 1791.14,-617.24 1781.94,-615.64"/>
<polygon fill="black" stroke="black" points="1782.47,-612.17 1772.01,-613.87 1781.24,-619.07 1782.47,-612.17"/>
</g>
<!-- f971bb32&#45;5ea1&#45;4c5c&#45;856c&#45;f24c12052bdf -->
<g id="node43" class="node">
<title>f971bb32&#45;5ea1&#45;4c5c&#45;856c&#45;f24c12052bdf</title>
<ellipse fill="#ffff80" stroke="black" cx="1915.25" cy="-598.92" rx="96.75" ry="21.43"/>
<text text-anchor="middle" x="1915.25" y="-593.92" font-family="Times,serif" font-size="20.00">IsClosed(oven)</text>
</g>
<!-- fc5907c4&#45;5aec&#45;4199&#45;adac&#45;532a7298e9b7&#45;&gt;f971bb32&#45;5ea1&#45;4c5c&#45;856c&#45;f24c12052bdf -->
<g id="edge42" class="edge">
<title>fc5907c4&#45;5aec&#45;4199&#45;adac&#45;532a7298e9b7&#45;&gt;f971bb32&#45;5ea1&#45;4c5c&#45;856c&#45;f24c12052bdf</title>
<path fill="none" stroke="black" d="M2213.37,-665.95C2170.66,-656.49 2064.64,-633.01 1991.29,-616.76"/>
<polygon fill="black" stroke="black" points="1991.68,-613.26 1981.16,-614.52 1990.17,-620.1 1991.68,-613.26"/>
</g>
<!-- e81ab1ad&#45;fa33&#45;4459&#45;a8ce&#45;67cd538e9056 -->
<g id="node44" class="node">
<title>e81ab1ad&#45;fa33&#45;4459&#45;a8ce&#45;67cd538e9056</title>
<ellipse fill="#ffff80" stroke="black" cx="2116.25" cy="-598.92" rx="86.03" ry="21.43"/>
<text text-anchor="middle" x="2116.25" y="-593.92" font-family="Times,serif" font-size="20.00">On(pie,table)</text>
</g>
<!-- fc5907c4&#45;5aec&#45;4199&#45;adac&#45;532a7298e9b7&#45;&gt;e81ab1ad&#45;fa33&#45;4459&#45;a8ce&#45;67cd538e9056 -->
<g id="edge43" class="edge">
<title>fc5907c4&#45;5aec&#45;4199&#45;adac&#45;532a7298e9b7&#45;&gt;e81ab1ad&#45;fa33&#45;4459&#45;a8ce&#45;67cd538e9056</title>
<path fill="none" stroke="black" d="M2213.61,-658.85C2198.17,-649.51 2175.69,-635.9 2156.21,-624.11"/>
<polygon fill="black" stroke="black" points="2157.88,-621.03 2147.51,-618.84 2154.26,-627.02 2157.88,-621.03"/>
</g>
<!-- cadd55f3&#45;9b44&#45;4f16&#45;bd4d&#45;2da34519007d -->
<g id="node45" class="node">
<title>cadd55f3&#45;9b44&#45;4f16&#45;bd4d&#45;2da34519007d</title>
<ellipse fill="#ffff80" stroke="black" cx="2348.25" cy="-598.92" rx="127.97" ry="21.43"/>
<text text-anchor="middle" x="2348.25" y="-593.92" font-family="Times,serif" font-size="20.00">IsSwitchedOff(light)</text>
</g>
<!-- fc5907c4&#45;5aec&#45;4199&#45;adac&#45;532a7298e9b7&#45;&gt;cadd55f3&#45;9b44&#45;4f16&#45;bd4d&#45;2da34519007d -->
<g id="edge44" class="edge">
<title>fc5907c4&#45;5aec&#45;4199&#45;adac&#45;532a7298e9b7&#45;&gt;cadd55f3&#45;9b44&#45;4f16&#45;bd4d&#45;2da34519007d</title>
<path fill="none" stroke="black" d="M2250.89,-658.85C2265.99,-649.71 2287.85,-636.48 2307.02,-624.87"/>
<polygon fill="black" stroke="black" points="2308.87,-627.85 2315.61,-619.68 2305.24,-621.86 2308.87,-627.85"/>
</g>
<!-- a7e6ea3a&#45;e74d&#45;4f91&#45;87ae&#45;fdcbd3d27cf4 -->
<g id="node46" class="node">
<title>a7e6ea3a&#45;e74d&#45;4f91&#45;87ae&#45;fdcbd3d27cf4</title>
<ellipse fill="#ffff80" stroke="black" cx="2626.25" cy="-598.92" rx="131.54" ry="21.43"/>
<text text-anchor="middle" x="2626.25" y="-593.92" font-family="Times,serif" font-size="20.00">IsSwitchedOff(radio)</text>
</g>
<!-- fc5907c4&#45;5aec&#45;4199&#45;adac&#45;532a7298e9b7&#45;&gt;a7e6ea3a&#45;e74d&#45;4f91&#45;87ae&#45;fdcbd3d27cf4 -->
<g id="edge45" class="edge">
<title>fc5907c4&#45;5aec&#45;4199&#45;adac&#45;532a7298e9b7&#45;&gt;a7e6ea3a&#45;e74d&#45;4f91&#45;87ae&#45;fdcbd3d27cf4</title>
<path fill="none" stroke="black" d="M2250.99,-666.79C2300.42,-657.98 2436.99,-633.65 2530.98,-616.9"/>
<polygon fill="black" stroke="black" points="2531.85,-620.3 2541.08,-615.1 2530.62,-613.4 2531.85,-620.3"/>
</g>
<!-- af2ce71d&#45;c1a8&#45;42e4&#45;8497&#45;af8f0a04e3cb -->
<g id="node47" class="node">
<title>af2ce71d&#45;c1a8&#45;42e4&#45;8497&#45;af8f0a04e3cb</title>
<ellipse fill="#ffff80" stroke="black" cx="2908.25" cy="-598.92" rx="132.87" ry="21.43"/>
<text text-anchor="middle" x="2908.25" y="-593.92" font-family="Times,serif" font-size="20.00">IsClosed(microwave)</text>
</g>
<!-- fc5907c4&#45;5aec&#45;4199&#45;adac&#45;532a7298e9b7&#45;&gt;af2ce71d&#45;c1a8&#45;42e4&#45;8497&#45;af8f0a04e3cb -->
<g id="edge46" class="edge">
<title>fc5907c4&#45;5aec&#45;4199&#45;adac&#45;532a7298e9b7&#45;&gt;af2ce71d&#45;c1a8&#45;42e4&#45;8497&#45;af8f0a04e3cb</title>
<path fill="none" stroke="black" d="M2250.76,-668.73C2319.33,-663.48 2565.29,-644.03 2767.25,-620.13 2779.36,-618.7 2792.04,-617.07 2804.61,-615.37"/>
<polygon fill="black" stroke="black" points="2805.23,-618.82 2814.67,-613.99 2804.28,-611.88 2805.23,-618.82"/>
</g>
<!-- 020dc0ca&#45;b2a4&#45;4e38&#45;900b&#45;e208181689e7 -->
<g id="node48" class="node">
<title>020dc0ca&#45;b2a4&#45;4e38&#45;900b&#45;e208181689e7</title>
<polygon fill="lightgreen" stroke="black" points="3171.75,-616.92 3058.75,-616.92 3058.75,-580.92 3171.75,-580.92 3171.75,-616.92"/>
<text text-anchor="middle" x="3115.25" y="-593.92" font-family="Times,serif" font-size="20.00">PickUp(pie)</text>
</g>
<!-- fc5907c4&#45;5aec&#45;4199&#45;adac&#45;532a7298e9b7&#45;&gt;020dc0ca&#45;b2a4&#45;4e38&#45;900b&#45;e208181689e7 -->
<g id="edge47" class="edge">
<title>fc5907c4&#45;5aec&#45;4199&#45;adac&#45;532a7298e9b7&#45;&gt;020dc0ca&#45;b2a4&#45;4e38&#45;900b&#45;e208181689e7</title>
<path fill="none" stroke="black" d="M2250.87,-669.6C2357.28,-666.48 2889.31,-649.63 3050.25,-620.13 3051.7,-619.87 3053.17,-619.58 3054.64,-619.27"/>
<polygon fill="black" stroke="black" points="3055.5,-622.66 3064.45,-616.99 3053.91,-615.85 3055.5,-622.66"/>
</g>
</g>
</svg>
