<?xml version="1.0" encoding="UTF-8" standalone="no"?>
<!DOCTYPE svg PUBLIC "-//W3C//DTD SVG 1.1//EN"
 "http://www.w3.org/Graphics/SVG/1.1/DTD/svg11.dtd">
<!-- Generated by graphviz version 2.43.0 (0)
 -->
<!-- Title: pastafarianism Pages: 1 -->
<svg width="1291pt" height="333pt"
 viewBox="0.00 0.00 1291.19 332.85" xmlns="http://www.w3.org/2000/svg" xmlns:xlink="http://www.w3.org/1999/xlink">
<g id="graph0" class="graph" transform="scale(1 1) rotate(0) translate(4 328.85)">
<title>pastafarianism</title>
<polygon fill="white" stroke="transparent" points="-4,4 -4,-328.85 1287.19,-328.85 1287.19,4 -4,4"/>
<!-- 01f94139&#45;6c5b&#45;4921&#45;b0de&#45;d125f8ec6570 -->
<g id="node1" class="node">
<title>01f94139&#45;6c5b&#45;4921&#45;b0de&#45;d125f8ec6570</title>
<polygon fill="#b0ffff" stroke="black" points="634.19,-324.85 598.19,-324.85 598.19,-294.85 634.19,-294.85 634.19,-324.85"/>
<text text-anchor="middle" x="616.19" y="-304.85" font-family="Times,serif" font-size="20.00"> ? </text>
</g>
<!-- 7ffcbbf3&#45;d267&#45;4fbe&#45;af4b&#45;29bd5bd3220a -->
<g id="node2" class="node">
<title>7ffcbbf3&#45;d267&#45;4fbe&#45;af4b&#45;29bd5bd3220a</title>
<polygon fill="#ff8080" stroke="black" points="353.69,-258.85 316.69,-258.85 316.69,-228.85 353.69,-228.85 353.69,-258.85"/>
<text text-anchor="middle" x="335.19" y="-238.85" font-family="Times,serif" font-size="20.00">→</text>
</g>
<!-- 01f94139&#45;6c5b&#45;4921&#45;b0de&#45;d125f8ec6570&#45;&gt;7ffcbbf3&#45;d267&#45;4fbe&#45;af4b&#45;29bd5bd3220a -->
<g id="edge1" class="edge">
<title>01f94139&#45;6c5b&#45;4921&#45;b0de&#45;d125f8ec6570&#45;&gt;7ffcbbf3&#45;d267&#45;4fbe&#45;af4b&#45;29bd5bd3220a</title>
<path fill="none" stroke="black" d="M598.18,-304.75C550.63,-293.92 421.39,-264.49 363.68,-251.34"/>
<polygon fill="black" stroke="black" points="364.3,-247.89 353.77,-249.09 362.75,-254.72 364.3,-247.89"/>
</g>
<!-- bdcaf6dc&#45;a57f&#45;4b24&#45;898e&#45;0a9dcd126531 -->
<g id="node5" class="node">
<title>bdcaf6dc&#45;a57f&#45;4b24&#45;898e&#45;0a9dcd126531</title>
<polygon fill="#ff8080" stroke="black" points="634.69,-258.85 597.69,-258.85 597.69,-228.85 634.69,-228.85 634.69,-258.85"/>
<text text-anchor="middle" x="616.19" y="-238.85" font-family="Times,serif" font-size="20.00">→</text>
</g>
<!-- 01f94139&#45;6c5b&#45;4921&#45;b0de&#45;d125f8ec6570&#45;&gt;bdcaf6dc&#45;a57f&#45;4b24&#45;898e&#45;0a9dcd126531 -->
<g id="edge4" class="edge">
<title>01f94139&#45;6c5b&#45;4921&#45;b0de&#45;d125f8ec6570&#45;&gt;bdcaf6dc&#45;a57f&#45;4b24&#45;898e&#45;0a9dcd126531</title>
<path fill="none" stroke="black" d="M616.19,-294.65C616.19,-287.19 616.19,-277.84 616.19,-269.27"/>
<polygon fill="black" stroke="black" points="619.69,-269.02 616.19,-259.02 612.69,-269.02 619.69,-269.02"/>
</g>
<!-- 7dea2bfd&#45;eb43&#45;4ca9&#45;8f8a&#45;90e1d5245788 -->
<g id="node12" class="node">
<title>7dea2bfd&#45;eb43&#45;4ca9&#45;8f8a&#45;90e1d5245788</title>
<polygon fill="#ff8080" stroke="black" points="944.69,-258.85 907.69,-258.85 907.69,-228.85 944.69,-228.85 944.69,-258.85"/>
<text text-anchor="middle" x="926.19" y="-238.85" font-family="Times,serif" font-size="20.00">→</text>
</g>
<!-- 01f94139&#45;6c5b&#45;4921&#45;b0de&#45;d125f8ec6570&#45;&gt;7dea2bfd&#45;eb43&#45;4ca9&#45;8f8a&#45;90e1d5245788 -->
<g id="edge11" class="edge">
<title>01f94139&#45;6c5b&#45;4921&#45;b0de&#45;d125f8ec6570&#45;&gt;7dea2bfd&#45;eb43&#45;4ca9&#45;8f8a&#45;90e1d5245788</title>
<path fill="none" stroke="black" d="M634.19,-305.14C685.74,-294.49 834.22,-263.84 897.29,-250.82"/>
<polygon fill="black" stroke="black" points="898.26,-254.19 907.35,-248.74 896.85,-247.34 898.26,-254.19"/>
</g>
<!-- c7e45688&#45;5725&#45;41a3&#45;a653&#45;654e8d391aa4 -->
<g id="node3" class="node">
<title>c7e45688&#45;5725&#45;41a3&#45;a653&#45;654e8d391aa4</title>
<ellipse fill="#ffff80" stroke="black" cx="108.19" cy="-171.64" rx="108.38" ry="21.43"/>
<text text-anchor="middle" x="108.19" y="-166.64" font-family="Times,serif" font-size="20.00">IsOpened(fridge)</text>
</g>
<!-- 7ffcbbf3&#45;d267&#45;4fbe&#45;af4b&#45;29bd5bd3220a&#45;&gt;c7e45688&#45;5725&#45;41a3&#45;a653&#45;654e8d391aa4 -->
<g id="edge2" class="edge">
<title>7ffcbbf3&#45;d267&#45;4fbe&#45;af4b&#45;29bd5bd3220a&#45;&gt;c7e45688&#45;5725&#45;41a3&#45;a653&#45;654e8d391aa4</title>
<path fill="none" stroke="black" d="M316.61,-237.11C285.8,-227.58 222.7,-208.06 173.96,-192.98"/>
<polygon fill="black" stroke="black" points="174.69,-189.55 164.11,-189.94 172.63,-196.23 174.69,-189.55"/>
</g>
<!-- 1e5aaf8e&#45;583c&#45;40a2&#45;8fc2&#45;b90dbb9446e4 -->
<g id="node4" class="node">
<title>1e5aaf8e&#45;583c&#45;40a2&#45;8fc2&#45;b90dbb9446e4</title>
<ellipse fill="#ffff80" stroke="black" cx="335.19" cy="-171.64" rx="100.32" ry="21.43"/>
<text text-anchor="middle" x="335.19" y="-166.64" font-family="Times,serif" font-size="20.00">In(apple,fridge)</text>
</g>
<!-- 7ffcbbf3&#45;d267&#45;4fbe&#45;af4b&#45;29bd5bd3220a&#45;&gt;1e5aaf8e&#45;583c&#45;40a2&#45;8fc2&#45;b90dbb9446e4 -->
<g id="edge3" class="edge">
<title>7ffcbbf3&#45;d267&#45;4fbe&#45;af4b&#45;29bd5bd3220a&#45;&gt;1e5aaf8e&#45;583c&#45;40a2&#45;8fc2&#45;b90dbb9446e4</title>
<path fill="none" stroke="black" d="M335.19,-228.64C335.19,-221.27 335.19,-211.96 335.19,-203.07"/>
<polygon fill="black" stroke="black" points="338.69,-202.95 335.19,-192.95 331.69,-202.95 338.69,-202.95"/>
</g>
<!-- 5229b75c&#45;dc5e&#45;4a48&#45;924a&#45;4135fc5ed5c1 -->
<g id="node6" class="node">
<title>5229b75c&#45;dc5e&#45;4a48&#45;924a&#45;4135fc5ed5c1</title>
<ellipse fill="#ffff80" stroke="black" cx="550.19" cy="-171.64" rx="96.75" ry="21.43"/>
<text text-anchor="middle" x="550.19" y="-166.64" font-family="Times,serif" font-size="20.00">Holding(apple)</text>
</g>
<!-- bdcaf6dc&#45;a57f&#45;4b24&#45;898e&#45;0a9dcd126531&#45;&gt;5229b75c&#45;dc5e&#45;4a48&#45;924a&#45;4135fc5ed5c1 -->
<g id="edge5" class="edge">
<title>bdcaf6dc&#45;a57f&#45;4b24&#45;898e&#45;0a9dcd126531&#45;&gt;5229b75c&#45;dc5e&#45;4a48&#45;924a&#45;4135fc5ed5c1</title>
<path fill="none" stroke="black" d="M602.83,-228.64C595.16,-220.49 585.27,-209.96 576.13,-200.24"/>
<polygon fill="black" stroke="black" points="578.43,-197.57 569.03,-192.68 573.32,-202.36 578.43,-197.57"/>
</g>
<!-- 3db1b330&#45;f016&#45;4e56&#45;b58c&#45;3d04d846dc8f -->
<g id="node7" class="node">
<title>3db1b330&#45;f016&#45;4e56&#45;b58c&#45;3d04d846dc8f</title>
<polygon fill="#b0ffff" stroke="black" points="701.19,-186.64 665.19,-186.64 665.19,-156.64 701.19,-156.64 701.19,-186.64"/>
<text text-anchor="middle" x="683.19" y="-166.64" font-family="Times,serif" font-size="20.00"> ? </text>
</g>
<!-- bdcaf6dc&#45;a57f&#45;4b24&#45;898e&#45;0a9dcd126531&#45;&gt;3db1b330&#45;f016&#45;4e56&#45;b58c&#45;3d04d846dc8f -->
<g id="edge6" class="edge">
<title>bdcaf6dc&#45;a57f&#45;4b24&#45;898e&#45;0a9dcd126531&#45;&gt;3db1b330&#45;f016&#45;4e56&#45;b58c&#45;3d04d846dc8f</title>
<path fill="none" stroke="black" d="M629.75,-228.64C639.19,-218.75 651.96,-205.36 662.65,-194.16"/>
<polygon fill="black" stroke="black" points="665.28,-196.48 669.65,-186.83 660.21,-191.65 665.28,-196.48"/>
</g>
<!-- 59025e44&#45;bdb6&#45;44af&#45;8453&#45;519983b98044 -->
<g id="node8" class="node">
<title>59025e44&#45;bdb6&#45;44af&#45;8453&#45;519983b98044</title>
<polygon fill="#ff8080" stroke="black" points="652.69,-111.43 615.69,-111.43 615.69,-81.43 652.69,-81.43 652.69,-111.43"/>
<text text-anchor="middle" x="634.19" y="-91.43" font-family="Times,serif" font-size="20.00">→</text>
</g>
<!-- 3db1b330&#45;f016&#45;4e56&#45;b58c&#45;3d04d846dc8f&#45;&gt;59025e44&#45;bdb6&#45;44af&#45;8453&#45;519983b98044 -->
<g id="edge7" class="edge">
<title>3db1b330&#45;f016&#45;4e56&#45;b58c&#45;3d04d846dc8f&#45;&gt;59025e44&#45;bdb6&#45;44af&#45;8453&#45;519983b98044</title>
<path fill="none" stroke="black" d="M673.74,-156.52C666.83,-146.19 657.3,-131.96 649.33,-120.05"/>
<polygon fill="black" stroke="black" points="652.08,-117.86 643.61,-111.5 646.26,-121.76 652.08,-117.86"/>
</g>
<!-- f66473a8&#45;b679&#45;4b9f&#45;811f&#45;a92cf76e0d18 -->
<g id="node11" class="node">
<title>f66473a8&#45;b679&#45;4b9f&#45;811f&#45;a92cf76e0d18</title>
<polygon fill="lightgreen" stroke="black" points="791.19,-114.43 671.19,-114.43 671.19,-78.43 791.19,-78.43 791.19,-114.43"/>
<text text-anchor="middle" x="731.19" y="-91.43" font-family="Times,serif" font-size="20.00">Open(fridge)</text>
</g>
<!-- 3db1b330&#45;f016&#45;4e56&#45;b58c&#45;3d04d846dc8f&#45;&gt;f66473a8&#45;b679&#45;4b9f&#45;811f&#45;a92cf76e0d18 -->
<g id="edge10" class="edge">
<title>3db1b330&#45;f016&#45;4e56&#45;b58c&#45;3d04d846dc8f&#45;&gt;f66473a8&#45;b679&#45;4b9f&#45;811f&#45;a92cf76e0d18</title>
<path fill="none" stroke="black" d="M692.44,-156.52C698.63,-147.08 706.96,-134.38 714.31,-123.17"/>
<polygon fill="black" stroke="black" points="717.38,-124.87 719.93,-114.59 711.52,-121.04 717.38,-124.87"/>
</g>
<!-- dee4c72b&#45;3bdf&#45;492c&#45;b796&#45;2591f8517fc1 -->
<g id="node9" class="node">
<title>dee4c72b&#45;3bdf&#45;492c&#45;b796&#45;2591f8517fc1</title>
<ellipse fill="#ffff80" stroke="black" cx="529.19" cy="-21.21" rx="108.38" ry="21.43"/>
<text text-anchor="middle" x="529.19" y="-16.21" font-family="Times,serif" font-size="20.00">IsOpened(fridge)</text>
</g>
<!-- 59025e44&#45;bdb6&#45;44af&#45;8453&#45;519983b98044&#45;&gt;dee4c72b&#45;3bdf&#45;492c&#45;b796&#45;2591f8517fc1 -->
<g id="edge8" class="edge">
<title>59025e44&#45;bdb6&#45;44af&#45;8453&#45;519983b98044&#45;&gt;dee4c72b&#45;3bdf&#45;492c&#45;b796&#45;2591f8517fc1</title>
<path fill="none" stroke="black" d="M615.42,-82.34C601.65,-72.74 582.53,-59.4 565.78,-47.73"/>
<polygon fill="black" stroke="black" points="567.49,-44.65 557.28,-41.8 563.49,-50.4 567.49,-44.65"/>
</g>
<!-- 6ed8f496&#45;daef&#45;48b4&#45;8b02&#45;d372296e2c34 -->
<g id="node10" class="node">
<title>6ed8f496&#45;daef&#45;48b4&#45;8b02&#45;d372296e2c34</title>
<polygon fill="lightgreen" stroke="black" points="823.19,-39.21 655.19,-39.21 655.19,-3.21 823.19,-3.21 823.19,-39.21"/>
<text text-anchor="middle" x="739.19" y="-16.21" font-family="Times,serif" font-size="20.00">PutIn(apple,fridge)</text>
</g>
<!-- 59025e44&#45;bdb6&#45;44af&#45;8453&#45;519983b98044&#45;&gt;6ed8f496&#45;daef&#45;48b4&#45;8b02&#45;d372296e2c34 -->
<g id="edge9" class="edge">
<title>59025e44&#45;bdb6&#45;44af&#45;8453&#45;519983b98044&#45;&gt;6ed8f496&#45;daef&#45;48b4&#45;8b02&#45;d372296e2c34</title>
<path fill="none" stroke="black" d="M652.96,-82.34C667.76,-72.02 688.77,-57.37 706.34,-45.12"/>
<polygon fill="black" stroke="black" points="708.45,-47.91 714.65,-39.32 704.44,-42.17 708.45,-47.91"/>
</g>
<!-- 1933a8b7&#45;59a9&#45;43b5&#45;92c5&#45;c8a1c7e7e9f5 -->
<g id="node13" class="node">
<title>1933a8b7&#45;59a9&#45;43b5&#45;92c5&#45;c8a1c7e7e9f5</title>
<ellipse fill="#ffff80" stroke="black" cx="818.19" cy="-171.64" rx="98.99" ry="21.43"/>
<text text-anchor="middle" x="818.19" y="-166.64" font-family="Times,serif" font-size="20.00">IsHandEmpty()</text>
</g>
<!-- 7dea2bfd&#45;eb43&#45;4ca9&#45;8f8a&#45;90e1d5245788&#45;&gt;1933a8b7&#45;59a9&#45;43b5&#45;92c5&#45;c8a1c7e7e9f5 -->
<g id="edge12" class="edge">
<title>7dea2bfd&#45;eb43&#45;4ca9&#45;8f8a&#45;90e1d5245788&#45;&gt;1933a8b7&#45;59a9&#45;43b5&#45;92c5&#45;c8a1c7e7e9f5</title>
<path fill="none" stroke="black" d="M907.38,-230.62C893.48,-221.59 874.08,-208.98 856.92,-197.82"/>
<polygon fill="black" stroke="black" points="858.48,-194.66 848.19,-192.15 854.67,-200.53 858.48,-194.66"/>
</g>
<!-- eef6e737&#45;696b&#45;4e8a&#45;9905&#45;767b6231a1d1 -->
<g id="node14" class="node">
<title>eef6e737&#45;696b&#45;4e8a&#45;9905&#45;767b6231a1d1</title>
<ellipse fill="#ffff80" stroke="black" cx="1034.19" cy="-171.64" rx="98.99" ry="21.43"/>
<text text-anchor="middle" x="1034.19" y="-166.64" font-family="Times,serif" font-size="20.00">On(apple,table)</text>
</g>
<!-- 7dea2bfd&#45;eb43&#45;4ca9&#45;8f8a&#45;90e1d5245788&#45;&gt;eef6e737&#45;696b&#45;4e8a&#45;9905&#45;767b6231a1d1 -->
<g id="edge13" class="edge">
<title>7dea2bfd&#45;eb43&#45;4ca9&#45;8f8a&#45;90e1d5245788&#45;&gt;eef6e737&#45;696b&#45;4e8a&#45;9905&#45;767b6231a1d1</title>
<path fill="none" stroke="black" d="M945,-230.62C958.89,-221.59 978.3,-208.98 995.46,-197.82"/>
<polygon fill="black" stroke="black" points="997.71,-200.53 1004.18,-192.15 993.89,-194.66 997.71,-200.53"/>
</g>
<!-- 852e17fb&#45;0bb9&#45;4127&#45;9eca&#45;df03d3979851 -->
<g id="node15" class="node">
<title>852e17fb&#45;0bb9&#45;4127&#45;9eca&#45;df03d3979851</title>
<polygon fill="lightgreen" stroke="black" points="1283.19,-189.64 1151.19,-189.64 1151.19,-153.64 1283.19,-153.64 1283.19,-189.64"/>
<text text-anchor="middle" x="1217.19" y="-166.64" font-family="Times,serif" font-size="20.00">PickUp(apple)</text>
</g>
<!-- 7dea2bfd&#45;eb43&#45;4ca9&#45;8f8a&#45;90e1d5245788&#45;&gt;852e17fb&#45;0bb9&#45;4127&#45;9eca&#45;df03d3979851 -->
<g id="edge14" class="edge">
<title>7dea2bfd&#45;eb43&#45;4ca9&#45;8f8a&#45;90e1d5245788&#45;&gt;852e17fb&#45;0bb9&#45;4127&#45;9eca&#45;df03d3979851</title>
<path fill="none" stroke="black" d="M944.73,-238.79C982.16,-230.55 1069.38,-211.09 1142.19,-192.85 1143.07,-192.63 1143.97,-192.41 1144.86,-192.18"/>
<polygon fill="black" stroke="black" points="1145.8,-195.55 1154.62,-189.68 1144.06,-188.77 1145.8,-195.55"/>
</g>
</g>
</svg>
