<?xml version="1.0" encoding="UTF-8" standalone="no"?>
<!DOCTYPE svg PUBLIC "-//W3C//DTD SVG 1.1//EN"
 "http://www.w3.org/Graphics/SVG/1.1/DTD/svg11.dtd">
<!-- Generated by graphviz version 2.43.0 (0)
 -->
<!-- Title: pastafarianism Pages: 1 -->
<svg width="1961pt" height="562pt"
 viewBox="0.00 0.00 1960.99 562.13" xmlns="http://www.w3.org/2000/svg" xmlns:xlink="http://www.w3.org/1999/xlink">
<g id="graph0" class="graph" transform="scale(1 1) rotate(0) translate(4 558.13)">
<title>pastafarianism</title>
<polygon fill="white" stroke="transparent" points="-4,4 -4,-558.13 1956.99,-558.13 1956.99,4 -4,4"/>
<!-- cd6af9f3&#45;3f89&#45;40e2&#45;b6cb&#45;f0e70c703301 -->
<g id="node1" class="node">
<title>cd6af9f3&#45;3f89&#45;40e2&#45;b6cb&#45;f0e70c703301</title>
<polygon fill="#b0ffff" stroke="black" points="794.99,-554.13 758.99,-554.13 758.99,-524.13 794.99,-524.13 794.99,-554.13"/>
<text text-anchor="middle" x="776.99" y="-534.13" font-family="Times,serif" font-size="20.00"> ? </text>
</g>
<!-- 5a714431&#45;1188&#45;47a1&#45;89a6&#45;6edba969197d -->
<g id="node2" class="node">
<title>5a714431&#45;1188&#45;47a1&#45;89a6&#45;6edba969197d</title>
<ellipse fill="#ffff80" stroke="black" cx="585.99" cy="-466.92" rx="154.71" ry="21.43"/>
<text text-anchor="middle" x="585.99" y="-461.92" font-family="Times,serif" font-size="20.00">On(book,breakfast_table)</text>
</g>
<!-- cd6af9f3&#45;3f89&#45;40e2&#45;b6cb&#45;f0e70c703301&#45;&gt;5a714431&#45;1188&#45;47a1&#45;89a6&#45;6edba969197d -->
<g id="edge1" class="edge">
<title>cd6af9f3&#45;3f89&#45;40e2&#45;b6cb&#45;f0e70c703301&#45;&gt;5a714431&#45;1188&#45;47a1&#45;89a6&#45;6edba969197d</title>
<path fill="none" stroke="black" d="M758.67,-531.4C733.28,-522.07 686.14,-504.74 647.52,-490.54"/>
<polygon fill="black" stroke="black" points="648.5,-487.17 637.91,-487.01 646.09,-493.74 648.5,-487.17"/>
</g>
<!-- d068c64d&#45;f8f1&#45;48b6&#45;a2a1&#45;8c9b3d967d5f -->
<g id="node3" class="node">
<title>d068c64d&#45;f8f1&#45;48b6&#45;a2a1&#45;8c9b3d967d5f</title>
<polygon fill="#ff8080" stroke="black" points="795.49,-481.92 758.49,-481.92 758.49,-451.92 795.49,-451.92 795.49,-481.92"/>
<text text-anchor="middle" x="776.99" y="-461.92" font-family="Times,serif" font-size="20.00">→</text>
</g>
<!-- cd6af9f3&#45;3f89&#45;40e2&#45;b6cb&#45;f0e70c703301&#45;&gt;d068c64d&#45;f8f1&#45;48b6&#45;a2a1&#45;8c9b3d967d5f -->
<g id="edge2" class="edge">
<title>cd6af9f3&#45;3f89&#45;40e2&#45;b6cb&#45;f0e70c703301&#45;&gt;d068c64d&#45;f8f1&#45;48b6&#45;a2a1&#45;8c9b3d967d5f</title>
<path fill="none" stroke="black" d="M776.99,-523.92C776.99,-514.88 776.99,-502.93 776.99,-492.4"/>
<polygon fill="black" stroke="black" points="780.49,-492.11 776.99,-482.11 773.49,-492.11 780.49,-492.11"/>
</g>
<!-- 4dd11e0d&#45;952b&#45;4095&#45;b993&#45;d87ce0164b5a -->
<g id="node6" class="node">
<title>4dd11e0d&#45;952b&#45;4095&#45;b993&#45;d87ce0164b5a</title>
<polygon fill="#ff8080" stroke="black" points="1045.49,-481.92 1008.49,-481.92 1008.49,-451.92 1045.49,-451.92 1045.49,-481.92"/>
<text text-anchor="middle" x="1026.99" y="-461.92" font-family="Times,serif" font-size="20.00">→</text>
</g>
<!-- cd6af9f3&#45;3f89&#45;40e2&#45;b6cb&#45;f0e70c703301&#45;&gt;4dd11e0d&#45;952b&#45;4095&#45;b993&#45;d87ce0164b5a -->
<g id="edge5" class="edge">
<title>cd6af9f3&#45;3f89&#45;40e2&#45;b6cb&#45;f0e70c703301&#45;&gt;4dd11e0d&#45;952b&#45;4095&#45;b993&#45;d87ce0164b5a</title>
<path fill="none" stroke="black" d="M795.37,-532.97C838.52,-520.85 946.53,-490.51 998.36,-475.96"/>
<polygon fill="black" stroke="black" points="999.56,-479.26 1008.24,-473.18 997.66,-472.52 999.56,-479.26"/>
</g>
<!-- ff0783a3&#45;1b58&#45;4ffe&#45;a3b5&#45;666d281eb260 -->
<g id="node4" class="node">
<title>ff0783a3&#45;1b58&#45;4ffe&#45;a3b5&#45;666d281eb260</title>
<ellipse fill="#ffff80" stroke="black" cx="497.99" cy="-388.49" rx="126.64" ry="21.43"/>
<text text-anchor="middle" x="497.99" y="-383.49" font-family="Times,serif" font-size="20.00">Holding(robot,book)</text>
</g>
<!-- d068c64d&#45;f8f1&#45;48b6&#45;a2a1&#45;8c9b3d967d5f&#45;&gt;ff0783a3&#45;1b58&#45;4ffe&#45;a3b5&#45;666d281eb260 -->
<g id="edge3" class="edge">
<title>d068c64d&#45;f8f1&#45;48b6&#45;a2a1&#45;8c9b3d967d5f&#45;&gt;ff0783a3&#45;1b58&#45;4ffe&#45;a3b5&#45;666d281eb260</title>
<path fill="none" stroke="black" d="M760.54,-451.92C757.2,-449.58 753.6,-447.37 749.99,-445.71 722.08,-432.87 651.81,-417.66 592.54,-406.31"/>
<polygon fill="black" stroke="black" points="592.86,-402.8 582.38,-404.37 591.55,-409.68 592.86,-402.8"/>
</g>
<!-- c2e14e77&#45;1168&#45;4403&#45;a665&#45;82a05c656ecc -->
<g id="node5" class="node">
<title>c2e14e77&#45;1168&#45;4403&#45;a665&#45;82a05c656ecc</title>
<polygon fill="lightgreen" stroke="black" points="911.49,-406.49 642.49,-406.49 642.49,-370.49 911.49,-370.49 911.49,-406.49"/>
<text text-anchor="middle" x="776.99" y="-383.49" font-family="Times,serif" font-size="20.00">PutDown(book,breakfast_table)</text>
</g>
<!-- d068c64d&#45;f8f1&#45;48b6&#45;a2a1&#45;8c9b3d967d5f&#45;&gt;c2e14e77&#45;1168&#45;4403&#45;a665&#45;82a05c656ecc -->
<g id="edge4" class="edge">
<title>d068c64d&#45;f8f1&#45;48b6&#45;a2a1&#45;8c9b3d967d5f&#45;&gt;c2e14e77&#45;1168&#45;4403&#45;a665&#45;82a05c656ecc</title>
<path fill="none" stroke="black" d="M776.99,-451.9C776.99,-442.14 776.99,-428.79 776.99,-416.94"/>
<polygon fill="black" stroke="black" points="780.49,-416.63 776.99,-406.63 773.49,-416.63 780.49,-416.63"/>
</g>
<!-- 532cf760&#45;049f&#45;4153&#45;b233&#45;fae42c6c7329 -->
<g id="node7" class="node">
<title>532cf760&#45;049f&#45;4153&#45;b233&#45;fae42c6c7329</title>
<ellipse fill="#ffff80" stroke="black" cx="1026.99" cy="-388.49" rx="97.66" ry="21.43"/>
<text text-anchor="middle" x="1026.99" y="-383.49" font-family="Times,serif" font-size="20.00">In(book,fridge)</text>
</g>
<!-- 4dd11e0d&#45;952b&#45;4095&#45;b993&#45;d87ce0164b5a&#45;&gt;532cf760&#45;049f&#45;4153&#45;b233&#45;fae42c6c7329 -->
<g id="edge6" class="edge">
<title>4dd11e0d&#45;952b&#45;4095&#45;b993&#45;d87ce0164b5a&#45;&gt;532cf760&#45;049f&#45;4153&#45;b233&#45;fae42c6c7329</title>
<path fill="none" stroke="black" d="M1026.99,-451.9C1026.99,-442.95 1026.99,-431 1026.99,-419.95"/>
<polygon fill="black" stroke="black" points="1030.49,-419.76 1026.99,-409.76 1023.49,-419.76 1030.49,-419.76"/>
</g>
<!-- 68549dee&#45;ea76&#45;49e2&#45;b5fd&#45;334eba71adcd -->
<g id="node8" class="node">
<title>68549dee&#45;ea76&#45;49e2&#45;b5fd&#45;334eba71adcd</title>
<polygon fill="#b0ffff" stroke="black" points="1178.99,-403.49 1142.99,-403.49 1142.99,-373.49 1178.99,-373.49 1178.99,-403.49"/>
<text text-anchor="middle" x="1160.99" y="-383.49" font-family="Times,serif" font-size="20.00"> ? </text>
</g>
<!-- 4dd11e0d&#45;952b&#45;4095&#45;b993&#45;d87ce0164b5a&#45;&gt;68549dee&#45;ea76&#45;49e2&#45;b5fd&#45;334eba71adcd -->
<g id="edge7" class="edge">
<title>4dd11e0d&#45;952b&#45;4095&#45;b993&#45;d87ce0164b5a&#45;&gt;68549dee&#45;ea76&#45;49e2&#45;b5fd&#45;334eba71adcd</title>
<path fill="none" stroke="black" d="M1045.66,-457.23C1067.41,-446.85 1104.18,-428.53 1133.99,-409.71 1134.17,-409.59 1134.36,-409.47 1134.54,-409.35"/>
<polygon fill="black" stroke="black" points="1136.68,-412.13 1142.96,-403.6 1132.73,-406.35 1136.68,-412.13"/>
</g>
<!-- 9c7d1554&#45;6742&#45;4adb&#45;96e8&#45;5cbefb54c223 -->
<g id="node9" class="node">
<title>9c7d1554&#45;6742&#45;4adb&#45;96e8&#45;5cbefb54c223</title>
<polygon fill="#b0ffff" stroke="black" points="978.99,-331.28 942.99,-331.28 942.99,-301.28 978.99,-301.28 978.99,-331.28"/>
<text text-anchor="middle" x="960.99" y="-311.28" font-family="Times,serif" font-size="20.00"> ? </text>
</g>
<!-- 68549dee&#45;ea76&#45;49e2&#45;b5fd&#45;334eba71adcd&#45;&gt;9c7d1554&#45;6742&#45;4adb&#45;96e8&#45;5cbefb54c223 -->
<g id="edge8" class="edge">
<title>68549dee&#45;ea76&#45;49e2&#45;b5fd&#45;334eba71adcd&#45;&gt;9c7d1554&#45;6742&#45;4adb&#45;96e8&#45;5cbefb54c223</title>
<path fill="none" stroke="black" d="M1144.16,-373.46C1140.92,-371.18 1137.45,-369 1133.99,-367.28 1085.92,-343.35 1024.49,-329.02 989.26,-322.19"/>
<polygon fill="black" stroke="black" points="989.68,-318.7 979.21,-320.3 988.39,-325.58 989.68,-318.7"/>
</g>
<!-- a56a3e4c&#45;018f&#45;4a67&#45;b45e&#45;a863eb825d82 -->
<g id="node24" class="node">
<title>a56a3e4c&#45;018f&#45;4a67&#45;b45e&#45;a863eb825d82</title>
<polygon fill="#ff8080" stroke="black" points="1380.49,-331.28 1343.49,-331.28 1343.49,-301.28 1380.49,-301.28 1380.49,-331.28"/>
<text text-anchor="middle" x="1361.99" y="-311.28" font-family="Times,serif" font-size="20.00">→</text>
</g>
<!-- 68549dee&#45;ea76&#45;49e2&#45;b5fd&#45;334eba71adcd&#45;&gt;a56a3e4c&#45;018f&#45;4a67&#45;b45e&#45;a863eb825d82 -->
<g id="edge23" class="edge">
<title>68549dee&#45;ea76&#45;49e2&#45;b5fd&#45;334eba71adcd&#45;&gt;a56a3e4c&#45;018f&#45;4a67&#45;b45e&#45;a863eb825d82</title>
<path fill="none" stroke="black" d="M1179.18,-381.14C1214.35,-368.85 1291.91,-341.76 1333.81,-327.12"/>
<polygon fill="black" stroke="black" points="1335.11,-330.37 1343.4,-323.77 1332.8,-323.77 1335.11,-330.37"/>
</g>
<!-- 9cdf2f97&#45;27c7&#45;46a1&#45;b864&#45;68f4fb80a579 -->
<g id="node10" class="node">
<title>9cdf2f97&#45;27c7&#45;46a1&#45;b864&#45;68f4fb80a579</title>
<polygon fill="#ff8080" stroke="black" points="579.49,-259.07 542.49,-259.07 542.49,-229.07 579.49,-229.07 579.49,-259.07"/>
<text text-anchor="middle" x="560.99" y="-239.07" font-family="Times,serif" font-size="20.00">→</text>
</g>
<!-- 9c7d1554&#45;6742&#45;4adb&#45;96e8&#45;5cbefb54c223&#45;&gt;9cdf2f97&#45;27c7&#45;46a1&#45;b864&#45;68f4fb80a579 -->
<g id="edge9" class="edge">
<title>9c7d1554&#45;6742&#45;4adb&#45;96e8&#45;5cbefb54c223&#45;&gt;9cdf2f97&#45;27c7&#45;46a1&#45;b864&#45;68f4fb80a579</title>
<path fill="none" stroke="black" d="M942.76,-312.08C879.26,-300.93 667.44,-263.75 589.82,-250.13"/>
<polygon fill="black" stroke="black" points="590.24,-246.65 579.78,-248.37 589.03,-253.54 590.24,-246.65"/>
</g>
<!-- 0301e48d&#45;cbde&#45;4294&#45;b901&#45;b1dca959ec40 -->
<g id="node19" class="node">
<title>0301e48d&#45;cbde&#45;4294&#45;b901&#45;b1dca959ec40</title>
<polygon fill="#ff8080" stroke="black" points="979.49,-259.07 942.49,-259.07 942.49,-229.07 979.49,-229.07 979.49,-259.07"/>
<text text-anchor="middle" x="960.99" y="-239.07" font-family="Times,serif" font-size="20.00">→</text>
</g>
<!-- 9c7d1554&#45;6742&#45;4adb&#45;96e8&#45;5cbefb54c223&#45;&gt;0301e48d&#45;cbde&#45;4294&#45;b901&#45;b1dca959ec40 -->
<g id="edge18" class="edge">
<title>9c7d1554&#45;6742&#45;4adb&#45;96e8&#45;5cbefb54c223&#45;&gt;0301e48d&#45;cbde&#45;4294&#45;b901&#45;b1dca959ec40</title>
<path fill="none" stroke="black" d="M960.99,-301.07C960.99,-292.03 960.99,-280.08 960.99,-269.54"/>
<polygon fill="black" stroke="black" points="964.49,-269.25 960.99,-259.25 957.49,-269.25 964.49,-269.25"/>
</g>
<!-- bab85090&#45;2b35&#45;402a&#45;be81&#45;6432b033b3f7 -->
<g id="node11" class="node">
<title>bab85090&#45;2b35&#45;402a&#45;be81&#45;6432b033b3f7</title>
<ellipse fill="#ffff80" stroke="black" cx="416.99" cy="-165.64" rx="108.38" ry="21.43"/>
<text text-anchor="middle" x="416.99" y="-160.64" font-family="Times,serif" font-size="20.00">IsOpened(fridge)</text>
</g>
<!-- 9cdf2f97&#45;27c7&#45;46a1&#45;b864&#45;68f4fb80a579&#45;&gt;bab85090&#45;2b35&#45;402a&#45;be81&#45;6432b033b3f7 -->
<g id="edge10" class="edge">
<title>9cdf2f97&#45;27c7&#45;46a1&#45;b864&#45;68f4fb80a579&#45;&gt;bab85090&#45;2b35&#45;402a&#45;be81&#45;6432b033b3f7</title>
<path fill="none" stroke="black" d="M542.46,-233.23C522.19,-222.47 488.97,-204.84 461.8,-190.42"/>
<polygon fill="black" stroke="black" points="463.32,-187.27 452.84,-185.67 460.04,-193.45 463.32,-187.27"/>
</g>
<!-- 9bd29a9e&#45;385e&#45;47a3&#45;a910&#45;7bb11d41242c -->
<g id="node12" class="node">
<title>9bd29a9e&#45;385e&#45;47a3&#45;a910&#45;7bb11d41242c</title>
<polygon fill="#b0ffff" stroke="black" points="578.99,-180.64 542.99,-180.64 542.99,-150.64 578.99,-150.64 578.99,-180.64"/>
<text text-anchor="middle" x="560.99" y="-160.64" font-family="Times,serif" font-size="20.00"> ? </text>
</g>
<!-- 9cdf2f97&#45;27c7&#45;46a1&#45;b864&#45;68f4fb80a579&#45;&gt;9bd29a9e&#45;385e&#45;47a3&#45;a910&#45;7bb11d41242c -->
<g id="edge11" class="edge">
<title>9cdf2f97&#45;27c7&#45;46a1&#45;b864&#45;68f4fb80a579&#45;&gt;9bd29a9e&#45;385e&#45;47a3&#45;a910&#45;7bb11d41242c</title>
<path fill="none" stroke="black" d="M560.99,-229.05C560.99,-218.45 560.99,-203.63 560.99,-191.09"/>
<polygon fill="black" stroke="black" points="564.49,-190.83 560.99,-180.83 557.49,-190.83 564.49,-190.83"/>
</g>
<!-- 9c6aadff&#45;7b2a&#45;4b74&#45;aa82&#45;9580edbb4060 -->
<g id="node13" class="node">
<title>9c6aadff&#45;7b2a&#45;4b74&#45;aa82&#45;9580edbb4060</title>
<polygon fill="#ff8080" stroke="black" points="431.49,-108.43 394.49,-108.43 394.49,-78.43 431.49,-78.43 431.49,-108.43"/>
<text text-anchor="middle" x="412.99" y="-88.43" font-family="Times,serif" font-size="20.00">→</text>
</g>
<!-- 9bd29a9e&#45;385e&#45;47a3&#45;a910&#45;7bb11d41242c&#45;&gt;9c6aadff&#45;7b2a&#45;4b74&#45;aa82&#45;9580edbb4060 -->
<g id="edge12" class="edge">
<title>9bd29a9e&#45;385e&#45;47a3&#45;a910&#45;7bb11d41242c&#45;&gt;9c6aadff&#45;7b2a&#45;4b74&#45;aa82&#45;9580edbb4060</title>
<path fill="none" stroke="black" d="M543.41,-150.5C540.35,-148.33 537.14,-146.22 533.99,-144.43 503.77,-127.24 466.48,-112.74 441.34,-103.86"/>
<polygon fill="black" stroke="black" points="442.29,-100.48 431.7,-100.51 440,-107.09 442.29,-100.48"/>
</g>
<!-- b5d3440e&#45;7200&#45;4a82&#45;b31d&#45;7bafd76f6ff0 -->
<g id="node16" class="node">
<title>b5d3440e&#45;7200&#45;4a82&#45;b31d&#45;7bafd76f6ff0</title>
<polygon fill="#ff8080" stroke="black" points="727.49,-108.43 690.49,-108.43 690.49,-78.43 727.49,-78.43 727.49,-108.43"/>
<text text-anchor="middle" x="708.99" y="-88.43" font-family="Times,serif" font-size="20.00">→</text>
</g>
<!-- 9bd29a9e&#45;385e&#45;47a3&#45;a910&#45;7bb11d41242c&#45;&gt;b5d3440e&#45;7200&#45;4a82&#45;b31d&#45;7bafd76f6ff0 -->
<g id="edge15" class="edge">
<title>9bd29a9e&#45;385e&#45;47a3&#45;a910&#45;7bb11d41242c&#45;&gt;b5d3440e&#45;7200&#45;4a82&#45;b31d&#45;7bafd76f6ff0</title>
<path fill="none" stroke="black" d="M578.57,-150.5C581.62,-148.33 584.83,-146.22 587.99,-144.43 618.2,-127.24 655.5,-112.74 680.63,-103.86"/>
<polygon fill="black" stroke="black" points="681.98,-107.09 690.28,-100.51 679.68,-100.48 681.98,-107.09"/>
</g>
<!-- b651ab4d&#45;0e49&#45;4303&#45;9dd5&#45;2109233b06b2 -->
<g id="node14" class="node">
<title>b651ab4d&#45;0e49&#45;4303&#45;9dd5&#45;2109233b06b2</title>
<ellipse fill="#ffff80" stroke="black" cx="127.99" cy="-21.21" rx="127.97" ry="21.43"/>
<text text-anchor="middle" x="127.99" y="-16.21" font-family="Times,serif" font-size="20.00">IsHandEmpty(robot)</text>
</g>
<!-- 9c6aadff&#45;7b2a&#45;4b74&#45;aa82&#45;9580edbb4060&#45;&gt;b651ab4d&#45;0e49&#45;4303&#45;9dd5&#45;2109233b06b2 -->
<g id="edge13" class="edge">
<title>9c6aadff&#45;7b2a&#45;4b74&#45;aa82&#45;9580edbb4060&#45;&gt;b651ab4d&#45;0e49&#45;4303&#45;9dd5&#45;2109233b06b2</title>
<path fill="none" stroke="black" d="M394.29,-87.82C356.91,-78.61 271.04,-57.46 206.85,-41.64"/>
<polygon fill="black" stroke="black" points="207.3,-38.15 196.75,-39.15 205.62,-44.94 207.3,-38.15"/>
</g>
<!-- 1c309e04&#45;dc36&#45;4606&#45;b575&#45;052c0f6e7693 -->
<g id="node15" class="node">
<title>1c309e04&#45;dc36&#45;4606&#45;b575&#45;052c0f6e7693</title>
<polygon fill="lightgreen" stroke="black" points="551.99,-39.21 273.99,-39.21 273.99,-3.21 551.99,-3.21 551.99,-39.21"/>
<text text-anchor="middle" x="412.99" y="-16.21" font-family="Times,serif" font-size="20.00">PickFromContainer(book,fridge)</text>
</g>
<!-- 9c6aadff&#45;7b2a&#45;4b74&#45;aa82&#45;9580edbb4060&#45;&gt;1c309e04&#45;dc36&#45;4606&#45;b575&#45;052c0f6e7693 -->
<g id="edge14" class="edge">
<title>9c6aadff&#45;7b2a&#45;4b74&#45;aa82&#45;9580edbb4060&#45;&gt;1c309e04&#45;dc36&#45;4606&#45;b575&#45;052c0f6e7693</title>
<path fill="none" stroke="black" d="M412.99,-78.22C412.99,-69.98 412.99,-59.32 412.99,-49.52"/>
<polygon fill="black" stroke="black" points="416.49,-49.38 412.99,-39.38 409.49,-49.38 416.49,-49.38"/>
</g>
<!-- bb92938c&#45;255b&#45;45fa&#45;be74&#45;17b4cb0c30a5 -->
<g id="node17" class="node">
<title>bb92938c&#45;255b&#45;45fa&#45;be74&#45;17b4cb0c30a5</title>
<ellipse fill="#ffff80" stroke="black" cx="708.99" cy="-21.21" rx="139.1" ry="21.43"/>
<text text-anchor="middle" x="708.99" y="-16.21" font-family="Times,serif" font-size="20.00">Holding(robot,banana)</text>
</g>
<!-- b5d3440e&#45;7200&#45;4a82&#45;b31d&#45;7bafd76f6ff0&#45;&gt;bb92938c&#45;255b&#45;45fa&#45;be74&#45;17b4cb0c30a5 -->
<g id="edge16" class="edge">
<title>b5d3440e&#45;7200&#45;4a82&#45;b31d&#45;7bafd76f6ff0&#45;&gt;bb92938c&#45;255b&#45;45fa&#45;be74&#45;17b4cb0c30a5</title>
<path fill="none" stroke="black" d="M708.99,-78.22C708.99,-70.84 708.99,-61.54 708.99,-52.64"/>
<polygon fill="black" stroke="black" points="712.49,-52.52 708.99,-42.52 705.49,-52.52 712.49,-52.52"/>
</g>
<!-- c6bc2049&#45;3f6b&#45;47c1&#45;9a37&#45;9a0221e90554 -->
<g id="node18" class="node">
<title>c6bc2049&#45;3f6b&#45;47c1&#45;9a37&#45;9a0221e90554</title>
<polygon fill="lightgreen" stroke="black" points="1153.49,-39.21 866.49,-39.21 866.49,-3.21 1153.49,-3.21 1153.49,-39.21"/>
<text text-anchor="middle" x="1009.99" y="-16.21" font-family="Times,serif" font-size="20.00">PutDown(banana,breakfast_table)</text>
</g>
<!-- b5d3440e&#45;7200&#45;4a82&#45;b31d&#45;7bafd76f6ff0&#45;&gt;c6bc2049&#45;3f6b&#45;47c1&#45;9a37&#45;9a0221e90554 -->
<g id="edge17" class="edge">
<title>b5d3440e&#45;7200&#45;4a82&#45;b31d&#45;7bafd76f6ff0&#45;&gt;c6bc2049&#45;3f6b&#45;47c1&#45;9a37&#45;9a0221e90554</title>
<path fill="none" stroke="black" d="M727.82,-88.03C766.89,-78.92 858.82,-57.48 927.2,-41.52"/>
<polygon fill="black" stroke="black" points="928.16,-44.89 937.11,-39.21 926.57,-38.08 928.16,-44.89"/>
</g>
<!-- 02592588&#45;ee83&#45;4446&#45;a94e&#45;29c3ba71bdee -->
<g id="node20" class="node">
<title>02592588&#45;ee83&#45;4446&#45;a94e&#45;29c3ba71bdee</title>
<ellipse fill="#ffff80" stroke="black" cx="699.99" cy="-165.64" rx="103.48" ry="21.43"/>
<text text-anchor="middle" x="699.99" y="-160.64" font-family="Times,serif" font-size="20.00">IsClosed(fridge)</text>
</g>
<!-- 0301e48d&#45;cbde&#45;4294&#45;b901&#45;b1dca959ec40&#45;&gt;02592588&#45;ee83&#45;4446&#45;a94e&#45;29c3ba71bdee -->
<g id="edge19" class="edge">
<title>0301e48d&#45;cbde&#45;4294&#45;b901&#45;b1dca959ec40&#45;&gt;02592588&#45;ee83&#45;4446&#45;a94e&#45;29c3ba71bdee</title>
<path fill="none" stroke="black" d="M942.22,-237.57C906.08,-226.99 825.29,-203.33 766.93,-186.24"/>
<polygon fill="black" stroke="black" points="767.62,-182.8 757.04,-183.35 765.65,-189.51 767.62,-182.8"/>
</g>
<!-- a6f2a1c8&#45;033e&#45;4ad7&#45;b188&#45;10de5140fb24 -->
<g id="node21" class="node">
<title>a6f2a1c8&#45;033e&#45;4ad7&#45;b188&#45;10de5140fb24</title>
<ellipse fill="#ffff80" stroke="black" cx="960.99" cy="-165.64" rx="139.1" ry="21.43"/>
<text text-anchor="middle" x="960.99" y="-160.64" font-family="Times,serif" font-size="20.00">Holding(robot,banana)</text>
</g>
<!-- 0301e48d&#45;cbde&#45;4294&#45;b901&#45;b1dca959ec40&#45;&gt;a6f2a1c8&#45;033e&#45;4ad7&#45;b188&#45;10de5140fb24 -->
<g id="edge20" class="edge">
<title>0301e48d&#45;cbde&#45;4294&#45;b901&#45;b1dca959ec40&#45;&gt;a6f2a1c8&#45;033e&#45;4ad7&#45;b188&#45;10de5140fb24</title>
<path fill="none" stroke="black" d="M960.99,-229.05C960.99,-220.1 960.99,-208.15 960.99,-197.09"/>
<polygon fill="black" stroke="black" points="964.49,-196.9 960.99,-186.9 957.49,-196.9 964.49,-196.9"/>
</g>
<!-- b3f96f42&#45;33cb&#45;4f8f&#45;849a&#45;a990bc27038b -->
<g id="node22" class="node">
<title>b3f96f42&#45;33cb&#45;4f8f&#45;849a&#45;a990bc27038b</title>
<ellipse fill="#ffff80" stroke="black" cx="1245.99" cy="-165.64" rx="127.97" ry="21.43"/>
<text text-anchor="middle" x="1245.99" y="-160.64" font-family="Times,serif" font-size="20.00">IsHandEmpty(robot)</text>
</g>
<!-- 0301e48d&#45;cbde&#45;4294&#45;b901&#45;b1dca959ec40&#45;&gt;b3f96f42&#45;33cb&#45;4f8f&#45;849a&#45;a990bc27038b -->
<g id="edge21" class="edge">
<title>0301e48d&#45;cbde&#45;4294&#45;b901&#45;b1dca959ec40&#45;&gt;b3f96f42&#45;33cb&#45;4f8f&#45;849a&#45;a990bc27038b</title>
<path fill="none" stroke="black" d="M978.09,-229.07C981.54,-226.72 985.26,-224.52 988.99,-222.85 1017.67,-210.03 1089.76,-194.75 1150.31,-183.36"/>
<polygon fill="black" stroke="black" points="1151.12,-186.77 1160.31,-181.5 1149.84,-179.89 1151.12,-186.77"/>
</g>
<!-- 45f1a73e&#45;11e9&#45;4003&#45;8c51&#45;3ec9575ae8ca -->
<g id="node23" class="node">
<title>45f1a73e&#45;11e9&#45;4003&#45;8c51&#45;3ec9575ae8ca</title>
<polygon fill="lightgreen" stroke="black" points="1589.99,-183.64 1391.99,-183.64 1391.99,-147.64 1589.99,-147.64 1589.99,-183.64"/>
<text text-anchor="middle" x="1490.99" y="-160.64" font-family="Times,serif" font-size="20.00">OpenContainer(fridge)</text>
</g>
<!-- 0301e48d&#45;cbde&#45;4294&#45;b901&#45;b1dca959ec40&#45;&gt;45f1a73e&#45;11e9&#45;4003&#45;8c51&#45;3ec9575ae8ca -->
<g id="edge22" class="edge">
<title>0301e48d&#45;cbde&#45;4294&#45;b901&#45;b1dca959ec40&#45;&gt;45f1a73e&#45;11e9&#45;4003&#45;8c51&#45;3ec9575ae8ca</title>
<path fill="none" stroke="black" d="M977.63,-228.89C981.18,-226.5 985.06,-224.32 988.99,-222.85 1153.67,-161.21 1208.82,-211.05 1382.99,-186.85 1386.6,-186.35 1390.28,-185.81 1393.99,-185.24"/>
<polygon fill="black" stroke="black" points="1394.54,-188.7 1403.86,-183.67 1393.44,-181.78 1394.54,-188.7"/>
</g>
<!-- 291d2990&#45;49d9&#45;4d1b&#45;928d&#45;7128d08b9312 -->
<g id="node25" class="node">
<title>291d2990&#45;49d9&#45;4d1b&#45;928d&#45;7128d08b9312</title>
<ellipse fill="#ffff80" stroke="black" cx="1100.99" cy="-244.07" rx="103.48" ry="21.43"/>
<text text-anchor="middle" x="1100.99" y="-239.07" font-family="Times,serif" font-size="20.00">IsClosed(fridge)</text>
</g>
<!-- a56a3e4c&#45;018f&#45;4a67&#45;b45e&#45;a863eb825d82&#45;&gt;291d2990&#45;49d9&#45;4d1b&#45;928d&#45;7128d08b9312 -->
<g id="edge24" class="edge">
<title>a56a3e4c&#45;018f&#45;4a67&#45;b45e&#45;a863eb825d82&#45;&gt;291d2990&#45;49d9&#45;4d1b&#45;928d&#45;7128d08b9312</title>
<path fill="none" stroke="black" d="M1343.22,-310.23C1307.75,-300.69 1229.24,-279.57 1171.16,-263.94"/>
<polygon fill="black" stroke="black" points="1171.87,-260.51 1161.3,-261.29 1170.05,-267.27 1171.87,-260.51"/>
</g>
<!-- 68277e24&#45;10e5&#45;4460&#45;8d52&#45;38dcbb6f4daf -->
<g id="node26" class="node">
<title>68277e24&#45;10e5&#45;4460&#45;8d52&#45;38dcbb6f4daf</title>
<ellipse fill="#ffff80" stroke="black" cx="1361.99" cy="-244.07" rx="139.1" ry="21.43"/>
<text text-anchor="middle" x="1361.99" y="-239.07" font-family="Times,serif" font-size="20.00">Holding(robot,banana)</text>
</g>
<!-- a56a3e4c&#45;018f&#45;4a67&#45;b45e&#45;a863eb825d82&#45;&gt;68277e24&#45;10e5&#45;4460&#45;8d52&#45;38dcbb6f4daf -->
<g id="edge25" class="edge">
<title>a56a3e4c&#45;018f&#45;4a67&#45;b45e&#45;a863eb825d82&#45;&gt;68277e24&#45;10e5&#45;4460&#45;8d52&#45;38dcbb6f4daf</title>
<path fill="none" stroke="black" d="M1361.99,-301.07C1361.99,-293.7 1361.99,-284.39 1361.99,-275.49"/>
<polygon fill="black" stroke="black" points="1365.49,-275.37 1361.99,-265.37 1358.49,-275.37 1365.49,-275.37"/>
</g>
<!-- 1847e7d2&#45;7c80&#45;496a&#45;bbdf&#45;3b29d5294929 -->
<g id="node27" class="node">
<title>1847e7d2&#45;7c80&#45;496a&#45;bbdf&#45;3b29d5294929</title>
<ellipse fill="#ffff80" stroke="black" cx="1638.99" cy="-244.07" rx="119.5" ry="21.43"/>
<text text-anchor="middle" x="1638.99" y="-239.07" font-family="Times,serif" font-size="20.00">Holding(robot,pen)</text>
</g>
<!-- a56a3e4c&#45;018f&#45;4a67&#45;b45e&#45;a863eb825d82&#45;&gt;1847e7d2&#45;7c80&#45;496a&#45;bbdf&#45;3b29d5294929 -->
<g id="edge26" class="edge">
<title>a56a3e4c&#45;018f&#45;4a67&#45;b45e&#45;a863eb825d82&#45;&gt;1847e7d2&#45;7c80&#45;496a&#45;bbdf&#45;3b29d5294929</title>
<path fill="none" stroke="black" d="M1380.59,-310.56C1417.32,-301.25 1500.98,-280.05 1563.22,-264.27"/>
<polygon fill="black" stroke="black" points="1564.18,-267.64 1573.01,-261.79 1562.46,-260.85 1564.18,-267.64"/>
</g>
<!-- a314755e&#45;53f9&#45;494f&#45;8f39&#45;ccdbc471810e -->
<g id="node28" class="node">
<title>a314755e&#45;53f9&#45;494f&#45;8f39&#45;ccdbc471810e</title>
<polygon fill="lightgreen" stroke="black" points="1952.99,-262.07 1776.99,-262.07 1776.99,-226.07 1952.99,-226.07 1952.99,-262.07"/>
<text text-anchor="middle" x="1864.99" y="-239.07" font-family="Times,serif" font-size="20.00">PutDown(pen,table)</text>
</g>
<!-- a56a3e4c&#45;018f&#45;4a67&#45;b45e&#45;a863eb825d82&#45;&gt;a314755e&#45;53f9&#45;494f&#45;8f39&#45;ccdbc471810e -->
<g id="edge27" class="edge">
<title>a56a3e4c&#45;018f&#45;4a67&#45;b45e&#45;a863eb825d82&#45;&gt;a314755e&#45;53f9&#45;494f&#45;8f39&#45;ccdbc471810e</title>
<path fill="none" stroke="black" d="M1380.68,-313.53C1438.49,-308.02 1619.45,-289.86 1767.99,-265.28 1770.64,-264.84 1773.33,-264.38 1776.04,-263.9"/>
<polygon fill="black" stroke="black" points="1776.73,-267.33 1785.95,-262.1 1775.48,-260.45 1776.73,-267.33"/>
</g>
</g>
</svg>
