<?xml version="1.0" encoding="UTF-8" standalone="no"?>
<!DOCTYPE svg PUBLIC "-//W3C//DTD SVG 1.1//EN"
 "http://www.w3.org/Graphics/SVG/1.1/DTD/svg11.dtd">
<!-- Generated by graphviz version 2.43.0 (0)
 -->
<!-- Title: pastafarianism Pages: 1 -->
<svg width="822pt" height="339pt"
 viewBox="0.00 0.00 821.83 339.28" xmlns="http://www.w3.org/2000/svg" xmlns:xlink="http://www.w3.org/1999/xlink">
<g id="graph0" class="graph" transform="scale(1 1) rotate(0) translate(4 335.28)">
<title>pastafarianism</title>
<polygon fill="white" stroke="transparent" points="-4,4 -4,-335.28 817.83,-335.28 817.83,4 -4,4"/>
<!-- af88429a&#45;c768&#45;42fe&#45;9938&#45;434f34353c62 -->
<g id="node1" class="node">
<title>af88429a&#45;c768&#45;42fe&#45;9938&#45;434f34353c62</title>
<polygon fill="#b0ffff" stroke="black" points="212.83,-331.28 176.83,-331.28 176.83,-301.28 212.83,-301.28 212.83,-331.28"/>
<text text-anchor="middle" x="194.83" y="-311.28" font-family="Times,serif" font-size="20.00"> ? </text>
</g>
<!-- 06cc64be&#45;a9c0&#45;49b2&#45;a39a&#45;c388aa256556 -->
<g id="node2" class="node">
<title>06cc64be&#45;a9c0&#45;49b2&#45;a39a&#45;c388aa256556</title>
<ellipse fill="#ffff80" stroke="black" cx="130.83" cy="-244.07" rx="91.43" ry="21.43"/>
<text text-anchor="middle" x="130.83" y="-239.07" font-family="Times,serif" font-size="20.00">On(a,place_a)</text>
</g>
<!-- af88429a&#45;c768&#45;42fe&#45;9938&#45;434f34353c62&#45;&gt;06cc64be&#45;a9c0&#45;49b2&#45;a39a&#45;c388aa256556 -->
<g id="edge1" class="edge">
<title>af88429a&#45;c768&#45;42fe&#45;9938&#45;434f34353c62&#45;&gt;06cc64be&#45;a9c0&#45;49b2&#45;a39a&#45;c388aa256556</title>
<path fill="none" stroke="black" d="M181.88,-301.07C174.44,-292.91 164.85,-282.39 155.99,-272.67"/>
<polygon fill="black" stroke="black" points="158.42,-270.14 149.1,-265.11 153.25,-274.86 158.42,-270.14"/>
</g>
<!-- 2b74aba4&#45;832c&#45;4d1a&#45;bd00&#45;e90b7e9ab3a9 -->
<g id="node3" class="node">
<title>2b74aba4&#45;832c&#45;4d1a&#45;bd00&#45;e90b7e9ab3a9</title>
<polygon fill="#ff8080" stroke="black" points="277.33,-259.07 240.33,-259.07 240.33,-229.07 277.33,-229.07 277.33,-259.07"/>
<text text-anchor="middle" x="258.83" y="-239.07" font-family="Times,serif" font-size="20.00">→</text>
</g>
<!-- af88429a&#45;c768&#45;42fe&#45;9938&#45;434f34353c62&#45;&gt;2b74aba4&#45;832c&#45;4d1a&#45;bd00&#45;e90b7e9ab3a9 -->
<g id="edge2" class="edge">
<title>af88429a&#45;c768&#45;42fe&#45;9938&#45;434f34353c62&#45;&gt;2b74aba4&#45;832c&#45;4d1a&#45;bd00&#45;e90b7e9ab3a9</title>
<path fill="none" stroke="black" d="M207.78,-301.07C216.72,-291.27 228.77,-278.05 238.92,-266.91"/>
<polygon fill="black" stroke="black" points="241.75,-269 245.9,-259.25 236.58,-264.29 241.75,-269"/>
</g>
<!-- 03a6e1ef&#45;2b4f&#45;405a&#45;a5bd&#45;1a9682de05df -->
<g id="node4" class="node">
<title>03a6e1ef&#45;2b4f&#45;405a&#45;a5bd&#45;1a9682de05df</title>
<ellipse fill="#ffff80" stroke="black" cx="184.83" cy="-165.64" rx="111.95" ry="21.43"/>
<text text-anchor="middle" x="184.83" y="-160.64" font-family="Times,serif" font-size="20.00">IsEmpty(place_a)</text>
</g>
<!-- 2b74aba4&#45;832c&#45;4d1a&#45;bd00&#45;e90b7e9ab3a9&#45;&gt;03a6e1ef&#45;2b4f&#45;405a&#45;a5bd&#45;1a9682de05df -->
<g id="edge3" class="edge">
<title>2b74aba4&#45;832c&#45;4d1a&#45;bd00&#45;e90b7e9ab3a9&#45;&gt;03a6e1ef&#45;2b4f&#45;405a&#45;a5bd&#45;1a9682de05df</title>
<path fill="none" stroke="black" d="M245.26,-229.05C235.81,-219.29 222.9,-205.96 211.44,-194.12"/>
<polygon fill="black" stroke="black" points="213.64,-191.36 204.17,-186.61 208.61,-196.23 213.64,-191.36"/>
</g>
<!-- aa0860e4&#45;b689&#45;4deb&#45;afec&#45;ecf417a96a5d -->
<g id="node5" class="node">
<title>aa0860e4&#45;b689&#45;4deb&#45;afec&#45;ecf417a96a5d</title>
<polygon fill="#b0ffff" stroke="black" points="350.83,-180.64 314.83,-180.64 314.83,-150.64 350.83,-150.64 350.83,-180.64"/>
<text text-anchor="middle" x="332.83" y="-160.64" font-family="Times,serif" font-size="20.00"> ? </text>
</g>
<!-- 2b74aba4&#45;832c&#45;4d1a&#45;bd00&#45;e90b7e9ab3a9&#45;&gt;aa0860e4&#45;b689&#45;4deb&#45;afec&#45;ecf417a96a5d -->
<g id="edge4" class="edge">
<title>2b74aba4&#45;832c&#45;4d1a&#45;bd00&#45;e90b7e9ab3a9&#45;&gt;aa0860e4&#45;b689&#45;4deb&#45;afec&#45;ecf417a96a5d</title>
<path fill="none" stroke="black" d="M272.4,-229.05C283.5,-217.59 299.36,-201.21 312.05,-188.1"/>
<polygon fill="black" stroke="black" points="314.65,-190.45 319.09,-180.83 309.62,-185.58 314.65,-190.45"/>
</g>
<!-- dc9a9eba&#45;84a7&#45;43f1&#45;969e&#45;1925c4f8920d -->
<g id="node6" class="node">
<title>dc9a9eba&#45;84a7&#45;43f1&#45;969e&#45;1925c4f8920d</title>
<polygon fill="#ff8080" stroke="black" points="256.33,-108.43 219.33,-108.43 219.33,-78.43 256.33,-78.43 256.33,-108.43"/>
<text text-anchor="middle" x="237.83" y="-88.43" font-family="Times,serif" font-size="20.00">→</text>
</g>
<!-- aa0860e4&#45;b689&#45;4deb&#45;afec&#45;ecf417a96a5d&#45;&gt;dc9a9eba&#45;84a7&#45;43f1&#45;969e&#45;1925c4f8920d -->
<g id="edge5" class="edge">
<title>aa0860e4&#45;b689&#45;4deb&#45;afec&#45;ecf417a96a5d&#45;&gt;dc9a9eba&#45;84a7&#45;43f1&#45;969e&#45;1925c4f8920d</title>
<path fill="none" stroke="black" d="M314.55,-150.92C311.64,-148.74 308.65,-146.52 305.83,-144.43 292.25,-134.35 277.1,-123.2 264.56,-113.99"/>
<polygon fill="black" stroke="black" points="266.47,-111.06 256.33,-107.97 262.33,-116.7 266.47,-111.06"/>
</g>
<!-- ce5d7c29&#45;8718&#45;4072&#45;91a0&#45;49ec72269e3c -->
<g id="node9" class="node">
<title>ce5d7c29&#45;8718&#45;4072&#45;91a0&#45;49ec72269e3c</title>
<polygon fill="#ff8080" stroke="black" points="543.33,-108.43 506.33,-108.43 506.33,-78.43 543.33,-78.43 543.33,-108.43"/>
<text text-anchor="middle" x="524.83" y="-88.43" font-family="Times,serif" font-size="20.00">→</text>
</g>
<!-- aa0860e4&#45;b689&#45;4deb&#45;afec&#45;ecf417a96a5d&#45;&gt;ce5d7c29&#45;8718&#45;4072&#45;91a0&#45;49ec72269e3c -->
<g id="edge8" class="edge">
<title>aa0860e4&#45;b689&#45;4deb&#45;afec&#45;ecf417a96a5d&#45;&gt;ce5d7c29&#45;8718&#45;4072&#45;91a0&#45;49ec72269e3c</title>
<path fill="none" stroke="black" d="M350.89,-158.03C384.46,-145.76 456.65,-119.36 496.67,-104.72"/>
<polygon fill="black" stroke="black" points="497.92,-107.99 506.11,-101.27 495.52,-101.42 497.92,-107.99"/>
</g>
<!-- c279fd21&#45;b723&#45;4a1a&#45;831c&#45;4587d5a6d1fe -->
<g id="node7" class="node">
<title>c279fd21&#45;b723&#45;4a1a&#45;831c&#45;4587d5a6d1fe</title>
<ellipse fill="#ffff80" stroke="black" cx="72.83" cy="-21.21" rx="72.66" ry="21.43"/>
<text text-anchor="middle" x="72.83" y="-16.21" font-family="Times,serif" font-size="20.00">Holding(a)</text>
</g>
<!-- dc9a9eba&#45;84a7&#45;43f1&#45;969e&#45;1925c4f8920d&#45;&gt;c279fd21&#45;b723&#45;4a1a&#45;831c&#45;4587d5a6d1fe -->
<g id="edge6" class="edge">
<title>dc9a9eba&#45;84a7&#45;43f1&#45;969e&#45;1925c4f8920d&#45;&gt;c279fd21&#45;b723&#45;4a1a&#45;831c&#45;4587d5a6d1fe</title>
<path fill="none" stroke="black" d="M219.23,-84.51C195.83,-74.55 154.77,-57.08 122.08,-43.17"/>
<polygon fill="black" stroke="black" points="123.24,-39.86 112.66,-39.16 120.5,-46.3 123.24,-39.86"/>
</g>
<!-- f6403091&#45;b24c&#45;4de2&#45;b932&#45;af348d8b00e2 -->
<g id="node8" class="node">
<title>f6403091&#45;b24c&#45;4de2&#45;b932&#45;af348d8b00e2</title>
<polygon fill="lightgreen" stroke="black" points="312.33,-39.21 163.33,-39.21 163.33,-3.21 312.33,-3.21 312.33,-39.21"/>
<text text-anchor="middle" x="237.83" y="-16.21" font-family="Times,serif" font-size="20.00">Place(a,place_a)</text>
</g>
<!-- dc9a9eba&#45;84a7&#45;43f1&#45;969e&#45;1925c4f8920d&#45;&gt;f6403091&#45;b24c&#45;4de2&#45;b932&#45;af348d8b00e2 -->
<g id="edge7" class="edge">
<title>dc9a9eba&#45;84a7&#45;43f1&#45;969e&#45;1925c4f8920d&#45;&gt;f6403091&#45;b24c&#45;4de2&#45;b932&#45;af348d8b00e2</title>
<path fill="none" stroke="black" d="M237.83,-78.22C237.83,-69.98 237.83,-59.32 237.83,-49.52"/>
<polygon fill="black" stroke="black" points="241.33,-49.38 237.83,-39.38 234.33,-49.38 241.33,-49.38"/>
</g>
<!-- f62793d5&#45;7c95&#45;4b24&#45;a829&#45;479a56426dd7 -->
<g id="node10" class="node">
<title>f62793d5&#45;7c95&#45;4b24&#45;a829&#45;479a56426dd7</title>
<ellipse fill="#ffff80" stroke="black" cx="428.83" cy="-21.21" rx="98.99" ry="21.43"/>
<text text-anchor="middle" x="428.83" y="-16.21" font-family="Times,serif" font-size="20.00">IsHandEmpty()</text>
</g>
<!-- ce5d7c29&#45;8718&#45;4072&#45;91a0&#45;49ec72269e3c&#45;&gt;f62793d5&#45;7c95&#45;4b24&#45;a829&#45;479a56426dd7 -->
<g id="edge9" class="edge">
<title>ce5d7c29&#45;8718&#45;4072&#45;91a0&#45;49ec72269e3c&#45;&gt;f62793d5&#45;7c95&#45;4b24&#45;a829&#45;479a56426dd7</title>
<path fill="none" stroke="black" d="M506.32,-78.89C494.3,-70.09 478.24,-58.35 463.87,-47.84"/>
<polygon fill="black" stroke="black" points="465.77,-44.9 455.64,-41.82 461.64,-50.55 465.77,-44.9"/>
</g>
<!-- 6ea45b6d&#45;6982&#45;4878&#45;9d50&#45;f370a8b54e03 -->
<g id="node11" class="node">
<title>6ea45b6d&#45;6982&#45;4878&#45;9d50&#45;f370a8b54e03</title>
<ellipse fill="#ffff80" stroke="black" cx="621.83" cy="-21.21" rx="75.82" ry="21.43"/>
<text text-anchor="middle" x="621.83" y="-16.21" font-family="Times,serif" font-size="20.00">On(a,table)</text>
</g>
<!-- ce5d7c29&#45;8718&#45;4072&#45;91a0&#45;49ec72269e3c&#45;&gt;6ea45b6d&#45;6982&#45;4878&#45;9d50&#45;f370a8b54e03 -->
<g id="edge10" class="edge">
<title>ce5d7c29&#45;8718&#45;4072&#45;91a0&#45;49ec72269e3c&#45;&gt;6ea45b6d&#45;6982&#45;4878&#45;9d50&#45;f370a8b54e03</title>
<path fill="none" stroke="black" d="M543.53,-78.89C555.87,-69.96 572.4,-58 587.09,-47.36"/>
<polygon fill="black" stroke="black" points="589.44,-49.98 595.49,-41.28 585.33,-44.31 589.44,-49.98"/>
</g>
<!-- de986ac1&#45;f8db&#45;4b35&#45;98a6&#45;35ebde5c86c5 -->
<g id="node12" class="node">
<title>de986ac1&#45;f8db&#45;4b35&#45;98a6&#45;35ebde5c86c5</title>
<polygon fill="lightgreen" stroke="black" points="813.83,-39.21 715.83,-39.21 715.83,-3.21 813.83,-3.21 813.83,-39.21"/>
<text text-anchor="middle" x="764.83" y="-16.21" font-family="Times,serif" font-size="20.00">PickUp(a)</text>
</g>
<!-- ce5d7c29&#45;8718&#45;4072&#45;91a0&#45;49ec72269e3c&#45;&gt;de986ac1&#45;f8db&#45;4b35&#45;98a6&#45;35ebde5c86c5 -->
<g id="edge11" class="edge">
<title>ce5d7c29&#45;8718&#45;4072&#45;91a0&#45;49ec72269e3c&#45;&gt;de986ac1&#45;f8db&#45;4b35&#45;98a6&#45;35ebde5c86c5</title>
<path fill="none" stroke="black" d="M543.55,-87.73C576.68,-79.31 647.7,-60.83 706.83,-42.43 706.93,-42.39 707.04,-42.36 707.14,-42.33"/>
<polygon fill="black" stroke="black" points="708.36,-45.62 716.81,-39.23 706.22,-38.95 708.36,-45.62"/>
</g>
</g>
</svg>
