<?xml version="1.0" encoding="UTF-8" standalone="no"?>
<!DOCTYPE svg PUBLIC "-//W3C//DTD SVG 1.1//EN"
 "http://www.w3.org/Graphics/SVG/1.1/DTD/svg11.dtd">
<!-- Generated by graphviz version 2.43.0 (0)
 -->
<!-- Title: pastafarianism Pages: 1 -->
<svg width="2915pt" height="773pt"
 viewBox="0.00 0.00 2915.33 772.56" xmlns="http://www.w3.org/2000/svg" xmlns:xlink="http://www.w3.org/1999/xlink">
<g id="graph0" class="graph" transform="scale(1 1) rotate(0) translate(4 768.56)">
<title>pastafarianism</title>
<polygon fill="white" stroke="transparent" points="-4,4 -4,-768.56 2911.33,-768.56 2911.33,4 -4,4"/>
<!-- 9bbb33ee&#45;95df&#45;4317&#45;871b&#45;9ce3bbe5b08e -->
<g id="node1" class="node">
<title>9bbb33ee&#45;95df&#45;4317&#45;871b&#45;9ce3bbe5b08e</title>
<polygon fill="#b0ffff" stroke="black" points="1484.83,-764.56 1448.83,-764.56 1448.83,-734.56 1484.83,-734.56 1484.83,-764.56"/>
<text text-anchor="middle" x="1466.83" y="-744.56" font-family="Times,serif" font-size="20.00"> ? </text>
</g>
<!-- e8451d58&#45;0e09&#45;4c9f&#45;bf1e&#45;1d3e0125c59c -->
<g id="node2" class="node">
<title>e8451d58&#45;0e09&#45;4c9f&#45;bf1e&#45;1d3e0125c59c</title>
<polygon fill="#ff8080" stroke="black" points="1374.33,-698.56 1337.33,-698.56 1337.33,-668.56 1374.33,-668.56 1374.33,-698.56"/>
<text text-anchor="middle" x="1355.83" y="-678.56" font-family="Times,serif" font-size="20.00">→</text>
</g>
<!-- 9bbb33ee&#45;95df&#45;4317&#45;871b&#45;9ce3bbe5b08e&#45;&gt;e8451d58&#45;0e09&#45;4c9f&#45;bf1e&#45;1d3e0125c59c -->
<g id="edge1" class="edge">
<title>9bbb33ee&#45;95df&#45;4317&#45;871b&#45;9ce3bbe5b08e&#45;&gt;e8451d58&#45;0e09&#45;4c9f&#45;bf1e&#45;1d3e0125c59c</title>
<path fill="none" stroke="black" d="M1448.5,-737.99C1430.77,-727.77 1403.68,-712.15 1383.36,-700.43"/>
<polygon fill="black" stroke="black" points="1384.97,-697.32 1374.56,-695.36 1381.47,-703.38 1384.97,-697.32"/>
</g>
<!-- a37ecca6&#45;c303&#45;43b7&#45;a1ef&#45;6e13b4986cfa -->
<g id="node6" class="node">
<title>a37ecca6&#45;c303&#45;43b7&#45;a1ef&#45;6e13b4986cfa</title>
<polygon fill="#ff8080" stroke="black" points="1697.33,-698.56 1660.33,-698.56 1660.33,-668.56 1697.33,-668.56 1697.33,-698.56"/>
<text text-anchor="middle" x="1678.83" y="-678.56" font-family="Times,serif" font-size="20.00">→</text>
</g>
<!-- 9bbb33ee&#45;95df&#45;4317&#45;871b&#45;9ce3bbe5b08e&#45;&gt;a37ecca6&#45;c303&#45;43b7&#45;a1ef&#45;6e13b4986cfa -->
<g id="edge5" class="edge">
<title>9bbb33ee&#45;95df&#45;4317&#45;871b&#45;9ce3bbe5b08e&#45;&gt;a37ecca6&#45;c303&#45;43b7&#45;a1ef&#45;6e13b4986cfa</title>
<path fill="none" stroke="black" d="M1484.91,-743.1C1521.8,-731.96 1606.03,-706.54 1650.35,-693.16"/>
<polygon fill="black" stroke="black" points="1651.64,-696.42 1660.2,-690.18 1649.61,-689.72 1651.64,-696.42"/>
</g>
<!-- 8d9aa19e&#45;ceda&#45;4168&#45;9f02&#45;d2cbd030d94e -->
<g id="node3" class="node">
<title>8d9aa19e&#45;ceda&#45;4168&#45;9f02&#45;d2cbd030d94e</title>
<ellipse fill="#ffff80" stroke="black" cx="1053.83" cy="-611.35" rx="91.43" ry="21.43"/>
<text text-anchor="middle" x="1053.83" y="-606.35" font-family="Times,serif" font-size="20.00">On(a,place_c)</text>
</g>
<!-- e8451d58&#45;0e09&#45;4c9f&#45;bf1e&#45;1d3e0125c59c&#45;&gt;8d9aa19e&#45;ceda&#45;4168&#45;9f02&#45;d2cbd030d94e -->
<g id="edge2" class="edge">
<title>e8451d58&#45;0e09&#45;4c9f&#45;bf1e&#45;1d3e0125c59c&#45;&gt;8d9aa19e&#45;ceda&#45;4168&#45;9f02&#45;d2cbd030d94e</title>
<path fill="none" stroke="black" d="M1336.94,-678.17C1295.71,-668.58 1195.8,-645.35 1126.43,-629.22"/>
<polygon fill="black" stroke="black" points="1126.97,-625.75 1116.43,-626.9 1125.38,-632.57 1126.97,-625.75"/>
</g>
<!-- e1313f2f&#45;1a3a&#45;444e&#45;a84e&#45;3c9164ecc23a -->
<g id="node4" class="node">
<title>e1313f2f&#45;1a3a&#45;444e&#45;a84e&#45;3c9164ecc23a</title>
<ellipse fill="#ffff80" stroke="black" cx="1254.83" cy="-611.35" rx="91.85" ry="21.43"/>
<text text-anchor="middle" x="1254.83" y="-606.35" font-family="Times,serif" font-size="20.00">On(b,place_a)</text>
</g>
<!-- e8451d58&#45;0e09&#45;4c9f&#45;bf1e&#45;1d3e0125c59c&#45;&gt;e1313f2f&#45;1a3a&#45;444e&#45;a84e&#45;3c9164ecc23a -->
<g id="edge3" class="edge">
<title>e8451d58&#45;0e09&#45;4c9f&#45;bf1e&#45;1d3e0125c59c&#45;&gt;e1313f2f&#45;1a3a&#45;444e&#45;a84e&#45;3c9164ecc23a</title>
<path fill="none" stroke="black" d="M1337.31,-669.68C1324.43,-660.73 1306.84,-648.5 1291.21,-637.64"/>
<polygon fill="black" stroke="black" points="1292.98,-634.6 1282.77,-631.77 1288.99,-640.35 1292.98,-634.6"/>
</g>
<!-- 1d8b86c9&#45;2921&#45;4300&#45;a9a8&#45;8f318e807855 -->
<g id="node5" class="node">
<title>1d8b86c9&#45;2921&#45;4300&#45;a9a8&#45;8f318e807855</title>
<ellipse fill="#ffff80" stroke="black" cx="1456.83" cy="-611.35" rx="91.85" ry="21.43"/>
<text text-anchor="middle" x="1456.83" y="-606.35" font-family="Times,serif" font-size="20.00">On(c,place_b)</text>
</g>
<!-- e8451d58&#45;0e09&#45;4c9f&#45;bf1e&#45;1d3e0125c59c&#45;&gt;1d8b86c9&#45;2921&#45;4300&#45;a9a8&#45;8f318e807855 -->
<g id="edge4" class="edge">
<title>e8451d58&#45;0e09&#45;4c9f&#45;bf1e&#45;1d3e0125c59c&#45;&gt;1d8b86c9&#45;2921&#45;4300&#45;a9a8&#45;8f318e807855</title>
<path fill="none" stroke="black" d="M1374.36,-669.68C1387.23,-660.73 1404.82,-648.5 1420.45,-637.64"/>
<polygon fill="black" stroke="black" points="1422.68,-640.35 1428.89,-631.77 1418.68,-634.6 1422.68,-640.35"/>
</g>
<!-- 320477be&#45;c7db&#45;4eed&#45;8dfa&#45;338ad1ea4be3 -->
<g id="node7" class="node">
<title>320477be&#45;c7db&#45;4eed&#45;8dfa&#45;338ad1ea4be3</title>
<ellipse fill="#ffff80" stroke="black" cx="1678.83" cy="-611.35" rx="111.95" ry="21.43"/>
<text text-anchor="middle" x="1678.83" y="-606.35" font-family="Times,serif" font-size="20.00">IsEmpty(place_c)</text>
</g>
<!-- a37ecca6&#45;c303&#45;43b7&#45;a1ef&#45;6e13b4986cfa&#45;&gt;320477be&#45;c7db&#45;4eed&#45;8dfa&#45;338ad1ea4be3 -->
<g id="edge6" class="edge">
<title>a37ecca6&#45;c303&#45;43b7&#45;a1ef&#45;6e13b4986cfa&#45;&gt;320477be&#45;c7db&#45;4eed&#45;8dfa&#45;338ad1ea4be3</title>
<path fill="none" stroke="black" d="M1678.83,-668.35C1678.83,-660.98 1678.83,-651.67 1678.83,-642.77"/>
<polygon fill="black" stroke="black" points="1682.33,-642.65 1678.83,-632.65 1675.33,-642.65 1682.33,-642.65"/>
</g>
<!-- 9963c1d3&#45;a681&#45;4134&#45;8f2f&#45;d79e02d90b8b -->
<g id="node8" class="node">
<title>9963c1d3&#45;a681&#45;4134&#45;8f2f&#45;d79e02d90b8b</title>
<polygon fill="#b0ffff" stroke="black" points="1844.83,-626.35 1808.83,-626.35 1808.83,-596.35 1844.83,-596.35 1844.83,-626.35"/>
<text text-anchor="middle" x="1826.83" y="-606.35" font-family="Times,serif" font-size="20.00"> ? </text>
</g>
<!-- a37ecca6&#45;c303&#45;43b7&#45;a1ef&#45;6e13b4986cfa&#45;&gt;9963c1d3&#45;a681&#45;4134&#45;8f2f&#45;d79e02d90b8b -->
<g id="edge7" class="edge">
<title>a37ecca6&#45;c303&#45;43b7&#45;a1ef&#45;6e13b4986cfa&#45;&gt;9963c1d3&#45;a681&#45;4134&#45;8f2f&#45;d79e02d90b8b</title>
<path fill="none" stroke="black" d="M1697.54,-676.47C1721.91,-668.19 1765.46,-652.12 1799.83,-632.56 1800.13,-632.39 1800.42,-632.22 1800.72,-632.05"/>
<polygon fill="black" stroke="black" points="1802.79,-634.88 1809.25,-626.48 1798.96,-629.01 1802.79,-634.88"/>
</g>
<!-- 891d64cf&#45;f7e1&#45;41d7&#45;9dab&#45;1c140db344ed -->
<g id="node9" class="node">
<title>891d64cf&#45;f7e1&#45;41d7&#45;9dab&#45;1c140db344ed</title>
<polygon fill="#b0ffff" stroke="black" points="1583.83,-554.13 1547.83,-554.13 1547.83,-524.13 1583.83,-524.13 1583.83,-554.13"/>
<text text-anchor="middle" x="1565.83" y="-534.13" font-family="Times,serif" font-size="20.00"> ? </text>
</g>
<!-- 9963c1d3&#45;a681&#45;4134&#45;8f2f&#45;d79e02d90b8b&#45;&gt;891d64cf&#45;f7e1&#45;41d7&#45;9dab&#45;1c140db344ed -->
<g id="edge8" class="edge">
<title>9963c1d3&#45;a681&#45;4134&#45;8f2f&#45;d79e02d90b8b&#45;&gt;891d64cf&#45;f7e1&#45;41d7&#45;9dab&#45;1c140db344ed</title>
<path fill="none" stroke="black" d="M1810.4,-596.32C1807.06,-593.98 1803.46,-591.78 1799.83,-590.13 1730.13,-558.45 1639.51,-546.47 1594.21,-542.25"/>
<polygon fill="black" stroke="black" points="1594.24,-538.74 1583.97,-541.35 1593.63,-545.71 1594.24,-538.74"/>
</g>
<!-- eda3e749&#45;1278&#45;4c44&#45;853f&#45;56635268cfce -->
<g id="node42" class="node">
<title>eda3e749&#45;1278&#45;4c44&#45;853f&#45;56635268cfce</title>
<polygon fill="#ff8080" stroke="black" points="2208.33,-554.13 2171.33,-554.13 2171.33,-524.13 2208.33,-524.13 2208.33,-554.13"/>
<text text-anchor="middle" x="2189.83" y="-534.13" font-family="Times,serif" font-size="20.00">→</text>
</g>
<!-- 9963c1d3&#45;a681&#45;4134&#45;8f2f&#45;d79e02d90b8b&#45;&gt;eda3e749&#45;1278&#45;4c44&#45;853f&#45;56635268cfce -->
<g id="edge41" class="edge">
<title>9963c1d3&#45;a681&#45;4134&#45;8f2f&#45;d79e02d90b8b&#45;&gt;eda3e749&#45;1278&#45;4c44&#45;853f&#45;56635268cfce</title>
<path fill="none" stroke="black" d="M1844.83,-606.86C1903.48,-595.52 2089.39,-559.56 2161.17,-545.68"/>
<polygon fill="black" stroke="black" points="2162.14,-549.05 2171.29,-543.72 2160.81,-542.18 2162.14,-549.05"/>
</g>
<!-- d677078a&#45;1d6b&#45;43c7&#45;add7&#45;2051efe45cdc -->
<g id="node10" class="node">
<title>d677078a&#45;1d6b&#45;43c7&#45;add7&#45;2051efe45cdc</title>
<polygon fill="#ff8080" stroke="black" points="1064.33,-481.92 1027.33,-481.92 1027.33,-451.92 1064.33,-451.92 1064.33,-481.92"/>
<text text-anchor="middle" x="1045.83" y="-461.92" font-family="Times,serif" font-size="20.00">→</text>
</g>
<!-- 891d64cf&#45;f7e1&#45;41d7&#45;9dab&#45;1c140db344ed&#45;&gt;d677078a&#45;1d6b&#45;43c7&#45;add7&#45;2051efe45cdc -->
<g id="edge9" class="edge">
<title>891d64cf&#45;f7e1&#45;41d7&#45;9dab&#45;1c140db344ed&#45;&gt;d677078a&#45;1d6b&#45;43c7&#45;add7&#45;2051efe45cdc</title>
<path fill="none" stroke="black" d="M1547.63,-535.67C1470.35,-525.24 1169.03,-484.55 1074.42,-471.78"/>
<polygon fill="black" stroke="black" points="1074.81,-468.3 1064.43,-470.43 1073.87,-475.24 1074.81,-468.3"/>
</g>
<!-- eb182a0f&#45;970f&#45;43db&#45;9ad9&#45;9fd283b279da -->
<g id="node35" class="node">
<title>eb182a0f&#45;970f&#45;43db&#45;9ad9&#45;9fd283b279da</title>
<polygon fill="#ff8080" stroke="black" points="1584.33,-481.92 1547.33,-481.92 1547.33,-451.92 1584.33,-451.92 1584.33,-481.92"/>
<text text-anchor="middle" x="1565.83" y="-461.92" font-family="Times,serif" font-size="20.00">→</text>
</g>
<!-- 891d64cf&#45;f7e1&#45;41d7&#45;9dab&#45;1c140db344ed&#45;&gt;eb182a0f&#45;970f&#45;43db&#45;9ad9&#45;9fd283b279da -->
<g id="edge34" class="edge">
<title>891d64cf&#45;f7e1&#45;41d7&#45;9dab&#45;1c140db344ed&#45;&gt;eb182a0f&#45;970f&#45;43db&#45;9ad9&#45;9fd283b279da</title>
<path fill="none" stroke="black" d="M1565.83,-523.92C1565.83,-514.88 1565.83,-502.93 1565.83,-492.4"/>
<polygon fill="black" stroke="black" points="1569.33,-492.11 1565.83,-482.11 1562.33,-492.11 1569.33,-492.11"/>
</g>
<!-- 88a82157&#45;e345&#45;45bb&#45;859b&#45;a4be169b7563 -->
<g id="node11" class="node">
<title>88a82157&#45;e345&#45;45bb&#45;859b&#45;a4be169b7563</title>
<ellipse fill="#ffff80" stroke="black" cx="917.83" cy="-388.49" rx="91.85" ry="21.43"/>
<text text-anchor="middle" x="917.83" y="-383.49" font-family="Times,serif" font-size="20.00">On(b,place_a)</text>
</g>
<!-- d677078a&#45;1d6b&#45;43c7&#45;add7&#45;2051efe45cdc&#45;&gt;88a82157&#45;e345&#45;45bb&#45;859b&#45;a4be169b7563 -->
<g id="edge10" class="edge">
<title>d677078a&#45;1d6b&#45;43c7&#45;add7&#45;2051efe45cdc&#45;&gt;88a82157&#45;e345&#45;45bb&#45;859b&#45;a4be169b7563</title>
<path fill="none" stroke="black" d="M1027.22,-454.81C1009.21,-444.05 981.31,-427.39 958.19,-413.59"/>
<polygon fill="black" stroke="black" points="959.98,-410.58 949.6,-408.46 956.39,-416.59 959.98,-410.58"/>
</g>
<!-- b4787f22&#45;b3d3&#45;42d8&#45;9e57&#45;bbcf711a2fd1 -->
<g id="node12" class="node">
<title>b4787f22&#45;b3d3&#45;42d8&#45;9e57&#45;bbcf711a2fd1</title>
<polygon fill="#b0ffff" stroke="black" points="1063.83,-403.49 1027.83,-403.49 1027.83,-373.49 1063.83,-373.49 1063.83,-403.49"/>
<text text-anchor="middle" x="1045.83" y="-383.49" font-family="Times,serif" font-size="20.00"> ? </text>
</g>
<!-- d677078a&#45;1d6b&#45;43c7&#45;add7&#45;2051efe45cdc&#45;&gt;b4787f22&#45;b3d3&#45;42d8&#45;9e57&#45;bbcf711a2fd1 -->
<g id="edge11" class="edge">
<title>d677078a&#45;1d6b&#45;43c7&#45;add7&#45;2051efe45cdc&#45;&gt;b4787f22&#45;b3d3&#45;42d8&#45;9e57&#45;bbcf711a2fd1</title>
<path fill="none" stroke="black" d="M1045.83,-451.9C1045.83,-441.3 1045.83,-426.48 1045.83,-413.95"/>
<polygon fill="black" stroke="black" points="1049.33,-413.68 1045.83,-403.68 1042.33,-413.68 1049.33,-413.68"/>
</g>
<!-- 855d9e51&#45;c188&#45;4591&#45;884b&#45;2e6757d23508 -->
<g id="node13" class="node">
<title>855d9e51&#45;c188&#45;4591&#45;884b&#45;2e6757d23508</title>
<polygon fill="#b0ffff" stroke="black" points="796.83,-331.28 760.83,-331.28 760.83,-301.28 796.83,-301.28 796.83,-331.28"/>
<text text-anchor="middle" x="778.83" y="-311.28" font-family="Times,serif" font-size="20.00"> ? </text>
</g>
<!-- b4787f22&#45;b3d3&#45;42d8&#45;9e57&#45;bbcf711a2fd1&#45;&gt;855d9e51&#45;c188&#45;4591&#45;884b&#45;2e6757d23508 -->
<g id="edge12" class="edge">
<title>b4787f22&#45;b3d3&#45;42d8&#45;9e57&#45;bbcf711a2fd1&#45;&gt;855d9e51&#45;c188&#45;4591&#45;884b&#45;2e6757d23508</title>
<path fill="none" stroke="black" d="M1029.41,-373.45C1026.07,-371.11 1022.46,-368.92 1018.83,-367.28 947.01,-334.86 853.53,-323.18 807.3,-319.2"/>
<polygon fill="black" stroke="black" points="807.37,-315.69 797.12,-318.38 806.81,-322.67 807.37,-315.69"/>
</g>
<!-- 1b3ee365&#45;6468&#45;4baf&#45;a2f2&#45;9f570dae81a5 -->
<g id="node29" class="node">
<title>1b3ee365&#45;6468&#45;4baf&#45;a2f2&#45;9f570dae81a5</title>
<polygon fill="#ff8080" stroke="black" points="1216.33,-331.28 1179.33,-331.28 1179.33,-301.28 1216.33,-301.28 1216.33,-331.28"/>
<text text-anchor="middle" x="1197.83" y="-311.28" font-family="Times,serif" font-size="20.00">→</text>
</g>
<!-- b4787f22&#45;b3d3&#45;42d8&#45;9e57&#45;bbcf711a2fd1&#45;&gt;1b3ee365&#45;6468&#45;4baf&#45;a2f2&#45;9f570dae81a5 -->
<g id="edge28" class="edge">
<title>b4787f22&#45;b3d3&#45;42d8&#45;9e57&#45;bbcf711a2fd1&#45;&gt;1b3ee365&#45;6468&#45;4baf&#45;a2f2&#45;9f570dae81a5</title>
<path fill="none" stroke="black" d="M1063.39,-373.32C1066.45,-371.16 1069.67,-369.06 1072.83,-367.28 1104.32,-349.6 1143.33,-335.05 1169.31,-326.29"/>
<polygon fill="black" stroke="black" points="1170.52,-329.58 1178.92,-323.11 1168.33,-322.93 1170.52,-329.58"/>
</g>
<!-- c03b86ea&#45;58c0&#45;4fc1&#45;850c&#45;ca5df72e9b9d -->
<g id="node14" class="node">
<title>c03b86ea&#45;58c0&#45;4fc1&#45;850c&#45;ca5df72e9b9d</title>
<polygon fill="#ff8080" stroke="black" points="485.33,-259.07 448.33,-259.07 448.33,-229.07 485.33,-229.07 485.33,-259.07"/>
<text text-anchor="middle" x="466.83" y="-239.07" font-family="Times,serif" font-size="20.00">→</text>
</g>
<!-- 855d9e51&#45;c188&#45;4591&#45;884b&#45;2e6757d23508&#45;&gt;c03b86ea&#45;58c0&#45;4fc1&#45;850c&#45;ca5df72e9b9d -->
<g id="edge13" class="edge">
<title>855d9e51&#45;c188&#45;4591&#45;884b&#45;2e6757d23508&#45;&gt;c03b86ea&#45;58c0&#45;4fc1&#45;850c&#45;ca5df72e9b9d</title>
<path fill="none" stroke="black" d="M760.71,-311.2C708.7,-299.5 558.68,-265.74 495.46,-251.51"/>
<polygon fill="black" stroke="black" points="495.92,-248.03 485.4,-249.24 494.39,-254.85 495.92,-248.03"/>
</g>
<!-- 5bcd3006&#45;35a3&#45;4aa2&#45;a3d3&#45;ef7544e76c93 -->
<g id="node24" class="node">
<title>5bcd3006&#45;35a3&#45;4aa2&#45;a3d3&#45;ef7544e76c93</title>
<polygon fill="#ff8080" stroke="black" points="797.33,-259.07 760.33,-259.07 760.33,-229.07 797.33,-229.07 797.33,-259.07"/>
<text text-anchor="middle" x="778.83" y="-239.07" font-family="Times,serif" font-size="20.00">→</text>
</g>
<!-- 855d9e51&#45;c188&#45;4591&#45;884b&#45;2e6757d23508&#45;&gt;5bcd3006&#45;35a3&#45;4aa2&#45;a3d3&#45;ef7544e76c93 -->
<g id="edge23" class="edge">
<title>855d9e51&#45;c188&#45;4591&#45;884b&#45;2e6757d23508&#45;&gt;5bcd3006&#45;35a3&#45;4aa2&#45;a3d3&#45;ef7544e76c93</title>
<path fill="none" stroke="black" d="M778.83,-301.07C778.83,-292.03 778.83,-280.08 778.83,-269.54"/>
<polygon fill="black" stroke="black" points="782.33,-269.25 778.83,-259.25 775.33,-269.25 782.33,-269.25"/>
</g>
<!-- e779b608&#45;9712&#45;4911&#45;a2a9&#45;77a7158431c0 -->
<g id="node15" class="node">
<title>e779b608&#45;9712&#45;4911&#45;a2a9&#45;77a7158431c0</title>
<ellipse fill="#ffff80" stroke="black" cx="338.83" cy="-165.64" rx="91.85" ry="21.43"/>
<text text-anchor="middle" x="338.83" y="-160.64" font-family="Times,serif" font-size="20.00">On(c,place_b)</text>
</g>
<!-- c03b86ea&#45;58c0&#45;4fc1&#45;850c&#45;ca5df72e9b9d&#45;&gt;e779b608&#45;9712&#45;4911&#45;a2a9&#45;77a7158431c0 -->
<g id="edge14" class="edge">
<title>c03b86ea&#45;58c0&#45;4fc1&#45;850c&#45;ca5df72e9b9d&#45;&gt;e779b608&#45;9712&#45;4911&#45;a2a9&#45;77a7158431c0</title>
<path fill="none" stroke="black" d="M448.22,-231.95C430.21,-221.2 402.31,-204.54 379.19,-190.74"/>
<polygon fill="black" stroke="black" points="380.98,-187.73 370.6,-185.61 377.39,-193.74 380.98,-187.73"/>
</g>
<!-- 94f185cf&#45;cb8a&#45;40c5&#45;9c5e&#45;3c923e4924cb -->
<g id="node16" class="node">
<title>94f185cf&#45;cb8a&#45;40c5&#45;9c5e&#45;3c923e4924cb</title>
<polygon fill="#b0ffff" stroke="black" points="484.83,-180.64 448.83,-180.64 448.83,-150.64 484.83,-150.64 484.83,-180.64"/>
<text text-anchor="middle" x="466.83" y="-160.64" font-family="Times,serif" font-size="20.00"> ? </text>
</g>
<!-- c03b86ea&#45;58c0&#45;4fc1&#45;850c&#45;ca5df72e9b9d&#45;&gt;94f185cf&#45;cb8a&#45;40c5&#45;9c5e&#45;3c923e4924cb -->
<g id="edge15" class="edge">
<title>c03b86ea&#45;58c0&#45;4fc1&#45;850c&#45;ca5df72e9b9d&#45;&gt;94f185cf&#45;cb8a&#45;40c5&#45;9c5e&#45;3c923e4924cb</title>
<path fill="none" stroke="black" d="M466.83,-229.05C466.83,-218.45 466.83,-203.63 466.83,-191.09"/>
<polygon fill="black" stroke="black" points="470.33,-190.83 466.83,-180.83 463.33,-190.83 470.33,-190.83"/>
</g>
<!-- d41e891a&#45;fb99&#45;481f&#45;ad75&#45;5a89dcac074c -->
<g id="node17" class="node">
<title>d41e891a&#45;fb99&#45;481f&#45;ad75&#45;5a89dcac074c</title>
<polygon fill="#ff8080" stroke="black" points="281.33,-108.43 244.33,-108.43 244.33,-78.43 281.33,-78.43 281.33,-108.43"/>
<text text-anchor="middle" x="262.83" y="-88.43" font-family="Times,serif" font-size="20.00">→</text>
</g>
<!-- 94f185cf&#45;cb8a&#45;40c5&#45;9c5e&#45;3c923e4924cb&#45;&gt;d41e891a&#45;fb99&#45;481f&#45;ad75&#45;5a89dcac074c -->
<g id="edge16" class="edge">
<title>94f185cf&#45;cb8a&#45;40c5&#45;9c5e&#45;3c923e4924cb&#45;&gt;d41e891a&#45;fb99&#45;481f&#45;ad75&#45;5a89dcac074c</title>
<path fill="none" stroke="black" d="M450.02,-150.59C446.77,-148.31 443.3,-146.14 439.83,-144.43 390.67,-120.13 327.81,-105.93 291.76,-99.22"/>
<polygon fill="black" stroke="black" points="291.94,-95.69 281.48,-97.37 290.7,-102.58 291.94,-95.69"/>
</g>
<!-- 2459549c&#45;f580&#45;4247&#45;a408&#45;519e3221cab1 -->
<g id="node20" class="node">
<title>2459549c&#45;f580&#45;4247&#45;a408&#45;519e3221cab1</title>
<polygon fill="#ff8080" stroke="black" points="593.33,-108.43 556.33,-108.43 556.33,-78.43 593.33,-78.43 593.33,-108.43"/>
<text text-anchor="middle" x="574.83" y="-88.43" font-family="Times,serif" font-size="20.00">→</text>
</g>
<!-- 94f185cf&#45;cb8a&#45;40c5&#45;9c5e&#45;3c923e4924cb&#45;&gt;2459549c&#45;f580&#45;4247&#45;a408&#45;519e3221cab1 -->
<g id="edge19" class="edge">
<title>94f185cf&#45;cb8a&#45;40c5&#45;9c5e&#45;3c923e4924cb&#45;&gt;2459549c&#45;f580&#45;4247&#45;a408&#45;519e3221cab1</title>
<path fill="none" stroke="black" d="M484.97,-150.71C487.9,-148.56 490.93,-146.4 493.83,-144.43 511.3,-132.53 531.53,-120.04 547.41,-110.52"/>
<polygon fill="black" stroke="black" points="549.4,-113.41 556.2,-105.28 545.81,-107.4 549.4,-113.41"/>
</g>
<!-- d70fccd5&#45;a8cf&#45;4a8f&#45;aba1&#45;fe81e552c80e -->
<g id="node18" class="node">
<title>d70fccd5&#45;a8cf&#45;4a8f&#45;aba1&#45;fe81e552c80e</title>
<ellipse fill="#ffff80" stroke="black" cx="72.83" cy="-21.21" rx="72.66" ry="21.43"/>
<text text-anchor="middle" x="72.83" y="-16.21" font-family="Times,serif" font-size="20.00">Holding(a)</text>
</g>
<!-- d41e891a&#45;fb99&#45;481f&#45;ad75&#45;5a89dcac074c&#45;&gt;d70fccd5&#45;a8cf&#45;4a8f&#45;aba1&#45;fe81e552c80e -->
<g id="edge17" class="edge">
<title>d41e891a&#45;fb99&#45;481f&#45;ad75&#45;5a89dcac074c&#45;&gt;d70fccd5&#45;a8cf&#45;4a8f&#45;aba1&#45;fe81e552c80e</title>
<path fill="none" stroke="black" d="M244.27,-85.57C217.09,-75.52 165.43,-56.43 125.89,-41.82"/>
<polygon fill="black" stroke="black" points="126.97,-38.49 116.38,-38.31 124.54,-45.05 126.97,-38.49"/>
</g>
<!-- b68af0a9&#45;0124&#45;4de1&#45;8b3c&#45;bbc88a0ba740 -->
<g id="node19" class="node">
<title>b68af0a9&#45;0124&#45;4de1&#45;8b3c&#45;bbc88a0ba740</title>
<polygon fill="lightgreen" stroke="black" points="362.33,-39.21 163.33,-39.21 163.33,-3.21 362.33,-3.21 362.33,-39.21"/>
<text text-anchor="middle" x="262.83" y="-16.21" font-family="Times,serif" font-size="20.00">PutOnPlace(a,place_c)</text>
</g>
<!-- d41e891a&#45;fb99&#45;481f&#45;ad75&#45;5a89dcac074c&#45;&gt;b68af0a9&#45;0124&#45;4de1&#45;8b3c&#45;bbc88a0ba740 -->
<g id="edge18" class="edge">
<title>d41e891a&#45;fb99&#45;481f&#45;ad75&#45;5a89dcac074c&#45;&gt;b68af0a9&#45;0124&#45;4de1&#45;8b3c&#45;bbc88a0ba740</title>
<path fill="none" stroke="black" d="M262.83,-78.22C262.83,-69.98 262.83,-59.32 262.83,-49.52"/>
<polygon fill="black" stroke="black" points="266.33,-49.38 262.83,-39.38 259.33,-49.38 266.33,-49.38"/>
</g>
<!-- d71bc724&#45;3d81&#45;4730&#45;962f&#45;22fb497291ca -->
<g id="node21" class="node">
<title>d71bc724&#45;3d81&#45;4730&#45;962f&#45;22fb497291ca</title>
<ellipse fill="#ffff80" stroke="black" cx="478.83" cy="-21.21" rx="98.99" ry="21.43"/>
<text text-anchor="middle" x="478.83" y="-16.21" font-family="Times,serif" font-size="20.00">IsHandEmpty()</text>
</g>
<!-- 2459549c&#45;f580&#45;4247&#45;a408&#45;519e3221cab1&#45;&gt;d71bc724&#45;3d81&#45;4730&#45;962f&#45;22fb497291ca -->
<g id="edge20" class="edge">
<title>2459549c&#45;f580&#45;4247&#45;a408&#45;519e3221cab1&#45;&gt;d71bc724&#45;3d81&#45;4730&#45;962f&#45;22fb497291ca</title>
<path fill="none" stroke="black" d="M556.32,-78.89C544.3,-70.09 528.24,-58.35 513.87,-47.84"/>
<polygon fill="black" stroke="black" points="515.77,-44.9 505.64,-41.82 511.64,-50.55 515.77,-44.9"/>
</g>
<!-- 7daeabfa&#45;a741&#45;45f1&#45;94ba&#45;84838f644fe6 -->
<g id="node22" class="node">
<title>7daeabfa&#45;a741&#45;45f1&#45;94ba&#45;84838f644fe6</title>
<ellipse fill="#ffff80" stroke="black" cx="671.83" cy="-21.21" rx="75.82" ry="21.43"/>
<text text-anchor="middle" x="671.83" y="-16.21" font-family="Times,serif" font-size="20.00">On(a,table)</text>
</g>
<!-- 2459549c&#45;f580&#45;4247&#45;a408&#45;519e3221cab1&#45;&gt;7daeabfa&#45;a741&#45;45f1&#45;94ba&#45;84838f644fe6 -->
<g id="edge21" class="edge">
<title>2459549c&#45;f580&#45;4247&#45;a408&#45;519e3221cab1&#45;&gt;7daeabfa&#45;a741&#45;45f1&#45;94ba&#45;84838f644fe6</title>
<path fill="none" stroke="black" d="M593.53,-78.89C605.87,-69.96 622.4,-58 637.09,-47.36"/>
<polygon fill="black" stroke="black" points="639.44,-49.98 645.49,-41.28 635.33,-44.31 639.44,-49.98"/>
</g>
<!-- 742f7735&#45;0648&#45;42e9&#45;9b64&#45;48dd422f6eba -->
<g id="node23" class="node">
<title>742f7735&#45;0648&#45;42e9&#45;9b64&#45;48dd422f6eba</title>
<polygon fill="lightgreen" stroke="black" points="863.83,-39.21 765.83,-39.21 765.83,-3.21 863.83,-3.21 863.83,-39.21"/>
<text text-anchor="middle" x="814.83" y="-16.21" font-family="Times,serif" font-size="20.00">PickUp(a)</text>
</g>
<!-- 2459549c&#45;f580&#45;4247&#45;a408&#45;519e3221cab1&#45;&gt;742f7735&#45;0648&#45;42e9&#45;9b64&#45;48dd422f6eba -->
<g id="edge22" class="edge">
<title>2459549c&#45;f580&#45;4247&#45;a408&#45;519e3221cab1&#45;&gt;742f7735&#45;0648&#45;42e9&#45;9b64&#45;48dd422f6eba</title>
<path fill="none" stroke="black" d="M593.55,-87.73C626.68,-79.31 697.7,-60.83 756.83,-42.43 756.93,-42.39 757.04,-42.36 757.14,-42.33"/>
<polygon fill="black" stroke="black" points="758.36,-45.62 766.81,-39.23 756.22,-38.95 758.36,-45.62"/>
</g>
<!-- 3ff6ef8a&#45;fcdd&#45;48b5&#45;9098&#45;963ff6db6981 -->
<g id="node25" class="node">
<title>3ff6ef8a&#45;fcdd&#45;48b5&#45;9098&#45;963ff6db6981</title>
<ellipse fill="#ffff80" stroke="black" cx="575.83" cy="-165.64" rx="72.66" ry="21.43"/>
<text text-anchor="middle" x="575.83" y="-160.64" font-family="Times,serif" font-size="20.00">Holding(c)</text>
</g>
<!-- 5bcd3006&#45;35a3&#45;4aa2&#45;a3d3&#45;ef7544e76c93&#45;&gt;3ff6ef8a&#45;fcdd&#45;48b5&#45;9098&#45;963ff6db6981 -->
<g id="edge24" class="edge">
<title>5bcd3006&#45;35a3&#45;4aa2&#45;a3d3&#45;ef7544e76c93&#45;&gt;3ff6ef8a&#45;fcdd&#45;48b5&#45;9098&#45;963ff6db6981</title>
<path fill="none" stroke="black" d="M760.1,-236.01C730.44,-224.85 671.62,-202.7 628.38,-186.42"/>
<polygon fill="black" stroke="black" points="629.44,-183.08 618.85,-182.84 626.98,-189.64 629.44,-183.08"/>
</g>
<!-- b4dbd5fd&#45;6c99&#45;4502&#45;8cb2&#45;f3e66309dd9d -->
<g id="node26" class="node">
<title>b4dbd5fd&#45;6c99&#45;4502&#45;8cb2&#45;f3e66309dd9d</title>
<ellipse fill="#ffff80" stroke="black" cx="778.83" cy="-165.64" rx="111.95" ry="21.43"/>
<text text-anchor="middle" x="778.83" y="-160.64" font-family="Times,serif" font-size="20.00">IsEmpty(place_b)</text>
</g>
<!-- 5bcd3006&#45;35a3&#45;4aa2&#45;a3d3&#45;ef7544e76c93&#45;&gt;b4dbd5fd&#45;6c99&#45;4502&#45;8cb2&#45;f3e66309dd9d -->
<g id="edge25" class="edge">
<title>5bcd3006&#45;35a3&#45;4aa2&#45;a3d3&#45;ef7544e76c93&#45;&gt;b4dbd5fd&#45;6c99&#45;4502&#45;8cb2&#45;f3e66309dd9d</title>
<path fill="none" stroke="black" d="M778.83,-229.05C778.83,-220.1 778.83,-208.15 778.83,-197.09"/>
<polygon fill="black" stroke="black" points="782.33,-196.9 778.83,-186.9 775.33,-196.9 782.33,-196.9"/>
</g>
<!-- ab2d58d9&#45;c134&#45;41b6&#45;b30b&#45;922d5b50e1a8 -->
<g id="node27" class="node">
<title>ab2d58d9&#45;c134&#45;41b6&#45;b30b&#45;922d5b50e1a8</title>
<ellipse fill="#ffff80" stroke="black" cx="983.83" cy="-165.64" rx="75.82" ry="21.43"/>
<text text-anchor="middle" x="983.83" y="-160.64" font-family="Times,serif" font-size="20.00">On(a,table)</text>
</g>
<!-- 5bcd3006&#45;35a3&#45;4aa2&#45;a3d3&#45;ef7544e76c93&#45;&gt;ab2d58d9&#45;c134&#45;41b6&#45;b30b&#45;922d5b50e1a8 -->
<g id="edge26" class="edge">
<title>5bcd3006&#45;35a3&#45;4aa2&#45;a3d3&#45;ef7544e76c93&#45;&gt;ab2d58d9&#45;c134&#45;41b6&#45;b30b&#45;922d5b50e1a8</title>
<path fill="none" stroke="black" d="M795.99,-228.9C799.14,-226.68 802.5,-224.56 805.83,-222.85 840.6,-205 882.11,-191.5 916.3,-182.2"/>
<polygon fill="black" stroke="black" points="917.43,-185.52 926.19,-179.57 915.63,-178.76 917.43,-185.52"/>
</g>
<!-- 3620e468&#45;8d12&#45;4f83&#45;a45c&#45;5c95bd863f1c -->
<g id="node28" class="node">
<title>3620e468&#45;8d12&#45;4f83&#45;a45c&#45;5c95bd863f1c</title>
<polygon fill="lightgreen" stroke="black" points="1277.83,-183.64 1077.83,-183.64 1077.83,-147.64 1277.83,-147.64 1277.83,-183.64"/>
<text text-anchor="middle" x="1177.83" y="-160.64" font-family="Times,serif" font-size="20.00">PutOnPlace(c,place_b)</text>
</g>
<!-- 5bcd3006&#45;35a3&#45;4aa2&#45;a3d3&#45;ef7544e76c93&#45;&gt;3620e468&#45;8d12&#45;4f83&#45;a45c&#45;5c95bd863f1c -->
<g id="edge27" class="edge">
<title>5bcd3006&#45;35a3&#45;4aa2&#45;a3d3&#45;ef7544e76c93&#45;&gt;3620e468&#45;8d12&#45;4f83&#45;a45c&#45;5c95bd863f1c</title>
<path fill="none" stroke="black" d="M794.87,-229.02C798.3,-226.62 802.04,-224.41 805.83,-222.85 914.98,-178.07 952.35,-205.61 1068.83,-186.85 1071.73,-186.39 1074.66,-185.9 1077.63,-185.41"/>
<polygon fill="black" stroke="black" points="1078.51,-188.81 1087.78,-183.68 1077.33,-181.91 1078.51,-188.81"/>
</g>
<!-- 7c6b795e&#45;a30d&#45;407d&#45;8f2f&#45;dde8ef087b77 -->
<g id="node30" class="node">
<title>7c6b795e&#45;a30d&#45;407d&#45;8f2f&#45;dde8ef087b77</title>
<ellipse fill="#ffff80" stroke="black" cx="890.83" cy="-244.07" rx="75.82" ry="21.43"/>
<text text-anchor="middle" x="890.83" y="-239.07" font-family="Times,serif" font-size="20.00">On(c,table)</text>
</g>
<!-- 1b3ee365&#45;6468&#45;4baf&#45;a2f2&#45;9f570dae81a5&#45;&gt;7c6b795e&#45;a30d&#45;407d&#45;8f2f&#45;dde8ef087b77 -->
<g id="edge29" class="edge">
<title>1b3ee365&#45;6468&#45;4baf&#45;a2f2&#45;9f570dae81a5&#45;&gt;7c6b795e&#45;a30d&#45;407d&#45;8f2f&#45;dde8ef087b77</title>
<path fill="none" stroke="black" d="M1179.1,-311.14C1140.87,-302.67 1051.08,-282.7 975.83,-265.28 969.63,-263.84 963.17,-262.33 956.71,-260.81"/>
<polygon fill="black" stroke="black" points="957.13,-257.32 946.59,-258.43 955.52,-264.13 957.13,-257.32"/>
</g>
<!-- 9a1fe15e&#45;9c34&#45;4989&#45;91cf&#45;6e39dd5a3991 -->
<g id="node31" class="node">
<title>9a1fe15e&#45;9c34&#45;4989&#45;91cf&#45;6e39dd5a3991</title>
<ellipse fill="#ffff80" stroke="black" cx="1083.83" cy="-244.07" rx="98.99" ry="21.43"/>
<text text-anchor="middle" x="1083.83" y="-239.07" font-family="Times,serif" font-size="20.00">IsHandEmpty()</text>
</g>
<!-- 1b3ee365&#45;6468&#45;4baf&#45;a2f2&#45;9f570dae81a5&#45;&gt;9a1fe15e&#45;9c34&#45;4989&#45;91cf&#45;6e39dd5a3991 -->
<g id="edge30" class="edge">
<title>1b3ee365&#45;6468&#45;4baf&#45;a2f2&#45;9f570dae81a5&#45;&gt;9a1fe15e&#45;9c34&#45;4989&#45;91cf&#45;6e39dd5a3991</title>
<path fill="none" stroke="black" d="M1179.26,-303.84C1164.34,-294.65 1142.84,-281.41 1124.02,-269.82"/>
<polygon fill="black" stroke="black" points="1125.67,-266.72 1115.32,-264.46 1122,-272.68 1125.67,-266.72"/>
</g>
<!-- 30053212&#45;1556&#45;4358&#45;b9bc&#45;fa42d1002d41 -->
<g id="node32" class="node">
<title>30053212&#45;1556&#45;4358&#45;b9bc&#45;fa42d1002d41</title>
<ellipse fill="#ffff80" stroke="black" cx="1312.83" cy="-244.07" rx="111.95" ry="21.43"/>
<text text-anchor="middle" x="1312.83" y="-239.07" font-family="Times,serif" font-size="20.00">IsEmpty(place_b)</text>
</g>
<!-- 1b3ee365&#45;6468&#45;4baf&#45;a2f2&#45;9f570dae81a5&#45;&gt;30053212&#45;1556&#45;4358&#45;b9bc&#45;fa42d1002d41 -->
<g id="edge31" class="edge">
<title>1b3ee365&#45;6468&#45;4baf&#45;a2f2&#45;9f570dae81a5&#45;&gt;30053212&#45;1556&#45;4358&#45;b9bc&#45;fa42d1002d41</title>
<path fill="none" stroke="black" d="M1216.56,-303.84C1231.62,-294.65 1253.31,-281.41 1272.29,-269.82"/>
<polygon fill="black" stroke="black" points="1274.36,-272.66 1281.07,-264.46 1270.71,-266.68 1274.36,-272.66"/>
</g>
<!-- 53f5a555&#45;a64d&#45;4e45&#45;82dd&#45;6e75542fd7ae -->
<g id="node33" class="node">
<title>53f5a555&#45;a64d&#45;4e45&#45;82dd&#45;6e75542fd7ae</title>
<ellipse fill="#ffff80" stroke="black" cx="1517.83" cy="-244.07" rx="75.82" ry="21.43"/>
<text text-anchor="middle" x="1517.83" y="-239.07" font-family="Times,serif" font-size="20.00">On(a,table)</text>
</g>
<!-- 1b3ee365&#45;6468&#45;4baf&#45;a2f2&#45;9f570dae81a5&#45;&gt;53f5a555&#45;a64d&#45;4e45&#45;82dd&#45;6e75542fd7ae -->
<g id="edge32" class="edge">
<title>1b3ee365&#45;6468&#45;4baf&#45;a2f2&#45;9f570dae81a5&#45;&gt;53f5a555&#45;a64d&#45;4e45&#45;82dd&#45;6e75542fd7ae</title>
<path fill="none" stroke="black" d="M1216.53,-311.5C1256.5,-303.38 1353.15,-283.53 1433.83,-265.28 1439.88,-263.91 1446.17,-262.46 1452.45,-260.98"/>
<polygon fill="black" stroke="black" points="1453.38,-264.36 1462.31,-258.65 1451.77,-257.55 1453.38,-264.36"/>
</g>
<!-- e5d48028&#45;d16c&#45;4f29&#45;abc5&#45;1693b5433f9b -->
<g id="node34" class="node">
<title>e5d48028&#45;d16c&#45;4f29&#45;abc5&#45;1693b5433f9b</title>
<polygon fill="lightgreen" stroke="black" points="1709.83,-262.07 1611.83,-262.07 1611.83,-226.07 1709.83,-226.07 1709.83,-262.07"/>
<text text-anchor="middle" x="1660.83" y="-239.07" font-family="Times,serif" font-size="20.00">PickUp(c)</text>
</g>
<!-- 1b3ee365&#45;6468&#45;4baf&#45;a2f2&#45;9f570dae81a5&#45;&gt;e5d48028&#45;d16c&#45;4f29&#45;abc5&#45;1693b5433f9b -->
<g id="edge33" class="edge">
<title>1b3ee365&#45;6468&#45;4baf&#45;a2f2&#45;9f570dae81a5&#45;&gt;e5d48028&#45;d16c&#45;4f29&#45;abc5&#45;1693b5433f9b</title>
<path fill="none" stroke="black" d="M1216.65,-314.38C1274.81,-311.29 1456.56,-299.39 1602.83,-265.28 1603.57,-265.11 1604.32,-264.93 1605.06,-264.74"/>
<polygon fill="black" stroke="black" points="1606.14,-268.08 1614.87,-262.07 1604.3,-261.32 1606.14,-268.08"/>
</g>
<!-- bfcdbf05&#45;4cae&#45;4185&#45;9dff&#45;ca7a5687a3c4 -->
<g id="node36" class="node">
<title>bfcdbf05&#45;4cae&#45;4185&#45;9dff&#45;ca7a5687a3c4</title>
<ellipse fill="#ffff80" stroke="black" cx="1157.83" cy="-388.49" rx="75.82" ry="21.43"/>
<text text-anchor="middle" x="1157.83" y="-383.49" font-family="Times,serif" font-size="20.00">On(a,table)</text>
</g>
<!-- eb182a0f&#45;970f&#45;43db&#45;9ad9&#45;9fd283b279da&#45;&gt;bfcdbf05&#45;4cae&#45;4185&#45;9dff&#45;ca7a5687a3c4 -->
<g id="edge35" class="edge">
<title>eb182a0f&#45;970f&#45;43db&#45;9ad9&#45;9fd283b279da&#45;&gt;bfcdbf05&#45;4cae&#45;4185&#45;9dff&#45;ca7a5687a3c4</title>
<path fill="none" stroke="black" d="M1547.12,-463.1C1497.29,-455.52 1357.28,-433.59 1241.83,-409.71 1235.66,-408.43 1229.26,-407.03 1222.86,-405.58"/>
<polygon fill="black" stroke="black" points="1223.37,-402.1 1212.84,-403.27 1221.8,-408.92 1223.37,-402.1"/>
</g>
<!-- 6c54e4b7&#45;40c3&#45;422f&#45;87f5&#45;db160ca48b57 -->
<g id="node37" class="node">
<title>6c54e4b7&#45;40c3&#45;422f&#45;87f5&#45;db160ca48b57</title>
<ellipse fill="#ffff80" stroke="black" cx="1362.83" cy="-388.49" rx="111.95" ry="21.43"/>
<text text-anchor="middle" x="1362.83" y="-383.49" font-family="Times,serif" font-size="20.00">IsEmpty(place_a)</text>
</g>
<!-- eb182a0f&#45;970f&#45;43db&#45;9ad9&#45;9fd283b279da&#45;&gt;6c54e4b7&#45;40c3&#45;422f&#45;87f5&#45;db160ca48b57 -->
<g id="edge36" class="edge">
<title>eb182a0f&#45;970f&#45;43db&#45;9ad9&#45;9fd283b279da&#45;&gt;6c54e4b7&#45;40c3&#45;422f&#45;87f5&#45;db160ca48b57</title>
<path fill="none" stroke="black" d="M1547.1,-458.87C1518.63,-448.15 1463.27,-427.31 1420.64,-411.25"/>
<polygon fill="black" stroke="black" points="1421.79,-407.95 1411.2,-407.7 1419.32,-414.5 1421.79,-407.95"/>
</g>
<!-- 9997fcca&#45;2ea4&#45;4d46&#45;9f90&#45;2672586d9afa -->
<g id="node38" class="node">
<title>9997fcca&#45;2ea4&#45;4d46&#45;9f90&#45;2672586d9afa</title>
<ellipse fill="#ffff80" stroke="black" cx="1565.83" cy="-388.49" rx="73.58" ry="21.43"/>
<text text-anchor="middle" x="1565.83" y="-383.49" font-family="Times,serif" font-size="20.00">Holding(b)</text>
</g>
<!-- eb182a0f&#45;970f&#45;43db&#45;9ad9&#45;9fd283b279da&#45;&gt;9997fcca&#45;2ea4&#45;4d46&#45;9f90&#45;2672586d9afa -->
<g id="edge37" class="edge">
<title>eb182a0f&#45;970f&#45;43db&#45;9ad9&#45;9fd283b279da&#45;&gt;9997fcca&#45;2ea4&#45;4d46&#45;9f90&#45;2672586d9afa</title>
<path fill="none" stroke="black" d="M1565.83,-451.9C1565.83,-442.95 1565.83,-431 1565.83,-419.95"/>
<polygon fill="black" stroke="black" points="1569.33,-419.76 1565.83,-409.76 1562.33,-419.76 1569.33,-419.76"/>
</g>
<!-- 838fcb79&#45;77dc&#45;4f84&#45;9a70&#45;5c6e2dfcb09a -->
<g id="node39" class="node">
<title>838fcb79&#45;77dc&#45;4f84&#45;9a70&#45;5c6e2dfcb09a</title>
<ellipse fill="#ffff80" stroke="black" cx="1768.83" cy="-388.49" rx="111.95" ry="21.43"/>
<text text-anchor="middle" x="1768.83" y="-383.49" font-family="Times,serif" font-size="20.00">IsEmpty(place_b)</text>
</g>
<!-- eb182a0f&#45;970f&#45;43db&#45;9ad9&#45;9fd283b279da&#45;&gt;838fcb79&#45;77dc&#45;4f84&#45;9a70&#45;5c6e2dfcb09a -->
<g id="edge38" class="edge">
<title>eb182a0f&#45;970f&#45;43db&#45;9ad9&#45;9fd283b279da&#45;&gt;838fcb79&#45;77dc&#45;4f84&#45;9a70&#45;5c6e2dfcb09a</title>
<path fill="none" stroke="black" d="M1582.99,-451.76C1586.15,-449.54 1589.5,-447.42 1592.83,-445.71 1623.71,-429.79 1659.96,-417.28 1691.51,-408.14"/>
<polygon fill="black" stroke="black" points="1692.47,-411.51 1701.14,-405.42 1690.56,-404.77 1692.47,-411.51"/>
</g>
<!-- 85707f11&#45;483f&#45;48ce&#45;bfcc&#45;63606ddb49ec -->
<g id="node40" class="node">
<title>85707f11&#45;483f&#45;48ce&#45;bfcc&#45;63606ddb49ec</title>
<ellipse fill="#ffff80" stroke="black" cx="1973.83" cy="-388.49" rx="75.82" ry="21.43"/>
<text text-anchor="middle" x="1973.83" y="-383.49" font-family="Times,serif" font-size="20.00">On(c,table)</text>
</g>
<!-- eb182a0f&#45;970f&#45;43db&#45;9ad9&#45;9fd283b279da&#45;&gt;85707f11&#45;483f&#45;48ce&#45;bfcc&#45;63606ddb49ec -->
<g id="edge39" class="edge">
<title>eb182a0f&#45;970f&#45;43db&#45;9ad9&#45;9fd283b279da&#45;&gt;85707f11&#45;483f&#45;48ce&#45;bfcc&#45;63606ddb49ec</title>
<path fill="none" stroke="black" d="M1581.86,-451.83C1585.29,-449.44 1589.03,-447.23 1592.83,-445.71 1716.23,-396.19 1758.98,-433.3 1889.83,-409.71 1896.38,-408.53 1903.18,-407.15 1909.94,-405.68"/>
<polygon fill="black" stroke="black" points="1910.81,-409.07 1919.8,-403.46 1909.28,-402.24 1910.81,-409.07"/>
</g>
<!-- c4dfcdd0&#45;e034&#45;434f&#45;8170&#45;dd475ade5fe7 -->
<g id="node41" class="node">
<title>c4dfcdd0&#45;e034&#45;434f&#45;8170&#45;dd475ade5fe7</title>
<polygon fill="lightgreen" stroke="black" points="2267.83,-406.49 2067.83,-406.49 2067.83,-370.49 2267.83,-370.49 2267.83,-406.49"/>
<text text-anchor="middle" x="2167.83" y="-383.49" font-family="Times,serif" font-size="20.00">PutOnPlace(b,place_a)</text>
</g>
<!-- eb182a0f&#45;970f&#45;43db&#45;9ad9&#45;9fd283b279da&#45;&gt;c4dfcdd0&#45;e034&#45;434f&#45;8170&#45;dd475ade5fe7 -->
<g id="edge40" class="edge">
<title>eb182a0f&#45;970f&#45;43db&#45;9ad9&#45;9fd283b279da&#45;&gt;c4dfcdd0&#45;e034&#45;434f&#45;8170&#45;dd475ade5fe7</title>
<path fill="none" stroke="black" d="M1581.51,-451.9C1585.02,-449.44 1588.89,-447.19 1592.83,-445.71 1690.04,-409.13 1955.85,-423.19 2058.83,-409.71 2062.69,-409.2 2066.63,-408.65 2070.59,-408.06"/>
<polygon fill="black" stroke="black" points="2071.16,-411.51 2080.51,-406.53 2070.09,-404.6 2071.16,-411.51"/>
</g>
<!-- 36a357cf&#45;4d91&#45;490f&#45;9fe5&#45;0f26e2a0bbed -->
<g id="node43" class="node">
<title>36a357cf&#45;4d91&#45;490f&#45;9fe5&#45;0f26e2a0bbed</title>
<ellipse fill="#ffff80" stroke="black" cx="1677.83" cy="-466.92" rx="75.82" ry="21.43"/>
<text text-anchor="middle" x="1677.83" y="-461.92" font-family="Times,serif" font-size="20.00">On(a,table)</text>
</g>
<!-- eda3e749&#45;1278&#45;4c44&#45;853f&#45;56635268cfce&#45;&gt;36a357cf&#45;4d91&#45;490f&#45;9fe5&#45;0f26e2a0bbed -->
<g id="edge42" class="edge">
<title>eda3e749&#45;1278&#45;4c44&#45;853f&#45;56635268cfce&#45;&gt;36a357cf&#45;4d91&#45;490f&#45;9fe5&#45;0f26e2a0bbed</title>
<path fill="none" stroke="black" d="M2170.94,-536.74C2110.83,-532.13 1918.71,-516.07 1761.83,-488.13 1755.28,-486.97 1748.48,-485.6 1741.72,-484.13"/>
<polygon fill="black" stroke="black" points="1742.38,-480.69 1731.85,-481.93 1740.85,-487.52 1742.38,-480.69"/>
</g>
<!-- e86a73b7&#45;9a9c&#45;4fff&#45;bed8&#45;d8e7aa2b3023 -->
<g id="node44" class="node">
<title>e86a73b7&#45;9a9c&#45;4fff&#45;bed8&#45;d8e7aa2b3023</title>
<ellipse fill="#ffff80" stroke="black" cx="1882.83" cy="-466.92" rx="111.95" ry="21.43"/>
<text text-anchor="middle" x="1882.83" y="-461.92" font-family="Times,serif" font-size="20.00">IsEmpty(place_a)</text>
</g>
<!-- eda3e749&#45;1278&#45;4c44&#45;853f&#45;56635268cfce&#45;&gt;e86a73b7&#45;9a9c&#45;4fff&#45;bed8&#45;d8e7aa2b3023 -->
<g id="edge43" class="edge">
<title>eda3e749&#45;1278&#45;4c44&#45;853f&#45;56635268cfce&#45;&gt;e86a73b7&#45;9a9c&#45;4fff&#45;bed8&#45;d8e7aa2b3023</title>
<path fill="none" stroke="black" d="M2171.09,-533.85C2130.43,-524.55 2032.12,-502.06 1961.62,-485.94"/>
<polygon fill="black" stroke="black" points="1962.39,-482.52 1951.86,-483.71 1960.83,-489.35 1962.39,-482.52"/>
</g>
<!-- 292de749&#45;a0f9&#45;487e&#45;93d5&#45;0ebc97057ea7 -->
<g id="node45" class="node">
<title>292de749&#45;a0f9&#45;487e&#45;93d5&#45;0ebc97057ea7</title>
<ellipse fill="#ffff80" stroke="black" cx="2087.83" cy="-466.92" rx="75.82" ry="21.43"/>
<text text-anchor="middle" x="2087.83" y="-461.92" font-family="Times,serif" font-size="20.00">On(b,table)</text>
</g>
<!-- eda3e749&#45;1278&#45;4c44&#45;853f&#45;56635268cfce&#45;&gt;292de749&#45;a0f9&#45;487e&#45;93d5&#45;0ebc97057ea7 -->
<g id="edge44" class="edge">
<title>eda3e749&#45;1278&#45;4c44&#45;853f&#45;56635268cfce&#45;&gt;292de749&#45;a0f9&#45;487e&#45;93d5&#45;0ebc97057ea7</title>
<path fill="none" stroke="black" d="M2171.12,-525.25C2157.92,-516.17 2139.82,-503.71 2123.87,-492.72"/>
<polygon fill="black" stroke="black" points="2125.49,-489.59 2115.27,-486.8 2121.52,-495.36 2125.49,-489.59"/>
</g>
<!-- 0599f579&#45;a99d&#45;42db&#45;84ba&#45;aa11cd4e4942 -->
<g id="node46" class="node">
<title>0599f579&#45;a99d&#45;42db&#45;84ba&#45;aa11cd4e4942</title>
<ellipse fill="#ffff80" stroke="black" cx="2292.83" cy="-466.92" rx="111.95" ry="21.43"/>
<text text-anchor="middle" x="2292.83" y="-461.92" font-family="Times,serif" font-size="20.00">IsEmpty(place_b)</text>
</g>
<!-- eda3e749&#45;1278&#45;4c44&#45;853f&#45;56635268cfce&#45;&gt;0599f579&#45;a99d&#45;42db&#45;84ba&#45;aa11cd4e4942 -->
<g id="edge45" class="edge">
<title>eda3e749&#45;1278&#45;4c44&#45;853f&#45;56635268cfce&#45;&gt;0599f579&#45;a99d&#45;42db&#45;84ba&#45;aa11cd4e4942</title>
<path fill="none" stroke="black" d="M2208.72,-525.25C2221.76,-516.37 2239.53,-504.26 2255.38,-493.45"/>
<polygon fill="black" stroke="black" points="2257.65,-496.14 2263.94,-487.61 2253.71,-490.35 2257.65,-496.14"/>
</g>
<!-- c55ce5ef&#45;ca7d&#45;4f81&#45;9d33&#45;943f77bad929 -->
<g id="node47" class="node">
<title>c55ce5ef&#45;ca7d&#45;4f81&#45;9d33&#45;943f77bad929</title>
<ellipse fill="#ffff80" stroke="black" cx="2521.83" cy="-466.92" rx="98.99" ry="21.43"/>
<text text-anchor="middle" x="2521.83" y="-461.92" font-family="Times,serif" font-size="20.00">IsHandEmpty()</text>
</g>
<!-- eda3e749&#45;1278&#45;4c44&#45;853f&#45;56635268cfce&#45;&gt;c55ce5ef&#45;ca7d&#45;4f81&#45;9d33&#45;943f77bad929 -->
<g id="edge46" class="edge">
<title>eda3e749&#45;1278&#45;4c44&#45;853f&#45;56635268cfce&#45;&gt;c55ce5ef&#45;ca7d&#45;4f81&#45;9d33&#45;943f77bad929</title>
<path fill="none" stroke="black" d="M2208.63,-534.16C2252.94,-524.79 2365.99,-500.88 2443.42,-484.5"/>
<polygon fill="black" stroke="black" points="2444.56,-487.84 2453.62,-482.34 2443.11,-480.99 2444.56,-487.84"/>
</g>
<!-- 6e7cd7d6&#45;6b61&#45;49ae&#45;be2d&#45;42c2b84f87dd -->
<g id="node48" class="node">
<title>6e7cd7d6&#45;6b61&#45;49ae&#45;be2d&#45;42c2b84f87dd</title>
<ellipse fill="#ffff80" stroke="black" cx="2714.83" cy="-466.92" rx="75.82" ry="21.43"/>
<text text-anchor="middle" x="2714.83" y="-461.92" font-family="Times,serif" font-size="20.00">On(c,table)</text>
</g>
<!-- eda3e749&#45;1278&#45;4c44&#45;853f&#45;56635268cfce&#45;&gt;6e7cd7d6&#45;6b61&#45;49ae&#45;be2d&#45;42c2b84f87dd -->
<g id="edge47" class="edge">
<title>eda3e749&#45;1278&#45;4c44&#45;853f&#45;56635268cfce&#45;&gt;6e7cd7d6&#45;6b61&#45;49ae&#45;be2d&#45;42c2b84f87dd</title>
<path fill="none" stroke="black" d="M2208.39,-536.83C2269.19,-532.38 2467.77,-516.5 2629.83,-488.13 2636.56,-486.95 2643.55,-485.57 2650.5,-484.08"/>
<polygon fill="black" stroke="black" points="2651.61,-487.42 2660.62,-481.84 2650.1,-480.58 2651.61,-487.42"/>
</g>
<!-- 034001c3&#45;8fd5&#45;4500&#45;93e4&#45;ea69f9e0b2ed -->
<g id="node49" class="node">
<title>034001c3&#45;8fd5&#45;4500&#45;93e4&#45;ea69f9e0b2ed</title>
<polygon fill="lightgreen" stroke="black" points="2907.33,-484.92 2808.33,-484.92 2808.33,-448.92 2907.33,-448.92 2907.33,-484.92"/>
<text text-anchor="middle" x="2857.83" y="-461.92" font-family="Times,serif" font-size="20.00">PickUp(b)</text>
</g>
<!-- eda3e749&#45;1278&#45;4c44&#45;853f&#45;56635268cfce&#45;&gt;034001c3&#45;8fd5&#45;4500&#45;93e4&#45;ea69f9e0b2ed -->
<g id="edge48" class="edge">
<title>eda3e749&#45;1278&#45;4c44&#45;853f&#45;56635268cfce&#45;&gt;034001c3&#45;8fd5&#45;4500&#45;93e4&#45;ea69f9e0b2ed</title>
<path fill="none" stroke="black" d="M2208.55,-538.31C2283.71,-538.68 2570.61,-536.64 2799.83,-488.13 2800.74,-487.94 2801.66,-487.74 2802.59,-487.52"/>
<polygon fill="black" stroke="black" points="2803.76,-490.83 2812.55,-484.92 2801.99,-484.06 2803.76,-490.83"/>
</g>
</g>
</svg>
